<svg width="142" height="36" viewBox="0 0 142 36" fill="none" xmlns="http://www.w3.org/2000/svg">
<g clip-path="url(#clip0_6293_8939)">
<path d="M29.7363 25.2071H4.25871C1.91368 25.2071 0.0137181 23.3253 0 21.0202V20.9445C0.0114318 20.038 0.315517 19.2514 0.823849 18.5712L0.844426 18.533L13.619 1.65635L13.6236 1.65336C14.3873 0.661492 15.5853 0.0194777 16.9419 0H17.0707C18.4074 0.0187285 19.5834 0.63752 20.3539 1.59792V1.60166L33.1292 18.4716H33.1483C33.6902 19.1705 34.0148 20.0478 34.0148 20.9962C34.0148 23.3118 32.1019 25.2071 29.7462 25.2071H29.7363Z" fill="#FF2E17"/>
<path d="M17.0552 17.9744L29.2475 24.017C29.2475 24.017 29.592 24.2252 29.7841 24.0222C29.922 23.8664 29.8786 23.6806 29.8275 23.5817C28.663 21.4459 26.6129 17.9527 23.9173 14.4107L23.9036 14.4137L19.4216 8.40334L19.4269 8.4011C18.8751 7.67743 18.004 7.20996 17.0209 7.20996H17.0079C16.0256 7.20996 15.1552 7.67743 14.6035 8.4011L14.6073 8.40334L10.1253 14.4137L10.1123 14.4107C7.41441 17.9527 5.36736 21.4459 4.20361 23.5817C4.14721 23.6806 4.1091 23.8664 4.24628 24.0222C4.43605 24.2252 4.78053 24.017 4.78053 24.017L16.9736 17.9744L17.0125 17.9527L17.0552 17.9744Z" fill="white"/>
<path d="M131.085 12.7941L141.999 3.08893L133.046 3.09418L126.66 8.82361L120.261 3.08594L111.473 3.08893L122.277 12.7559L111.59 22.3404L120.345 22.3486L126.688 16.7038L133.003 22.3531L141.736 22.3494L131.085 12.7941Z" fill="#102179"/>
<path d="M69.7776 22.5371C69.7403 23.4705 69.4903 24.0886 69.0284 24.386C68.4828 24.7426 67.3739 24.9209 65.7018 24.9209C64.9991 24.9209 64.4436 24.9104 64 24.8819V29.5064C64.3163 29.5094 64.6463 29.5124 64.9991 29.5124C67.3365 29.5116 68.7556 29.4914 69.2548 29.4517C73.2788 29.1513 75.4142 27.3294 75.6734 23.9822C75.7107 23.1162 75.7343 14.7438 75.7343 12.9631V3.01074H69.7776V22.5371Z" fill="#102179"/>
<path fill-rule="evenodd" clip-rule="evenodd" d="M98.0185 14.8908L93.7446 7.20759L89.6162 14.8908H98.0185ZM108.565 22.35H102.047L100.319 19.2156H87.2368L85.5449 22.35H78.7773L89.8189 3.06934H97.8249L108.565 22.35Z" fill="#102179"/>
<path fill-rule="evenodd" clip-rule="evenodd" d="M56.1793 14.8947L51.9001 7.21225L47.7724 14.8947H56.1793ZM66.7255 22.3539H60.2033L58.4787 19.2195H45.3923L43.705 22.3539H36.9336L47.9744 3.07324H55.9812L66.7255 22.3539Z" fill="#102179"/>
<path d="M0.546875 35.9422V32.5479H1.23583L2.05053 34.9511C2.12827 35.1743 2.1839 35.3414 2.2182 35.4538C2.25707 35.3302 2.31804 35.1489 2.39958 34.9091L3.22648 32.5479H3.84379V35.9422H3.40329V33.1015L2.39958 35.9422H1.98575L0.990427 33.0535V35.9422H0.546875Z" fill="#2C2E35"/>
<path fill-rule="evenodd" clip-rule="evenodd" d="M9.34298 34.549H10.5151L10.1539 33.6089C10.0457 33.3234 9.96411 33.089 9.90847 32.9054C9.86503 33.1219 9.80482 33.3392 9.72252 33.5527L9.34298 34.549ZM8.34766 35.9424L9.67526 32.5488H10.1661L11.5806 35.9424H11.0585L10.6576 34.9139H9.21418L8.83465 35.9424H8.34766Z" fill="#2C2E35"/>
<path d="M16.0703 35.9422V32.5479H16.5276V34.2312L18.2416 32.5479H18.8635L17.4154 33.9233L18.9298 35.9422H18.3262L17.0915 34.2244L16.5276 34.7661V35.9422H16.0703Z" fill="#2C2E35"/>
<path d="M23.4688 35.9422V32.5479H25.9616V32.9494H23.926V33.9885H25.8344V34.3862H23.926V35.5414H26.0417V35.9422H23.4688Z" fill="#2C2E35"/>
<path d="M30.6641 34.8518L31.0977 34.8143C31.1168 34.9851 31.1633 35.1244 31.2395 35.2323C31.3096 35.3409 31.4277 35.4293 31.5878 35.4968C31.7425 35.5634 31.9185 35.5972 32.1151 35.5972C32.2904 35.5972 32.4444 35.5717 32.577 35.5207C32.7142 35.4705 32.8125 35.4001 32.8742 35.311C32.9405 35.2226 32.9679 35.1252 32.9679 35.0211C32.9679 34.9169 32.9405 34.821 32.8788 34.7424C32.8125 34.663 32.7142 34.5963 32.5678 34.5424C32.4749 34.5064 32.2698 34.451 31.9551 34.3761C31.635 34.3011 31.4132 34.2307 31.286 34.1648C31.1213 34.0801 30.9986 33.9745 30.9186 33.8479C30.8378 33.7228 30.7967 33.582 30.7959 33.4261C30.7967 33.2546 30.847 33.0943 30.9468 32.9459C31.0466 32.7969 31.1907 32.6837 31.3805 32.6066C31.5695 32.5294 31.7806 32.4912 32.0122 32.4912C32.2668 32.4912 32.4924 32.5317 32.6905 32.6126C32.8834 32.6935 33.0342 32.8133 33.1379 32.9699C33.2469 33.128 33.3033 33.3055 33.3124 33.5048L32.8696 33.537C32.8506 33.322 32.766 33.1602 32.6341 33.0508C32.497 32.9407 32.2996 32.8868 32.0305 32.8868C31.7615 32.8868 31.5542 32.937 31.4277 33.0366C31.3004 33.1355 31.2395 33.2546 31.2395 33.3962C31.2395 33.5175 31.2814 33.6179 31.3713 33.6966C31.4559 33.776 31.6914 33.8554 32.0587 33.9386C32.4314 34.021 32.686 34.0936 32.8224 34.1551C33.0243 34.2465 33.1722 34.3618 33.2652 34.5012C33.3688 34.6412 33.4161 34.8023 33.4161 34.9844C33.4161 35.1664 33.3597 35.3342 33.256 35.4938C33.1524 35.6541 33.0015 35.7784 32.8033 35.8668C32.612 35.953 32.3979 35.9972 32.1616 36.0002H32.109C31.8072 35.9972 31.5527 35.9522 31.3523 35.8661C31.1412 35.7762 30.9742 35.6421 30.8523 35.4623C30.7349 35.2825 30.6686 35.0787 30.6641 34.8518Z" fill="#2C2E35"/>
<path d="M46.1356 34.7529L46.5929 34.866C46.4938 35.2346 46.3238 35.5162 46.0746 35.7095C45.8292 35.9036 45.5229 36.0002 45.1647 36.0002C44.8065 36.0002 44.4864 35.926 44.2555 35.7769C44.0192 35.6271 43.8454 35.4129 43.7227 35.1297C43.6 34.8473 43.5391 34.5439 43.5391 34.2202C43.5391 33.8666 43.6092 33.5587 43.7464 33.295C43.8828 33.0313 44.0764 32.8328 44.3301 32.6965C44.5862 32.5594 44.8674 32.4912 45.1738 32.4912C45.5183 32.4912 45.8056 32.5774 46.0411 32.7504C46.2766 32.9235 46.4374 33.1662 46.5365 33.4793L46.0838 33.5835C46.0038 33.337 45.8856 33.1564 45.7347 33.0441C45.5793 32.9317 45.391 32.8748 45.1601 32.8748C44.8964 32.8748 44.6746 32.9377 44.4955 33.0628C44.321 33.1879 44.1937 33.355 44.1183 33.5662C44.0489 33.7767 44.0139 33.994 44.0146 34.218C44.0146 34.5064 44.0565 34.7581 44.1373 34.9731C44.2227 35.1889 44.3591 35.3499 44.5382 35.4563C44.7219 35.5619 44.9154 35.6159 45.1273 35.6159C45.3819 35.6159 45.5983 35.5432 45.7774 35.3979C45.9512 35.254 46.0746 35.0383 46.1356 34.7529Z" fill="#2C2E35"/>
<path fill-rule="evenodd" clip-rule="evenodd" d="M51.6351 34.296C51.6351 34.7057 51.7433 35.0279 51.9689 35.2631C52.1914 35.4983 52.4741 35.6159 52.8133 35.6159C53.1524 35.6159 53.4397 35.4968 53.6608 35.2586C53.8833 35.0219 53.9953 34.6848 53.9953 34.248C53.9953 33.9716 53.9488 33.7304 53.8543 33.5243C53.7553 33.3191 53.6188 33.1588 53.4344 33.0449C53.2515 32.9318 53.048 32.8756 52.8171 32.8756C52.4924 32.8756 52.2188 32.9842 51.9879 33.2022C51.7478 33.4217 51.6351 33.7865 51.6351 34.296ZM51.1641 34.29C51.1648 33.7259 51.3188 33.2854 51.6259 32.967C51.9368 32.6486 52.3324 32.4883 52.8171 32.4883C53.1379 32.4883 53.4207 32.5639 53.6798 32.7138C53.9344 32.8621 54.1279 33.0711 54.2598 33.3393C54.4008 33.6067 54.4625 33.9109 54.4625 34.251C54.4625 34.5911 54.3962 34.902 54.2552 35.174C54.1089 35.4451 53.9107 35.6512 53.6569 35.7912C53.3963 35.9306 53.1151 36.0003 52.8133 36.0003C52.4924 36.0003 52.196 35.9231 51.9414 35.7688C51.6869 35.6137 51.4933 35.4032 51.3614 35.1365C51.2342 34.8705 51.1641 34.5881 51.1641 34.29Z" fill="#2C2E35"/>
<path d="M59.1992 35.9422V32.5479H59.6656L61.4802 35.2125V32.5479H61.9185V35.9422H61.4475L59.6374 33.276V35.9422H59.1992Z" fill="#2C2E35"/>
<path d="M69.2958 34.7529L69.7485 34.866C69.6547 35.2346 69.4832 35.5162 69.234 35.7095C68.9848 35.9036 68.683 36.0002 68.3202 36.0002C67.9575 36.0002 67.6465 35.926 67.4156 35.7769C67.1793 35.6271 67.0048 35.4129 66.8783 35.1297C66.7602 34.8473 66.6992 34.5439 66.6992 34.2202C66.7 33.8666 66.7686 33.5587 66.9065 33.295C67.0429 33.0313 67.2358 32.8328 67.4911 32.6965C67.7456 32.5594 68.023 32.4912 68.3294 32.4912C68.6739 32.4912 68.9658 32.5774 69.1967 32.7504C69.4375 32.9235 69.5976 33.1662 69.6913 33.4793L69.2432 33.5835C69.1631 33.3362 69.0458 33.1564 68.8903 33.0441C68.7394 32.9317 68.5458 32.8748 68.3202 32.8748C68.052 32.8748 67.8348 32.9377 67.6557 33.0628C67.4766 33.1879 67.3493 33.355 67.2784 33.5662C67.2083 33.7767 67.1702 33.994 67.1702 34.218C67.1702 34.5064 67.2129 34.7581 67.2975 34.9731C67.3821 35.1889 67.5193 35.3499 67.6976 35.4563C67.8782 35.5627 68.0748 35.6159 68.2875 35.6159C68.5374 35.6159 68.7531 35.5432 68.9322 35.3979C69.1121 35.254 69.2302 35.0383 69.2958 34.7529Z" fill="#2C2E35"/>
<path fill-rule="evenodd" clip-rule="evenodd" d="M74.9299 34.0464H75.91C76.1181 34.0464 76.2812 34.0254 76.4001 33.9827C76.5128 33.94 76.6073 33.8726 76.6683 33.7789C76.73 33.686 76.7628 33.5841 76.7628 33.4748C76.7621 33.3144 76.7026 33.1826 76.5837 33.0792C76.4664 32.9758 76.2774 32.9241 76.019 32.9241H74.9299V34.0464ZM74.4727 35.9424V32.5488H76.0045C76.3109 32.5488 76.5418 32.5795 76.7064 32.6402C76.8672 32.7009 76.9892 32.8088 77.0882 32.9631C77.182 33.1174 77.2292 33.2882 77.2292 33.4748C77.2292 33.716 77.1538 33.9183 76.9937 34.0838C76.8337 34.2486 76.5883 34.3535 76.2591 34.3985C76.3764 34.4546 76.4709 34.5116 76.5319 34.5678C76.6683 34.6876 76.7956 34.8382 76.9137 35.0187L77.5166 35.9424H76.9373L76.4801 35.2367C76.3482 35.033 76.24 34.8772 76.1554 34.7685C76.0655 34.6599 75.99 34.585 75.9199 34.5415C75.8536 34.4988 75.7827 34.4689 75.7126 34.4516C75.66 34.4412 75.5754 34.4352 75.4527 34.4352H74.9299V35.9424H74.4727Z" fill="#2C2E35"/>
<path d="M82.1055 35.9422V32.5479H84.5984V32.9494H82.5627V33.9885H84.4711V34.3862H82.5627V35.5414H84.6784V35.9422H82.1055Z" fill="#2C2E35"/>
<path d="M90.3393 35.9422V32.9494H89.1992V32.5479H91.9367V32.9494H90.7966V35.9422H90.3393Z" fill="#2C2E35"/>
<path d="M96.5586 35.9422V32.5479H99.0568V32.9494H97.0159V33.9885H98.9242V34.3862H97.0159V35.5414H99.1368V35.9422H96.5586Z" fill="#2C2E35"/>
<path d="M109.25 34.8518L109.678 34.8143C109.702 34.9851 109.749 35.1244 109.82 35.2323C109.896 35.3409 110.014 35.4293 110.168 35.4968C110.325 35.5634 110.504 35.5972 110.696 35.5972C110.876 35.5972 111.031 35.5717 111.158 35.5207C111.29 35.4705 111.389 35.4001 111.459 35.311C111.526 35.2226 111.554 35.1252 111.554 35.0211C111.554 34.9169 111.526 34.821 111.459 34.7424C111.398 34.663 111.295 34.5963 111.148 34.5424C111.059 34.5064 110.852 34.451 110.536 34.3761C110.22 34.3011 109.999 34.2307 109.867 34.1648C109.707 34.0794 109.58 33.9745 109.505 33.8479C109.419 33.7228 109.377 33.582 109.377 33.4261C109.377 33.2546 109.429 33.095 109.527 32.9459C109.627 32.7961 109.768 32.6837 109.962 32.6066C110.149 32.5294 110.362 32.4912 110.593 32.4912C110.852 32.4912 111.078 32.5317 111.272 32.6126C111.469 32.6935 111.62 32.8133 111.724 32.9699C111.827 33.128 111.889 33.3055 111.889 33.5048L111.455 33.537C111.432 33.3228 111.352 33.1602 111.215 33.0508C111.079 32.9414 110.879 32.8868 110.616 32.8868C110.338 32.8868 110.136 32.937 110.014 33.0366C109.882 33.1355 109.82 33.2546 109.82 33.3962C109.82 33.5175 109.867 33.6179 109.957 33.6966C110.042 33.776 110.273 33.8554 110.645 33.9386C111.017 34.021 111.272 34.0936 111.408 34.1551C111.606 34.2465 111.757 34.3618 111.851 34.5012C111.946 34.6412 111.993 34.8023 111.992 34.9844C111.992 35.1641 111.94 35.3342 111.837 35.4938C111.734 35.6541 111.583 35.7784 111.385 35.8668C111.193 35.953 110.979 35.9972 110.743 36.0002H110.691C110.392 35.9972 110.139 35.9522 109.933 35.8661C109.721 35.7762 109.561 35.6421 109.438 35.4623C109.316 35.2825 109.255 35.0787 109.25 34.8518Z" fill="#2C2E35"/>
<path d="M116.777 35.9422V32.5479H119.27V32.9494H117.235V33.9885H119.143V34.3862H117.235V35.5414H119.35V35.9422H116.777Z" fill="#2C2E35"/>
<path d="M124.125 35.9422V32.5479H124.596L126.411 35.2125V32.5479H126.844V35.9422H126.378L124.564 33.276V35.9422H124.125Z" fill="#2C2E35"/>
<path d="M131.609 34.8518L132.038 34.8143C132.057 34.9851 132.104 35.1244 132.179 35.2323C132.254 35.3409 132.372 35.4293 132.523 35.4968C132.685 35.5634 132.862 35.5972 133.056 35.5972C133.23 35.5972 133.381 35.5717 133.518 35.5207C133.65 35.4705 133.749 35.4001 133.814 35.311C133.88 35.2226 133.913 35.1252 133.913 35.0211C133.913 34.9169 133.885 34.821 133.819 34.7424C133.758 34.663 133.654 34.5963 133.508 34.5424C133.419 34.5064 133.211 34.451 132.89 34.3761C132.575 34.3011 132.354 34.2307 132.227 34.1648C132.067 34.0794 131.939 33.9745 131.859 33.8479C131.778 33.7228 131.737 33.582 131.737 33.4261C131.737 33.2546 131.787 33.0943 131.887 32.9459C131.987 32.7961 132.128 32.6837 132.32 32.6066C132.51 32.5294 132.721 32.4912 132.952 32.4912C133.207 32.4912 133.432 32.5317 133.631 32.6126C133.829 32.6935 133.975 32.8133 134.083 32.9699C134.187 33.128 134.239 33.3055 134.248 33.5048L133.814 33.537C133.786 33.322 133.711 33.1602 133.574 33.0508C133.438 32.9407 133.235 32.8868 132.976 32.8868C132.693 32.8868 132.495 32.937 132.368 33.0366C132.24 33.1355 132.174 33.2546 132.174 33.3962C132.174 33.5175 132.222 33.6179 132.311 33.6966C132.4 33.776 132.627 33.8554 132.999 33.9386C133.371 34.0217 133.631 34.0929 133.768 34.1551C133.965 34.2465 134.116 34.3618 134.21 34.5012C134.305 34.6412 134.351 34.8023 134.351 34.9844C134.351 35.1664 134.3 35.3342 134.196 35.4938C134.089 35.6541 133.936 35.7784 133.739 35.8668C133.551 35.953 133.339 35.9972 133.102 36.0002H133.051C132.751 35.9972 132.498 35.9522 132.292 35.8661C132.08 35.7762 131.916 35.6421 131.798 35.4623C131.675 35.2825 131.614 35.0787 131.609 34.8518Z" fill="#2C2E35"/>
<path d="M139.133 35.9422V32.5479H141.63V32.9494H139.59V33.9885H141.504V34.3862H139.59V35.5414H141.706V35.9422H139.133Z" fill="#2C2E35"/>
</g>
<defs>
<clipPath id="clip0_6293_8939">
<rect width="142" height="36" fill="white"/>
</clipPath>
</defs>
</svg>
