<svg width="100" height="29" viewBox="0 0 100 29" fill="none" xmlns="http://www.w3.org/2000/svg">
<path d="M0 0V0.733025C30.1588 11.0323 69.0437 11.0323 100 0.733025V0C69.8412 10.2993 30.9497 10.2993 0 0Z" fill="#0B1128"/>
<path d="M84.4046 8.80984C84.4046 8.73047 84.3717 8.6572 84.3126 8.59614L80.1688 4.74335C78.6649 3.24131 76.5503 2.39259 74.3437 2.41702C72.1372 2.39259 70.016 3.24131 68.5187 4.74335L64.3748 8.59614C64.2501 8.71215 64.2501 8.90143 64.3748 9.01744L65.616 10.1837C65.6751 10.2386 65.7605 10.2691 65.8459 10.2691C65.9312 10.2691 66.0166 10.2386 66.0757 10.1837L71.9008 4.76777C72.5115 4.13276 73.3915 3.78473 74.3043 3.80304C75.2172 3.77862 76.0971 4.13276 76.7079 4.76777L82.5329 10.1837C82.592 10.2447 82.6774 10.2752 82.7628 10.2691C82.8481 10.2691 82.9269 10.2386 82.9926 10.1837L84.2469 9.01744C84.3323 8.9747 84.398 8.89532 84.4111 8.80374L84.4046 8.80984Z" fill="#0B1128"/>
<path d="M52.0517 15.0425C51.9932 14.9879 51.9607 14.9091 51.9542 14.8304V9.42415C51.8762 7.38773 52.7212 5.41192 54.2812 3.98764C55.8087 2.527 57.9278 1.7391 60.1118 1.81789H65.9099C66.0854 1.81789 66.2284 1.95123 66.2284 2.11487L66.2349 3.74521C66.2349 3.824 66.2024 3.89673 66.1374 3.95734C66.0789 4.01795 66.0009 4.04825 65.9099 4.04825H57.7523C56.8488 3.99977 55.9713 4.32705 55.3472 4.93918C54.6907 5.52102 54.3397 6.33922 54.3917 7.18167V14.7879C54.3917 14.8667 54.3592 14.9455 54.3007 15.0001C54.2422 15.0546 54.1577 15.0849 54.0732 15.091H52.3182C52.2272 15.1152 52.1232 15.1031 52.0452 15.0485L52.0517 15.0425Z" fill="#0B1128"/>
<path d="M49.9384 15.0135C49.8771 15.068 49.7885 15.0983 49.7 15.0983H43.622C41.3325 15.1709 39.1112 14.3841 37.5099 12.9315C35.8677 11.5092 34.9819 9.53611 35.0705 7.50251V2.10983C35.0705 1.94642 35.2204 1.81326 35.4044 1.81326H37.2373C37.3259 1.80721 37.4077 1.83747 37.4758 1.89194C37.544 1.94642 37.578 2.01904 37.5712 2.10378V9.69953C37.5167 10.5408 37.8847 11.3579 38.5729 11.9389C39.227 12.5502 40.1469 12.877 41.094 12.8286H49.6454C49.734 12.8286 49.8226 12.8589 49.8839 12.9194C49.9452 12.9739 49.9793 13.0526 49.9861 13.1312V14.7654C50.0134 14.8501 49.9998 14.9469 49.9384 15.0196V15.0135Z" fill="#0B1128"/>
<path d="M33.7581 8.80984C33.7581 8.73047 33.7252 8.6572 33.6661 8.59614L29.5223 4.74335C28.0184 3.24131 25.9038 2.39259 23.6972 2.41702C21.4907 2.39259 19.3695 3.24131 17.8722 4.74335L13.7283 8.59614C13.6036 8.71215 13.6036 8.90143 13.7283 9.01744L14.9695 10.1837C15.0286 10.2386 15.114 10.2691 15.1994 10.2691C15.2848 10.2691 15.3701 10.2386 15.4292 10.1837L21.2543 4.76777C21.865 4.13276 22.745 3.78473 23.6578 3.80304C24.5707 3.77862 25.4507 4.13276 26.0614 4.76777L31.8864 10.1837C31.9455 10.2447 32.0309 10.2752 32.1163 10.2691C32.2017 10.2691 32.2805 10.2386 32.3461 10.1837L33.6005 9.01744C33.6858 8.9747 33.7515 8.89532 33.7646 8.80374" fill="#0B1128"/>
<path d="M100 19.3311H0V19.9352H100V19.3311Z" fill="#0B1128"/>
<path d="M22.0157 28.902C21.9571 28.9565 21.8724 28.9867 21.7877 28.9928H15.9766C13.7877 29.0654 11.6639 28.2789 10.133 26.827C8.56293 25.4054 7.71603 23.4332 7.80072 21.4005V16.0042C7.80072 15.8409 7.94404 15.7078 8.11993 15.7078H9.87238C9.95707 15.7017 10.0352 15.732 10.1004 15.7864C10.1655 15.8409 10.1981 15.9135 10.1981 15.9982V23.5905C10.146 24.4314 10.4978 25.2481 11.1558 25.8288C11.7812 26.4398 12.6607 26.7665 13.5662 26.7181H21.7421C21.8268 26.7181 21.9115 26.7484 21.9701 26.8089C22.0288 26.8633 22.0613 26.942 22.0678 27.0206V28.654C22.0939 28.7387 22.0809 28.8355 22.0222 28.9081L22.0157 28.902Z" fill="#0B1128"/>
<path d="M96.6955 28.902C96.6359 28.9565 96.5498 28.9867 96.4637 28.9928H90.5553C88.3298 29.0654 86.1704 28.2789 84.6139 26.827C83.0176 25.4054 82.1565 23.4332 82.2426 21.4005V16.0042C82.2426 15.8409 82.3883 15.7078 82.5671 15.7078H84.3489C84.435 15.7017 84.5145 15.732 84.5808 15.7864C84.647 15.8409 84.6801 15.9135 84.6735 15.9982V23.5905C84.6205 24.4314 84.9782 25.2481 85.6472 25.8288C86.283 26.4398 87.1773 26.7665 88.0979 26.7181H96.4107C96.4968 26.7181 96.5829 26.7484 96.6425 26.8028C96.7021 26.8573 96.7353 26.9359 96.7419 27.0146V28.648C96.7684 28.7327 96.7551 28.8295 96.6955 28.902ZM80.3813 22.4713C80.3813 22.3926 80.3482 22.32 80.2886 22.2595L76.109 18.4422C74.5922 16.954 72.4594 16.1131 70.2338 16.1373C68.0082 16.1131 65.8688 16.954 64.3586 18.4422L60.179 22.2595C60.0531 22.3745 60.0531 22.562 60.179 22.677L61.4309 23.8325C61.4905 23.8869 61.5766 23.9171 61.6627 23.9171C61.7488 23.9171 61.8349 23.8869 61.8945 23.8325L67.7698 18.4664C68.3858 17.8373 69.2734 17.4924 70.1941 17.5106C71.1147 17.4864 72.0023 17.8373 72.6183 18.4664L78.4936 23.8325C78.5532 23.8929 78.6393 23.9232 78.7254 23.9171C78.8115 23.9171 78.891 23.8869 78.9572 23.8325L80.2224 22.677C80.3085 22.6346 80.3747 22.556 80.3879 22.4652L80.3813 22.4713ZM58.7284 22.6528C58.7284 22.7314 58.6953 22.804 58.6357 22.8645L54.4561 26.6818C52.9393 28.17 50.8065 29.0109 48.5809 28.9867C46.3553 29.0109 44.2159 28.17 42.7057 26.6818L38.5261 22.8645C38.4002 22.7496 38.4002 22.562 38.5261 22.4471L39.778 21.2916C39.8376 21.2372 39.9237 21.2069 40.0098 21.2069C40.0959 21.2069 40.182 21.2372 40.2416 21.2916L46.1169 26.6576C46.7329 27.2868 47.6204 27.6316 48.5411 27.6135C49.4618 27.6377 50.3494 27.2868 50.9654 26.6576L56.8406 21.2916C56.9003 21.2311 56.9864 21.2009 57.0725 21.2069C57.1586 21.2069 57.2381 21.2372 57.3043 21.2916L58.5694 22.4471C58.6555 22.4894 58.7218 22.5681 58.735 22.6588M37.1815 22.4773C37.1815 22.3987 37.1484 22.3261 37.0887 22.2656L32.9092 18.4483C31.3923 16.9601 29.2595 16.1192 27.0339 16.1434C24.8084 16.1192 22.6689 16.9601 21.1587 18.4483L16.9792 22.2656C16.8533 22.3805 16.8533 22.5681 16.9792 22.683L18.231 23.8385C18.2906 23.893 18.3768 23.9232 18.4629 23.9232C18.549 23.9232 18.6351 23.893 18.6947 23.8385L24.5699 18.4725C25.1859 17.8433 26.0735 17.4985 26.9942 17.5166C27.9149 17.4924 28.8025 17.8433 29.4185 18.4725L35.2937 23.8385C35.3533 23.899 35.4394 23.9292 35.5255 23.9232C35.6117 23.9232 35.6911 23.893 35.7574 23.8385L37.0225 22.683C37.1086 22.6407 37.1748 22.562 37.1881 22.4713" fill="#0B1128"/>
</svg>
