<svg id="Ebene_1" data-name="Ebene 1" xmlns="http://www.w3.org/2000/svg" xmlns:xlink="http://www.w3.org/1999/xlink" viewBox="0 0 1282.9 800"><defs><style>.cls-1,.cls-4{fill:none;}.cls-2{fill:#00308e;}.cls-3{clip-path:url(#clip-path);}.cls-4{stroke:#00308e;stroke-miterlimit:10;stroke-width:26.41px;}</style><clipPath id="clip-path" transform="translate(-317.88 -140.8)"><rect class="cls-1" x="318" y="141" width="1282.78" height="799.8"/></clipPath></defs><polygon class="cls-2" points="1254.69 547.53 1196.84 674.73 1135.4 547.53 1105.98 547.53 1183.34 704.88 1140.22 800 1168.06 800 1282.9 547.53 1254.69 547.53 1254.69 547.53"/><polygon class="cls-2" points="1047.7 460.53 1047.7 721.09 1073.93 721.09 1073.93 460.53 1047.7 460.53 1047.7 460.53"/><polygon class="cls-2" points="959.85 515.35 990.99 515.35 990.99 482.64 959.85 482.64 959.85 515.35 959.85 515.35"/><polygon class="cls-2" points="962.24 721.13 988.51 721.13 988.51 547.37 962.24 547.37 962.24 721.13 962.24 721.13"/><path class="cls-2" d="M1199.77,688.34v19.44a85.52,85.52,0,0,0-59.07-23.14,88.65,88.65,0,0,0-55.21,19.45c-20.53,17.37-32.31,43.26-32.31,71,0,30.68,13.46,57.7,36.91,74.11a87.44,87.44,0,0,0,51.72,16.36c22.85,0,44-8.8,58-23.85v20.16h25.49V688.34Zm-.74,53.52v63.56c-13,22-34.48,35-57.59,35-12.62,0-24.92-4.07-36.54-12.08-16-11.25-25.49-31.16-25.49-53.27,0-20.85,8.27-39.64,22.68-51.53a62.84,62.84,0,0,1,39-13.81c28.25,0,49.93,19,58,32.09Z" transform="translate(-317.88 -140.8)"/><path class="cls-2" d="M992.32,601.33V707.22A85.05,85.05,0,0,0,934,684.64a88.63,88.63,0,0,0-55.21,19.45c-20.53,17.37-32.31,43.25-32.31,71,0,30.68,13.46,57.7,36.91,74.12a87.5,87.5,0,0,0,51.72,16.35c22.85,0,44-8.8,58-23.85v20.16h25.49V601.33Zm0,140.53v63.56c-13,22-34.48,35-57.59,35-12.63,0-24.93-4.07-36.54-12.08-16-11.24-25.49-31.16-25.49-53.27,0-20.85,8.27-39.64,22.68-51.52a62.79,62.79,0,0,1,39-13.82c28.25,0,49.93,19,58,32.09Z" transform="translate(-317.88 -140.8)"/><path class="cls-2" d="M1509.46,421.55c-13.86-18.74-36.43-29.48-61.9-29.48-22.43,0-42.86,8-56.11,21.77V302h-26.23V569.31h26.23V450.38c12.55-21.11,32.83-33.19,55.74-33.19,17.26,0,32.5,7.8,41.81,21.41,4.75,6.82,9.14,16.37,9.14,39.87v90.84h26.23V477c0-29.69-6-43.65-14.91-55.45Z" transform="translate(-317.88 -140.8)"/><path class="cls-2" d="M1312.85,523.57l-1.77,1.85c-14,14.69-31.2,22.46-49.81,22.46-37.26,0-66.45-28.7-66.45-65.35,0-36,28.48-65.34,63.5-65.34,18.21,0,35.2,7.15,49.14,20.68l2,1.9,16.69-19-1.72-1.72c-17.89-17.9-40.13-27-66.07-27-50.32,0-89.74,39.74-89.74,90.47,0,25.91,10.13,49.37,28.5,66.08,17.31,15.73,40.23,24.39,64.56,24.39A91.92,91.92,0,0,0,1330,543l1.7-1.89-18.88-17.51Z" transform="translate(-317.88 -140.8)"/><path class="cls-2" d="M1157.74,392.84a126.77,126.77,0,0,0-13-.78c-22.07,0-40.21,9.8-50.58,21V395.76H1068V569.31h26.23V452.4c8.79-21.08,28.9-35.21,50.21-35.21a89.06,89.06,0,0,1,9.55.33l2.59.43,3.73-24.69-2.52-.42Z" transform="translate(-317.88 -140.8)"/><path class="cls-2" d="M993.06,395.76v19.45A85.49,85.49,0,0,0,934,392.07a88.62,88.62,0,0,0-55.21,19.44c-20.53,17.37-32.31,43.26-32.31,71,0,30.69,13.46,57.7,36.91,74.12A87.5,87.5,0,0,0,935.1,573c22.85,0,44-8.8,58-23.84v20.15h25.49V395.76Zm-.74,53.52v63.57c-13,21.95-34.48,35-57.59,35-12.62,0-24.92-4.07-36.54-12.08-16-11.24-25.49-31.16-25.49-53.27,0-20.85,8.27-39.64,22.68-51.52a62.81,62.81,0,0,1,39-13.82c28.24,0,49.93,19,58,32.09Z" transform="translate(-317.88 -140.8)"/><g class="cls-3"><polygon class="cls-4" points="13.21 535.32 13.21 87.41 269.98 17.29 269.98 463.79 194.23 484.89 194.23 336.42 450.87 265.11 450.87 712.81 194.08 784.21 13.21 535.32 13.21 535.32"/></g></svg>