<svg width="31" height="39" viewBox="0 0 31 39" fill="none" xmlns="http://www.w3.org/2000/svg">
<path d="M2.738 35.6306H3.61006V38.9154H2.738V38.5682C2.56701 38.7212 2.39495 38.8319 2.22182 38.9003C2.05083 38.9667 1.86488 39 1.66396 39C1.21297 39 0.822896 38.8359 0.493738 38.5078C0.164579 38.1777 0 37.7681 0 37.279C0 36.7718 0.159236 36.3562 0.477707 36.0321C0.796179 35.7081 1.18305 35.5461 1.63831 35.5461C1.84778 35.5461 2.04442 35.5833 2.22823 35.6578C2.41205 35.7322 2.58197 35.8439 2.738 35.9929V35.6306ZM1.81785 36.3069C1.5464 36.3069 1.32091 36.3975 1.14137 36.5786C0.961827 36.7577 0.872056 36.9882 0.872056 37.27C0.872056 37.5538 0.962895 37.7873 1.14457 37.9704C1.32839 38.1536 1.55388 38.2452 1.82106 38.2452C2.09678 38.2452 2.32548 38.1556 2.50716 37.9765C2.68884 37.7953 2.77968 37.5588 2.77968 37.267C2.77968 36.9812 2.68884 36.7497 2.50716 36.5726C2.32548 36.3954 2.09571 36.3069 1.81785 36.3069Z" fill="black"/>
<path d="M4.55239 35.6306H5.30261V36.0442C5.38384 35.8812 5.49177 35.7574 5.62643 35.6729C5.76109 35.5883 5.90857 35.5461 6.06887 35.5461C6.18215 35.5461 6.30078 35.5742 6.42475 35.6306L6.15223 36.3401C6.04963 36.2918 5.96521 36.2676 5.89895 36.2676C5.76429 36.2676 5.64994 36.3461 5.5559 36.5031C5.46399 36.6601 5.41803 36.9681 5.41803 37.427L5.42124 37.587V38.9154H4.55239V35.6306Z" fill="black"/>
<path d="M10.5379 36.2948L9.81012 36.6722C9.67333 36.5373 9.5376 36.4437 9.40295 36.3914C9.27043 36.3391 9.1144 36.3129 8.93486 36.3129C8.60784 36.3129 8.3428 36.4055 8.13975 36.5907C7.93883 36.7738 7.83837 37.0093 7.83837 37.2972C7.83837 37.5769 7.93563 37.8054 8.13013 37.9825C8.32463 38.1596 8.58005 38.2482 8.89638 38.2482C9.28753 38.2482 9.59211 38.1224 9.81012 37.8708L10.4994 38.3146C10.1254 38.7715 9.59745 39 8.91562 39C8.30219 39 7.82128 38.8289 7.47288 38.4867C7.12662 38.1445 6.95349 37.744 6.95349 37.2851C6.95349 36.9671 7.03792 36.6742 7.20678 36.4065C7.37563 36.1388 7.61074 35.9285 7.91211 35.7755C8.21562 35.6225 8.5544 35.5461 8.92844 35.5461C9.2747 35.5461 9.58569 35.6115 9.86142 35.7423C10.1371 35.8711 10.3626 36.0553 10.5379 36.2948Z" fill="black"/>
<path d="M11.5957 34.3625H12.4645V35.9627C12.6355 35.8238 12.8076 35.7202 12.9807 35.6517C13.1538 35.5813 13.3291 35.5461 13.5065 35.5461C13.8527 35.5461 14.1445 35.6588 14.3817 35.8842C14.5848 36.0794 14.6863 36.3663 14.6863 36.7447V38.9154H13.8239V37.4753C13.8239 37.0949 13.8047 36.8372 13.7662 36.7024C13.7277 36.5675 13.6614 36.4669 13.5674 36.4005C13.4755 36.334 13.3611 36.3008 13.2243 36.3008C13.0469 36.3008 12.8941 36.3562 12.7659 36.4669C12.6398 36.5776 12.5521 36.7286 12.503 36.9198C12.4773 37.0184 12.4645 37.2438 12.4645 37.5961V38.9154H11.5957V34.3625Z" fill="black"/>
<path d="M17.4369 35.5461C17.7661 35.5461 18.0749 35.6235 18.3635 35.7785C18.6541 35.9335 18.8807 36.1438 19.0431 36.4095C19.2056 36.6752 19.2868 36.962 19.2868 37.27C19.2868 37.5799 19.2045 37.8698 19.0399 38.1395C18.8775 38.4092 18.6552 38.6205 18.3731 38.7735C18.0909 38.9245 17.7799 39 17.4401 39C16.9399 39 16.5125 38.8329 16.1577 38.4988C15.805 38.1626 15.6287 37.7551 15.6287 37.276C15.6287 36.7628 15.8285 36.3351 16.2282 35.9929C16.5787 35.695 16.9816 35.5461 17.4369 35.5461ZM17.4497 36.322C17.1783 36.322 16.9517 36.4115 16.77 36.5907C16.5905 36.7678 16.5007 36.9952 16.5007 37.273C16.5007 37.5588 16.5894 37.7903 16.7668 37.9674C16.9464 38.1445 17.1729 38.2331 17.4465 38.2331C17.7201 38.2331 17.9477 38.1435 18.1294 37.9644C18.3111 37.7853 18.4019 37.5548 18.4019 37.273C18.4019 36.9912 18.3122 36.7628 18.1326 36.5877C17.9552 36.4105 17.7276 36.322 17.4497 36.322Z" fill="black"/>
<path d="M20.2708 34.3625H21.1397V35.9627C21.3107 35.8238 21.4827 35.7202 21.6558 35.6517C21.829 35.5813 22.0042 35.5461 22.1816 35.5461C22.5279 35.5461 22.8197 35.6588 23.0569 35.8842C23.26 36.0794 23.3615 36.3663 23.3615 36.7447V38.9154H22.4991V37.4753C22.4991 37.0949 22.4798 36.8372 22.4413 36.7024C22.4029 36.5675 22.3366 36.4669 22.2426 36.4005C22.1507 36.334 22.0363 36.3008 21.8995 36.3008C21.7221 36.3008 21.5693 36.3562 21.441 36.4669C21.3149 36.5776 21.2273 36.7286 21.1781 36.9198C21.1525 37.0184 21.1397 37.2438 21.1397 37.5961V38.9154H20.2708V34.3625Z" fill="black"/>
<path d="M24.4673 35.6306H25.3458V36.008C25.4954 35.853 25.6611 35.7373 25.8427 35.6608C26.0266 35.5843 26.2264 35.5461 26.4423 35.5461C26.6603 35.5461 26.8569 35.5964 27.0322 35.697C27.2075 35.7976 27.3485 35.9446 27.4554 36.1378C27.5943 35.9446 27.7643 35.7976 27.9652 35.697C28.1682 35.5964 28.3895 35.5461 28.6288 35.5461C28.8768 35.5461 29.0948 35.6004 29.2829 35.7091C29.471 35.8178 29.6056 35.9597 29.6868 36.1348C29.7702 36.3099 29.8119 36.5947 29.8119 36.9892V38.9154H28.9302V37.2488C28.9302 36.8765 28.8811 36.6249 28.7827 36.4941C28.6844 36.3612 28.5369 36.2948 28.3403 36.2948C28.1907 36.2948 28.056 36.3351 27.9363 36.4156C27.8188 36.4961 27.7311 36.6078 27.6734 36.7507C27.6157 36.8916 27.5869 37.119 27.5869 37.433V38.9154H26.7052V37.3243C26.7052 37.0305 26.6817 36.8181 26.6346 36.6873C26.5898 36.5544 26.5214 36.4558 26.4295 36.3914C26.3376 36.327 26.2264 36.2948 26.096 36.2948C25.9507 36.2948 25.8182 36.3361 25.6985 36.4186C25.5809 36.4991 25.4922 36.6128 25.4324 36.7597C25.3747 36.9067 25.3458 37.1381 25.3458 37.4542V38.9154H24.4673V35.6306Z" fill="black"/>
<path d="M0.0416445 26.2747V24.6377H12.1154C7.96697 23.3083 4.95893 19.4193 4.95893 14.8255C4.95893 9.13623 9.57189 4.52647 15.258 4.52647C20.9473 4.52647 25.5571 9.13943 25.5571 14.8255C25.5571 19.4193 22.5523 23.3083 18.4006 24.6377H30.468V0H0V30.4744H30.4744V26.2747H0.0416445Z" fill="#ED1C24"/>
</svg>
