<svg xmlns="http://www.w3.org/2000/svg" width="182.823" height="40.627" viewBox="0 0 182.823 40.627">
  <g id="Group_12347" data-name="Group 12347" transform="translate(-178.749 -30.125)">
    <g id="ELKON-yeni-logo" transform="translate(178.75 30.125)">
      <path id="Combined_Shape_Copy" data-name="Combined Shape Copy" d="M171.275,40.627v-22.1a6.973,6.973,0,0,0-13.941,0v22.1H145.786v-22.1a18.518,18.518,0,0,1,37.036,0v22.1Zm-82.483,0-9.416-10.1V40.61H67.837V0H79.376V10.09L88.791,0h15.736L85.638,20.3l18.894,20.318ZM44.955,22.1V0H56.5V22.1a6.977,6.977,0,0,0,6.972,6.973L63.466,40.61A18.534,18.534,0,0,1,44.955,22.1Zm76.181,18.467a20.283,20.283,0,1,1,0-40.566h.022a20.283,20.283,0,0,1-.017,40.566ZM114.948,14.1a8.744,8.744,0,0,0,6.185,14.926h.022A8.744,8.744,0,1,0,114.948,14.1ZM20.279,40.566A20.283,20.283,0,0,1,20.283,0H20.3A20.289,20.289,0,0,1,40.559,20.282a20.643,20.643,0,0,1-.365,3.847H12.432a8.7,8.7,0,0,0,6.81,4.838,8.879,8.879,0,0,0,1.037.062A8.709,8.709,0,0,0,27,25.87l8.882,7.381a20.235,20.235,0,0,1-15.6,7.315Zm-4.6-27.7a8.742,8.742,0,0,0-3.222,3.568H28.146A8.752,8.752,0,0,0,20.3,11.547v-.009a8.743,8.743,0,0,0-4.619,1.327Z" fill="#fff"/>
    </g>
  </g>
</svg>
