<?xml version="1.0" encoding="UTF-8"?>
<svg width="146px" height="40px" viewBox="0 0 146 40" version="1.1" xmlns="http://www.w3.org/2000/svg" xmlns:xlink="http://www.w3.org/1999/xlink">
    <title>Group</title>
    <defs>
        <rect id="path-1" x="0" y="0" width="152" height="51"></rect>
    </defs>
    <g id="Page-1" stroke="none" stroke-width="1" fill="none" fill-rule="evenodd">
        <g id="Group" transform="translate(-3, -6)">
            <mask id="mask-2" fill="white">
                <use xlink:href="#path-1"></use>
            </mask>
            <g id="Rectangle"></g>
            <g id="Logo_ENERPARC_rgb" mask="url(#mask-2)">
                <g transform="translate(3, 6)">
                    <polygon id="Fill-1" fill="#004682" points="0 9 0 19 10 19 10 17.2438501 1.78655438 17.2438501 1.78655438 14.6752385 7.25694309 14.6752385 7.25694309 12.9190885 1.78655438 12.9190885 1.78655438 10.7561499 9.6507986 10.7561499 9.6507986 9"></polygon>
                    <polygon id="Fill-2" fill="#004682" points="27 19 24.0049002 19 17.010678 10.6577548 17.010678 19 15 19 15 9 17.9934908 9 24.9906385 17.3450521 24.9906385 9 27 9"></polygon>
                    <polygon id="Fill-3" fill="#004682" points="42 17.2426106 33.8146056 17.2426106 33.8146056 14.6752149 39.2670029 14.6752149 39.2670029 12.9176857 33.8146056 12.9176857 33.8146056 10.7559919 41.6516264 10.7559919 41.6516264 9 32 9 32 19 42 19"></polygon>
                    <g id="Group-18" stroke-width="1" fill="none" transform="translate(48, 0)">
                        <path d="M9.60825202,11.2789177 C9.60825202,12.2124739 9.01508304,12.6791804 7.82717395,12.6791804 L1.96047134,12.6791804 L1.96047134,9.79616854 L7.71405336,9.79616854 C8.97537657,9.79616854 9.60825202,10.2913729 9.60825202,11.2789177 M11.6188563,11.2459804 C11.6188563,10.2584357 11.3009189,9.46908732 10.6693289,8.88079937 C10.0394529,8.29093617 9.18719202,7.9967922 8.12168742,7.9967922 L0,7.9967922 L0,18.2438574 L1.96047134,18.2438574 L1.96047134,14.4784136 L6.95306026,14.4784136 L9.58325694,18.2438574 L11.8309575,18.2438574 L9.11806277,14.3614147 C10.7857346,13.9847844 11.6188563,12.9446833 11.6188563,11.2459804" id="Fill-4" fill="#004682"></path>
                        <polygon id="Fill-6" fill="#004682" points="88.8710822 0.017929321 72.6159954 0.014349185 83.9043454 17.5230758 98 12.1339687"></polygon>
                        <polygon id="Fill-8" fill="#004682" points="45.5086299 0.00830591546 48.9149596 5.93357416 47.8434562 5.93357416 44.4369837 0.00801950458 8.38007943 0 25.1145005 40 59.8031026 26.7376011 55.8498806 19.8607327 56.921384 19.8607327 60.6815012 26.4017843 83.0175342 17.8621576 71.5103701 0.014034133"></polygon>
                        <path d="M26.9433406,11.2821684 C26.9433406,12.2152951 26.3501716,12.6817152 25.1638336,12.6817152 L19.2985593,12.6817152 L19.2985593,9.80013533 L25.0491419,9.80013533 C26.3118934,9.80013533 26.9433406,10.2951965 26.9433406,11.2821684 M28.9539449,11.2492312 C28.9539449,10.2621161 28.6388641,9.47319731 28.0059886,8.88519578 C27.3745415,8.29547578 26.52528,8.00147502 25.456776,8.00147502 L17.3350886,8.00147502 L17.3350886,18.2438144 L19.2985593,18.2438144 L19.2985593,14.4800891 L25.1299832,14.4800891 C26.3618836,14.4800891 27.3069833,14.1996928 27.9662821,13.6387571 C28.625581,13.0792535 28.9539449,12.2824584 28.9539449,11.2492312" id="Fill-10" fill="#555555"></path>
                        <path d="M41.0994262,14.244645 L36.225671,14.244645 L38.6700471,9.70632145 L41.0994262,14.244645 Z M45.4687092,18.2442297 L39.9003765,7.99673492 L37.424578,7.99673492 L31.856388,18.2442297 L34.0538127,18.2442297 L35.2287244,16.0440214 L42.0963729,16.0440214 L43.2728556,18.2442297 L45.4687092,18.2442297 Z" id="Fill-12" fill="#555555"></path>
                        <path d="M71.2460079,7.99670627 C73.6429647,7.99670627 75.5742989,8.87856537 77.0378681,10.6422836 L75.3099224,11.2404527 C74.2749832,10.2112352 72.9613846,9.69669804 71.3689837,9.69669804 C69.9988247,9.69669804 68.9057541,10.0127524 68.0884864,10.6464365 C67.2725041,11.280407 66.8638702,12.0996853 66.8638702,13.1049875 C66.8638702,14.1427973 67.2725041,14.9749641 68.0884864,15.6016311 C68.9057541,16.2311622 70.0101082,16.5444957 71.4001204,16.5444957 C73.0149455,16.5444957 74.3271158,16.0199342 75.3424874,14.9708112 L76.9601691,15.8369176 C75.5347353,17.4419642 73.6698166,18.2443443 71.3535581,18.2443443 C69.4289369,18.2443443 67.8706721,17.76389 66.6843341,16.8038408 C65.4965679,15.8440779 64.9011136,14.6133704 64.9011136,13.1120046 C64.9011136,11.5482012 65.5772663,10.2751048 66.9274292,9.28684407 C68.0984844,8.42761144 69.5392009,7.99670627 71.2460079,7.99670627" id="Fill-14" fill="#555555"></path>
                        <path d="M58.8177679,11.2152056 C58.8177679,12.1572109 58.2230278,12.6282136 57.0354044,12.6282136 L51.1699872,12.6282136 L51.1699872,9.71899513 L56.9205699,9.71899513 C58.1877491,9.71899513 58.8177679,10.2186389 58.8177679,11.2152056 M60.8283723,11.1819819 C60.8283723,10.1854152 60.5104348,9.38876339 59.8788448,8.79517684 C59.2461122,8.19987183 58.3982791,7.90300696 57.3296322,7.90300696 L49.2095159,7.90300696 L49.2095159,18.2438717 L51.1699872,18.2438717 L51.1699872,14.4439154 L56.1610051,14.4439154 L58.7927729,18.2438717 L61.0389023,18.2438717 L58.3275787,14.3259141 C59.9936794,13.9458469 60.8283723,12.896151 60.8283723,11.1819819" id="Fill-16" fill="#555555"></path>
                    </g>
                </g>
            </g>
        </g>
    </g>
</svg>