<svg xmlns="http://www.w3.org/2000/svg" xmlns:xlink="http://www.w3.org/1999/xlink" width="123" height="96.188" viewBox="0 0 123 96.188"><defs><clipPath id="clip-path"><rect id="Rectangle_7" data-name="Rectangle 7" width="123" height="35.597" fill="none"></rect></clipPath></defs><g id="logo" transform="translate(-573.109 -316.536)"><g id="Group_2" data-name="Group 2" transform="translate(573.109 316.536)"><g id="Group_1" data-name="Group 1" transform="translate(0)" clip-path="url(#clip-path)"><path id="Path_1" data-name="Path 1" d="M761.229,363.907l-2.7-5.515a.511.511,0,0,0-.684-.234l-6.685,3.279a43.212,43.212,0,0,0-5.729-7.16l4.653-5.8a.511.511,0,0,0-.079-.719l-6.778-5.44a.511.511,0,0,0-.719.079l-4.377,5.453a.507.507,0,0,1-.664.113,42.809,42.809,0,0,0-7.608-3.72.508.508,0,0,1-.32-.592l1.6-6.806a.511.511,0,0,0-.381-.615l-8.461-1.985a.511.511,0,0,0-.615.381l-1.6,6.809a.509.509,0,0,1-.551.389,41.7,41.7,0,0,0-9.243,0,.509.509,0,0,1-.551-.389l-1.6-6.809a.511.511,0,0,0-.615-.381l-8.461,1.985a.511.511,0,0,0-.381.614l1.6,6.806a.508.508,0,0,1-.32.592,42.822,42.822,0,0,0-7.608,3.72.507.507,0,0,1-.664-.113l-4.377-5.453a.511.511,0,0,0-.719-.079l-6.778,5.44a.511.511,0,0,0-.079.719l4.371,5.446a.508.508,0,0,1-.034.673,43.2,43.2,0,0,0-5.168,6.461.508.508,0,0,1-.649.18l-6.28-3.08a.511.511,0,0,0-.684.234l-2.705,5.515Z" transform="translate(-653.406 -331.42)" fill="#16a286"></path></g></g><g id="Group_3" data-name="Group 3" transform="translate(596.983 390.248)"><path id="Path_2" data-name="Path 2" d="M759.011,829.787H816.52a.26.26,0,0,0,.175-.068,43.075,43.075,0,0,0,3.561-3.654.258.258,0,0,0-.2-.426H755.471a.258.258,0,0,0-.2.426,43.075,43.075,0,0,0,3.561,3.654A.26.26,0,0,0,759.011,829.787Z" transform="translate(-750.139 -818.426)" fill="#16a286"></path><path id="Path_3" data-name="Path 3" d="M830.466,879.07a42.8,42.8,0,0,0,24.373-7.58.257.257,0,0,0-.148-.467h-48.45a.257.257,0,0,0-.148.467A42.8,42.8,0,0,0,830.466,879.07Z" transform="translate(-792.84 -856.595)" fill="#16a286"></path><path id="Path_4" data-name="Path 4" d="M723.329,780.64c.7,1.259,1.475,2.475,2.3,3.653a.259.259,0,0,0,.212.11h70.168a.259.259,0,0,0,.212-.11c.822-1.178,1.593-2.393,2.3-3.653a.259.259,0,0,0-.226-.384H723.556A.259.259,0,0,0,723.329,780.64Z" transform="translate(-723.297 -780.256)" fill="#16a286"></path></g><g id="Group_5" data-name="Group 5" transform="translate(684.234 337.315)"><g id="Group_4" data-name="Group 4" transform="translate(0)"><path id="Path_5" data-name="Path 5" d="M1284.058,453.19a5.789,5.789,0,0,1-.795,2.957,5.922,5.922,0,1,1,.795-2.957Zm-1.225.016a4.717,4.717,0,0,0-8.043-3.349,4.492,4.492,0,0,0-1.384,3.31,4.623,4.623,0,0,0,2.349,4.039,4.764,4.764,0,0,0,4.721,0,4.583,4.583,0,0,0,1.729-1.7A4.493,4.493,0,0,0,1282.833,453.206Zm-7.171-3.256h2.876a3.3,3.3,0,0,1,1.333.2,1.577,1.577,0,0,1,.686.636,2,2,0,0,1,.26,1.046,1.958,1.958,0,0,1-.159.849,1.82,1.82,0,0,1-.6.647,1.185,1.185,0,0,1,.488.454,2.352,2.352,0,0,1,.163.888,12.146,12.146,0,0,0,.1,1.407.726.726,0,0,0,.275.376h-1.628a2.181,2.181,0,0,1-.14-.442,4.564,4.564,0,0,1-.039-.612,4.99,4.99,0,0,0-.093-1.062.539.539,0,0,0-.244-.3,1.6,1.6,0,0,0-.7-.1h-1.155v2.519h-1.426Zm1.426,1.248v1.543h1.194a1.543,1.543,0,0,0,.915-.186.732.732,0,0,0,.225-.6.7.7,0,0,0-.221-.585,1.6,1.6,0,0,0-.911-.174Z" transform="translate(-1272.182 -447.26)" fill="#16a286"></path></g></g><rect id="Rectangle_8" data-name="Rectangle 8" width="123" height="35.143" rx="2" transform="translate(573.109 352.133)" fill="#1e3a76"></rect><g id="Group_6" data-name="Group 6" transform="translate(578.613 358.111)"><g id="E" transform="translate(0 0)"><rect id="Rectangle_9" data-name="Rectangle 9" width="5.797" height="14.492" rx="1" transform="translate(0 5.797) rotate(-90)" fill="#fff"></rect><path id="Path_6" data-name="Path 6" d="M622.224,638.067v-4.774a.511.511,0,0,0-.511-.511H608.243a.511.511,0,0,0-.511.511v13.469a.511.511,0,0,0,.511.511h13.469a.511.511,0,0,0,.511-.511v-4.774a.511.511,0,0,0-.511-.511H614.04a.511.511,0,0,1-.511-.511V639.09a.511.511,0,0,1,.511-.511h7.673A.511.511,0,0,0,622.224,638.067Z" transform="translate(-607.732 -624.087)" fill="#fff"></path></g><path id="Path_7" data-name="Path 7" d="M719,578.593v22.164a.511.511,0,0,0,.511.511h4.774a.511.511,0,0,0,.511-.511V584.9a1.022,1.022,0,0,1,1.022-1.022h3.008a2.556,2.556,0,0,1,2.556,2.556v14.323a.511.511,0,0,0,.511.511h4.774a.511.511,0,0,0,.511-.511V583.194a5.112,5.112,0,0,0-5.112-5.112H719.512A.511.511,0,0,0,719,578.593Z" transform="translate(-701.314 -578.082)" fill="#fff"></path><path id="Path_8" data-name="Path 8" d="M861.221,578.414l-5.194,13.849a.511.511,0,0,1-.957,0l-5.193-13.849a.511.511,0,0,0-.479-.332h-4.7a.511.511,0,0,0-.479.691l8.312,22.164a.511.511,0,0,0,.479.332h5.088a.511.511,0,0,0,.479-.332l8.312-22.164a.511.511,0,0,0-.479-.691h-4.7A.511.511,0,0,0,861.221,578.414Z" transform="translate(-806.596 -578.082)" fill="#fff"></path><rect id="Rectangle_10" data-name="Rectangle 10" width="5.797" height="5.797" rx="1" transform="translate(62.135 0)" fill="#fff"></rect><rect id="Rectangle_11" data-name="Rectangle 11" width="5.797" height="14.492" rx="1" transform="translate(62.135 8.695)" fill="#fff"></rect><path id="Path_9" data-name="Path 9" d="M1068.546,590.455a7.451,7.451,0,0,0,1.07-9.083,6.4,6.4,0,0,0-5.631-3.29h-8.312a.511.511,0,0,0-.511.511v4.774a.511.511,0,0,0,.511.511h7.675a1.5,1.5,0,0,1,1.529,1.371,1.449,1.449,0,0,1-1.447,1.527h-7.757a.511.511,0,0,0-.511.511v4.774a.511.511,0,0,0,.511.511h6.65a2.556,2.556,0,0,1,2.556,2.556v5.628a.511.511,0,0,0,.511.511h4.774a.511.511,0,0,0,.511-.511V594.33A4.59,4.59,0,0,0,1068.546,590.455Z" transform="translate(-984.038 -578.082)" fill="#fff"></path><path id="Path_10" data-name="Path 10" d="M1178,578.082h0a11.593,11.593,0,0,0-11.593,11.593h0A11.593,11.593,0,0,0,1178,601.269h0a11.594,11.594,0,0,0,11.594-11.593h0A11.594,11.594,0,0,0,1178,578.082Zm0,18.074c-3.573,0-5.97-2.907-5.97-6.481s2.4-6.481,5.97-6.481,5.97,2.907,5.97,6.481S1181.569,596.156,1178,596.156Z" transform="translate(-1077.596 -578.082)" fill="#fff"></path></g></g></svg>