<svg width="213" height="44" viewBox="0 0 213 44" fill="none" xmlns="http://www.w3.org/2000/svg">
<g clip-path="url(#clip0_311_379)">
<path d="M66.1096 16.9942C63.5072 16.9942 61.5408 16.2817 60.2089 14.8568C58.8769 13.4318 58.2109 11.4729 58.2109 8.98V8.23153C58.2109 6.59659 58.5184 5.15815 59.1334 3.9207C59.7484 2.68175 60.6948 1.72029 61.9728 1.03482C63.2507 0.349345 64.8707 0.00585938 66.8341 0.00585938C68.268 0.00585938 69.471 0.166353 70.4444 0.48434C71.4179 0.803827 72.2084 1.23581 72.8158 1.78179C73.4233 2.32777 73.8748 2.94274 74.1703 3.62821C74.4658 4.31369 74.6383 5.01566 74.6848 5.73113L70.5959 6.22161C70.4864 5.34864 70.152 4.64817 69.591 4.11869C69.03 3.58921 68.103 3.32373 66.8101 3.32373C65.3147 3.32373 64.2077 3.78271 63.4922 4.70217C62.7753 5.62163 62.4168 6.84408 62.4168 8.37102V8.8615C62.4168 12.0714 63.8732 13.6748 66.7861 13.6748C68.094 13.6748 69.0795 13.4258 69.7425 12.9263C70.4039 12.4284 70.7894 11.6874 70.8989 10.7064H66.8566V7.73805H74.8258V16.6177H71.7179L71.6249 14.6318H71.5784C71.1584 15.3487 70.4999 15.9217 69.6045 16.3492C68.709 16.7782 67.5436 16.9912 66.1111 16.9912L66.1096 16.9942Z" fill="#141414"/>
<path d="M85.3327 17.0421C83.3378 17.0421 81.7028 16.6986 80.4249 16.0146C79.1469 15.3292 78.205 14.3752 77.5975 13.1528C76.99 11.9303 76.6855 10.5084 76.6855 8.88843V8.25696C76.6855 6.60552 76.993 5.16108 77.608 3.92213C78.223 2.68318 79.1694 1.72172 80.4474 1.03625C81.7253 0.350775 83.3528 0.00878906 85.3312 0.00878906C87.3096 0.00878906 88.9341 0.352275 90.203 1.03625C91.472 1.72172 92.4154 2.68318 93.0304 3.92213C93.6454 5.16108 93.9529 6.60552 93.9529 8.25696V8.88843C93.9529 10.5084 93.6529 11.9303 93.0529 13.1528C92.4529 14.3767 91.5184 15.3307 90.2495 16.0146C88.9791 16.7001 87.3396 17.0421 85.3312 17.0421H85.3327ZM85.3327 13.7242C86.8896 13.7242 88.0161 13.2728 88.7091 12.3683C89.402 11.4653 89.7485 10.2969 89.7485 8.86293V8.30196C89.7485 6.79152 89.3945 5.58407 88.6851 4.6796C87.9756 3.77664 86.8581 3.32366 85.3312 3.32366C83.8043 3.32366 82.7018 3.77514 81.9773 4.6796C81.2529 5.58257 80.8914 6.79152 80.8914 8.30196V8.86293C80.8914 10.2969 81.2424 11.4653 81.9428 12.3683C82.6433 13.2713 83.7728 13.7242 85.3312 13.7242H85.3327Z" fill="#141414"/>
<path d="M96.0947 0.427246H104.181C106.066 0.427246 107.593 0.758733 108.762 1.42021C109.93 2.08318 110.782 2.99814 111.321 4.1666C111.858 5.33505 112.126 6.68199 112.126 8.20893V8.84041C112.126 11.2703 111.456 13.1752 110.116 14.5537C108.777 15.9321 106.665 16.6221 103.783 16.6221H96.0947V0.427246ZM103.339 3.67462H100.115V13.3717H102.919C104.679 13.3717 105.954 12.9982 106.74 12.2498C107.527 11.5013 107.92 10.3493 107.92 8.79091V8.22993C107.92 6.71949 107.566 5.58104 106.857 4.81757C106.147 4.0541 104.976 3.67312 103.339 3.67312V3.67462Z" fill="#141414"/>
<path d="M124.932 16.6206L121.66 11.3153H118.272V16.6206H114.252V0.427246H122.665C124.846 0.427246 126.446 0.878728 127.466 1.78319C128.486 2.68616 128.996 4.0031 128.996 5.73253V6.15252C128.996 7.32097 128.704 8.28243 128.12 9.0384C127.537 9.79437 126.698 10.3433 125.608 10.6853L129.674 16.6206H124.93H124.932ZM122.08 3.67462H118.272V8.06794H121.941C122.953 8.06794 123.69 7.88945 124.149 7.53096C124.608 7.17247 124.837 6.6505 124.837 5.96502V5.70853C124.837 5.02306 124.615 4.51308 124.171 4.17859C123.727 3.84411 123.03 3.67612 122.08 3.67612V3.67462Z" fill="#141414"/>
<path d="M131.204 0.427246H144.782V3.67462H135.224V6.71199H143.589V9.96086H135.224V13.3732H144.875V16.6221H131.204V0.427246Z" fill="#141414"/>
<path d="M152.919 17.0421C150.675 17.0421 148.965 16.4931 147.789 15.3951C146.613 14.2972 146.072 12.6188 146.165 10.3598L150.136 10.0089C150.168 11.4263 150.409 12.3998 150.861 12.9292C151.312 13.4587 152.013 13.7242 152.964 13.7242C153.915 13.7242 154.65 13.4632 155.172 12.9412C155.694 12.4193 155.955 11.4893 155.955 10.1484V0.427246H159.974V10.4288C159.974 12.6878 159.391 14.3542 158.223 15.4296C157.054 16.5051 155.286 17.0421 152.919 17.0421Z" fill="#141414"/>
<path d="M58.8667 26.9536H67.0924C69.2733 26.9536 70.8737 27.4171 71.8937 28.3441C72.9137 29.2711 73.4236 30.6075 73.4236 32.3519V32.8424C73.4236 34.5868 72.8987 35.9353 71.8457 36.8847C70.7943 37.8357 69.1308 38.3097 66.8569 38.3097H62.8851V43.147H58.8652V26.9521L58.8667 26.9536ZM66.3679 30.2025H62.8866V35.0623H66.3679C67.4269 35.0623 68.1829 34.8673 68.6343 34.4788C69.0858 34.0889 69.3123 33.5369 69.3123 32.8199V32.4929C69.3123 31.698 69.0933 31.119 68.6583 30.7515C68.2219 30.3855 67.4584 30.2025 66.3679 30.2025Z" fill="#141414"/>
<path d="M85.7997 43.1485L82.5283 37.8447H79.14V43.1485H75.1201V26.9536H83.5333C85.7142 26.9536 87.3146 27.4051 88.3346 28.3096C89.3545 29.214 89.8645 30.5295 89.8645 32.2589V32.6789C89.8645 33.8473 89.572 34.8088 88.9886 35.5648C88.4051 36.3207 87.5666 36.8697 86.4762 37.2117L90.5425 43.147H85.7982L85.7997 43.1485ZM82.9483 30.2025H79.14V34.5958H82.8088C83.8213 34.5958 84.5577 34.4173 85.0167 34.0588C85.4757 33.7003 85.7067 33.1784 85.7067 32.4929V32.2364C85.7067 31.5509 85.4847 31.0409 85.0407 30.7065C84.5967 30.372 83.8993 30.204 82.9498 30.204L82.9483 30.2025Z" fill="#141414"/>
<path d="M99.9479 43.5685C97.953 43.5685 96.3181 43.225 95.0401 42.541C93.7622 41.8555 92.8202 40.9016 92.2127 39.6791C91.6053 38.4567 91.3008 37.0347 91.3008 35.4148V34.7833C91.3008 33.1319 91.6083 31.6874 92.2232 30.4485C92.8382 29.2095 93.7847 28.2481 95.0626 27.5626C96.3406 26.8771 97.968 26.5352 99.9464 26.5352C101.925 26.5352 103.549 26.8786 104.818 27.5626C106.087 28.2481 107.031 29.2095 107.646 30.4485C108.261 31.6874 108.568 33.1319 108.568 34.7833V35.4148C108.568 37.0347 108.268 38.4567 107.668 39.6791C107.068 40.9016 106.134 41.857 104.865 42.541C103.594 43.2265 101.955 43.5685 99.9464 43.5685H99.9479ZM99.9479 40.2506C101.505 40.2506 102.631 39.7991 103.324 38.8947C104.017 37.9917 104.364 36.8232 104.364 35.3893V34.8283C104.364 33.3179 104.01 32.1104 103.3 31.206C102.591 30.303 101.473 29.85 99.9464 29.85C98.4195 29.85 97.317 30.3015 96.5926 31.206C95.8681 32.1104 95.5066 33.3179 95.5066 34.8283V35.3893C95.5066 36.8232 95.8576 37.9917 96.5581 38.8947C97.2585 39.7991 98.388 40.2506 99.9464 40.2506H99.9479Z" fill="#141414"/>
<path d="M110.712 26.9536H118.938C121.118 26.9536 122.719 27.4171 123.74 28.3441C124.76 29.2711 125.27 30.6075 125.27 32.3519V32.8424C125.27 34.5868 124.745 35.9353 123.694 36.8847C122.642 37.8357 120.979 38.3097 118.705 38.3097H114.733V43.147H110.713V26.9521L110.712 26.9536ZM118.213 30.2025H114.732V35.0623H118.213C119.272 35.0623 120.028 34.8673 120.48 34.4788C120.931 34.0889 121.157 33.5369 121.157 32.8199V32.4929C121.157 31.698 120.94 31.119 120.504 30.7515C120.067 30.3855 119.304 30.2025 118.213 30.2025Z" fill="#141414"/>
<path d="M126.967 26.9536H140.544V30.2025H130.987V33.2399H139.352V36.4873H130.987V39.8996H140.637V43.147H126.967V26.9521V26.9536Z" fill="#141414"/>
<path d="M153.614 43.1485L150.343 37.8447H146.954V43.1485H142.935V26.9536H151.348C153.529 26.9536 155.129 27.4051 156.149 28.3096C157.169 29.214 157.679 30.5295 157.679 32.2589V32.6789C157.679 33.8473 157.386 34.8088 156.803 35.5648C156.22 36.3207 155.381 36.8697 154.291 37.2117L158.357 43.147H153.613L153.614 43.1485ZM150.763 30.2025H146.954V34.5958H150.623C151.636 34.5958 152.372 34.4173 152.831 34.0588C153.29 33.7003 153.52 33.1784 153.52 32.4929V32.2364C153.52 31.5509 153.298 31.0409 152.854 30.7065C152.41 30.372 151.712 30.204 150.763 30.204V30.2025Z" fill="#141414"/>
<path d="M164.671 43.1485V30.2025H158.853V26.9536H174.486V30.2025H168.691V43.1485H164.671Z" fill="#141414"/>
<path d="M176.064 43.1485V26.9536H180.084V43.1485H176.064Z" fill="#141414"/>
<path d="M182.939 26.9536H196.517V30.2025H186.959V33.2399H195.324V36.4873H186.959V39.8996H196.61V43.147H182.939V26.9521V26.9536Z" fill="#141414"/>
<path d="M205.533 43.5685C203.633 43.5685 202.125 43.327 201.011 42.844C199.896 42.361 199.091 41.7145 198.593 40.9046C198.095 40.0946 197.822 39.1916 197.775 38.1942L201.795 37.6797C201.888 38.5212 202.212 39.1676 202.764 39.6191C203.318 40.0706 204.248 40.2971 205.557 40.2971C206.399 40.2971 207.048 40.2266 207.508 40.0871C207.967 39.9476 208.284 39.7481 208.455 39.4916C208.626 39.2351 208.711 38.9277 208.711 38.5692C208.711 38.1807 208.567 37.8447 208.279 37.5642C207.991 37.2837 207.465 37.0812 206.703 36.9567L203.454 36.4198C201.725 36.1543 200.417 35.6443 199.529 34.8898C198.641 34.1338 198.197 33.0554 198.197 31.6529C198.197 30.033 198.809 28.7746 200.031 27.8791C201.254 26.9836 203.042 26.5352 205.394 26.5352C206.811 26.5352 207.987 26.6791 208.921 26.9671C209.856 27.2551 210.592 27.6451 211.129 28.1356C211.666 28.6261 212.052 29.172 212.286 29.7705C212.52 30.3705 212.644 30.9735 212.659 31.581L208.687 32.0249C208.609 31.293 208.341 30.72 207.882 30.3075C207.423 29.895 206.57 29.688 205.323 29.688C204.342 29.688 203.606 29.8365 203.115 30.132C202.625 30.4275 202.379 30.81 202.379 31.2765C202.379 31.7429 202.566 32.0519 202.94 32.2454C203.313 32.4404 203.937 32.6069 204.809 32.7479L208.033 33.2849C211.273 33.8309 212.893 35.5123 212.893 38.3322C212.893 39.9371 212.289 41.2106 211.083 42.1525C209.875 43.096 208.026 43.567 205.533 43.567V43.5685Z" fill="#141414"/>
<path d="M25.835 9.27863C25.835 4.03634 29.8638 0.0074997 35.1721 0.0074997C40.4804 0.0074997 44.5092 4.03634 44.5092 9.27863C44.5092 14.5209 40.4804 18.5828 35.1721 18.5828C29.8638 18.5828 25.835 14.5539 25.835 9.27863ZM26.9494 43.1533H43.3948V21.3681H26.9494V43.1533ZM0 21.5721C0 34.3531 9.44812 43.1443 22.2636 43.1443H23.0526V0H22.2636C9.77811 0 0 8.79115 0 21.5721ZM0 21.5721C0 34.3531 9.44812 43.1443 22.2636 43.1443H23.0526V0H22.2636C9.77811 0 0 8.79115 0 21.5721Z" fill="#141414"/>
</g>
<defs>
<clipPath id="clip0_311_379">
<rect width="212.895" height="43.5687" fill="white"/>
</clipPath>
</defs>
</svg>
