<?xml version="1.0" encoding="UTF-8"?>
<svg xmlns="http://www.w3.org/2000/svg" width="208" height="30" viewBox="0 0 208 30" fill="none">
  <g clip-path="url(#clip0_70_2362)">
    <path d="M5.56379 19.2391C5.56379 13.7152 0 9.12512 0 3.92471C0 2.70396 0.22622 1.42217 0.96602 0.140381H5.88783C5.11746 1.33062 4.79342 2.51475 4.79342 3.63784C4.79342 5.66429 5.75944 7.65411 6.88442 9.70498H16.4713C15.4747 7.81281 14.6737 5.91454 14.6737 3.92471C14.6737 2.70396 14.8999 1.42217 15.6397 0.134277H20.5921C19.8218 1.32451 19.4977 2.50864 19.4977 3.63173C19.4977 8.54526 25.0921 13.1658 25.0921 18.9461C25.0921 20.3255 24.8658 21.7721 24.126 23.2492H19.1737C19.944 21.8332 20.2375 20.5208 20.2375 19.233C20.2375 17.1455 19.4671 15.2167 18.4705 13.3245H8.85315C9.72134 15.0885 10.3939 16.9501 10.3939 18.94C10.3939 20.3194 10.1677 21.766 9.42787 23.2431H4.50606C5.27643 21.8271 5.5699 20.5147 5.5699 19.2269L5.56379 19.2391Z" fill="#0A2C3F"></path>
    <path d="M30.2037 6.45776L34.349 18.7874H34.673L38.855 6.45776H43.838V6.93996L34.7036 29.6704H29.7206V29.1882L32.0379 23.9206L25.2207 6.93386V6.45166H30.2037V6.45776Z" fill="#0A2C3F"></path>
    <path d="M57.7347 23.2556V21.4916H57.4107C56.7381 22.2301 55.3197 23.5791 52.3605 23.5791C48.2763 23.5791 44.6445 20.7836 44.6445 14.8446C44.6445 8.90563 48.2763 6.11011 52.3605 6.11011C55.2585 6.11011 56.6709 7.42852 57.215 8.0389H57.5391V0.140625H62.2652V23.2556H57.7286H57.7347ZM53.62 9.54653C51.1438 9.54653 49.4074 11.4387 49.4074 14.8446C49.4074 18.2505 51.1438 20.1427 53.62 20.1427C56.0961 20.1427 57.802 18.2505 57.802 14.8446C57.802 11.4387 56.0656 9.54653 53.62 9.54653Z" fill="#0A2C3F"></path>
    <path d="M70.5686 6.45801V8.5455H70.8865C71.5285 7.16605 72.6534 6.39697 74.7444 6.39697H76.542V9.99209H74.6772C72.042 9.99209 70.7887 11.3105 70.7887 14.2952V23.2556H66.0625V6.45801H70.5686Z" fill="#0A2C3F"></path>
    <path d="M86.7397 6.07324C91.7532 6.07324 95.7763 9.05798 95.7763 14.8382C95.7763 20.6185 91.7532 23.6338 86.7397 23.6338C81.7262 23.6338 77.7031 20.649 77.7031 14.8382C77.7031 9.02746 81.7262 6.07324 86.7397 6.07324ZM86.7397 20.2035C89.2831 20.2035 90.9828 18.2441 90.9828 14.8444C90.9828 11.4446 89.277 9.51576 86.7397 9.51576C84.2024 9.51576 82.4599 11.4446 82.4599 14.8444C82.4599 18.2441 84.1657 20.2035 86.7397 20.2035Z" fill="#0A2C3F"></path>
    <path d="M105.583 6.10986C108.445 6.10986 109.961 7.36113 110.762 8.39267H111.086L111.985 6.46388H115.262V22.3581C115.262 27.2045 112.076 30 106.641 30C101.206 30 98.6011 27.3388 97.9592 24.2502V23.7681H102.367C102.691 25.3062 103.816 26.7223 106.482 26.7223C109.148 26.7223 110.536 25.2146 110.536 22.7731V20.9115H110.212C109.313 21.8393 107.894 22.6755 105.577 22.6755C101.591 22.6755 97.8613 19.9166 97.8613 14.3927C97.8613 8.86876 101.628 6.10986 105.577 6.10986H105.583ZM106.708 19.2391C109.087 19.2391 110.793 17.5666 110.793 14.3927C110.793 11.2187 109.087 9.54628 106.708 9.54628C104.33 9.54628 102.624 11.2187 102.624 14.3927C102.624 17.5666 104.361 19.2391 106.708 19.2391Z" fill="#0A2C3F"></path>
    <path d="M127.099 6.07324C132.149 6.07324 135.72 9.05798 135.72 14.5819V15.9613H123.015C123.076 18.3357 124.593 20.3622 127.197 20.3622C129.802 20.3622 130.67 18.824 130.994 17.7925H135.365V18.2747C134.754 20.6185 132.278 23.6338 127.197 23.6338C122.116 23.6338 118.222 20.6185 118.222 14.8382C118.222 9.05798 122.177 6.07324 127.099 6.07324ZM131.055 13.1048C130.927 11.0478 129.673 9.34486 127.099 9.34486C124.525 9.34486 123.211 11.0478 123.015 13.1048H131.055Z" fill="#0A2C3F"></path>
    <path d="M143.179 6.45802V8.54551H143.497C144.047 7.70929 145.331 6.104 148.706 6.104C152.503 6.104 155.04 8.25253 155.04 12.2383V23.2495H150.314V12.6839C150.314 10.6269 149.159 9.60146 147.257 9.60146C145.166 9.60146 143.369 10.7917 143.369 13.8375V23.2434H138.643V6.45802H143.179Z" fill="#0A2C3F"></path>
    <path d="M182.792 6.45801V8.5455H183.116C183.758 7.16605 184.883 6.39697 186.974 6.39697H188.771V9.99209H186.907C184.272 9.99209 183.018 11.3105 183.018 14.2952V23.2556H178.292V6.45801H182.792Z" fill="#0A2C3F"></path>
    <path d="M198.963 6.07324C203.977 6.07324 208 9.05798 208 14.8382C208 20.6185 203.977 23.6338 198.963 23.6338C193.95 23.6338 189.927 20.649 189.927 14.8382C189.927 9.02746 193.95 6.07324 198.963 6.07324ZM198.963 20.2035C201.507 20.2035 203.206 18.2441 203.206 14.8444C203.206 11.4446 201.501 9.51576 198.963 9.51576C196.426 9.51576 194.683 11.4446 194.683 14.8444C194.683 18.2441 196.389 20.2035 198.963 20.2035Z" fill="#0A2C3F"></path>
    <path d="M159.784 23.2553V0H168.032C174.758 0 176.17 3.92472 176.17 7.22075C176.17 10.5168 174.758 14.4659 168.032 14.4659H164.401V23.2492H159.778L159.784 23.2553ZM167.733 10.1384C170.209 10.1384 171.364 9.21058 171.364 7.22075C171.364 5.23093 170.178 4.32757 167.733 4.32757H164.413V10.1384H167.733Z" fill="#0A2C3F"></path>
  </g>
  <defs>
    <clipPath id="clip0_70_2362">
      <rect width="208" height="30" fill="white"></rect>
    </clipPath>
  </defs>
</svg>
