<?xml version="1.0" encoding="utf-8"?>
<svg xmlns="http://www.w3.org/2000/svg" id="Layer_1" version="1.1" viewBox="0 0 6371.5 1485.6">
  
  <defs>
    <style>
      .st0 {
        fill: #348bcb;
      }

      .st1 {
        clip-path: url(#clippath-4);
      }

      .st2 {
        fill: #40b17d;
      }

      .st3 {
        fill: #353750;
      }

      .st4 {
        fill: #f37c5f;
      }

      .st5 {
        fill: #fff;
      }

      .st6 {
        fill: #e2b1af;
      }

      .st7 {
        fill: none;
      }

      .st8 {
        clip-path: url(#clippath-1);
      }

      .st9 {
        clip-path: url(#clippath-5);
      }

      .st10 {
        fill: #f69a81;
      }

      .st11 {
        clip-path: url(#clippath-3);
      }

      .st12 {
        fill: #267bbf;
      }

      .st13 {
        fill: #d33f3e;
      }

      .st14 {
        fill: #53bd94;
      }

      .st15 {
        fill: #52586d;
      }

      .st16 {
        fill: #fbb668;
      }

      .st17 {
        clip-path: url(#clippath-2);
      }

      .st18 {
        clip-path: url(#clippath);
      }
    </style>
    <clipPath id="clippath">
      <rect class="st7" height="433.9" width="433.9" x="4635.3" y="499.3"/>
    </clipPath>
    <clipPath id="clippath-1">
      <path class="st7" d="M5937.6,933.4v433.9c239.7,0,433.9-194.3,433.9-433.9h-433.9Z"/>
    </clipPath>
    <clipPath id="clippath-2">
      <path class="st7" d="M4635.3,499.3h433.9V65.3c-239.7,0-433.9,194.3-433.9,433.9Z"/>
    </clipPath>
    <clipPath id="clippath-3">
      <path class="st7" d="M5503.5,499.3h433.9V65.3c-239.7,0-433.9,194.3-433.9,433.9Z"/>
    </clipPath>
    <clipPath id="clippath-4">
      <path class="st7" d="M4635.3,933.4c0,239.7,194.3,433.9,433.9,433.9v-433.9h-433.9Z"/>
    </clipPath>
    <clipPath id="clippath-5">
      <path class="st7" d="M5503.5,933.4c0,239.7,194.3,433.9,433.9,433.9v-433.9h-433.9Z"/>
    </clipPath>
  </defs>
  <rect class="st7" height="1025" id="backgroundrect" width="3213" y="460.6"/>
  <g>
    <g>
      <rect class="st3" height="433.9" width="433.9" x="5937.6" y="499.3"/>
      <rect class="st2" height="433.9" width="433.9" x="4635.3" y="499.3"/>
      <g class="st18">
        <g>
          <path class="st16" d="M4671.8,836.9s14.3,52,52.8,69.1c38.5,17.1,86.7-6.9,86.7-6.9,0,0-14.3-52-52.8-69.1-38.5-17.1-86.7,6.9-86.7,6.9"/>
          <path class="st16" d="M4668,827.2s-24.2-48.2-6.9-86.7c17.1-38.5,69.1-52.8,69.1-52.8,0,0,24.2,48.2,6.9,86.7-17.1,38.5-69.1,52.8-69.1,52.8"/>
          <path class="st16" d="M4774.8,803.8s19.3,44.4,55.8,55c36.6,10.5,76.3-17.1,76.3-17.1,0,0-19.3-44.4-55.8-55-36.6-10.5-76.3,17.1-76.3,17.1"/>
          <path class="st16" d="M4770.2,795.6s-27.6-39.9-17.1-76.3c10.5-36.6,55-55.8,55-55.8,0,0,27.6,39.9,17.1,76.3-10.5,36.6-55,55.8-55,55.8"/>
          <path class="st16" d="M4870.4,746s29.4,32.4,63.4,30.6,60-36.9,60-36.9c0,0-29.4-32.4-63.4-30.6-34.1,1.7-60,36.9-60,36.9"/>
          <path class="st16" d="M4864.2,740.5s-35.2-25.8-36.9-60c-1.7-34.1,30.6-63.4,30.6-63.4,0,0,35.2,25.8,36.9,60,1.7,34.1-30.6,63.4-30.6,63.4"/>
          <path class="st16" d="M4945.8,675.6s34.7,18.2,63.1,6.1c28.4-12.1,39.3-49.8,39.3-49.8,0,0-34.7-18.2-63.1-6.1-28.4,12.1-39.3,49.8-39.3,49.8"/>
          <path class="st16" d="M4938.9,672.8s-37.7-11.2-49.8-39.3c-12.1-28.4,6.1-63.1,6.1-63.1,0,0,37.7,11.2,49.8,39.3,12.1,28.4-6.1,63.1-6.1,63.1"/>
          <path class="st16" d="M4967.7,609.8s28.1-14.8,33.6-38.9c5.2-24.3-14.8-49.2-14.8-49.2,0,0-28.1,14.8-33.6,38.9-5.2,24.3,14.8,49.2,14.8,49.2"/>
        </g>
      </g>
      <rect class="st6" height="433.9" width="433.9" x="5503.5" y="499.3"/>
      <path class="st12" d="M5069.1,499.3v433.9h433.9c0-239.7-194.3-433.9-433.9-433.9"/>
      <path class="st12" d="M5937.6,65.3v433.9h433.9c0-239.7-194.3-433.9-433.9-433.9"/>
      <path class="st16" d="M5069.1,1367.3v-433.9h433.9c0,239.7-194.3,433.9-433.9,433.9"/>
      <path class="st2" d="M5937.6,1367.3v-433.9h433.9c0,239.7-194.3,433.9-433.9,433.9"/>
      <g class="st8">
        <g>
          <path class="st14" d="M5742.4,1161.4c-1.4,0-2.5.6-3.3,1.7-1.4,2-.9,4.6.8,6.1l117.3,89v69.1c0,2.4,2,4.4,4.4,4.4s4.4-2,4.4-4.4v-71.3c0-1.4-.6-2.5-1.7-3.3l-118.9-90.3c-.8-.6-1.7-.8-2.5-.8"/>
          <path class="st14" d="M5649.2,1161.4c-1.4,0-2.5.6-3.3,1.7-1.4,2-.9,4.6.8,6.1l117.3,89v69.1c0,2.4,2,4.4,4.4,4.4s4.4-2,4.4-4.4v-71.3c0-1.4-.6-2.5-1.7-3.3l-118.9-90.3c-.8-.6-1.7-.8-2.5-.8"/>
          <path class="st14" d="M5814.6,1254.8c-2.4,0-4.4,2-4.4,4.4v69.1l-117.3,89c-2,1.4-2.2,4.2-.8,6.1.8,1.3,2.2,1.7,3.3,1.7s1.7-.2,2.5-.8l118.9-90.3c.9-.8,1.7-2.2,1.7-3.3v-71.3c0-2.4-2-4.4-4.4-4.4"/>
          <path class="st14" d="M5721.3,1254.8c-2.4,0-4.4,2-4.4,4.4v69.1l-117.3,89c-2,1.4-2.2,4.2-.8,6.1.8,1.3,2.2,1.7,3.3,1.7s1.7-.2,2.5-.8l118.9-90.3c.9-.8,1.7-2.2,1.7-3.3v-71.3c0-2.4-2-4.4-4.4-4.4"/>
          <path class="st14" d="M5556.3,1161.4c-1.4,0-2.5.6-3.3,1.7-1.4,2-.9,4.6.8,6.1l117.3,89v69.1c0,2.4,2,4.4,4.4,4.4s4.4-2,4.4-4.4v-71.3c0-1.4-.6-2.5-1.7-3.3l-118.9-90.3c-.8-.6-1.7-.8-2.5-.8"/>
          <path class="st14" d="M5463,1161.4c-1.4,0-2.5.6-3.3,1.7-1.4,2-.9,4.6.8,6.1l117.3,89v69.1c0,2.4,2,4.4,4.4,4.4s4.4-2,4.4-4.4v-71.3c0-1.4-.6-2.5-1.7-3.3l-118.9-90.3c-.8-.6-1.7-.8-2.5-.8"/>
          <path class="st14" d="M5628.7,1254.8c-2.4,0-4.4,2-4.4,4.4v69.1l-117.3,89c-2,1.4-2.2,4.2-.8,6.1.8,1.3,2.2,1.7,3.3,1.7s1.7-.2,2.5-.8l118.9-90.3c.9-.8,1.7-2.2,1.7-3.3v-71.3c0-2.4-2-4.4-4.4-4.4"/>
          <path class="st14" d="M5535.2,1254.8c-2.4,0-4.4,2-4.4,4.4v69.1l-117.3,89c-2,1.4-2.2,4.2-.8,6.1.8,1.3,2.2,1.7,3.3,1.7s1.7-.2,2.5-.8l118.9-90.3c.9-.8,1.7-2.2,1.7-3.3v-71.3c0-2.4-2-4.4-4.4-4.4"/>
          <path class="st14" d="M6113.8,1161.4c-1.4,0-2.5.6-3.3,1.7-1.4,2-.9,4.6.8,6.1l117.3,89v69.1c0,2.4,2,4.4,4.4,4.4s4.4-2,4.4-4.4v-71.3c0-1.4-.6-2.5-1.7-3.3l-118.9-90.3c-.8-.6-1.7-.8-2.5-.8"/>
          <path class="st14" d="M6020.5,1161.4c-1.4,0-2.5.6-3.3,1.7-1.4,2-.9,4.6.8,6.1l117.3,89v69.1c0,2.4,2,4.4,4.4,4.4s4.4-2,4.4-4.4v-71.3c0-1.4-.6-2.5-1.7-3.3l-118.9-90.3c-.8-.6-1.7-.8-2.5-.8"/>
          <path class="st14" d="M6186.2,1254.8c-2.4,0-4.4,2-4.4,4.4v69.1l-117.3,89c-2,1.4-2.2,4.2-.8,6.1.8,1.3,2.2,1.7,3.3,1.7s1.7-.2,2.5-.8l118.9-90.3c.9-.8,1.7-2.2,1.7-3.3v-71.3c0-2.4-2-4.4-4.4-4.4"/>
          <path class="st14" d="M6092.8,1254.8c-2.4,0-4.4,2-4.4,4.4v69.1l-117.3,89c-2,1.4-2.2,4.2-.8,6.1.8,1.3,2.2,1.7,3.3,1.7s1.7-.2,2.5-.8l118.9-90.3c.9-.8,1.7-2.2,1.7-3.3v-71.3c0-2.4-2-4.4-4.4-4.4"/>
          <path class="st14" d="M5927.8,1161.4c-1.4,0-2.5.6-3.3,1.7-1.4,2-.9,4.6.8,6.1l117.3,89v69.1c0,2.4,2,4.4,4.4,4.4s4.4-2,4.4-4.4v-71.3c0-1.4-.6-2.5-1.7-3.3l-118.9-90.3c-.8-.6-1.7-.8-2.5-.8"/>
          <path class="st14" d="M5834.6,1161.4c-1.4,0-2.5.6-3.3,1.7-1.4,2-.9,4.6.8,6.1l117.3,89v69.1c0,2.4,2,4.4,4.4,4.4s4.4-2,4.4-4.4v-71.3c0-1.4-.6-2.5-1.7-3.3l-118.9-90.3c-.8-.6-1.7-.8-2.5-.8"/>
          <path class="st14" d="M6000.1,1254.8c-2.4,0-4.4,2-4.4,4.4v69.1l-117.3,89c-2,1.4-2.2,4.2-.8,6.1.8,1.3,2.2,1.7,3.3,1.7s1.7-.2,2.5-.8l118.9-90.3c.9-.8,1.7-2.2,1.7-3.3v-71.3c0-2.4-2-4.4-4.4-4.4"/>
          <path class="st14" d="M5906.8,1254.8c-2.4,0-4.4,2-4.4,4.4v69.1l-117.3,89c-2,1.4-2.2,4.2-.8,6.1.8,1.3,2.2,1.7,3.3,1.7s1.7-.2,2.5-.8l118.9-90.3c.9-.8,1.7-2.2,1.7-3.3v-71.3c0-2.4-2-4.4-4.4-4.4"/>
          <path class="st14" d="M5699.8,969.3c-2.4,0-4.4,2-4.4,4.4v71.3c0,1.4.6,2.5,1.7,3.3l118.9,90.3c.8.6,1.7.8,2.5.8,1.4,0,2.5-.6,3.3-1.7,1.4-2,.9-4.6-.8-6.1l-117.3-89v-69.1c0-2.4-2-4.4-4.4-4.4"/>
          <path class="st14" d="M5793.1,969.3c-2.4,0-4.4,2-4.4,4.4v71.3c0,1.4.6,2.5,1.7,3.3l118.9,90.3c.8.6,1.7.8,2.5.8,1.4,0,2.5-.6,3.3-1.7,1.4-2,.9-4.6-.8-6.1l-117.3-89v-69.1c0-2.4-2-4.4-4.4-4.4"/>
          <path class="st14" d="M5865.5,875.9c-.9,0-1.7.2-2.5.8l-118.9,90.3c-.9.8-1.7,2.2-1.7,3.3v71.3c0,2.4,2,4.4,4.4,4.4s4.4-2,4.4-4.4v-69.1l117.3-89c2-1.4,2.2-4.2.8-6.1-.8-1.3-2.2-1.7-3.3-1.7"/>
          <path class="st14" d="M5958.8,875.9c-.9,0-1.7.2-2.5.8l-118.9,90.3c-.9.8-1.7,2.2-1.7,3.3v71.3c0,2.4,2,4.4,4.4,4.4s4.4-2,4.4-4.4v-69.1l117.3-89c2-1.4,2.2-4.2.8-6.1-.8-1.3-2.2-1.7-3.3-1.7"/>
          <path class="st14" d="M5885.9,969.3c-2.4,0-4.4,2-4.4,4.4v71.3c0,1.4.6,2.5,1.7,3.3l118.9,90.3c.8.6,1.7.8,2.5.8,1.4,0,2.5-.6,3.3-1.7,1.4-2,.9-4.6-.8-6.1l-117.3-89v-69.1c0-2.4-2-4.4-4.4-4.4"/>
          <path class="st14" d="M5979.2,969.3c-2.4,0-4.4,2-4.4,4.4v71.3c0,1.4.6,2.5,1.7,3.3l118.9,90.3c.8.6,1.7.8,2.5.8,1.4,0,2.5-.6,3.3-1.7,1.4-2,.9-4.6-.8-6.1l-117.3-89v-69.1c0-2.4-2-4.4-4.4-4.4"/>
          <path class="st14" d="M6051.4,875.9c-.9,0-1.7.2-2.5.8l-118.9,90.3c-.9.8-1.7,2.2-1.7,3.3v71.3c0,2.4,2,4.4,4.4,4.4s4.4-2,4.4-4.4v-69.1l117.3-89c2-1.4,2.2-4.2.8-6.1-.8-1.3-2.2-1.7-3.3-1.7"/>
          <path class="st14" d="M6144.7,875.9c-.9,0-1.7.2-2.5.8l-118.9,90.3c-.9.8-1.7,2.2-1.7,3.3v71.3c0,2.4,2,4.4,4.4,4.4s4.4-2,4.4-4.4v-69.1l117.3-89c2-1.4,2.2-4.2.8-6.1-.8-1.3-2.2-1.7-3.3-1.7"/>
          <path class="st14" d="M5328.6,969.3c-2.4,0-4.4,2-4.4,4.4v71.3c0,1.4.6,2.5,1.7,3.3l118.9,90.3c.8.6,1.7.8,2.5.8,1.4,0,2.5-.6,3.3-1.7,1.4-2,.9-4.6-.8-6.1l-117.3-89v-69.1c0-2.4-2-4.4-4.4-4.4"/>
          <path class="st14" d="M5421.7,969.3c-2.4,0-4.4,2-4.4,4.4v71.3c0,1.4.6,2.5,1.7,3.3l118.9,90.3c.8.6,1.7.8,2.5.8,1.4,0,2.5-.6,3.3-1.7,1.4-2,.9-4.6-.8-6.1l-117.3-89v-69.1c0-2.4-2-4.4-4.4-4.4"/>
          <path class="st14" d="M5493.9,875.9c-.9,0-1.7.2-2.5.8l-118.9,90.3c-.9.8-1.7,2.2-1.7,3.3v71.3c0,2.4,2,4.4,4.4,4.4s4.4-2,4.4-4.4v-69.1l117.3-89c2-1.4,2.2-4.2.8-6.1-.8-1.3-2.2-1.7-3.3-1.7"/>
          <path class="st14" d="M5587.5,875.9c-.9,0-1.7.2-2.5.8l-118.9,90.3c-.9.8-1.7,2.2-1.7,3.3v71.3c0,2.4,2,4.4,4.4,4.4s4.4-2,4.4-4.4v-69.1l117.3-89c2-1.4,2.2-4.2.8-6.1-.8-1.3-2.2-1.7-3.3-1.7"/>
          <path class="st14" d="M5514.5,969.3c-2.4,0-4.4,2-4.4,4.4v71.3c0,1.4.6,2.5,1.7,3.3l118.9,90.3c.8.6,1.7.8,2.5.8,1.4,0,2.5-.6,3.3-1.7,1.4-2,.9-4.6-.8-6.1l-117.3-89v-69.1c0-2.4-2-4.4-4.4-4.4"/>
          <path class="st14" d="M5607.6,969.3c-2.4,0-4.4,2-4.4,4.4v71.3c0,1.4.6,2.5,1.7,3.3l118.9,90.3c.8.6,1.7.8,2.5.8,1.4,0,2.5-.6,3.3-1.7,1.4-2,.9-4.6-.8-6.1l-117.3-89v-69.1c0-2.4-2-4.4-4.4-4.4"/>
          <path class="st14" d="M5680.2,875.9c-.9,0-1.7.2-2.5.8l-118.9,90.3c-.9.8-1.7,2.2-1.7,3.3v71.3c0,2.4,2,4.4,4.4,4.4s4.4-2,4.4-4.4v-69.1l117.3-89c2-1.4,2.2-4.2.8-6.1-.8-1.3-2.2-1.7-3.3-1.7"/>
          <path class="st14" d="M5773.5,875.9c-.9,0-1.7.2-2.5.8l-118.9,90.3c-.9.8-1.7,2.2-1.7,3.3v71.3c0,2.4,2,4.4,4.4,4.4s4.4-2,4.4-4.4v-69.1l117.3-89c2-1.4,2.2-4.2.8-6.1-.8-1.3-2.2-1.7-3.3-1.7"/>
          <path class="st14" d="M6469.4,1254.8c-2.4,0-4.4,2-4.4,4.4v69.1l-117.3,89c-2,1.4-2.2,4.2-.8,6.1.8,1.3,2.2,1.7,3.3,1.7s1.7-.2,2.5-.8l118.9-90.3c.9-.8,1.7-2.2,1.7-3.3v-71.3c0-2.4-2-4.4-4.4-4.4"/>
          <path class="st14" d="M6304.3,1161.4c-1.4,0-2.5.6-3.3,1.7-1.4,2-.9,4.6.8,6.1l117.3,89v69.1c0,2.4,2,4.4,4.4,4.4s4.4-2,4.4-4.4v-71.3c0-1.4-.6-2.5-1.7-3.3l-118.9-90.3c-.8-.6-1.7-.8-2.5-.8"/>
          <path class="st14" d="M6211,1161.4c-1.4,0-2.5.6-3.3,1.7-1.4,2-.9,4.6.8,6.1l117.3,89v69.1c0,2.4,2,4.4,4.4,4.4s4.4-2,4.4-4.4v-71.3c0-1.4-.6-2.5-1.7-3.3l-118.9-90.3c-.8-.6-1.7-.8-2.5-.8"/>
          <path class="st14" d="M6376.7,1254.8c-2.4,0-4.4,2-4.4,4.4v69.1l-117.3,89c-2,1.4-2.2,4.2-.8,6.1.8,1.3,2.2,1.7,3.3,1.7s1.7-.2,2.5-.8l118.9-90.3c.9-.8,1.7-2.2,1.7-3.3v-71.3c0-2.4-2-4.4-4.4-4.4"/>
          <path class="st14" d="M6283.2,1254.8c-2.4,0-4.4,2-4.4,4.4v69.1l-117.3,89c-2,1.4-2.2,4.2-.8,6.1.8,1.3,2.2,1.7,3.3,1.7s1.7-.2,2.5-.8l118.9-90.3c.9-.8,1.7-2.2,1.7-3.3v-71.3c0-2.4-2-4.4-4.4-4.4"/>
          <path class="st14" d="M6076.4,969.3c-2.4,0-4.4,2-4.4,4.4v71.3c0,1.4.6,2.5,1.7,3.3l118.9,90.3c.8.6,1.7.8,2.5.8,1.4,0,2.5-.6,3.3-1.7,1.4-2,.9-4.6-.8-6.1l-117.3-89v-69.1c0-2.4-2-4.4-4.4-4.4"/>
          <path class="st14" d="M6169.7,969.3c-2.4,0-4.4,2-4.4,4.4v71.3c0,1.4.6,2.5,1.7,3.3l118.9,90.3c.8.6,1.7.8,2.5.8,1.4,0,2.5-.6,3.3-1.7,1.4-2,.9-4.6-.8-6.1l-117.3-89v-69.1c0-2.4-2-4.4-4.4-4.4"/>
          <path class="st14" d="M6241.9,875.9c-.9,0-1.7.2-2.5.8l-118.9,90.3c-.9.8-1.7,2.2-1.7,3.3v71.3c0,2.4,2,4.4,4.4,4.4s4.4-2,4.4-4.4v-69.1l117.3-89c2-1.4,2.2-4.2.8-6.1-.8-1.3-2.2-1.7-3.3-1.7"/>
          <path class="st14" d="M6335.4,875.9c-.9,0-1.7.2-2.5.8l-118.9,90.3c-.9.8-1.7,2.2-1.7,3.3v71.3c0,2.4,2,4.4,4.4,4.4s4.4-2,4.4-4.4v-69.1l117.3-89c2-1.4,2.2-4.2.8-6.1-.8-1.3-2.2-1.7-3.3-1.7"/>
          <path class="st14" d="M6262.4,969.3c-2.4,0-4.4,2-4.4,4.4v71.3c0,1.4.6,2.5,1.7,3.3l118.9,90.3c.8.6,1.7.8,2.5.8,1.4,0,2.5-.6,3.3-1.7,1.4-2,.9-4.6-.8-6.1l-117.3-89v-69.1c0-2.4-2-4.4-4.4-4.4"/>
          <path class="st14" d="M6355.8,969.3c-2.4,0-4.4,2-4.4,4.4v71.3c0,1.4.6,2.5,1.7,3.3l118.9,90.3c.8.6,1.7.8,2.5.8,1.4,0,2.5-.6,3.3-1.7,1.4-2,.9-4.6-.8-6.1l-117.3-89v-69.1c0-2.4-2-4.4-4.4-4.4"/>
          <path class="st14" d="M6428,875.9c-.9,0-1.7.2-2.5.8l-118.9,90.3c-.9.8-1.7,2.2-1.7,3.3v71.3c0,2.4,2,4.4,4.4,4.4s4.4-2,4.4-4.4v-69.1l117.3-89c2-1.4,2.2-4.2.8-6.1-.8-1.3-2.2-1.7-3.3-1.7"/>
        </g>
      </g>
      <path class="st12" d="M5069.1,65.3v433.9h-433.9c0-239.7,194.3-433.9,433.9-433.9"/>
      <g class="st17">
        <g>
          <path class="st0" d="M5477.9,616.4c-18.5,0-28.1,5.8-36.7,10.8-8.5,5.2-16.6,9.9-33,9.9s-24.3-4.7-33-9.9-18.2-10.8-36.7-10.8-28.1,5.8-36.7,10.8c-8.6,5-16.6,9.9-33,9.9s-24.3-4.7-33-9.9-18.2-10.8-36.7-10.8-28.1,5.8-36.7,10.8c-8.6,5-16.6,9.9-33,9.9s-24.3-4.7-33-9.9c-8.6-5.2-18.2-10.8-36.7-10.8s-28.1,5.8-36.7,10.8c-8.6,5-16.6,9.9-33,9.9s-24.3-4.7-33-9.9-18.2-10.8-36.7-10.8-28,5.8-36.7,10.8h-.2c-8.2,5.2-15.9,9.7-31.4,9.9-15.5-.2-23.4-5-31.7-9.9-8.5-5.2-18.2-10.8-36.7-10.8s-28.1,5.8-36.7,10.8-16.6,9.9-33,9.9-24.3-4.7-33-9.9c-8.6-5.2-18.2-10.8-36.7-10.8s-28.1,5.8-36.7,10.8-16.6,9.9-33,9.9-24.3-4.7-33-9.9c-8.6-5.2-18.2-10.8-36.7-10.8s-28.1,5.8-36.7,10.8-16.6,9.9-33,9.9-24.3-4.7-33-9.9c-8.6-5.2-18.2-10.8-36.7-10.8s-28.1,5.8-36.7,10.8-16.6,9.9-33,9.9-24.3-4.7-33-9.9c-8.6-5.2-18.2-10.8-36.7-10.8s-28,5.8-36.7,10.8h-.2c-8.3,5.2-16.3,9.9-32.7,9.9v18.2c21.4,0,33-6.9,42.1-12.2h.5c7.7-4.7,13.8-8.5,27.2-8.5s19.5,3.8,27.2,8.3c9.3,5.5,20.9,12.6,42.4,12.6s33.1-6.9,42.4-12.6c7.7-4.7,13.8-8.3,27.2-8.3s19.5,3.8,27.2,8.3c9.3,5.5,20.9,12.6,42.4,12.6s33.1-6.9,42.4-12.6c7.7-4.7,13.8-8.3,27.2-8.3s19.5,3.8,27.2,8.3c9.3,5.5,20.9,12.6,42.4,12.6s33.1-6.9,42.4-12.6c7.7-4.7,13.8-8.3,27.2-8.3s19.5,3.8,27.2,8.3c9.3,5.5,20.9,12.6,42.4,12.6s33.1-6.9,42.4-12.6c7.7-4.7,13.8-8.3,27.2-8.3s19.5,3.8,27.2,8.3c9,5.3,19.8,11.9,39.7,12.6h2.8c19.8-.6,30.6-7.1,39.4-12.2h.5c7.7-4.7,13.8-8.5,27.2-8.5s19.5,3.8,27.2,8.3c9.3,5.5,20.9,12.6,42.4,12.6s33.1-6.9,42.4-12.6c7.7-4.7,13.8-8.3,27.2-8.3s19.5,3.8,27.2,8.3c9.3,5.5,20.9,12.6,42.4,12.6s33.1-6.9,42.4-12.6c7.7-4.7,13.8-8.3,27.2-8.3s19.5,3.8,27.2,8.3c9.3,5.5,20.9,12.6,42.4,12.6s33.1-6.9,42.4-12.6c7.7-4.7,13.8-8.3,27.2-8.3s19.5,3.8,27.2,8.3c9.3,5.5,20.9,12.6,42.4,12.6s33.1-6.9,42.4-12.6c7.7-4.7,13.8-8.3,27.2-8.3s19.5,3.8,27.2,8.3c9.3,5.5,20.9,12.6,42.4,12.6v-18.2c-16.5,0-24.3-4.7-33-9.9-8.6-5.2-18.2-10.8-36.7-10.8"/>
          <path class="st0" d="M5477.9,565.9c-18.5,0-28.1,5.8-36.7,10.8-8.6,5-16.6,9.9-33,9.9s-24.3-4.7-33-9.9-18.2-10.8-36.7-10.8-28.1,5.8-36.7,10.8c-8.6,5-16.6,9.9-33,9.9s-24.3-4.7-33-9.9-18.2-10.8-36.7-10.8-28.1,5.8-36.7,10.8c-8.6,5-16.6,9.9-33,9.9s-24.3-4.7-33-9.9-18.2-10.8-36.7-10.8-28.1,5.8-36.7,10.8c-8.6,5-16.6,9.9-33,9.9s-24.3-4.7-33-9.9-18.2-10.8-36.7-10.8-28,5.8-36.7,10.8h-.2c-8.2,5.2-15.9,9.7-31.4,9.9-15.5-.2-23.4-5-31.7-9.9-8.5-5.2-18.2-10.8-36.7-10.8s-28.1,5.8-36.7,10.8-16.6,9.9-33,9.9-24.3-4.7-33-9.9-18.2-10.8-36.7-10.8-28.1,5.8-36.7,10.8-16.6,9.9-33,9.9-24.3-4.7-33-9.9c-8.6-5.2-18.2-10.8-36.7-10.8s-28.1,5.8-36.7,10.8-16.6,9.9-33,9.9-24.3-4.7-33-9.9c-8.6-5.2-18.2-10.8-36.7-10.8s-28.1,5.8-36.7,10.8-16.6,9.9-33,9.9-24.3-4.7-33-9.9c-8.6-5.2-18.2-10.8-36.7-10.8s-28,5.8-36.7,10.8h-.2c-8.3,5.2-16.3,9.9-32.7,9.9v18.2c21.4,0,33-6.9,42.1-12.2h.5c7.7-4.7,13.8-8.5,27.2-8.5s19.5,3.8,27.2,8.3c9.3,5.5,20.9,12.6,42.4,12.6s33.1-6.9,42.4-12.6c7.7-4.7,13.8-8.3,27.2-8.3s19.5,3.8,27.2,8.3c9.3,5.5,20.9,12.6,42.4,12.6s33.1-6.9,42.4-12.6c7.7-4.7,13.8-8.3,27.2-8.3s19.5,3.8,27.2,8.3c9.3,5.5,20.9,12.6,42.4,12.6s33.1-6.9,42.4-12.6c7.7-4.7,13.8-8.3,27.2-8.3s19.5,3.8,27.2,8.3c9.3,5.5,20.9,12.6,42.4,12.6s33.1-6.9,42.4-12.6c7.7-4.7,13.8-8.3,27.2-8.3s19.5,3.8,27.2,8.3c9,5.3,19.8,11.9,39.7,12.6h2.8c19.8-.6,30.6-7.1,39.4-12.2h.5c7.7-4.7,13.8-8.5,27.2-8.5s19.5,3.8,27.2,8.3c9.3,5.5,20.9,12.6,42.4,12.6s33.1-6.9,42.4-12.6c7.7-4.7,13.8-8.3,27.2-8.3s19.5,3.8,27.2,8.3c9.3,5.5,20.9,12.6,42.4,12.6s33.1-6.9,42.4-12.6c7.7-4.7,13.8-8.3,27.2-8.3s19.5,3.8,27.2,8.3c9.3,5.5,20.9,12.6,42.4,12.6s33.1-6.9,42.4-12.6c7.7-4.7,13.8-8.3,27.2-8.3s19.5,3.8,27.2,8.3c9.3,5.5,20.9,12.6,42.4,12.6s33.1-6.9,42.4-12.6c7.7-4.7,13.8-8.3,27.2-8.3s19.5,3.8,27.2,8.3c9.3,5.5,20.9,12.6,42.4,12.6v-18.2c-16.5,0-24.3-4.7-33-9.9-8.6-5.2-18.2-10.8-36.7-10.8"/>
          <path class="st0" d="M5477.9,515.4c-18.5,0-28.1,5.8-36.7,10.8-8.6,5-16.6,9.9-33,9.9s-24.3-4.7-33-9.9-18.2-10.8-36.7-10.8-28.1,5.8-36.7,10.8c-8.6,5-16.6,9.9-33,9.9s-24.3-4.7-33-9.9-18.2-10.8-36.7-10.8-28.1,5.8-36.7,10.8c-8.6,5-16.6,9.9-33,9.9s-24.3-4.7-33-9.9-18.2-10.8-36.7-10.8-28.1,5.8-36.7,10.8c-8.6,5-16.6,9.9-33,9.9s-24.3-4.7-33-9.9-18.2-10.8-36.7-10.8-28,5.8-36.7,10.8h-.2c-8.2,5-15.9,9.7-31.4,9.9-15.5-.2-23.4-5-31.7-9.9-8.5-5.2-18.2-10.8-36.7-10.8s-28.1,5.8-36.7,10.8-16.6,9.9-33,9.9-24.3-4.7-33-9.9-18.2-10.8-36.7-10.8-28.1,5.8-36.7,10.8-16.6,9.9-33,9.9-24.3-4.7-33-9.9c-8.6-5.2-18.2-10.8-36.7-10.8s-28.1,5.8-36.7,10.8-16.6,9.9-33,9.9-24.3-4.7-33-9.9c-8.6-5.2-18.2-10.8-36.7-10.8s-28.1,5.8-36.7,10.8-16.6,9.9-33,9.9-24.3-4.7-33-9.9c-8.6-5.2-18.2-10.8-36.7-10.8s-28,5.8-36.7,10.8h-.2c-8.3,5.2-16.3,9.9-32.7,9.9v18.2c21.4,0,33-6.9,42.1-12.2h.5c7.7-4.7,13.8-8.5,27.2-8.5s19.5,3.8,27.2,8.3c9.3,5.5,20.9,12.6,42.4,12.6s33.1-6.9,42.4-12.6c7.7-4.7,13.8-8.3,27.2-8.3s19.5,3.8,27.2,8.3c9.3,5.5,20.9,12.6,42.4,12.6s33.1-6.9,42.4-12.6c7.7-4.7,13.8-8.3,27.2-8.3s19.5,3.8,27.2,8.3c9.3,5.5,20.9,12.6,42.4,12.6s33.1-6.9,42.4-12.6c7.7-4.7,13.8-8.3,27.2-8.3s19.5,3.8,27.2,8.3c9.3,5.5,20.9,12.6,42.4,12.6s33.1-6.9,42.4-12.6c7.7-4.7,13.8-8.3,27.2-8.3s19.5,3.8,27.2,8.3c9,5.3,19.8,11.9,39.7,12.6h2.8c19.8-.6,30.6-7.1,39.4-12.2h.5c7.7-4.7,13.8-8.5,27.2-8.5s19.5,3.8,27.2,8.3c9.3,5.5,20.9,12.6,42.4,12.6s33.1-6.9,42.4-12.6c7.7-4.7,13.8-8.3,27.2-8.3s19.5,3.8,27.2,8.3c9.3,5.5,20.9,12.6,42.4,12.6s33.1-6.9,42.4-12.6c7.7-4.7,13.8-8.3,27.2-8.3s19.5,3.8,27.2,8.3c9.3,5.5,20.9,12.6,42.4,12.6s33.1-6.9,42.4-12.6c7.7-4.7,13.8-8.3,27.2-8.3s19.5,3.8,27.2,8.3c9.3,5.5,20.9,12.6,42.4,12.6s33.1-6.9,42.4-12.6c7.7-4.7,13.8-8.3,27.2-8.3s19.5,3.8,27.2,8.3c9.3,5.5,20.9,12.6,42.4,12.6v-18.2c-16.5,0-24.3-4.7-33-9.9-8.6-5.2-18.2-10.8-36.7-10.8"/>
          <path class="st0" d="M5477.9,464.9c-18.5,0-28.1,5.8-36.7,10.8-8.6,5-16.6,9.9-33,9.9s-24.3-4.7-33-9.9-18.2-10.8-36.7-10.8-28.1,5.8-36.7,10.8c-8.6,5-16.6,9.9-33,9.9s-24.3-4.7-33-9.9-18.2-10.8-36.7-10.8-28.1,5.8-36.7,10.8c-8.6,5-16.6,9.9-33,9.9s-24.3-4.7-33-9.9-18.2-10.8-36.7-10.8-28.1,5.8-36.7,10.8c-8.6,5-16.6,9.9-33,9.9s-24.3-4.7-33-9.9-18.2-10.8-36.7-10.8-28,5.8-36.7,10.8h-.2c-8.2,5.2-15.9,9.7-31.4,9.9-15.5-.2-23.4-5-31.7-9.9-8.5-5.2-18.2-10.8-36.7-10.8s-28.1,5.8-36.7,10.8-16.6,9.9-33,9.9-24.3-4.7-33-9.9-18.2-10.8-36.7-10.8-28.1,5.8-36.7,10.8-16.6,9.9-33,9.9-24.3-4.7-33-9.9c-8.6-5.2-18.2-10.8-36.7-10.8s-28.1,5.8-36.7,10.8-16.6,9.9-33,9.9-24.3-4.7-33-9.9c-8.6-5.2-18.2-10.8-36.7-10.8s-28.1,5.8-36.7,10.8-16.6,9.9-33,9.9-24.3-4.7-33-9.9c-8.6-5.2-18.2-10.8-36.7-10.8s-28,5.8-36.7,10.8h-.2c-8.3,5.2-16.3,9.9-32.7,9.9v18.2c21.4,0,33-6.9,42.1-12.2h.5c7.7-4.7,13.8-8.5,27.2-8.5s19.5,3.8,27.2,8.3c9.3,5.5,20.9,12.6,42.4,12.6s33.1-6.9,42.4-12.6c7.7-4.7,13.8-8.3,27.2-8.3s19.5,3.8,27.2,8.3c9.3,5.5,20.9,12.6,42.4,12.6s33.1-6.9,42.4-12.6c7.7-4.7,13.8-8.3,27.2-8.3s19.5,3.8,27.2,8.3c9.3,5.5,20.9,12.6,42.4,12.6s33.1-6.9,42.4-12.6c7.7-4.7,13.8-8.3,27.2-8.3s19.5,3.8,27.2,8.3c9.3,5.5,20.9,12.6,42.4,12.6s33.1-6.9,42.4-12.6c7.7-4.7,13.8-8.3,27.2-8.3s19.5,3.8,27.2,8.3c9,5.3,19.8,11.9,39.7,12.6h2.8c19.8-.6,30.6-7.1,39.4-12.2h.5c7.7-4.7,13.8-8.5,27.2-8.5s19.5,3.8,27.2,8.3c9.3,5.5,20.9,12.6,42.4,12.6s33.1-6.9,42.4-12.6c7.7-4.7,13.8-8.3,27.2-8.3s19.5,3.8,27.2,8.3c9.3,5.5,20.9,12.6,42.4,12.6s33.1-6.9,42.4-12.6c7.7-4.7,13.8-8.3,27.2-8.3s19.5,3.8,27.2,8.3c9.3,5.5,20.9,12.6,42.4,12.6s33.1-6.9,42.4-12.6c7.7-4.7,13.8-8.3,27.2-8.3s19.5,3.8,27.2,8.3c9.3,5.5,20.9,12.6,42.4,12.6s33.1-6.9,42.4-12.6c7.7-4.7,13.8-8.3,27.2-8.3s19.5,3.8,27.2,8.3c9.3,5.5,20.9,12.6,42.4,12.6v-18.2c-16.5,0-24.3-4.7-33-9.9-8.6-5.2-18.2-10.8-36.7-10.8"/>
          <path class="st0" d="M5477.9,414.5c-18.5,0-28.1,5.8-36.7,10.8-8.6,5-16.6,9.9-33,9.9s-24.3-4.7-33-9.9c-8.5-5.2-18.2-10.8-36.7-10.8s-28.1,5.8-36.7,10.8c-8.5,5.2-16.6,9.9-33,9.9s-24.3-4.7-33-9.9c-8.5-5.2-18.2-10.8-36.7-10.8s-28.1,5.8-36.7,10.8c-8.5,5.2-16.6,9.9-33,9.9s-24.3-4.7-33-9.9c-8.5-5.2-18.2-10.8-36.7-10.8s-28.1,5.8-36.7,10.8c-8.5,5.2-16.6,9.9-33,9.9s-24.3-4.7-33-9.9c-8.5-5.2-18.2-10.8-36.7-10.8s-28,5.8-36.7,10.8h-.2c-8.2,5-15.9,9.7-31.4,9.9-15.5-.2-23.4-5-31.7-9.9-8.5-5.2-18.2-10.8-36.7-10.8s-28.1,5.8-36.7,10.8-16.6,9.9-33,9.9-24.3-4.7-33-9.9c-8.5-5.2-18.2-10.8-36.7-10.8s-28.1,5.8-36.7,10.8c-8.5,5.2-16.6,9.9-33,9.9s-24.3-4.7-33-9.9c-8.5-5.2-18.2-10.8-36.7-10.8s-28.1,5.8-36.7,10.8c-8.5,5.2-16.6,9.9-33,9.9s-24.3-4.7-33-9.9c-8.5-5.2-18.2-10.8-36.7-10.8s-28.1,5.8-36.7,10.8c-8.5,5.2-16.6,9.9-33,9.9s-24.3-4.7-33-9.9c-8.6-5.2-18.2-10.8-36.7-10.8s-28,5.8-36.7,10.8h-.2c-8.3,5.2-16.3,9.9-32.7,9.9v18.2c21.4,0,33-6.9,42.1-12.2h.5c7.7-4.7,13.8-8.5,27.2-8.5s19.5,3.8,27.2,8.3c9.3,5.5,20.9,12.6,42.4,12.6s33.1-6.9,42.4-12.6c7.7-4.7,13.8-8.3,27.2-8.3s19.5,3.8,27.2,8.3c9.3,5.5,20.9,12.6,42.4,12.6s33.1-6.9,42.4-12.6c7.7-4.7,13.8-8.3,27.2-8.3s19.5,3.8,27.2,8.3c9.3,5.5,20.9,12.6,42.4,12.6s33.1-6.9,42.4-12.6c7.7-4.7,13.8-8.3,27.2-8.3s19.5,3.8,27.2,8.3c9.3,5.5,20.9,12.6,42.4,12.6s33.1-6.9,42.4-12.6c7.7-4.7,13.8-8.3,27.2-8.3s19.5,3.8,27.2,8.3c9,5.3,19.8,11.9,39.7,12.6h2.8c19.8-.6,30.6-7.1,39.4-12.2h.5c7.7-4.7,13.8-8.5,27.2-8.5s19.5,3.8,27.2,8.3c9.3,5.5,20.9,12.6,42.4,12.6s33.1-6.9,42.4-12.6c7.7-4.7,13.8-8.3,27.2-8.3s19.5,3.8,27.2,8.3c9.3,5.5,20.9,12.6,42.4,12.6s33.1-6.9,42.4-12.6c7.7-4.7,13.8-8.3,27.2-8.3s19.5,3.8,27.2,8.3c9.3,5.5,20.9,12.6,42.4,12.6s33.1-6.9,42.4-12.6c7.7-4.7,13.8-8.3,27.2-8.3s19.5,3.8,27.2,8.3c9.3,5.5,20.9,12.6,42.4,12.6s33.1-6.9,42.4-12.6c7.7-4.7,13.8-8.3,27.2-8.3s19.5,3.8,27.2,8.3c9.3,5.5,20.9,12.6,42.4,12.6v-18.2c-16.5,0-24.3-4.7-33-9.9-8.6-5.2-18.2-10.8-36.7-10.8"/>
          <path class="st0" d="M5477.9,363.7c-18.5,0-28.1,5.8-36.7,10.8-8.6,5-16.6,9.9-33,9.9s-24.3-4.7-33-9.9c-8.5-5.2-18.2-10.8-36.7-10.8s-28.1,5.8-36.7,10.8c-8.5,5.2-16.6,9.9-33,9.9s-24.3-4.7-33-9.9c-8.5-5.2-18.2-10.8-36.7-10.8s-28.1,5.8-36.7,10.8c-8.5,5.2-16.6,9.9-33,9.9s-24.3-4.7-33-9.9c-8.5-5.2-18.2-10.8-36.7-10.8s-28.1,5.8-36.7,10.8c-8.5,5.2-16.6,9.9-33,9.9s-24.3-4.7-33-9.9c-8.5-5.2-18.2-10.8-36.7-10.8s-28,5.8-36.7,10.8h-.2c-8.2,5-15.9,9.7-31.4,9.9-15.5-.2-23.4-5-31.7-9.9-8.5-5.2-18.2-10.8-36.7-10.8s-28.1,5.8-36.7,10.8-16.6,9.9-33,9.9-24.3-4.7-33-9.9c-8.5-5.2-18.2-10.8-36.7-10.8s-28.1,5.8-36.7,10.8c-8.5,5.2-16.6,9.9-33,9.9s-24.3-4.7-33-9.9c-8.5-5.2-18.2-10.8-36.7-10.8s-28.1,5.8-36.7,10.8c-8.5,5.2-16.6,9.9-33,9.9s-24.3-4.7-33-9.9c-8.5-5.2-18.2-10.8-36.7-10.8s-28.1,5.8-36.7,10.8c-8.5,5.2-16.6,9.9-33,9.9s-24.3-4.7-33-9.9c-8.6-5.2-18.2-10.8-36.7-10.8s-28,5.8-36.7,10.8h-.2c-8.3,5.2-16.3,9.9-32.7,9.9v18.2c21.4,0,33-6.9,42.1-12.2h.5c7.7-4.7,13.8-8.5,27.2-8.5s19.5,3.8,27.2,8.3c9.3,5.5,20.9,12.6,42.4,12.6s33.1-6.9,42.4-12.6c7.7-4.7,13.8-8.3,27.2-8.3s19.5,3.8,27.2,8.3c9.3,5.5,20.9,12.6,42.4,12.6s33.1-6.9,42.4-12.6c7.7-4.7,13.8-8.3,27.2-8.3s19.5,3.8,27.2,8.3c9.3,5.5,20.9,12.6,42.4,12.6s33.1-6.9,42.4-12.6c7.7-4.7,13.8-8.3,27.2-8.3s19.5,3.8,27.2,8.3c9.3,5.5,20.9,12.6,42.4,12.6s33.1-6.9,42.4-12.6c7.7-4.7,13.8-8.3,27.2-8.3s19.5,3.8,27.2,8.3c9,5.3,19.8,11.9,39.7,12.6h2.8c19.8-.6,30.6-7.1,39.4-12.2h.5c7.7-4.7,13.8-8.5,27.2-8.5s19.5,3.8,27.2,8.3c9.3,5.5,20.9,12.6,42.4,12.6s33.1-6.9,42.4-12.6c7.7-4.7,13.8-8.3,27.2-8.3s19.5,3.8,27.2,8.3c9.3,5.5,20.9,12.6,42.4,12.6s33.1-6.9,42.4-12.6c7.7-4.7,13.8-8.3,27.2-8.3s19.5,3.8,27.2,8.3c9.3,5.5,20.9,12.6,42.4,12.6s33.1-6.9,42.4-12.6c7.7-4.7,13.8-8.3,27.2-8.3s19.5,3.8,27.2,8.3c9.3,5.5,20.9,12.6,42.4,12.6s33.1-6.9,42.4-12.6c7.7-4.7,13.8-8.3,27.2-8.3s19.5,3.8,27.2,8.3c9.3,5.5,20.9,12.6,42.4,12.6v-18.2c-16.5,0-24.3-4.7-33-9.9-8.6-5.2-18.2-10.8-36.7-10.8"/>
          <path class="st0" d="M5477.9,313.3c-18.5,0-28.1,5.8-36.7,10.8-8.5,5.2-16.6,9.9-33,9.9s-24.3-4.7-33-9.9-18.2-10.8-36.7-10.8-28.1,5.8-36.7,10.8c-8.6,5-16.6,9.9-33,9.9s-24.3-4.7-33-9.9-18.2-10.8-36.7-10.8-28.1,5.8-36.7,10.8c-8.6,5-16.6,9.9-33,9.9s-24.3-4.7-33-9.9-18.2-10.8-36.7-10.8-28.1,5.8-36.7,10.8c-8.6,5-16.6,9.9-33,9.9s-24.3-4.7-33-9.9-18.2-10.8-36.7-10.8-28,5.8-36.7,10.8h-.2c-8.2,5-15.9,9.7-31.4,9.9-15.5-.2-23.4-5-31.7-9.9-8.5-5.2-18.2-10.8-36.7-10.8s-28.1,5.8-36.7,10.8c-8.6,5-16.6,9.9-33,9.9s-24.3-4.7-33-9.9-18.2-10.8-36.7-10.8-28.1,5.8-36.7,10.8-16.6,9.9-33,9.9-24.3-4.7-33-9.9c-8.6-5.2-18.2-10.8-36.7-10.8s-28.1,5.8-36.7,10.8-16.6,9.9-33,9.9-24.3-4.7-33-9.9c-8.6-5.2-18.2-10.8-36.7-10.8s-28.1,5.8-36.7,10.8-16.6,9.9-33,9.9-24.3-4.7-33-9.9c-8.6-5.2-18.2-10.8-36.7-10.8s-28,5.8-36.7,10.8h-.2c-8.3,5.2-16.3,9.9-32.7,9.9v18.2c21.4,0,33-6.9,42.1-12.2h.5c7.7-4.7,13.8-8.5,27.2-8.5s19.5,3.8,27.2,8.3c9.3,5.5,20.9,12.6,42.4,12.6s33.1-6.9,42.4-12.6c7.7-4.7,13.8-8.3,27.2-8.3s19.5,3.8,27.2,8.3c9.3,5.5,20.9,12.6,42.4,12.6s33.1-6.9,42.4-12.6c7.7-4.7,13.8-8.3,27.2-8.3s19.5,3.8,27.2,8.3c9.3,5.5,20.9,12.6,42.4,12.6s33.1-6.9,42.4-12.6c7.7-4.7,13.8-8.3,27.2-8.3s19.5,3.8,27.2,8.3c9.3,5.5,20.9,12.6,42.4,12.6s33.1-6.9,42.4-12.6c7.7-4.7,13.8-8.3,27.2-8.3s19.5,3.8,27.2,8.3c9,5.3,19.8,11.9,39.7,12.6h2.8c19.8-.6,30.6-7.1,39.4-12.2h.5c7.7-4.7,13.8-8.5,27.2-8.5s19.5,3.8,27.2,8.3c9.3,5.5,20.9,12.6,42.4,12.6s33.1-6.9,42.4-12.6c7.7-4.7,13.8-8.3,27.2-8.3s19.5,3.8,27.2,8.3c9.3,5.5,20.9,12.6,42.4,12.6s33.1-6.9,42.4-12.6c7.7-4.7,13.8-8.3,27.2-8.3s19.5,3.8,27.2,8.3c9.3,5.5,20.9,12.6,42.4,12.6s33.1-6.9,42.4-12.6c7.7-4.7,13.8-8.3,27.2-8.3s19.5,3.8,27.2,8.3c9.3,5.5,20.9,12.6,42.4,12.6s33.1-6.9,42.4-12.6c7.7-4.7,13.8-8.3,27.2-8.3s19.5,3.8,27.2,8.3c9.3,5.5,20.9,12.6,42.4,12.6v-18.2c-16.5,0-24.3-4.7-33-9.9-8.6-5.2-18.2-10.8-36.7-10.8"/>
          <path class="st0" d="M5477.9,262.8c-18.5,0-28.1,5.8-36.7,10.8-8.5,5.2-16.6,9.9-33,9.9s-24.3-4.7-33-9.9-18.2-10.8-36.7-10.8-28.1,5.8-36.7,10.8c-8.6,5-16.6,9.9-33,9.9s-24.3-4.7-33-9.9-18.2-10.8-36.7-10.8-28.1,5.8-36.7,10.8c-8.6,5-16.6,9.9-33,9.9s-24.3-4.7-33-9.9-18.2-10.8-36.7-10.8-28.1,5.8-36.7,10.8c-8.6,5-16.6,9.9-33,9.9s-24.3-4.7-33-9.9-18.2-10.8-36.7-10.8-28,5.8-36.7,10.8h-.2c-8.2,5-15.9,9.7-31.4,9.9-15.5-.2-23.4-5-31.7-9.9-8.5-5.2-18.2-10.8-36.7-10.8s-28.1,5.8-36.7,10.8-16.6,9.9-33,9.9-24.3-4.7-33-9.9-18.2-10.8-36.7-10.8-28.1,5.8-36.7,10.8-16.6,9.9-33,9.9-24.3-4.7-33-9.9c-8.6-5.2-18.2-10.8-36.7-10.8s-28.1,5.8-36.7,10.8-16.6,9.9-33,9.9-24.3-4.7-33-9.9c-8.6-5.2-18.2-10.8-36.7-10.8s-28.1,5.8-36.7,10.8-16.6,9.9-33,9.9-24.3-4.7-33-9.9c-8.6-5.2-18.2-10.8-36.7-10.8s-28,5.8-36.7,10.8h-.2c-8.3,5.2-16.3,9.9-32.7,9.9v18.2c21.4,0,33-6.9,42.1-12.2h.5c7.7-4.7,13.8-8.5,27.2-8.5s19.5,3.8,27.2,8.3c9.3,5.5,20.9,12.6,42.4,12.6s33.1-6.9,42.4-12.6c7.7-4.7,13.8-8.3,27.2-8.3s19.5,3.8,27.2,8.3c9.3,5.5,20.9,12.6,42.4,12.6s33.1-6.9,42.4-12.6c7.7-4.7,13.8-8.3,27.2-8.3s19.5,3.8,27.2,8.3c9.3,5.5,20.9,12.6,42.4,12.6s33.1-6.9,42.4-12.6c7.7-4.7,13.8-8.3,27.2-8.3s19.5,3.8,27.2,8.3c9.3,5.5,20.9,12.6,42.4,12.6s33.1-6.9,42.4-12.6c7.7-4.7,13.8-8.3,27.2-8.3s19.5,3.8,27.2,8.3c9,5.3,19.8,11.9,39.7,12.6h2.8c19.8-.6,30.6-7.1,39.4-12.2h.5c7.7-4.7,13.8-8.5,27.2-8.5s19.5,3.8,27.2,8.3c9.3,5.5,20.9,12.6,42.4,12.6s33.1-6.9,42.4-12.6c7.7-4.7,13.8-8.3,27.2-8.3s19.5,3.8,27.2,8.3c9.3,5.5,20.9,12.6,42.4,12.6s33.1-6.9,42.4-12.6c7.7-4.7,13.8-8.3,27.2-8.3s19.5,3.8,27.2,8.3c9.3,5.5,20.9,12.6,42.4,12.6s33.1-6.9,42.4-12.6c7.7-4.7,13.8-8.3,27.2-8.3s19.5,3.8,27.2,8.3c9.3,5.5,20.9,12.6,42.4,12.6s33.1-6.9,42.4-12.6c7.7-4.7,13.8-8.3,27.2-8.3s19.5,3.8,27.2,8.3c9.3,5.5,20.9,12.6,42.4,12.6v-18.2c-16.5,0-24.3-4.7-33-9.9-8.6-5.2-18.2-10.8-36.7-10.8"/>
          <path class="st0" d="M5477.9,212.2c-18.5,0-28.1,5.8-36.7,10.8-8.5,5.2-16.6,9.9-33,9.9s-24.3-4.7-33-9.9-18.2-10.8-36.7-10.8-28.1,5.8-36.7,10.8c-8.6,5-16.6,9.9-33,9.9s-24.3-4.7-33-9.9-18.2-10.8-36.7-10.8-28.1,5.8-36.7,10.8c-8.6,5-16.6,9.9-33,9.9s-24.3-4.7-33-9.9-18.2-10.8-36.7-10.8-28.1,5.8-36.7,10.8c-8.6,5-16.6,9.9-33,9.9s-24.3-4.7-33-9.9-18.2-10.8-36.7-10.8-28,5.8-36.7,10.8h-.2c-8.2,5-15.9,9.7-31.4,9.9-15.5-.2-23.4-5-31.7-9.9-8.5-5.2-18.2-10.8-36.7-10.8s-28.1,5.8-36.7,10.8c-8.6,5-16.6,9.9-33,9.9s-24.3-4.7-33-9.9-18.2-10.8-36.7-10.8-28.1,5.8-36.7,10.8-16.6,9.9-33,9.9-24.3-4.7-33-9.9c-8.6-5.2-18.2-10.8-36.7-10.8s-28.1,5.8-36.7,10.8-16.6,9.9-33,9.9-24.3-4.7-33-9.9c-8.6-5.2-18.2-10.8-36.7-10.8s-28.1,5.8-36.7,10.8-16.6,9.9-33,9.9-24.3-4.7-33-9.9c-8.6-5.2-18.2-10.8-36.7-10.8s-28,5.8-36.7,10.8h-.2c-8.3,5.2-16.3,9.9-32.7,9.9v18.2c21.4,0,33-6.9,42.1-12.2h.5c7.7-4.7,13.8-8.5,27.2-8.5s19.5,3.8,27.2,8.3c9.3,5.5,20.9,12.6,42.4,12.6s33.1-6.9,42.4-12.6c7.7-4.7,13.8-8.3,27.2-8.3s19.5,3.8,27.2,8.3c9.3,5.5,20.9,12.6,42.4,12.6s33.1-6.9,42.4-12.6c7.7-4.7,13.8-8.3,27.2-8.3s19.5,3.8,27.2,8.3c9.3,5.5,20.9,12.6,42.4,12.6s33.1-6.9,42.4-12.6c7.7-4.7,13.8-8.3,27.2-8.3s19.5,3.8,27.2,8.3c9.3,5.5,20.9,12.6,42.4,12.6s33.1-6.9,42.4-12.6c7.7-4.7,13.8-8.3,27.2-8.3s19.5,3.8,27.2,8.3c9,5.3,19.8,11.9,39.7,12.6h2.8c19.8-.6,30.6-7.1,39.4-12.2h.5c7.7-4.7,13.8-8.5,27.2-8.5s19.5,3.8,27.2,8.3c9.3,5.5,20.9,12.6,42.4,12.6s33.1-6.9,42.4-12.6c7.7-4.7,13.8-8.3,27.2-8.3s19.5,3.8,27.2,8.3c9.3,5.5,20.9,12.6,42.4,12.6s33.1-6.9,42.4-12.6c7.7-4.7,13.8-8.3,27.2-8.3s19.5,3.8,27.2,8.3c9.3,5.5,20.9,12.6,42.4,12.6s33.1-6.9,42.4-12.6c7.7-4.7,13.8-8.3,27.2-8.3s19.5,3.8,27.2,8.3c9.3,5.5,20.9,12.6,42.4,12.6s33.1-6.9,42.4-12.6c7.7-4.7,13.8-8.3,27.2-8.3s19.5,3.8,27.2,8.3c9.3,5.5,20.9,12.6,42.4,12.6v-18.2c-16.5,0-24.3-4.7-33-9.9-8.6-5.2-18.2-10.8-36.7-10.8"/>
          <path class="st0" d="M5477.9,161.8c-18.5,0-28.1,5.8-36.7,10.8-8.6,5-16.6,9.9-33,9.9s-24.3-4.7-33-9.9-18.2-10.8-36.7-10.8-28.1,5.8-36.7,10.8c-8.6,5-16.6,9.9-33,9.9s-24.3-4.7-33-9.9-18.2-10.8-36.7-10.8-28.1,5.8-36.7,10.8c-8.6,5-16.6,9.9-33,9.9s-24.3-4.7-33-9.9-18.2-10.8-36.7-10.8-28.1,5.8-36.7,10.8c-8.6,5-16.6,9.9-33,9.9s-24.3-4.7-33-9.9-18.2-10.8-36.7-10.8-28,5.8-36.7,10.8h-.2c-8.2,5.2-15.9,9.7-31.4,9.9-15.5-.2-23.4-5-31.7-9.9-8.5-5.2-18.2-10.8-36.7-10.8s-28.1,5.8-36.7,10.8-16.6,9.9-33,9.9-24.3-4.7-33-9.9-18.2-10.8-36.7-10.8-28.1,5.8-36.7,10.8-16.6,9.9-33,9.9-24.3-4.7-33-9.9c-8.6-5.2-18.2-10.8-36.7-10.8s-28.1,5.8-36.7,10.8-16.6,9.9-33,9.9-24.3-4.7-33-9.9c-8.6-5.2-18.2-10.8-36.7-10.8s-28.1,5.8-36.7,10.8-16.6,9.9-33,9.9-24.3-4.7-33-9.9c-8.6-5.2-18.2-10.8-36.7-10.8s-28,5.8-36.7,10.8h-.2c-8.3,5.2-16.3,9.9-32.7,9.9v18.2c21.4,0,33-6.9,42.1-12.2h.5c7.7-4.7,13.8-8.5,27.2-8.5s19.5,3.8,27.2,8.3c9.3,5.5,20.9,12.6,42.4,12.6s33.1-6.9,42.4-12.6c7.7-4.7,13.8-8.3,27.2-8.3s19.5,3.8,27.2,8.3c9.3,5.5,20.9,12.6,42.4,12.6s33.1-6.9,42.4-12.6c7.7-4.7,13.8-8.3,27.2-8.3s19.5,3.8,27.2,8.3c9.3,5.5,20.9,12.6,42.4,12.6s33.1-6.9,42.4-12.6c7.7-4.7,13.8-8.3,27.2-8.3s19.5,3.8,27.2,8.3c9.3,5.5,20.9,12.6,42.4,12.6s33.1-6.9,42.4-12.6c7.7-4.7,13.8-8.3,27.2-8.3s19.5,3.8,27.2,8.3c9,5.3,19.8,11.9,39.7,12.6h2.8c19.8-.6,30.6-7.1,39.4-12.2h.5c7.7-4.7,13.8-8.5,27.2-8.5s19.5,3.8,27.2,8.3c9.3,5.5,20.9,12.6,42.4,12.6s33.1-6.9,42.4-12.6c7.7-4.7,13.8-8.3,27.2-8.3s19.5,3.8,27.2,8.3c9.3,5.5,20.9,12.6,42.4,12.6s33.1-6.9,42.4-12.6c7.7-4.7,13.8-8.3,27.2-8.3s19.5,3.8,27.2,8.3c9.3,5.5,20.9,12.6,42.4,12.6s33.1-6.9,42.4-12.6c7.7-4.7,13.8-8.3,27.2-8.3s19.5,3.8,27.2,8.3c9.3,5.5,20.9,12.6,42.4,12.6s33.1-6.9,42.4-12.6c7.7-4.7,13.8-8.3,27.2-8.3s19.5,3.8,27.2,8.3c9.3,5.5,20.9,12.6,42.4,12.6v-18.2c-16.5,0-24.3-4.7-33-9.9-8.6-5.2-18.2-10.8-36.7-10.8"/>
          <path class="st0" d="M5477.9,111.2c-18.5,0-28.1,5.8-36.7,10.8-8.6,5-16.6,9.9-33,9.9s-24.3-4.7-33-9.9-18.2-10.8-36.7-10.8-28.1,5.8-36.7,10.8c-8.6,5-16.6,9.9-33,9.9s-24.3-4.7-33-9.9-18.2-10.8-36.7-10.8-28.1,5.8-36.7,10.8c-8.6,5-16.6,9.9-33,9.9s-24.3-4.7-33-9.9c-8.6-5.2-18.2-10.8-36.7-10.8s-28.1,5.8-36.7,10.8c-8.6,5-16.6,9.9-33,9.9s-24.3-4.7-33-9.9-18.2-10.8-36.7-10.8-28,5.8-36.7,10.8h-.2c-8.2,5-15.9,9.7-31.4,9.9-15.5-.2-23.4-5-31.7-9.9-8.5-5.2-18.2-10.8-36.7-10.8s-28.1,5.8-36.7,10.8c-8.6,5-16.6,9.9-33,9.9s-24.3-4.7-33-9.9c-8.6-5.2-18.2-10.8-36.7-10.8s-28.1,5.8-36.7,10.8-16.6,9.9-33,9.9-24.3-4.7-33-9.9c-8.6-5.2-18.2-10.8-36.7-10.8s-28.1,5.8-36.7,10.8-16.6,9.9-33,9.9-24.3-4.7-33-9.9c-8.6-5.2-18.2-10.8-36.7-10.8s-28.1,5.8-36.7,10.8-16.6,9.9-33,9.9-24.3-4.7-33-9.9c-8.6-5.2-18.2-10.8-36.7-10.8s-28,5.8-36.7,10.8h-.2c-8.3,5.2-16.3,9.9-32.7,9.9v18.2c21.4,0,33-6.9,42.1-12.2h.5c7.7-4.7,13.8-8.5,27.2-8.5s19.5,3.8,27.2,8.3c9.3,5.5,20.9,12.6,42.4,12.6s33.1-6.9,42.4-12.6c7.7-4.7,13.8-8.3,27.2-8.3s19.5,3.8,27.2,8.3c9.3,5.5,20.9,12.6,42.4,12.6s33.1-6.9,42.4-12.6c7.7-4.7,13.8-8.3,27.2-8.3s19.5,3.8,27.2,8.3c9.3,5.5,20.9,12.6,42.4,12.6s33.1-6.9,42.4-12.6c7.7-4.7,13.8-8.3,27.2-8.3s19.5,3.8,27.2,8.3c9.3,5.5,20.9,12.6,42.4,12.6s33.1-6.9,42.4-12.6c7.7-4.7,13.8-8.3,27.2-8.3s19.5,3.8,27.2,8.3c9,5.3,19.8,11.9,39.7,12.6h2.8c19.8-.6,30.6-7.1,39.4-12.2h.5c7.7-4.7,13.8-8.5,27.2-8.5s19.5,3.8,27.2,8.3c9.3,5.5,20.9,12.6,42.4,12.6s33.1-6.9,42.4-12.6c7.7-4.7,13.8-8.3,27.2-8.3s19.5,3.8,27.2,8.3c9.3,5.5,20.9,12.6,42.4,12.6s33.1-6.9,42.4-12.6c7.7-4.7,13.8-8.3,27.2-8.3s19.5,3.8,27.2,8.3c9.3,5.5,20.9,12.6,42.4,12.6s33.1-6.9,42.4-12.6c7.7-4.7,13.8-8.3,27.2-8.3s19.5,3.8,27.2,8.3c9.3,5.5,20.9,12.6,42.4,12.6s33.1-6.9,42.4-12.6c7.7-4.7,13.8-8.3,27.2-8.3s19.5,3.8,27.2,8.3c9.3,5.5,20.9,12.6,42.4,12.6v-18.2c-16.5,0-24.3-4.7-33-9.9-8.6-5.2-18.2-10.8-36.7-10.8"/>
          <path class="st0" d="M5477.9,60.8c-18.5,0-28.1,5.8-36.7,10.8-8.6,5-16.6,9.9-33,9.9s-24.3-4.7-33-9.9-18.2-10.8-36.7-10.8-28.1,5.8-36.7,10.8c-8.6,5-16.6,9.9-33,9.9s-24.3-4.7-33-9.9-18.2-10.8-36.7-10.8-28.1,5.8-36.7,10.8c-8.6,5-16.6,9.9-33,9.9s-24.3-4.7-33-9.9c-8.6-5.2-18.2-10.8-36.7-10.8s-28.1,5.8-36.7,10.8c-8.6,5-16.6,9.9-33,9.9s-24.3-4.7-33-9.9-18.2-10.8-36.7-10.8-28,5.8-36.7,10.8h-.2c-8.2,5-15.9,9.7-31.4,9.9-15.5-.2-23.4-5-31.7-9.9-8.5-5.2-18.2-10.8-36.7-10.8s-28.1,5.8-36.7,10.8c-8.6,5-16.6,9.9-33,9.9s-24.3-4.7-33-9.9c-8.6-5.2-18.2-10.8-36.7-10.8s-28.1,5.8-36.7,10.8-16.6,9.9-33,9.9-24.3-4.7-33-9.9c-8.6-5.2-18.2-10.8-36.7-10.8s-28.1,5.8-36.7,10.8-16.6,9.9-33,9.9-24.3-4.7-33-9.9c-8.6-5.2-18.2-10.8-36.7-10.8s-28.1,5.8-36.7,10.8-16.6,9.9-33,9.9-24.3-4.7-33-9.9c-8.6-5.2-18.2-10.8-36.7-10.8s-28,5.8-36.7,10.8h-.2c-8.3,5.2-16.3,9.9-32.7,9.9v18.2c21.4,0,33-6.9,42.1-12.2h.5c7.7-4.7,13.8-8.5,27.2-8.5s19.5,3.8,27.2,8.3c9.3,5.5,20.9,12.6,42.4,12.6s33.1-6.9,42.4-12.6c7.7-4.7,13.8-8.3,27.2-8.3s19.5,3.8,27.2,8.3c9.3,5.5,20.9,12.6,42.4,12.6s33.1-6.9,42.4-12.6c7.7-4.7,13.8-8.3,27.2-8.3s19.5,3.8,27.2,8.3c9.3,5.5,20.9,12.6,42.4,12.6s33.1-6.9,42.4-12.6c7.7-4.7,13.8-8.3,27.2-8.3s19.5,3.8,27.2,8.3c9.3,5.5,20.9,12.6,42.4,12.6s33.1-6.9,42.4-12.6c7.7-4.7,13.8-8.3,27.2-8.3s19.5,3.8,27.2,8.3c9,5.3,19.8,11.9,39.7,12.6h2.8c19.8-.6,30.6-7.1,39.4-12.2h.5c7.7-4.7,13.8-8.5,27.2-8.5s19.5,3.8,27.2,8.3c9.3,5.5,20.9,12.6,42.4,12.6s33.1-6.9,42.4-12.6c7.7-4.7,13.8-8.3,27.2-8.3s19.5,3.8,27.2,8.3c9.3,5.5,20.9,12.6,42.4,12.6s33.1-6.9,42.4-12.6c7.7-4.7,13.8-8.3,27.2-8.3s19.5,3.8,27.2,8.3c9.3,5.5,20.9,12.6,42.4,12.6s33.1-6.9,42.4-12.6c7.7-4.7,13.8-8.3,27.2-8.3s19.5,3.8,27.2,8.3c9.3,5.5,20.9,12.6,42.4,12.6s33.1-6.9,42.4-12.6c7.7-4.7,13.8-8.3,27.2-8.3s19.5,3.8,27.2,8.3c9.3,5.5,20.9,12.6,42.4,12.6v-18.2c-16.5,0-24.3-4.7-33-9.9-8.6-5.2-18.2-10.8-36.7-10.8"/>
          <path class="st0" d="M5477.9,10.2c-18.5,0-28.1,5.8-36.7,10.8-8.6,5-16.6,9.9-33,9.9s-24.3-4.7-33-9.9-18.2-10.8-36.7-10.8-28.1,5.8-36.7,10.8c-8.6,5-16.6,9.9-33,9.9s-24.3-4.7-33-9.9-18.2-10.8-36.7-10.8-28.1,5.8-36.7,10.8c-8.6,5-16.6,9.9-33,9.9s-24.3-4.7-33-9.9-18.2-10.8-36.7-10.8-28.1,5.8-36.7,10.8c-8.6,5-16.6,9.9-33,9.9s-24.3-4.7-33-9.9-18.2-10.8-36.7-10.8-28,5.8-36.7,10.8h-.2c-8.2,5.2-15.9,9.7-31.4,9.9-15.5-.2-23.4-5-31.7-9.9-8.5-5.2-18.2-10.8-36.7-10.8s-28.1,5.8-36.7,10.8-16.6,9.9-33,9.9-24.3-4.7-33-9.9-18.2-10.8-36.7-10.8-28.1,5.8-36.7,10.8-16.6,9.9-33,9.9-24.3-4.7-33-9.9c-8.6-5.2-18.2-10.8-36.7-10.8s-28.1,5.8-36.7,10.8-16.6,9.9-33,9.9-24.3-4.7-33-9.9c-8.6-5.2-18.2-10.8-36.7-10.8s-28.1,5.8-36.7,10.8-16.6,9.9-33,9.9-24.3-4.7-33-9.9c-8.6-5.2-18.2-10.8-36.7-10.8s-28,5.8-36.7,10.8h-.2c-8.3,5.2-16.3,9.9-32.7,9.9v18.2c21.4,0,33-6.9,42.1-12.2h.5c7.7-4.7,13.8-8.5,27.2-8.5s19.5,3.8,27.2,8.3c9.3,5.5,20.9,12.6,42.4,12.6s33.1-6.9,42.4-12.6c7.7-4.7,13.8-8.3,27.2-8.3s19.5,3.8,27.2,8.3c9.3,5.5,20.9,12.6,42.4,12.6s33.1-6.9,42.4-12.6c7.7-4.7,13.8-8.3,27.2-8.3s19.5,3.8,27.2,8.3c9.3,5.5,20.9,12.6,42.4,12.6s33.1-6.9,42.4-12.6c7.7-4.7,13.8-8.3,27.2-8.3s19.5,3.8,27.2,8.3c9.3,5.5,20.9,12.6,42.4,12.6s33.1-6.9,42.4-12.6c7.7-4.7,13.8-8.3,27.2-8.3s19.5,3.8,27.2,8.3c9,5.3,19.8,11.9,39.7,12.6h2.8c19.8-.6,30.6-7.1,39.4-12.2h.5c7.7-4.7,13.8-8.5,27.2-8.5s19.5,3.8,27.2,8.3c9.3,5.5,20.9,12.6,42.4,12.6s33.1-6.9,42.4-12.6c7.7-4.7,13.8-8.3,27.2-8.3s19.5,3.8,27.2,8.3c9.3,5.5,20.9,12.6,42.4,12.6s33.1-6.9,42.4-12.6c7.7-4.7,13.8-8.3,27.2-8.3s19.5,3.8,27.2,8.3c9.3,5.5,20.9,12.6,42.4,12.6s33.1-6.9,42.4-12.6c7.7-4.7,13.8-8.3,27.2-8.3s19.5,3.8,27.2,8.3c9.3,5.5,20.9,12.6,42.4,12.6s33.1-6.9,42.4-12.6c7.7-4.7,13.8-8.3,27.2-8.3s19.5,3.8,27.2,8.3c9.3,5.5,20.9,12.6,42.4,12.6v-18.2c-16.5,0-24.3-4.7-33-9.9-8.6-5.2-18.2-10.8-36.7-10.8"/>
        </g>
      </g>
      <path class="st4" d="M5937.6,65.3v433.9h-433.9c0-239.7,194.3-433.9,433.9-433.9"/>
      <g class="st11">
        <g>
          <path class="st10" d="M5620.3,289.1v-64.7l-76.8-71.5V-155.5c6.8-1.7,11.8-7.5,11.8-14.3s-7.1-14.9-15.9-14.9-15.9,6.6-15.9,14.9,5,12.6,11.8,14.3V156.3l76.8,71.5v61.6c-6.9,1.7-11.9,7.5-11.9,14.4s7.4,15.1,16.3,15.1,16.3-6.8,16.3-15.1-5.2-12.9-11.9-14.4"/>
          <path class="st10" d="M5475.1,95.7c6.8-1.7,11.8-7.5,11.8-14.3s-7.1-14.9-15.9-14.9-15.9,6.6-15.9,14.9,5,12.6,11.8,14.3v131.1l152.7,142.3v255.8h8.5v-259l-152.7-142.3v-128h-.3Z"/>
          <path class="st10" d="M5556.9,428.9v-42.7l-146.1-136.2v-101.9c6.9-1.7,11.9-7.5,11.9-14.4s-7.4-15.1-16.3-15.1-16.3,6.8-16.3,15.1,5.2,12.9,11.9,14.4v105.2l146.1,136.2v39.4c-6.8,1.7-11.8,7.5-11.8,14.3s7.1,14.9,15.9,14.9,15.9-6.6,15.9-14.9-5-12.6-11.8-14.3"/>
          <polygon class="st10" points="6404.8 76.7 6404.8 -306.4 6396.3 -306.4 6396.3 73.5 6295.3 167.6 6295.3 313.6 6348.1 362.8 6354.1 357 6303.8 310.5 6303.8 170.7 6404.8 76.7"/>
          <path class="st10" d="M5629.5,53.6c6.8-1.7,11.8-7.5,11.8-14.3s-7.1-14.9-15.9-14.9-15.9,6.6-15.9,14.9,5,12.6,11.8,14.3v123.3l50.6,47.3v334.8h8.5V220.8l-50.6-47.3V53.7h-.2l-.2-.2Z"/>
          <path class="st10" d="M5771.7,449.8c.6-.6,1.3-.9,1.6-1.4-.5.2-.8.8-1.6,1.4"/>
          <path class="st10" d="M5770.2,451.4h-.2c0,.1,0,.1.2,0"/>
          <path class="st10" d="M5770,451.5c-.5.2-.2.2,0,0"/>
          <path class="st10" d="M5770.8,450.7c-.2.2-.5.5-.6.6,0,0,.5-.5.6-.6"/>
          <path class="st10" d="M5771.7,449.8c-.5.5-.6.6-.9.8.2-.2.6-.6.9-.8"/>
          <path class="st10" d="M5771.7,449.8c-6,5.5-6.9,14.1-2.8,20.6l-43.8,40.7v-82c6.8-1.7,11.8-7.5,11.8-14.3s-7.1-14.9-15.9-14.9-15.9,6.6-15.9,14.9,5,12.6,11.8,14.3v100.8l58.3-54c6.9,3.9,16,3.1,22.3-2.4,7.1-6.6,7.1-17.3,0-23.9-6.9-6.6-18.5-6.6-25.4,0"/>
          <polygon class="st10" points="5839 414.5 5784.8 414.5 5733.7 366.7 5733.7 179.1 5676.1 125.3 5676.1 -89 5667.6 -89 5667.6 128.6 5725.1 182.2 5725.1 370.2 5781.2 422.3 5830.5 422.3 5830.5 464.3 5884.3 514.5 5884.3 657.7 5892.8 657.7 5892.8 511.1 5839 460.8 5839 414.5"/>
          <path class="st10" d="M5939.9,412.3l-55.4-51.7h-53.4l-43.5-40.8v-188.8l-26.9-25.6c3.6-5.5,2.8-12.9-2.4-17.9-6.1-6-16.3-6-22.5-.5-6.3,5.8-6.6,15.1-.5,21,5.2,5,12.9,5.8,19,2.5l24.2,23.4v188.8l48.4,45.4h53.4l50.4,46.8v195.8l100.2,93.4,6-5.5-97.8-91.1v-195.8h.5l.3.5Z"/>
          <path class="st10" d="M6025.2,271.1l103-96.1v-101.1c8-1.7,13.8-8.3,13.8-16.3s-8.2-16.8-18.1-16.8-18.1,7.5-18.1,16.8,6,14.4,13.7,16.3v98l-103,96.1v294.2l53.4,49.8,6-5.5-51-47.4v-287.6h.2l.2-.3Z"/>
          <path class="st10" d="M5958.3,327.5c-3.9,5.5-3.9,13,.9,18.2,5.8,6.3,16,7.1,22.8,1.7s7.7-14.9,2-21.2c-4.7-5.3-12.7-6.8-19.3-3.9l-47-52,149.8-139.8V-4.1h-8.5V127.4l-153,142.4,52,57.5h.2v.2Z"/>
          <path class="st10" d="M5959.1,346c-.6-.8-1.3-1.3-1.4-1.6,1.3,1.4,5.3,6,1.4,1.6"/>
          <path class="st10" d="M5879.6,175.1l-51.2,47.9v42.4c-6.8,1.7-11.8,7.5-11.8,14.3s7.1,14.9,15.9,14.9,15.9-6.6,15.9-14.9-5-12.6-11.8-14.3v-39.1l51.2-47.9v-51.4l97.4-90.9V-110.9h-8.5V32.8l-97.4,90.9v51.4h.3Z"/>
          <path class="st10" d="M5870.8,70.7c0,8.3,7.4,15.1,16.3,15.1s16.3-6.8,16.3-15.1-5.2-12.9-11.9-14.4v-218.5c6.8-1.7,11.8-7.5,11.8-14.3s-7.1-14.9-15.9-14.9-15.9,6.6-15.9,14.9,5,12.6,11.8,14.3V56.1c-6.9,1.7-11.9,7.5-11.9,14.4"/>
          <path class="st10" d="M5777.4-6l46.5,43.5v114.5c-6.9,1.7-11.9,7.5-11.9,14.4s7.4,15.1,16.3,15.1,16.3-6.8,16.3-15.1-5.2-12.9-11.9-14.4V34.4l-48.8-45.9c3.3-5.5,2.5-12.9-2.5-17.9-6.1-5.8-16.3-5.8-22.5,0-6.1,5.8-6.3,15.1,0,21,5.2,4.7,13,5.8,19,2.4"/>
          <path class="st10" d="M5986.9,93.5l-34.1,31.7v42.1l-53.7,49.8c-6.1-3.3-14.3-2.5-19.5,2.4-6.3,6-6.3,15.5,0,21.4s16.6,6,23.1,0c5.3-5,6.1-12.6,2.5-18.2l56.4-52.1v-42.1l31.6-29.4c6.1,3.1,13.8,2.4,19-2.4,6.1-5.8,6.1-15.1,0-21-6.1-5.8-16.3-5.8-22.5,0-5.2,4.7-6,12.1-2.5,17.9"/>
          <path class="st10" d="M5879.2,219.7h.2c0-.1,0-.2.2-.2.2,0-.5.2-.5.5"/>
          <path class="st10" d="M5879.2,219.7c-.5.5-.8.8-1.3.9.2-.2.6-.6,1.3-.9"/>
          <path class="st10" d="M5877.9,221s-.2,0-.2.2h.2"/>
          <path class="st10" d="M5881.2,218q.1-.1,0,0"/>
          <path class="st10" d="M5880.6,218.3h.2c0-.1,0-.1-.2,0"/>
          <path class="st10" d="M5879.6,219.4c.2-.2.6-.5.8-.6-.2,0-.5.5-.8.6"/>
          <path class="st10" d="M5880.4,218.5h.2c0-.1,0-.1-.2,0"/>
          <path class="st10" d="M6131.5,213.6l-60.3,56.2v46.8c-6.8,1.7-11.8,7.5-11.8,14.3s7.1,14.9,15.9,14.9,15.9-6.6,15.9-14.9-5-12.6-11.8-14.3v-43.7l43.5-40.5v132.2l-52,48.4v122.5h8.5v-119.2l52-48.4v-154.4h.2Z"/>
          <polygon class="st10" points="6182 416 6129.2 465.2 6129.2 609.8 6137.7 609.8 6137.7 468.3 6190.6 419.2 6190.6 220.4 6182 220.4 6182 416"/>
          <path class="st10" d="M6190.6,93.1V24.8l-51.8-48.4v-87.3h-8.5V-20.2l51.8,48.2v64.9c-6.8,1.7-11.8,7.5-11.8,14.3s7.1,14.9,15.9,14.9,15.9-6.6,15.9-14.9-5-12.6-11.8-14.3"/>
          <path class="st10" d="M6258,289.5c0-6.8-5-12.6-11.8-14.3V123l48.4-45.1V-187.5h-8.5V74.6l-48.4,45.1v155.3c-6.8,1.7-11.8,7.5-11.8,14.3s7.1,14.9,15.9,14.9,15.9-6.6,15.9-14.9"/>
          <path class="st10" d="M6244.8,380.5s-.5-.5-.6-.6c.2.2.5.5.6.6"/>
          <path class="st10" d="M6266.1,357.5c-6.3-6-16.6-6-23.1,0-6.3,6-6.3,15.5,0,21.4-.5-.5-.9-.9-1.4-1.3.2.2.8.6,1.4,1.3.5.5.8.6.9.9-.2-.2-.6-.6-.9-.9,5.3,5,13.3,5.8,19.5,2.4l26.9,25v73.5h8.5v-76.6l-29.4-27.3c3.6-5.8,2.8-13.3-2.5-18.2"/>
          <path class="st10" d="M6241.8,377.6h-.2c0-.1,0-.1.2,0"/>
        </g>
      </g>
      <path class="st3" d="M5069.1,1367.3v-433.9h-433.9c0,239.7,194.3,433.9,433.9,433.9"/>
      <path class="st3" d="M5069.1,65.3v433.9h433.9c0-239.7-194.3-433.9-433.9-433.9"/>
      <g class="st1">
        <g>
          <path class="st15" d="M5413,1555c-83.7-50.7-183.9-99.6-297.4-144.6-113.5-45.1-234.9-84.5-360.6-116.8-130.2-33.6-259.6-58.3-384.1-73.5-84-10.1-162.7-15.5-234.9-16-85.9-.8-162.5,5.2-226.6,18.1-2.8.6-4.6,3.1-3.9,6s3.1,4.6,6,3.9c117.2-23.2,275.5-23.9,458.4-1.7,124.4,15.1,253.2,39.7,383,73,125.5,32.4,246.3,71.5,359.3,116.5s212.8,93.4,296,144c86.1,52.1,150.8,104.4,192.5,155.2.9,1.3,2.4,1.7,3.8,1.7s2.2-.5,3.1-1.3c2.2-1.7,2.4-5,.6-6.9-42.4-51.7-108.2-104.6-195.1-157.4"/>
          <path class="st15" d="M5393.4,1619.5c-83.7-50.7-183.9-99.6-297.4-144.6-113.5-45.1-234.9-84.5-360.6-116.8-130.2-33.6-259.6-58.3-384.1-73.5-84-10.1-162.7-15.5-234.9-16-85.9-.8-162.5,5.2-226.6,18.1-2.8.6-4.6,3.1-3.9,6s3.1,4.6,6,3.9c117.2-23.2,275.5-23.9,458.4-1.7,124.4,15.1,253.2,39.7,383,73,125.5,32.4,246.3,71.5,359.3,116.5s212.8,93.4,296,144c86.1,52.1,150.8,104.4,192.5,155.2.9,1.3,2.4,1.7,3.8,1.7s2.2-.5,3.1-1.3c2.2-1.7,2.4-5,.6-6.9-42.4-51.7-108.2-104.6-195.1-157.4"/>
          <path class="st15" d="M5373.8,1684c-83.7-50.7-183.9-99.6-297.4-144.6-113.5-45.1-234.9-84.5-360.6-116.8-130.2-33.6-259.6-58.3-384.1-73.5-84-10.1-162.7-15.5-234.9-16-85.9-.8-162.5,5.2-226.6,18.1-2.8.6-4.6,3.1-3.9,6s3.1,4.6,6,3.9c117.2-23.2,275.5-23.9,458.4-1.7,124.4,15.1,253.2,39.7,383,73,125.5,32.4,246.3,71.5,359.3,116.5,113.1,45.1,212.8,93.4,296,144,86.1,52.1,150.8,104.4,192.5,155.2.9,1.3,2.4,1.7,3.8,1.7s2.2-.5,3.1-1.3c2.2-1.7,2.4-5,.6-6.9-42.4-51.7-108.2-104.6-195.1-157.4"/>
          <path class="st15" d="M5354.2,1748.7c-83.7-50.7-183.9-99.6-297.4-144.6-113.5-45.1-234.9-84.5-360.6-116.8-130.2-33.6-259.6-58.3-384.1-73.5-84-10.1-162.7-15.5-234.9-16-85.9-.8-162.5,5.2-226.6,18.1-2.8.6-4.6,3.1-3.9,6s3.1,4.6,6,3.9c117.2-23.2,275.5-23.9,458.4-1.7,124.4,15.1,253.2,39.7,383,73,125.5,32.4,246.3,71.5,359.3,116.5,113.1,45.1,212.8,93.4,296,144,86.1,52.1,150.8,104.4,192.5,155.2.9,1.3,2.4,1.7,3.8,1.7s2.2-.5,3.1-1.3c2.2-1.7,2.4-5,.6-6.9-42.4-51.7-108.2-104.6-195.1-157.4"/>
          <path class="st15" d="M5334.4,1813.5c-83.7-50.7-183.9-99.6-297.4-144.6-113.5-45.1-234.9-84.5-360.6-116.8-130.2-33.6-259.6-58.3-384.1-73.5-84-10.1-162.7-15.5-234.9-16-85.9-.8-162.5,5.2-226.6,18.1-2.8.6-4.6,3.1-3.9,6s3.1,4.6,6,3.9c117.2-23.2,275.5-23.9,458.4-1.7,124.4,15.1,253.2,39.7,383,73,125.5,32.4,246.3,71.5,359.3,116.5,113.1,45.1,212.8,93.4,296,144,86.1,52.1,150.8,104.4,192.5,155.2.9,1.3,2.4,1.7,3.8,1.7s2.2-.5,3.1-1.3c2.2-1.7,2.4-5,.6-6.9-42.4-51.7-108.2-104.6-195.1-157.4"/>
          <path class="st15" d="M5433.3,1488.4c-83.7-50.7-183.9-99.6-297.4-144.6-113.5-45.1-234.9-84.5-360.6-116.8-130.2-33.6-259.6-58.3-384.1-73.5-84-10.1-162.7-15.5-234.9-16-85.9-.8-162.5,5.2-226.6,18.1-2.8.6-4.6,3.1-3.9,6s3.1,4.6,6,3.9c117.2-23.2,275.5-23.9,458.4-1.7,124.4,15.1,253.2,39.7,383,73,125.5,32.4,246.3,71.5,359.3,116.5s212.8,93.4,296,144c86.1,52.1,150.8,104.4,192.5,155.2.9,1.3,2.4,1.7,3.8,1.7s2.2-.5,3.1-1.3c2.2-1.7,2.4-5,.6-6.9-42.4-51.7-108.2-104.6-195.1-157.4"/>
          <path class="st15" d="M5453.9,1419.9c-83.7-50.7-183.9-99.6-297.4-144.6-113.5-45.1-234.9-84.5-360.6-116.8-130.2-33.6-259.6-58.3-384.1-73.5-84-10.1-162.7-15.5-234.9-16-85.9-.8-162.5,5.2-226.6,18.1-2.8.6-4.6,3.1-3.9,6s3.1,4.6,6,3.9c117.2-23.2,275.5-23.9,458.4-1.7,124.4,15.1,253.2,39.7,383,73,125.5,32.4,246.3,71.5,359.3,116.5,113.1,45.1,212.8,93.4,296,144,86.1,52.1,150.8,104.4,192.5,155.2.9,1.3,2.4,1.7,3.8,1.7s2.2-.5,3.1-1.3c2.2-1.7,2.4-5,.6-6.9-42.4-51.7-108.2-104.6-195.1-157.4"/>
          <path class="st15" d="M5474.8,1351.7c-83.7-50.7-183.9-99.6-297.4-144.6-113.5-45.1-234.9-84.5-360.6-116.8-130.2-33.6-259.6-58.3-384.1-73.5-84-10.1-162.7-15.5-234.9-16-85.9-.8-162.5,5.2-226.6,18.1-2.8.6-4.6,3.1-3.9,6s3.1,4.6,6,3.9c63.4-12.7,139.3-18.7,224.6-17.9,71.8.6,150.3,6,234,16,124.4,15.1,253.2,39.7,383,73,125.5,32.4,246.3,71.5,359.3,116.5s212.8,93.4,296,144c86.1,52.1,150.8,104.4,192.5,155.2.9,1.3,2.4,1.7,3.8,1.7s2.2-.5,3.1-1.3c2.2-1.7,2.4-5,.6-6.9-42.4-51.7-108.2-104.6-195.1-157.4"/>
          <path class="st15" d="M5690.4,1440.6c-42.4-51.7-108.2-104.6-195.1-157.4-83.7-50.7-183.9-99.6-297.4-144.6-113.5-45.1-234.9-84.5-360.6-116.8-1.3-.5-2.4-.6-3.6-.9l601.8,5.2c2.8,0,5-2.2,5-5s-2.2-5-5-5l-643.4-5.5c-37.5-9.1-74.8-17.4-112-25l757.4,6.6c2.8,0,5-2.2,5-5s-2.2-5-5-5l-811.5-7.1c-52.5-9.7-104.1-17.9-155.2-24.3l981.2,8.5c2.8,0,5-2.2,5-5s-2.2-5-5-5l-1080.8-9.6h-.8c-53.7-4.7-104.9-7.1-153.1-7.7-85.9-.8-162.5,5.3-226.6,18.1-2.8.6-4.6,3.1-3.9,6s3.1,4.6,6,3.9c63.4-12.7,139.3-18.7,224.6-17.9,71.8.6,150.3,6,234,16,55.4,6.8,111.7,15.2,168.7,25.8.8.6,1.7.9,2.8.9h2.4c69.1,12.9,139,28.4,209.2,46.5,125.5,32.4,246.3,71.5,359.3,116.5,113.1,45.1,212.8,93.4,296,144,86.1,52.1,150.8,104.4,192.5,155.2.9,1.3,2.4,1.7,3.8,1.7s2.2-.5,3.1-1.3c2.2-1.7,2.4-5,.6-6.9"/>
          <path class="st15" d="M4203.3,747.3l1250.7,10.8c2.8,0,5-2.2,5-5s-2.2-5-5-5l-1250.7-10.8c-2.8,0-5,2.2-5,5s2.2,5,5,5"/>
          <path class="st15" d="M4203.1,780.7l1250.7,10.8c2.8,0,5-2.2,5-5s-2.2-5-5-5l-1250.7-10.8c-2.8,0-5,2.2-5,5s2.2,5,5,5"/>
          <path class="st15" d="M4202.7,814.3l1250.7,10.8c2.8,0,5-2.2,5-5s-2.2-5-5-5l-1250.7-10.8c-2.8,0-5,2.2-5,5s2.2,5,5,5"/>
          <path class="st15" d="M4202.5,847.6l1250.7,10.8c2.8,0,5-2.2,5-5s-2.2-5-5-5l-1250.7-10.8c-2.8,0-5,2.2-5,5s2.2,5,5,5"/>
          <path class="st15" d="M4202,881.2l1250.7,10.8c2.8,0,5-2.2,5-5s-2.2-5-5-5l-1250.7-10.8c-2.8,0-5,2.2-5,5s2.2,5,5,5"/>
          <path class="st15" d="M4201.9,914.7l1250.7,10.8c2.8,0,5-2.2,5-5s-2.2-5-5-5l-1250.7-10.8c-2.8,0-5,2.2-5,5s2.2,5,5,5"/>
        </g>
      </g>
      <path class="st13" d="M5937.6,1367.3v-433.9h-433.9c0,239.7,194.3,433.9,433.9,433.9"/>
      <g class="st9">
        <g>
          <path class="st4" d="M5766.1,1554.5c-129.3,0-234-104.8-234-234s104.8-234,234-234,234,104.8,234,234-104.8,234-234,234"/>
          <path class="st2" d="M5743.6,1085.4s-89.4,22-156.4-20.1c-67.1-41.9-86.5-131.8-86.5-131.8,0,0,89.4-22,156.4,20.1,67.1,41.9,86.5,131.8,86.5,131.8"/>
        </g>
      </g>
      <g>
        <path class="st5" d="M6208.2,544.2l-21.4,49.2c-3.8,9-7.5,17.9-11.5,26.9-5.5,12.9-10.1,25.8-7.5,39.9,1.7,9.7,6.8,17.4,14.9,24.8,9.9,9.1,25.4,9.1,25.6,9.1,0,0,15.5,0,25.6-9.1,8.2-7.5,12.9-15.1,14.9-24.8,2.8-14.3-1.7-27.2-7.5-39.9-3.9-9-7.7-17.9-11.5-26.9l-21.4-49.2h-.3Z"/>
        <path class="st5" d="M6123.7,632.4l-33.3,76.3c-5.8,13.8-11.9,27.6-17.9,41.5-8.8,20.1-15.9,39.9-11.5,62.2,3,14.9,10.1,27,23.1,38.5,15.7,14.3,39.7,14.1,39.7,14.1,0,0,24,0,39.7-14.1,12.7-11.5,20.1-23.6,23.1-38.5,4.4-22.3-2.8-42.1-11.5-62.2-6-13.7-11.9-27.6-17.9-41.5l-33.3-76.3h-.3Z"/>
      </g>
    </g>
    <g>
      <polygon class="st3" points="1228.2 519.5 1109.3 211.9 923.5 211.9 839.5 803 1024.6 803 1051.8 610.6 1066.9 504.5 1188.1 803 1373.1 803 1457.6 211.9 1272 211.9 1247 389.2 1228.2 519.5"/>
      <polygon class="st3" points="1433.4 803 1791.4 803 1814.6 641.6 1651.4 641.6 1659.6 584.5 1808.8 584.5 1830.6 430.6 1681.4 430.6 1689.4 373.5 1852.4 373.5 1875.4 211.6 1517.3 211.6 1433.4 803"/>
      <polygon class="st3" points="2817.4 803 3012.3 803 3043.5 584.5 3193.2 584.5 3214.7 430.6 3065.3 430.6 3073.5 373.5 3237 373.5 3259.9 211.6 2901.8 211.6 2817.4 803"/>
      <polygon class="st3" points="3230.7 803 3425.6 803 3509.5 211.6 3315.2 211.6 3230.7 803"/>
      <polygon class="st3" points="3833.1 211.6 3633.7 211.6 3463.4 803 3650.8 803 3730 504 3765.8 803 3895.6 803 4010 504 4010 803 4184.5 803 4184.5 211.6 3980.3 211.6 3867.8 504.3 3833.1 211.6"/>
      <path class="st3" d="M4243.4,211.6v21.4h33.9v90.3h26.9v-90.3h33.9v-21.4h-94.9.2,0ZM4440.8,211.6l-25,66.1-25-66.1h-39.3v111.7h24.2v-90.3l33.1,90.3h14.3l33.1-90.3v90.3h24v-111.7h-39.6Z"/>
      <path class="st3" d="M2552.4,398.6h6.8l9,177.8h-86.7l71-177.8h0ZM2579.3,803.3h195.2l-79.2-591.1h-214.1l-295.9,591.1h204.6l28.9-73.2h155.9l3.6,73.2h.8,0Z"/>
      <polygon class="st3" points="1903.2 376.1 2009.8 373.5 1949.2 803 2142.7 803 2203.8 373.5 2309.8 376.1 2333.3 211.6 1926.3 211.6 1903.2 376.1"/>
      <path class="st3" d="M589.2,148.3l-83.5,191.3c-14.8,34.9-29.5,69.3-44.6,104.1-21.8,49.9-39.7,100-28.9,155.6,7.1,37.5,26.1,67.8,57.8,96.4,38.9,35.6,99.3,35.3,99.6,35.3,0,0,60.3,0,99.6-35.3,31.7-28.9,49.9-58.9,57.8-96.4,10.7-55.4-7.1-105.5-28.9-155.6-15.2-34.4-30-69.3-44.6-104.1l-83.5-191.3h-.6Z"/>
      <path class="st3" d="M260.8,491.7l-129.6,297.1c-22.8,54-46,107.7-69.3,161.3-33.9,77.7-62.2,155.6-45.1,241.7,11.5,57.5,39.7,104.9,89.4,150.3,60.8,55.4,154.2,55,154.5,55,0,0,93.9.5,154.5-55,49.2-45.1,77.7-92,89.4-150.3,17.1-86.4-11.2-164.1-45.1-241.7-23.2-53.6-46.5-107.7-69.3-161.3l-129.6-297.1h0Z"/>
      <path class="st3" d="M812.6,1363.4c-5,0-9.9-1.4-14.3-3.9s-6.8-6.3-6.8-11.2,0-1.7.5-3.1c0-1.4.8-3.1,2.2-5.3l109-258.8c1.7-3.1,3.9-5.8,6.8-8.2,3.1-2.2,7.1-3.1,12.9-3.1s11.2.9,13.8,3.1c2.5,2.2,5,5,6.3,8.2l108.2,257.7s1.7,3.9,1.7,5.3v3.6c0,5-2.2,9-6.8,11.5-4.4,2.5-9.3,3.9-14.8,3.9s-6.8-.8-9-3.1c-2.2-2.2-3.9-4.6-5.3-7.5l-31.7-74.6h-127.1l-32.2,75.1c-3.1,6.8-7.5,10.4-13.8,10.4M922.6,1117.9l-51,129.3h101l-49.9-129.3h0Z"/>
      <path class="st3" d="M1123.6,1346.4c0,6.3-1.7,10.7-5,12.9s-7.5,3.6-12.9,3.6-9.9-1.4-12.9-3.6c-3.1-2.2-4.4-6.8-4.4-12.9v-181.4c0-6.3,1.4-10.4,3.9-12.6,2.8-2.2,6.8-3.1,12.6-3.1s9.9.8,12.6,3.1c3.1,2.2,4.4,6.3,4.4,12.6v19.6c3.9-7.1,9-13.8,15.7-19.6,5.3-5,12.9-9.3,21.8-13.8,9-3.9,20.1-6.3,33.9-6.3,21.8,0,39.3,6.3,53.2,18.2,13.8,12.1,20.1,30.8,20.1,55.8v129.3c0,9.9-5.8,14.3-17.1,14.3s-18.2-5-18.2-14.3v-120.6c0-16-3.6-28.6-10.4-37.1-6.8-8.5-18.8-12.9-36.7-12.9s-20.1,2.2-27.8,7.1c-7.5,5-13.8,11.2-18.8,18.8-5,7.5-8.5,16.5-10.7,26.1-2.2,9.3-3.6,19.3-3.6,28.6v88.6h.5l-.2-.3Z"/>
      <path class="st3" d="M1685.4,1216.4c0,23.2-3.1,44.3-9.9,63-6.8,18.8-16,34.4-28.1,47.9-12.1,12.9-26.4,23.2-43.2,30-17.1,6.8-35.3,10.4-55.8,10.4s-39.3-3.6-55.8-10.4c-17.1-6.8-31.4-17.1-43.5-30-12.1-12.9-21.4-28.9-28.1-47.9-6.8-18.8-9.7-39.7-9.7-63s3.1-44.3,9.7-62.5c6.8-18.8,16-34.4,28.1-47.9,12.1-12.9,26.4-23.2,43.5-30,17.1-6.8,35.3-10.4,55.8-10.4s38.9,3.6,55.8,10.4c17.1,6.8,31.4,17.1,43.2,30,12.1,12.9,21.4,28.9,28.1,47.9,6.8,18.8,9.9,39.7,9.9,62.5M1450.4,1216.4c0,17.9,2.2,34.4,6.3,48.8,3.9,14.3,10.4,26.9,18.8,37.1s18.2,18.2,30.8,23.6c12.1,5.8,26.4,8.5,42.4,8.5s30-2.5,42.4-8.5c12.1-5.8,22.5-13.5,30.8-23.6,8.5-10.4,14.3-22.8,18.8-37.1s6.3-30.8,6.3-48.8-2.2-33.9-6.3-48.2c-3.9-14.8-10.4-27.2-18.8-37.1-8.5-10.4-18.2-18.2-30.8-23.6-12.1-5.8-26.4-8.5-42.4-8.5s-30,2.5-42.4,8.5c-12.1,5.8-22.5,13.5-30.8,23.6-8.5,10.4-14.3,22.8-18.8,37.1-3.9,14.8-6.3,30.8-6.3,48.2"/>
      <path class="st3" d="M1768.1,1346.4c0,6.3-1.7,10.7-5,12.9s-7.5,3.6-12.9,3.6-9.9-1.4-12.9-3.6c-3.1-2.2-4.4-6.8-4.4-12.9v-181.4c0-6.3,1.4-10.4,3.9-12.6s6.8-3.1,12.6-3.1,9.9.8,12.6,3.1c3.1,2.2,4.6,6.3,4.6,12.6v23.6c7.5-13.8,16.8-23.6,28.1-30,11.2-6.3,23.2-9.3,35.6-9.3s10.7,1.4,13.8,3.9c2.5,2.8,3.9,7.1,3.9,13.3s-1.4,11.2-3.9,14.3-7.1,4.4-13.8,4.4c-41.5,0-62.2,26.1-62.2,77.4v83.5h-.2l.2.2Z"/>
      <path class="st3" d="M1878.5,1086.2c0-6.3,1.4-10.7,4.6-12.9s7.1-3.6,12.9-3.6,9.9,1.4,12.9,3.6c3.1,2.2,5,6.8,5,12.9v94.2c2.2-3.9,5.3-8.5,9.3-12.6,3.9-4.6,9-8.2,14.8-11.8,5.8-3.1,12.1-6.3,19.3-8.5,7.1-2.2,15.2-3.1,24.2-3.1,14.3,0,27.2,2.5,38.5,8.2,11.2,5.3,21,12.9,28.9,22.8,8.2,9.9,13.8,21,17.9,34.4,3.9,13.5,5.8,28.1,5.8,44.6s-2.2,31.4-5.8,45.1c-3.6,13.8-9.9,25.4-17.9,35.3-8.2,9.9-17.4,17.9-28.9,23.2-11.2,5.3-24.2,8.5-38.5,8.5s-31.4-3.6-42.9-11.2c-11.5-7.5-20.6-16.5-26.4-27.2v19.3c0,6.3-1.4,10.4-4.6,12.6-2.5,2.2-7.1,3.1-12.6,3.1s-9.9-.9-12.6-3.1c-2.8-2.2-3.9-6.3-3.9-12.6v-261.3h0ZM2035.3,1256.1c0-12.1-1.4-22.8-3.6-32.2-2.2-9.3-6.3-17.9-11.2-25-5-7.1-11.2-12.6-18.8-16.5-7.5-3.9-16-5.8-26.1-5.8-19.6,0-35.3,7.1-46.5,21-11.2,13.8-16.5,33.1-16.5,57.8s1.4,22.5,3.9,32.2c2.5,9.9,6.8,18.2,11.8,25.4,5.3,7.1,11.8,12.9,19.6,17.1,7.5,3.9,16.5,5.8,26.4,5.8s18.2-1.7,26.1-5.8c7.5-3.9,13.8-9.3,19.3-16.5,5-7.1,9-15.7,11.8-25.4,2.5-9.9,3.9-20.6,3.9-32.2v.5-.5h-.2Z"/>
      <path class="st3" d="M2114.9,1092.1c0-7.1,2.2-12.9,6.3-17.1,4.6-3.9,9.3-5.8,16-5.8s11.8,1.7,16,5.8,6.3,9.3,6.3,17.1-2.2,12.9-6.3,17.1c-4.1,4.2-9.3,5.8-16,5.8s-11.5-1.7-16-5.8c-4.6-3.9-6.3-9.3-6.3-17.1M2119.7,1165.8c0-6.3,1.4-10.7,4.6-12.9s7.1-3.6,12.9-3.6,9.9,1.4,12.9,3.6c3.1,2.2,5,6.8,5,12.9v180.6c0,6.3-1.7,10.7-5,12.9s-7.5,3.6-12.9,3.6-9.9-1.4-12.9-3.6c-3.1-2.2-4.6-6.8-4.6-12.9v-180.6Z"/>
      <path class="st3" d="M2346.8,1230.6v-8.5c0-15.7-3.9-27.2-12.1-35.3-8.2-7.5-21.4-11.8-39.9-11.8s-13.5.8-18.8,2.8c-5.3,1.7-9.9,3.6-13.5,5.8-3.6,2.2-6.8,4.6-9,7.1s-4.6,5-5.8,6.8c-2.5,3.1-5,5.3-7.1,6.8s-4.4,1.7-7.5,1.7-8.5-1.4-12.1-3.9c-3.6-2.8-5.8-5.8-5.8-10.4s0-3.9.5-5.3.8-2.8,1.7-4.4c0-.9,1.7-3.1,5-7.1,3.3-3.9,7.5-8.2,13.8-12.6s14.3-8.5,24.2-11.5c9.9-3.6,21.8-5.3,35.6-5.3s28.9,1.7,39.7,5.8,19.6,9.3,26.4,16,11.8,14.3,14.8,22.8c3.1,8.5,4.6,17.9,4.6,27.2v132.4c0,9-5.8,13.8-17.9,13.8s-12.9-1.7-14.8-5.3-2.5-8.5-2.5-14.8v-12.6c-2.5,3.9-6.3,8.2-9.9,12.1-3.9,3.9-8.5,8.2-14.3,11.8s-12.6,6.3-20.1,8.5c-7.5,2.2-17.1,3.1-27.2,3.1s-23.2-1.4-32.2-4.4c-9-3.1-16.5-7.1-22.5-12.6-5.8-5.3-10.4-11.8-13.5-19.3-3.1-7.1-4.6-15.2-4.6-23.2s1.7-20.6,5.8-30c3.9-9,10.4-17.1,19.6-23.2,9.3-6.3,21.8-11.5,37.5-15.2,15.7-3.6,35.3-5.8,58.9-6.3h21.4l.8-1.4.5-.5.2.5ZM2324.1,1258.1c-17.9,0-32.2,1.4-42.9,3.6-11.2,2.2-19.6,5.3-26.1,9s-10.7,8.2-12.9,13.5-3.6,11.2-3.6,17.9,3.1,17.4,9.9,24.2,17.1,10.4,32.2,10.4,25-3.1,35.3-9c10.7-5.8,18.8-13.3,24.2-22.3,5-7.5,7.1-17.4,7.1-30.3v-17.4h-22.8l-.5.9v-.5Z"/>
      <path class="st3" d="M2536.4,1086.2c0-6.3,1.4-10.7,4.6-12.9s7.1-3.6,12.9-3.6,9.9,1.4,12.9,3.6c3.1,2.2,5,6.8,5,12.9v94.2c2.2-3.9,5.3-8.5,9.3-12.6,3.9-4.6,9-8.2,14.8-11.8,5.8-3.1,12.1-6.3,19.3-8.5,7.1-2.2,15.2-3.1,24.2-3.1,14.3,0,27.2,2.5,38.5,8.2,11.2,5.3,21,12.9,28.9,22.8,8.2,9.9,13.8,21,17.9,34.4,3.9,13.5,5.8,28.1,5.8,44.6s-2.2,31.4-5.8,45.1c-3.6,13.8-9.9,25.4-17.9,35.3-8.2,9.9-17.4,17.9-28.9,23.2-11.2,5.3-24.2,8.5-38.5,8.5s-31.4-3.6-42.9-11.2c-11.8-7.5-20.6-16.5-26.4-27.2v19.3c0,6.3-1.4,10.4-4.6,12.6-2.5,2.2-7.1,3.1-12.6,3.1s-9.9-.9-12.6-3.1c-2.8-2.2-3.9-6.3-3.9-12.6v-261.3h0ZM2693.1,1256.1c0-12.1-1.4-22.8-3.6-32.2-2.2-9.3-6.3-17.9-11.2-25-5-7.1-11.2-12.6-18.8-16.5-7.5-3.9-16-5.8-26.1-5.8-19.6,0-35.3,7.1-46.5,21-11.2,13.8-16.5,33.1-16.5,57.8s1.4,22.5,3.9,32.2c2.5,9.9,6.8,18.2,11.8,25.4,5.3,7.1,11.8,12.9,19.6,17.1,7.5,3.9,16.5,5.8,26.4,5.8s18.2-1.7,26.1-5.8c7.5-3.9,13.8-9.3,19.3-16.5,5-7.1,9-15.7,11.8-25.4,2.5-9.9,3.9-20.6,3.9-32.2v.5-.5h-.2Z"/>
      <path class="st3" d="M2921.2,1165.8c0-6.3,1.7-10.7,5-12.9s7.5-3.6,12.9-3.6,9.9,1.4,12.9,3.6c3.1,2.2,4.4,6.8,4.4,12.9v181.4c0,6.3-1.4,10.4-3.9,12.6-2.8,2.2-6.8,3.1-12.6,3.1s-9.9-.8-12.6-3.1c-3.1-2.2-4.6-6.3-4.6-12.6v-20.1c-3.9,7.5-9,14.3-15.7,20.1-5.3,5-12.9,9.3-21.8,13.8-9,4.6-20.1,6.3-33.6,6.3s-20.6-1.4-30-4.4c-9.3-3.1-17.1-7.5-23.2-13.8-6.3-6.3-11.2-13.8-14.8-22.8-3.6-9.3-5.3-20.1-5.3-33.1v-129.3c0-9.9,5.8-14.3,17.1-14.3s18.2,5,18.2,14.3v120.6c0,16,3.1,28.6,9.9,37.1s18.8,12.9,37.1,12.9,20.1-2.2,27.8-7.1c7.5-5,13.8-11.2,18.8-18.8,5-7.5,8.5-16.5,10.7-26.1,2.2-9.9,3.6-19.3,3.6-28.6v-88.1l-.5-.5h-.2l.3.5Z"/>
      <path class="st3" d="M3012.6,1346.7c-3.1-2.5-5.3-5-6.3-7.1-1.4-2.2-1.7-4.4-1.7-6.8,0-4.6,1.7-9,5-12.9s7.1-5.8,12.1-5.8,5.3.5,7.5,1.7c2.2,1.4,5,2.8,8.2,5,5,3.1,11.8,7.1,20.1,11.2,9,3.9,19.6,6.3,33.1,6.3s26.1-2.8,33.9-8.5c8.2-5.8,11.8-13.8,11.8-23.6s0-7.1-1.4-10.4c-.8-3.1-2.5-6.3-5.3-9.3-3.1-3.1-7.1-5.8-12.6-8.2-5.3-2.2-12.9-3.9-22.5-5.8l-25.4-3.9c-17.9-2.8-32.5-9-44.3-19.3-11.8-9.9-17.1-23.6-17.1-42.1s7.1-34.9,21.8-45.7c14.3-10.7,33.9-16,58.9-16s20.6.9,28.9,2.2c8,1.4,15.2,3.6,20.6,5.8s10.4,4.4,13.8,6.8c3.6,2.2,6.3,4.6,8.5,5.8,5.3,4.4,8.2,9,8.2,13.3s-1.4,8.5-3.9,11.8c-2.8,3.6-6.3,5.3-11.8,5.3s-5.8-.5-8.5-1.7c-2.5-1.4-5.8-3.1-9.3-5.3-5.3-3.1-11.8-6.3-18.8-9.3-7.1-3.1-17.1-5-28.9-5s-26.1,2.5-33.1,8.5c-7.1,5.3-10.7,12.6-10.7,21s0,7.1,1.4,10.4c.8,3.1,2.8,6.3,5.3,9.3,2.5,2.8,6.8,5.3,11.5,7.5,5,2.2,12.1,3.9,20.6,5l25.4,3.9c21.4,3.1,37.1,9.3,47.9,19.6,10.8,10.4,16,24,16,42.4s-7.1,36.1-21,47.4c-13.8,11.5-34.4,17.1-60.3,17.1s-20.1-.8-28.6-2.2c-8.5-1.4-16-3.1-22.5-5.3-6.8-2.2-12.1-4.4-16-6.8-4.6-2.2-7.5-4.4-10.4-6.3h-.5.2l.2-.3Z"/>
      <path class="st3" d="M3216.4,1092.1c0-7.1,2.2-12.9,6.3-17.1,4.6-3.9,9.3-5.8,16-5.8s11.8,1.7,16,5.8,6.3,9.3,6.3,17.1-2.2,12.9-6.3,17.1-9.3,5.8-16,5.8-11.5-1.7-16-5.8c-4.4-3.9-6.3-9.3-6.3-17.1M3221.4,1165.8c0-6.3,1.4-10.7,4.6-12.9s7.1-3.6,12.9-3.6,9.9,1.4,12.9,3.6c3.1,2.2,5,6.8,5,12.9v180.6c0,6.3-1.7,10.7-5,12.9s-7.5,3.6-12.9,3.6-9.9-1.4-12.9-3.6c-3.1-2.2-4.6-6.8-4.6-12.9v-180.6Z"/>
      <path class="st3" d="M3349.9,1346.4c0,6.3-1.7,10.7-5,12.9s-7.5,3.6-12.9,3.6-9.9-1.4-12.9-3.6c-3.1-2.2-4.4-6.8-4.4-12.9v-181.4c0-6.3,1.4-10.4,3.9-12.6,2.8-2.2,6.8-3.1,12.6-3.1s9.9.8,12.6,3.1c3.1,2.2,4.6,6.3,4.6,12.6v19.6c3.9-7.1,9-13.8,15.7-19.6,5.3-5,12.9-9.3,21.8-13.8,9-3.9,20.1-6.3,33.9-6.3,21.8,0,39.3,6.3,53.2,18.2,13.8,12.1,20.1,30.8,20.1,55.8v129.3c0,9.9-5.8,14.3-17.1,14.3s-18.2-5-18.2-14.3v-120.6c0-16-3.6-28.6-10.4-37.1-6.8-8.5-18.8-12.9-36.7-12.9s-20.1,2.2-27.8,7.1c-7.5,5-13.8,11.2-18.8,18.8-5,7.5-8.5,16.5-10.7,26.1-2.2,9.3-3.6,19.3-3.6,28.6v88.6h.2v-.3Z"/>
      <path class="st3" d="M3734.8,1251.1c0,9.9-5.8,14.8-17.1,14.8h-140.7c0,22.3,5.3,39.7,17.1,51.8,11.5,12.1,26.9,18.2,47.4,18.2s15.2-.9,21-3.1,11.2-4.4,15.2-7.5c3.9-3.1,7.5-5.8,10.4-9s5-5.8,6.3-8.2c1.7-2.8,3.6-5,5.3-6.3,1.7-1.4,4.4-2.2,8-2.2s7.5,1.4,11.8,3.6c3.6,2.8,5.3,5.8,5.3,9.9s-1.4,8.2-4.6,12.9c-2.5,3.9-5.8,8-9.9,12.6-3.9,4.4-9,9-15.2,12.9s-13.8,7.5-22.8,10.4-19.3,3.9-31.4,3.9-29.5-2.8-42.1-8.2c-12.6-5.3-23.2-12.9-32.2-22.8-9-9.9-15.7-21.4-20.1-35.3-4.6-13.8-7.1-28.6-7.1-45.1s2.2-31.7,7.1-45.1c5-13.5,11.5-25,20.1-34.9,9-9.9,19.3-17.4,31.7-22.8,12.1-5.3,26.1-8.2,41.1-8.2s28.9,2.5,41.1,8.2c12.1,5.3,21.8,12.9,30,22.5,8.2,9.3,13.8,20.6,18.2,33.9,3.9,12.9,6.3,26.9,6.3,42.1l-.5.9h0ZM3639.7,1175.2c-9.9,0-18.2,1.7-25.4,5-7.1,3.1-13.3,7.5-18.2,12.9-5,5.3-9,11.8-11.8,19.3-2.5,7.1-5,15.2-5.3,22.8h120.6c-.9-7.5-2.8-15.2-5.3-22.8-2.8-7.1-6.3-13.8-11.2-19.3-5-5.3-10.7-9.7-17.9-12.9-7.1-3.1-15.7-5-25.4-5"/>
      <path class="st3" d="M3779,1346.7c-3.1-2.5-5.3-5-6.3-7.1-1.4-2.2-1.7-4.4-1.7-6.8,0-4.6,1.7-9,5-12.9s7.1-5.8,12.1-5.8,5.3.5,7.5,1.7c2.2,1.4,5,2.8,8.2,5,5,3.1,11.8,7.1,20.1,11.2,9,3.9,19.6,6.3,33.1,6.3s26.1-2.8,33.9-8.5c8.2-5.8,11.8-13.8,11.8-23.6s0-7.1-1.4-10.4c-.9-3.1-2.8-6.3-5.3-9.3-3.1-3.1-7.1-5.8-12.6-8.2-5.3-2.2-12.9-3.9-22.5-5.8l-25.4-3.9c-17.9-2.8-32.5-9-44.3-19.3-11.8-9.9-17.1-23.6-17.1-42.1s7.1-34.9,21.8-45.7c14.3-10.7,33.9-16,58.9-16s20.6.9,29.2,2.2c8,1.4,15.2,3.6,20.6,5.8,5.3,2.2,10.4,4.4,13.8,6.8,3.6,2.2,6.3,4.6,8.5,5.8,5.3,4.4,8.2,9,8.2,13.3s-1.4,8.5-3.9,11.8c-2.8,3.6-6.3,5.3-11.8,5.3s-5.8-.5-8.5-1.7c-2.5-1.4-5.8-3.1-9.3-5.3-5.3-3.1-11.8-6.3-18.8-9.3-7.1-3.1-17.1-5-28.9-5s-26.1,2.5-33.1,8.5c-7.1,5.3-10.7,12.6-10.7,21s0,7.1,1.4,10.4c.9,3.1,2.8,6.3,5.3,9.3,2.5,2.8,6.8,5.3,11.5,7.5,5,2.2,12.1,3.9,20.6,5l25.4,3.9c21.4,3.1,37.1,9.3,47.9,19.6s16,24,16,42.4-7.1,36.1-21,47.4c-13.8,11.5-34.4,17.1-60.3,17.1s-20.1-.8-28.6-2.2c-8.5-1.4-16-3.1-22.5-5.3-6.8-2.2-12.1-4.4-16-6.8-4.4-2.2-7.5-4.4-10.4-6.3h-.5v-.3Z"/>
      <path class="st3" d="M3985.9,1346.7c-3.1-2.5-5.3-5-6.3-7.1-1.4-2.2-1.7-4.4-1.7-6.8,0-4.6,1.7-9,5-12.9,3.3-3.9,7.1-5.8,12.1-5.8s5.3.5,7.5,1.7c2.2,1.4,5,2.8,8.2,5,5,3.1,11.5,7.1,20.1,11.2,9,3.9,19.6,6.3,33.1,6.3s26.1-2.8,33.9-8.5c8.2-5.8,11.5-13.8,11.5-23.6s0-7.1-1.4-10.4c-.8-3.1-2.5-6.3-5.3-9.3-3.1-3.1-7.1-5.8-12.6-8.2-5.3-2.2-12.9-3.9-22.5-5.8l-25.4-3.9c-17.9-2.8-32.5-9-44.3-19.3-11.8-9.9-17.1-23.6-17.1-42.1s7.1-34.9,21.8-45.7c14.3-10.7,33.9-16,58.9-16s20.6.9,28.9,2.2c8,1.4,15.2,3.6,20.6,5.8,5.3,2.2,10.4,4.4,13.8,6.8,3.6,2.2,6.3,4.6,8.5,5.8,5.3,4.4,8.2,9,8.2,13.3s-1.4,8.5-3.9,11.8c-2.5,3.6-6.3,5.3-11.8,5.3s-5.8-.5-8.5-1.7c-2.5-1.4-5.8-3.1-9.3-5.3-5.3-3.1-11.8-6.3-18.8-9.3-7.1-3.1-17.1-5-28.9-5s-26.1,2.5-33.1,8.5c-7.1,5.3-10.7,12.6-10.7,21s0,7.1,1.4,10.4c.8,3.1,2.8,6.3,5.3,9.3,2.5,2.8,6.8,5.3,11.8,7.5s12.1,3.9,20.4,5l25.4,3.9c21.4,3.1,37.1,9.3,47.9,19.6,10.7,10.4,16,24,16,42.4s-7.1,36.1-21,47.4c-13.8,11.5-34.4,17.1-60.3,17.1s-20.1-.8-28.6-2.2c-8.5-1.4-16-3.1-22.5-5.3-6.8-2.2-12.1-4.4-16-6.8-4.4-2.2-7.5-4.4-10.4-6.3h-.5.5v-.3Z"/>
      <path class="st3" d="M4182.7,1338.9c0-6.8,2.8-12.6,7.5-17.4,5-5,10.7-7.5,17.4-7.5s12.6,2.8,17.4,7.5c5,5,7.5,11.2,7.5,17.4s-2.5,12.6-7.5,17.4c-5,4.9-11.2,7.5-17.4,7.5s-12.6-2.8-17.4-7.5c-5-5-7.5-10.7-7.5-17.4"/>
    </g>
  </g>
</svg>