<?xml version="1.0" encoding="utf-8"?>
<!-- Generator: Adobe Illustrator 24.0.0, SVG Export Plug-In . SVG Version: 6.00 Build 0)  -->
<svg version="1.1" id="Layer_1" xmlns="http://www.w3.org/2000/svg" xmlns:xlink="http://www.w3.org/1999/xlink" x="0px" y="0px"
	 viewBox="0 0 275 100" style="enable-background:new 0 0 275 100;" xml:space="preserve">
<style type="text/css">
	.st0{fill-rule:evenodd;clip-rule:evenodd;fill:#25201C;}
	.st1{fill-rule:evenodd;clip-rule:evenodd;fill:#A01A16;}
	.st2{fill-rule:evenodd;clip-rule:evenodd;fill:#FFFFFF;}
	.st3{fill:#ADCA0D;}
	.st4{fill-rule:evenodd;clip-rule:evenodd;}
</style>
<path class="st0" d="M153.23,45.14l0.83-1.3c-0.36,0.05-0.69,0.1-0.97,0.15c-0.28,0.05-0.53,0.12-0.75,0.19
	c-0.26,0.09-0.49,0.19-0.68,0.32c-0.19,0.13-0.34,0.28-0.45,0.45l-0.01,0.03l-0.01,0.02l-0.03,0.05l-0.02,0.04l-0.02,0.03
	l-0.02,0.04l-0.02,0.03l-0.02,0.04l-0.01,0.05l0,0.05l0.05,0.18l0.16,0.16l0.16,0.08l0.2,0.05h0.03h0.03l0.05-0.01l0.05-0.01
	l0.17-0.03l0.19-0.06l0.07-0.03l0.06-0.03l0.23-0.09c0.08-0.03,0.16-0.07,0.24-0.11c0.08-0.04,0.16-0.08,0.24-0.13
	c0.08-0.05,0.17-0.1,0.26-0.16L153.23,45.14z M149.56,45.06c0.1-0.14,0.21-0.29,0.36-0.42c0.14-0.14,0.31-0.26,0.51-0.37
	c0.19-0.11,0.43-0.22,0.69-0.3c0.26-0.09,0.56-0.17,0.91-0.23l1.76-0.26c0.11-0.01,0.2-0.03,0.29-0.06
	c0.09-0.03,0.17-0.07,0.24-0.11l0.21-0.17l0.16-0.19l0.01-0.02l0.01-0.02l0.03-0.05l0.04-0.06l0.02-0.08l0.02-0.08
	c0.02-0.11,0.03-0.21,0.01-0.31c-0.02-0.1-0.06-0.2-0.13-0.28c-0.04-0.07-0.11-0.13-0.2-0.18c-0.09-0.05-0.19-0.08-0.32-0.09
	L154,41.79l-0.18,0.04c-0.09,0.03-0.19,0.06-0.28,0.09c-0.1,0.03-0.2,0.07-0.3,0.12l-0.2,0.09l-0.18,0.1l-0.2,0.11
	c-0.07,0.04-0.14,0.08-0.22,0.12l-0.51-0.01l-0.18-0.01l0.35-0.55l0.08-0.02l0.1-0.02l0.09-0.04l0.11-0.04
	c0.15-0.05,0.31-0.1,0.47-0.15c0.16-0.04,0.33-0.09,0.51-0.13c0.18-0.04,0.37-0.07,0.55-0.1c0.18-0.03,0.37-0.04,0.55-0.04
	l0.51-0.01c0.37,0.01,0.67,0.04,0.92,0.11c0.24,0.06,0.41,0.16,0.51,0.29c0.1,0.13,0.12,0.3,0.07,0.51
	c-0.05,0.22-0.17,0.47-0.35,0.76l-1.62,2.51l-0.07,0.16l0.01,0.08l0.03,0.02l0.01,0.02h0.01l0.03-0.01h0.02h0.01l0.51-0.01
	L154.98,46l-0.1,0.06l-0.09,0.04l-0.09,0.03l-0.09,0.02l-0.08,0.01l-0.09,0.01l-0.09,0.02l-0.08,0l-0.08,0.01h-0.57
	c-0.13,0-0.24-0.01-0.34-0.03c-0.1-0.03-0.19-0.06-0.27-0.11l-0.08-0.09l-0.05-0.1c-0.18,0.07-0.34,0.14-0.49,0.19
	c-0.15,0.06-0.3,0.09-0.45,0.12c-0.17,0.04-0.33,0.07-0.49,0.09c-0.16,0.02-0.29,0.03-0.42,0.03l-0.51,0
	c-0.25,0-0.47-0.03-0.64-0.08c-0.17-0.06-0.3-0.15-0.39-0.26c-0.09-0.12-0.13-0.26-0.11-0.41c0.01-0.15,0.08-0.32,0.19-0.49
	L149.56,45.06z M142.24,46.16l4.96-7.76h0.51l0.08,0.04l0.09,0.02h0.03h0.03l0.01,0.01h0.03h0.01h0.01h0.01h0.01l0.16-0.02
	l0.14-0.02l0.51-0.01l-3.06,4.78l0.13-0.05l0.15-0.07c0.21-0.1,0.43-0.21,0.67-0.33c0.24-0.12,0.49-0.25,0.74-0.39l0.08-0.05
	l0.1-0.06l0.09-0.05l0.1-0.05l0.22-0.12l0.21-0.12l0.2-0.11l0.21-0.12c0.14-0.07,0.27-0.15,0.4-0.21c0.12-0.06,0.23-0.13,0.34-0.19
	l0.51-0.01l0.05,0.03l0.08,0.02h0.02h0.02l0.01,0.01h0.02l0.14-0.02l0.14-0.03l0.51-0.01l-0.05,0.07l-3.98,1.98l1.19,2.68l-0.1,0.16
	h-0.51h-0.07l-0.08-0.01l-0.07,0l-0.05-0.01h-0.03h-0.03l-0.03,0.01h-0.03l-0.16,0.02l-0.15,0h-0.51l-0.12-0.15l-0.08-0.17
	l-0.07-0.18l-0.08-0.18c-0.09-0.22-0.18-0.43-0.27-0.63c-0.08-0.2-0.16-0.4-0.22-0.58l-0.07-0.19l-0.07-0.15l-1.44,2.24h-0.51
	l-0.11,0l-0.12-0.02h-0.01h-0.01h-0.01h-0.01h-0.01h-0.02l-0.15,0.02l-0.15,0H142.24z M142.57,39.52c0.05-0.09,0.12-0.16,0.2-0.23
	c0.08-0.07,0.17-0.12,0.27-0.17c0.1-0.05,0.19-0.08,0.28-0.11c0.09-0.02,0.17-0.03,0.26-0.03l0.51-0.01
	c0.09,0.01,0.17,0.02,0.25,0.04l0.18,0.11l0.05,0.18c-0.01,0.07-0.04,0.15-0.1,0.24c-0.07,0.1-0.15,0.18-0.23,0.25
	c-0.08,0.07-0.18,0.13-0.29,0.18l-0.14,0.06l-0.14,0.04l-0.13,0.03l-0.13,0.01l-0.51-0.01c-0.09,0.01-0.16,0-0.23-0.02l-0.15-0.11
	l-0.05-0.19c0.01-0.07,0.05-0.15,0.1-0.24L142.57,39.52z M138.42,46.16l3.13-4.9h0.51l0.04,0.03l0.03,0.01l0.05,0.01h0.05l0.02,0.01
	l0.02,0l0.03,0.01h0.03h0.02h0.02l0.14-0.02l0.14-0.03l0.51-0.01l-3.13,4.9h-0.51l-0.11,0l-0.12-0.02h-0.01h-0.01h-0.01h-0.01h-0.01
	h-0.02l-0.16,0.02l-0.15,0H138.42z M133.4,39.27l0.07,0.03l0.08,0.02l0.07,0.01l0.07,0.01h0.04h0.03h0.04h0.03l0.08,0l0.09-0.02
	l0.09-0.02l0.09-0.02l0.51-0.01l-0.6,5.28c0.11-0.07,0.22-0.16,0.34-0.25c0.12-0.09,0.24-0.19,0.36-0.3
	c0.25-0.21,0.51-0.42,0.77-0.65c0.27-0.23,0.54-0.46,0.83-0.71c0.09-0.08,0.19-0.16,0.28-0.25c0.09-0.08,0.19-0.17,0.28-0.26
	c0.09-0.08,0.19-0.16,0.28-0.25c0.1-0.08,0.2-0.17,0.29-0.26c0.23-0.21,0.47-0.42,0.69-0.63c0.23-0.21,0.45-0.41,0.68-0.62
	c0.22-0.2,0.43-0.4,0.63-0.58c0.2-0.19,0.39-0.37,0.57-0.53l0.52-0.01l0.05,0.03l0.08,0.02h0.02h0.02l0,0.01h0.02l0.14-0.03
	l0.14-0.02l0.51-0.01l-8.11,6.87h-0.51h-0.03l-0.01-0.01l-0.02,0l-0.02-0.01l-0.04-0.02l-0.05-0.01l0.51-0.01l-0.03,0.01h-0.03
	l-0.05,0.01l-0.06,0.01l-0.08,0.02l-0.08,0l-0.51,0l0.39-6.88L133.4,39.27z M121.43,46.16l4.96-7.76h0.51l0.09,0.04l0.07,0.02
	l0.04,0.01l0.04,0h0.01h0.01l0.11-0.02l0.1-0.02l0.05-0.01l0.06-0.01l0.51-0.01l-4.96,7.75l-0.51,0h-0.06l-0.05-0.01l-0.07,0
	l-0.06-0.01h-0.01h-0.01h-0.01h-0.01h-0.01h-0.02l-0.16,0.02l-0.15,0H121.43z M121.47,39.51c0.05-0.09,0.12-0.16,0.2-0.23
	c0.08-0.07,0.17-0.12,0.27-0.17c0.1-0.05,0.19-0.08,0.28-0.11c0.09-0.02,0.17-0.03,0.26-0.03l0.51-0.01
	c0.09,0.01,0.18,0.02,0.25,0.04l0.17,0.11l0.06,0.18c-0.01,0.07-0.04,0.15-0.11,0.24c-0.07,0.1-0.15,0.18-0.23,0.25
	c-0.08,0.07-0.18,0.13-0.29,0.18l-0.14,0.06l-0.14,0.04l-0.13,0.03l-0.13,0.01l-0.51-0.01c-0.09,0.01-0.16,0-0.23-0.02l-0.15-0.11
	l-0.04-0.18c0.01-0.07,0.05-0.15,0.1-0.24L121.47,39.51z M117.32,46.16l3.13-4.9h0.51l0.03,0.03l0.03,0.01l0.05,0.01h0.05l0.02,0.01
	l0.02,0l0.02,0.01h0.03h0.02h0.02l0.14-0.02l0.14-0.03l0.51-0.01l-3.13,4.9l-0.51,0l-0.11,0l-0.12-0.02h-0.01h-0.01h-0.01h-0.01
	h-0.01h-0.02l-0.16,0.02l-0.15,0H117.32z M114.25,45.13l0.83-1.3c-0.37,0.05-0.69,0.1-0.97,0.15c-0.28,0.06-0.53,0.12-0.75,0.19
	c-0.26,0.09-0.49,0.19-0.68,0.32c-0.19,0.13-0.34,0.28-0.45,0.45l-0.01,0.03L112.21,45l-0.03,0.05l-0.02,0.04l-0.01,0.03l-0.02,0.04
	l-0.02,0.03l-0.02,0.04l-0.01,0.05l0,0.05l0.05,0.18l0.16,0.16l0.16,0.08l0.19,0.05h0.03h0.02l0.05-0.01l0.05-0.01l0.17-0.03
	l0.19-0.06l0.07-0.03l0.06-0.03l0.23-0.09l0.24-0.11c0.08-0.04,0.16-0.08,0.24-0.13c0.08-0.05,0.17-0.1,0.26-0.16L114.25,45.13z
	 M110.59,45.05c0.09-0.14,0.21-0.29,0.36-0.42c0.14-0.14,0.31-0.26,0.51-0.37c0.19-0.11,0.43-0.22,0.69-0.3
	c0.26-0.09,0.57-0.17,0.91-0.23l1.76-0.26c0.11-0.01,0.2-0.03,0.29-0.06c0.09-0.03,0.17-0.07,0.24-0.11l0.21-0.17l0.16-0.19
	l0.01-0.02l0.02-0.02l0.02-0.05l0.04-0.06l0.02-0.08l0.02-0.08c0.02-0.11,0.03-0.21,0.01-0.31c-0.02-0.1-0.06-0.2-0.12-0.28
	c-0.05-0.07-0.11-0.13-0.2-0.18c-0.09-0.05-0.19-0.08-0.32-0.09l-0.18,0.03l-0.18,0.04c-0.09,0.03-0.19,0.06-0.28,0.09
	c-0.09,0.03-0.2,0.07-0.3,0.12l-0.2,0.09l-0.18,0.1l-0.2,0.11c-0.07,0.04-0.14,0.08-0.22,0.12l-0.51-0.01l-0.18-0.01l0.35-0.55
	l0.08-0.02l0.1-0.02l0.09-0.04l0.11-0.04c0.15-0.05,0.31-0.1,0.47-0.15c0.16-0.04,0.33-0.09,0.51-0.14c0.18-0.04,0.37-0.07,0.54-0.1
	c0.18-0.03,0.37-0.04,0.55-0.04l0.51-0.01c0.37,0.01,0.68,0.04,0.92,0.11c0.24,0.06,0.41,0.16,0.5,0.29c0.1,0.13,0.12,0.3,0.07,0.51
	c-0.05,0.22-0.17,0.47-0.35,0.76l-1.62,2.51l-0.07,0.16l0.01,0.08l0.03,0.02l0.01,0.02h0.01l0.02-0.01h0.02h0.01l0.51-0.01L116,46
	l-0.1,0.06l-0.09,0.04l-0.09,0.03l-0.09,0.02l-0.08,0.01l-0.09,0.01l-0.09,0.02l-0.08,0l-0.08,0.01h-0.57
	c-0.13,0-0.24-0.01-0.34-0.03c-0.1-0.03-0.19-0.06-0.27-0.11l-0.08-0.09l-0.05-0.1c-0.18,0.07-0.34,0.14-0.49,0.19
	c-0.15,0.06-0.3,0.09-0.44,0.12c-0.17,0.04-0.34,0.07-0.49,0.09c-0.16,0.02-0.3,0.03-0.42,0.03l-0.51,0c-0.25,0-0.47-0.03-0.64-0.08
	c-0.17-0.06-0.3-0.15-0.39-0.26c-0.09-0.12-0.13-0.26-0.11-0.41c0.01-0.15,0.08-0.32,0.19-0.49L110.59,45.05z M106.15,42.43
	l0.05,0.02l0.07,0.01c0.32-0.01,0.63-0.03,0.91-0.07c0.28-0.04,0.54-0.1,0.76-0.18c0.25-0.09,0.47-0.18,0.66-0.27
	c0.2-0.1,0.37-0.2,0.51-0.31c0.11-0.07,0.2-0.15,0.29-0.23c0.09-0.08,0.15-0.15,0.21-0.22l0.16-0.19l0.09-0.13l0.02-0.05l0.02-0.06
	l0.03-0.06l0.03-0.07l0.04-0.16l0-0.17c-0.01-0.09-0.04-0.17-0.1-0.25c-0.06-0.08-0.13-0.15-0.23-0.22
	c-0.1-0.07-0.24-0.13-0.42-0.16c-0.18-0.03-0.41-0.05-0.69-0.05l-0.58-0.02L106.15,42.43z M102.07,46.15l4.46-6.96l3.62,0
	c0.42,0.01,0.76,0.06,1.03,0.14c0.27,0.08,0.45,0.2,0.55,0.35c0.1,0.16,0.14,0.34,0.12,0.54c-0.03,0.2-0.11,0.41-0.26,0.65
	c-0.15,0.23-0.33,0.44-0.53,0.62c-0.19,0.19-0.42,0.35-0.67,0.48c-0.13,0.07-0.26,0.13-0.38,0.19c-0.12,0.06-0.24,0.11-0.36,0.16
	c-0.13,0.05-0.25,0.1-0.37,0.14c-0.12,0.04-0.24,0.07-0.35,0.11c-0.12,0.03-0.23,0.05-0.34,0.08c-0.11,0.03-0.21,0.05-0.3,0.06
	c-0.1,0.02-0.2,0.03-0.29,0.04c-0.1,0.01-0.18,0.02-0.24,0.03l1.24,3.39h-0.51l-0.1,0l-0.09-0.01l-0.09,0l-0.07-0.02h-0.07h-0.06
	h-0.03h-0.03l-0.04,0.01h-0.04l-0.19,0.02l-0.2,0h-0.51l-1.13-3.23l-2.07,3.22h-0.51h-0.08l-0.08-0.01l-0.07,0l-0.05-0.02h-0.03
	h-0.03l-0.03,0.01h-0.03l-0.16,0.02l-0.15,0L102.07,46.15z"/>
<path class="st0" d="M209.22,46.18l4.46-6.96l0.51,0l0.09,0.04l0.13,0.02h0.01h0.02h0.02h0.01h0.02h0.02h0.01h0.02l0.13-0.02
	l0.12-0.02l0.51-0.01l-4.11,6.4l0.18,0.03l0.21,0.01l0.2,0.01h0.22h0.11l0.1-0.01h0.11h0.11c0.17-0.01,0.34-0.01,0.51-0.02
	c0.17-0.01,0.34-0.01,0.5-0.02c0.16-0.01,0.3-0.03,0.44-0.03c0.13-0.01,0.25-0.02,0.36-0.03l0.51-0.01l-0.06,0.07l-0.05,0.06
	l-0.04,0.06l-0.04,0.05l-0.04,0.06l-0.03,0.05l-0.03,0.05l-0.01,0.05l-0.01,0.02l-0.02,0.04l-0.01,0.02l-0.01,0.03l-0.02,0.06
	L209.22,46.18z M193.75,46.17l3.13-4.9l0.51,0l0.06,0.03l0.07,0.01l0.01,0.02l0.02,0l0.01,0.01l0.02,0.01l0.14-0.02l0.17-0.03
	l0.51-0.01l-0.21,0.33l0.07-0.03l0.07-0.02l0.15-0.06l0.15-0.06c0.19-0.07,0.38-0.13,0.56-0.17c0.19-0.04,0.37-0.06,0.55-0.06
	l0.51-0.01c0.22,0.01,0.41,0.02,0.57,0.04c0.16,0.02,0.29,0.05,0.39,0.08c0.11,0.03,0.19,0.09,0.26,0.17
	c0.06,0.08,0.12,0.17,0.16,0.29l0.01,0.06l0.01,0.06c0.15-0.1,0.29-0.18,0.43-0.25c0.14-0.07,0.29-0.13,0.44-0.18
	c0.24-0.08,0.48-0.14,0.69-0.19c0.22-0.05,0.43-0.07,0.63-0.07l0.51-0.01c0.32,0.01,0.58,0.05,0.78,0.12
	c0.21,0.07,0.35,0.19,0.44,0.34c0.09,0.15,0.13,0.3,0.13,0.47c0,0.16-0.05,0.34-0.15,0.52l-0.02,0.03l-0.05,0.08l-0.02,0.03
	l-0.04,0.04l-0.02,0.03l-2.12,3.32h-0.51h-0.06l-0.05-0.01l-0.07,0l-0.06-0.01h-0.01h-0.01h-0.01h-0.01h-0.01h-0.02l-0.16,0.02
	l-0.15,0l-0.51,0l2.07-3.25c0.11-0.17,0.17-0.32,0.19-0.46c0.02-0.14-0.01-0.26-0.09-0.37c-0.06-0.07-0.14-0.14-0.23-0.19
	c-0.09-0.05-0.2-0.09-0.32-0.11c-0.14,0.02-0.29,0.06-0.44,0.11c-0.15,0.05-0.31,0.12-0.48,0.2c-0.22,0.11-0.42,0.24-0.61,0.41
	c-0.18,0.16-0.36,0.36-0.53,0.59l-1.95,3.06h-0.51h-0.06l-0.05-0.01l-0.07,0l-0.05-0.01h-0.01h0.01h-0.01l-0.13,0.02l-0.12,0
	l-0.51,0l2.07-3.25c0.11-0.16,0.17-0.31,0.17-0.44c0.01-0.14-0.03-0.25-0.12-0.35c-0.06-0.08-0.14-0.14-0.24-0.2
	c-0.1-0.05-0.21-0.08-0.33-0.1c-0.14,0.02-0.29,0.06-0.43,0.1c-0.15,0.05-0.3,0.11-0.46,0.18c-0.21,0.1-0.4,0.23-0.58,0.4
	c-0.18,0.16-0.35,0.36-0.52,0.6l-1.96,3.06h-0.51h-0.06l-0.05-0.01l-0.07,0l-0.05-0.01h-0.01h-0.01h-0.01h-0.01h-0.01h-0.02
	l-0.16,0.02l-0.15,0L193.75,46.17z M190.99,45.15l0.82-1.3c-0.36,0.05-0.68,0.1-0.97,0.15c-0.28,0.06-0.53,0.12-0.75,0.19
	c-0.26,0.09-0.49,0.19-0.68,0.32c-0.19,0.13-0.34,0.28-0.45,0.45l-0.01,0.03l-0.01,0.02l-0.03,0.05l-0.02,0.04l-0.02,0.03
	l-0.02,0.04l-0.02,0.03l-0.02,0.04l-0.02,0.05l0,0.05l0.05,0.18l0.15,0.16l0.16,0.08l0.2,0.05h0.03h0.03l0.05-0.01l0.05-0.01
	l0.17-0.03l0.19-0.05l0.06-0.03l0.06-0.03l0.23-0.09c0.08-0.03,0.16-0.07,0.24-0.11c0.08-0.04,0.16-0.08,0.24-0.13
	c0.08-0.05,0.17-0.1,0.26-0.16L190.99,45.15L190.99,45.15z M187.32,45.06c0.09-0.14,0.22-0.29,0.36-0.42
	c0.14-0.14,0.31-0.26,0.51-0.37c0.2-0.11,0.42-0.22,0.69-0.31c0.27-0.09,0.57-0.17,0.91-0.22l1.76-0.26c0.1-0.01,0.2-0.03,0.29-0.06
	c0.09-0.03,0.17-0.07,0.25-0.11l0.2-0.17l0.16-0.19l0.01-0.02l0.01-0.02l0.02-0.05l0.04-0.06l0.02-0.08l0.02-0.08
	c0.02-0.11,0.03-0.21,0.01-0.31c-0.02-0.1-0.06-0.2-0.13-0.29c-0.05-0.07-0.11-0.13-0.2-0.18c-0.09-0.05-0.19-0.08-0.31-0.09
	l-0.18,0.03l-0.19,0.04c-0.09,0.03-0.19,0.06-0.28,0.09c-0.1,0.03-0.2,0.07-0.3,0.12l-0.2,0.09l-0.18,0.1l-0.21,0.11
	c-0.06,0.04-0.14,0.08-0.22,0.12l-0.51-0.01l-0.17-0.01l0.34-0.55l0.08-0.01l0.1-0.02l0.09-0.04l0.11-0.04
	c0.15-0.05,0.31-0.1,0.47-0.15c0.16-0.04,0.33-0.09,0.51-0.13c0.18-0.04,0.37-0.07,0.55-0.1c0.18-0.03,0.37-0.04,0.55-0.04
	l0.51-0.01c0.37,0.01,0.68,0.04,0.92,0.11c0.24,0.06,0.41,0.16,0.51,0.29c0.1,0.13,0.12,0.3,0.07,0.51
	c-0.05,0.22-0.17,0.47-0.35,0.76l-1.62,2.51l-0.08,0.16l0.02,0.08l0.03,0.02l0.01,0.02h0.01l0.02-0.01h0.02h0.01l0.51-0.01
	l-0.14,0.22l-0.1,0.06l-0.09,0.04l-0.09,0.03l-0.09,0.02l-0.09,0.01l-0.08,0.01l-0.09,0.02l-0.09,0l-0.08,0.01h-0.57
	c-0.13,0-0.24-0.01-0.34-0.03c-0.1-0.03-0.19-0.06-0.27-0.11l-0.08-0.09l-0.06-0.1c-0.17,0.07-0.34,0.14-0.49,0.19
	c-0.16,0.06-0.3,0.09-0.45,0.12c-0.17,0.04-0.34,0.07-0.49,0.09c-0.15,0.02-0.29,0.03-0.42,0.03h-0.51c-0.26,0-0.47-0.03-0.64-0.08
	c-0.17-0.06-0.3-0.15-0.39-0.26c-0.09-0.12-0.13-0.26-0.11-0.41c0.02-0.15,0.08-0.32,0.19-0.49L187.32,45.06z M183.18,43.08
	c-0.12,0.19-0.19,0.36-0.22,0.5c-0.03,0.15-0.02,0.28,0.03,0.39c0.05,0.09,0.12,0.16,0.23,0.22c0.11,0.05,0.22,0.08,0.35,0.09
	c0.14-0.02,0.29-0.05,0.45-0.11c0.16-0.06,0.32-0.13,0.49-0.22c0.2-0.11,0.39-0.25,0.56-0.4c0.17-0.15,0.32-0.32,0.45-0.53
	c0.13-0.21,0.22-0.4,0.25-0.57c0.04-0.17,0.03-0.31-0.03-0.42c-0.04-0.09-0.1-0.16-0.19-0.21c-0.08-0.05-0.18-0.09-0.3-0.12
	c-0.16,0.03-0.31,0.06-0.46,0.1c-0.15,0.04-0.27,0.1-0.39,0.18c-0.16,0.09-0.31,0.18-0.43,0.27c-0.13,0.09-0.24,0.19-0.35,0.29
	l-0.15,0.15l-0.13,0.16l-0.07,0.11l-0.05,0.09l-0.03,0.03L183.18,43.08L183.18,43.08z M180.09,47.27l-0.05,0.1l-0.04,0.1l-0.04,0.1
	l-0.01,0.1c-0.01,0.1,0,0.19,0.04,0.28c0.04,0.09,0.1,0.18,0.19,0.27c0.07,0.07,0.17,0.12,0.3,0.16c0.13,0.04,0.28,0.07,0.47,0.08
	h0.03H181l0.03-0.01h0.03l0.17-0.02l0.2-0.02c0.19-0.03,0.38-0.08,0.58-0.14c0.2-0.06,0.39-0.13,0.57-0.21
	c0.2-0.09,0.36-0.19,0.51-0.3c0.14-0.11,0.26-0.25,0.36-0.39l0.03-0.05l0.03-0.05l0.02-0.05l0.03-0.04
	c0.07-0.13,0.11-0.25,0.12-0.36c0.01-0.11-0.01-0.22-0.04-0.32c-0.03-0.09-0.13-0.16-0.3-0.21c-0.17-0.05-0.4-0.09-0.69-0.1
	c-0.23,0.02-0.46,0.04-0.68,0.07c-0.22,0.03-0.43,0.07-0.64,0.13c-0.24,0.07-0.47,0.18-0.67,0.33
	C180.46,46.85,180.27,47.04,180.09,47.27z M181.92,42.69c0.19-0.22,0.39-0.41,0.62-0.57c0.23-0.16,0.47-0.29,0.72-0.39
	c0.26-0.1,0.51-0.18,0.76-0.24c0.25-0.06,0.49-0.1,0.72-0.11h0.05h0.04h0.04h0.04h0.04l0.05-0.01h0.04h0.05l0.51-0.01
	c0.19,0.01,0.35,0.01,0.49,0.02c0.13,0,0.23,0.01,0.29,0.02l0.2,0.02l0.13,0.01h0.04l0.1,0.02l0.11,0.02
	c0.05,0.01,0.11,0.01,0.2,0.01c0.08,0,0.18,0,0.29,0c0.09,0,0.2,0,0.31-0.01c0.12,0,0.24-0.01,0.38-0.02l0.51-0.01l-0.24,0.38h-0.51
	l-0.92-0.05c0.07,0.07,0.13,0.15,0.17,0.24c0.04,0.09,0.06,0.19,0.06,0.31c0.02,0.13,0,0.26-0.04,0.39c-0.04,0.13-0.1,0.26-0.2,0.4
	c-0.21,0.27-0.42,0.49-0.65,0.68c-0.23,0.19-0.46,0.32-0.7,0.42c-0.24,0.1-0.48,0.18-0.7,0.24c-0.23,0.06-0.45,0.1-0.67,0.12
	c-0.09,0.01-0.17,0.01-0.25,0.02l-0.23,0.01h-0.11h-0.12l-0.11,0.01h-0.1c-0.11,0-0.22,0-0.33,0c-0.1,0-0.21,0.01-0.29,0.02
	c-0.09,0.01-0.18,0.02-0.24,0.05l-0.16,0.09l-0.08,0.07l-0.07,0.06l-0.06,0.07l-0.04,0.05c-0.06,0.1-0.08,0.19-0.05,0.25
	c0.03,0.06,0.12,0.12,0.25,0.15c0.13,0.03,0.28,0.06,0.43,0.08c0.15,0.02,0.31,0.03,0.48,0.04h0.08h0.1h0.1l0.11-0.01h0.1h0.09
	l0.52-0.01l0.15,0.02l0.11,0.02c0.22,0.04,0.41,0.09,0.56,0.16c0.15,0.07,0.25,0.15,0.31,0.24c0.07,0.09,0.09,0.22,0.08,0.37
	c-0.01,0.15-0.08,0.34-0.2,0.56l-0.01,0.02l-0.02,0.03l-0.01,0.02l-0.02,0.03l-0.07,0.1l-0.08,0.09l-0.04,0.04l-0.04,0.06
	l-0.04,0.05l-0.04,0.04c-0.19,0.19-0.43,0.37-0.72,0.54c-0.28,0.17-0.61,0.34-0.98,0.5c-0.36,0.15-0.75,0.27-1.15,0.35
	c-0.41,0.08-0.83,0.12-1.26,0.12h-0.51c-0.37,0-0.69-0.04-0.95-0.11c-0.27-0.07-0.46-0.18-0.6-0.32c-0.14-0.14-0.2-0.29-0.2-0.46
	c0-0.17,0.06-0.35,0.19-0.54c0.11-0.2,0.24-0.38,0.39-0.53c0.15-0.15,0.31-0.28,0.48-0.39c0.18-0.11,0.37-0.19,0.58-0.26
	c0.21-0.07,0.43-0.12,0.68-0.15c-0.1-0.04-0.18-0.09-0.25-0.14l-0.15-0.17c-0.03-0.06-0.03-0.13-0.01-0.22
	c0.02-0.08,0.07-0.18,0.13-0.27c0.05-0.08,0.1-0.15,0.15-0.22l0.19-0.17l0.22-0.15c0.08-0.05,0.17-0.09,0.26-0.14l0.15-0.06
	l0.15-0.06l0.18-0.07l0.2-0.08c-0.24-0.07-0.42-0.15-0.52-0.24c-0.11-0.1-0.15-0.21-0.13-0.33c0.02-0.13,0.06-0.26,0.11-0.39
	c0.05-0.13,0.12-0.26,0.2-0.4l0.03-0.04l0.02-0.05l0.03-0.04l0.02-0.04l0.05-0.07l0.01-0.01l0.01-0.02l0.01-0.01l0.01-0.02
	L181.92,42.69z M180.34,39.52c0.05-0.09,0.12-0.16,0.2-0.23c0.08-0.07,0.17-0.12,0.27-0.17c0.1-0.05,0.2-0.08,0.28-0.11
	c0.09-0.02,0.17-0.03,0.26-0.03l0.51-0.01c0.09,0.01,0.18,0.02,0.25,0.04l0.18,0.11l0.06,0.18c-0.01,0.07-0.05,0.15-0.11,0.24
	c-0.07,0.1-0.15,0.18-0.23,0.25c-0.09,0.07-0.18,0.13-0.29,0.18l-0.15,0.06l-0.14,0.04l-0.14,0.03l-0.13,0.01l-0.51-0.01
	c-0.09,0.01-0.16,0-0.23-0.02l-0.15-0.11l-0.04-0.19c0.01-0.07,0.05-0.15,0.1-0.24L180.34,39.52z M176.18,46.17l3.14-4.9h0.51
	l0.03,0.03l0.03,0.01l0.05,0.01h0.05l0.02,0.01l0.02,0l0.02,0.01h0.03h0.02h0.02l0.14-0.02l0.14-0.03l0.51-0.01l-3.13,4.9l-0.51,0
	l-0.11,0l-0.11-0.02h-0.01h-0.01h-0.01h-0.01h-0.01H177l-0.16,0.02l-0.15,0H176.18z M165.83,46.17l4.46-6.96l1.12,0l2.49,4.87
	l3.11-4.86l0.51,0l0.05,0.04l0.06,0.02l0.09-0.02l0.08-0.02l0.51-0.01l-4.45,6.96l-1.01,0l-2.51-5.02l-3.2,5.02h-0.51h-0.03h-0.03
	l-0.04,0l-0.02-0.01h-0.04l-0.05,0.01h-0.04h-0.05H165.83z M157.96,42.76c0.17-0.26,0.37-0.48,0.61-0.67
	c0.24-0.19,0.51-0.35,0.8-0.47c0.16-0.06,0.31-0.11,0.46-0.16c0.15-0.05,0.3-0.08,0.44-0.11c0.15-0.03,0.29-0.06,0.43-0.07
	c0.14-0.02,0.28-0.03,0.42-0.03l0.51-0.01c0.08,0.01,0.16,0.01,0.24,0.02c0.08,0.01,0.15,0.01,0.23,0.02l0.11,0.02l0.12,0.02
	c0.11,0.03,0.21,0.06,0.3,0.09c0.09,0.03,0.18,0.07,0.26,0.11l-0.81,0.78h-0.71c0.02-0.09,0.02-0.18,0-0.26l-0.13-0.2l-0.17-0.09
	l-0.19-0.06l-0.08,0.01l-0.08,0.02l-0.17,0.05l-0.17,0.06c-0.15,0.06-0.28,0.12-0.39,0.2c-0.12,0.08-0.22,0.18-0.31,0.28l-0.03,0.03
	l-0.02,0.04l-0.05,0.05l-0.03,0.04c-0.07,0.13-0.11,0.24-0.11,0.33c0,0.09,0.04,0.17,0.13,0.23c0.09,0.06,0.19,0.12,0.3,0.17
	c0.11,0.05,0.23,0.1,0.37,0.14l0.04,0.02l0.03,0l0.04,0.02l0.04,0.02l0.08,0.02l0.09,0.02l0.03,0.02l0.05,0.02l0.05,0.01l0.05,0.01
	c0.19,0.06,0.33,0.14,0.44,0.23c0.11,0.09,0.18,0.19,0.2,0.3c0.04,0.11,0.04,0.22,0.02,0.33c-0.02,0.11-0.07,0.23-0.14,0.34
	l-0.02,0.02l-0.02,0.03c-0.13,0.19-0.32,0.38-0.54,0.55c-0.23,0.18-0.5,0.34-0.82,0.49c-0.32,0.15-0.63,0.27-0.95,0.34
	c-0.31,0.07-0.63,0.11-0.96,0.11l-0.51,0c-0.18,0-0.34-0.01-0.5-0.02c-0.16-0.01-0.31-0.03-0.45-0.06c-0.16-0.01-0.29-0.04-0.38-0.1
	c-0.1-0.05-0.17-0.11-0.21-0.19l0.77-0.74l0.71,0c0,0.1,0.02,0.19,0.04,0.26l0.1,0.19l0.15,0.14l0.19,0.09l0.03,0.02l0.05,0l0,0.01
	h0.02l0.02,0.01l0.02,0.01l0.19-0.04l0.17-0.05l0.18-0.06l0.2-0.08c0.17-0.09,0.32-0.18,0.45-0.27c0.13-0.09,0.24-0.19,0.33-0.29
	l0.03-0.05l0.02-0.04c0.08-0.15,0.11-0.27,0.1-0.38c-0.01-0.1-0.07-0.18-0.17-0.23c-0.09-0.05-0.2-0.1-0.32-0.15
	c-0.12-0.04-0.24-0.09-0.38-0.13l-0.04-0.02l-0.06-0.01l-0.05,0l-0.05-0.02l-0.05-0.01l-0.04-0.02l-0.05-0.02l-0.05-0.01l-0.05-0.02
	l-0.04-0.02c-0.12-0.04-0.23-0.1-0.31-0.16c-0.09-0.07-0.15-0.14-0.21-0.23c-0.06-0.1-0.07-0.21-0.04-0.34
	c0.03-0.13,0.1-0.29,0.22-0.47L157.96,42.76z"/>
<path class="st0" d="M248.76,43.89c-0.17,0.27-0.29,0.5-0.38,0.7c-0.08,0.19-0.12,0.36-0.11,0.49c0.01,0.14,0.04,0.25,0.09,0.35
	c0.05,0.1,0.11,0.17,0.19,0.23l0.13,0.07l0.15,0.06l0.11,0.02l0.08,0.01c0.1-0.01,0.2-0.03,0.3-0.06c0.11-0.02,0.22-0.06,0.33-0.1
	c0.11-0.04,0.22-0.09,0.33-0.15c0.11-0.06,0.23-0.12,0.34-0.19c0.29-0.17,0.56-0.38,0.8-0.63c0.24-0.24,0.47-0.53,0.68-0.85
	l0.11-0.18l0.12-0.2l0.11-0.22c0.03-0.07,0.07-0.15,0.1-0.23c0.06-0.15,0.08-0.3,0.09-0.44c0-0.14-0.01-0.28-0.04-0.4
	c-0.02-0.11-0.09-0.19-0.2-0.25c-0.1-0.06-0.24-0.1-0.41-0.12c-0.25,0.03-0.48,0.07-0.69,0.14c-0.22,0.07-0.41,0.16-0.59,0.28
	c-0.2,0.13-0.38,0.27-0.55,0.41c-0.17,0.15-0.32,0.29-0.46,0.45c-0.07,0.08-0.14,0.16-0.2,0.23l-0.16,0.22l-0.14,0.2L248.76,43.89
	L248.76,43.89z M246.94,44.04c0.28-0.43,0.58-0.81,0.92-1.15c0.34-0.34,0.7-0.62,1.09-0.86c0.4-0.24,0.81-0.42,1.24-0.55
	c0.43-0.13,0.87-0.19,1.32-0.19l0.51-0.01l0.03,0.01h0.04l0.03,0.01h0.03h0.06h0.07c0.16,0.02,0.31,0.05,0.45,0.09
	c0.14,0.04,0.26,0.09,0.37,0.16l0.03,0.02l0.03,0.02l0.03,0.02l0.03,0.02l1.95-3.06h0.51l0.05,0.03l0.06,0.02l0.05,0.01l0.06,0.01
	h0.01h0.01l0.16-0.02l0.17-0.02l0.51-0.01l-4.86,7.59h-0.51l-0.11,0l-0.12-0.02h-0.01h-0.01h-0.01h-0.01h-0.01h-0.02l-0.16,0.02
	l-0.15,0h-0.51l0.27-0.42c-0.07,0.05-0.15,0.09-0.23,0.12c-0.08,0.03-0.16,0.06-0.24,0.09c-0.2,0.07-0.39,0.13-0.56,0.18
	c-0.17,0.04-0.34,0.07-0.5,0.1h-0.05l-0.05,0.01h-0.04h-0.04h-0.03h-0.03h-0.02l-0.02,0.01h-0.04h-0.04h-0.51
	c-0.34,0-0.63-0.05-0.87-0.14c-0.24-0.1-0.43-0.25-0.56-0.46c-0.13-0.21-0.18-0.45-0.15-0.7c0.03-0.25,0.14-0.52,0.33-0.81
	l0.03-0.05l0.03-0.05L246.94,44.04z M244.93,43.41l0.03-0.03l0.04-0.06l0.02-0.03l0.02-0.03l0.01-0.03l0.01-0.02
	c0.11-0.18,0.18-0.35,0.22-0.52c0.04-0.16,0.05-0.32,0.03-0.47c-0.01-0.13-0.07-0.23-0.18-0.3c-0.11-0.07-0.26-0.12-0.48-0.14
	c-0.18,0.02-0.35,0.06-0.53,0.12c-0.18,0.06-0.36,0.14-0.53,0.24c-0.22,0.13-0.41,0.26-0.59,0.39c-0.17,0.13-0.34,0.28-0.49,0.43
	l-0.12,0.12l-0.1,0.12l-0.08,0.11l-0.08,0.1L244.93,43.41z M240.05,43.97c0.27-0.43,0.59-0.81,0.94-1.13
	c0.35-0.32,0.74-0.6,1.16-0.81c0.43-0.21,0.85-0.38,1.27-0.49c0.41-0.11,0.82-0.17,1.22-0.17l0.51-0.01
	c0.36,0.01,0.65,0.05,0.88,0.12c0.23,0.07,0.4,0.17,0.51,0.31c0.1,0.14,0.17,0.29,0.21,0.44c0.04,0.15,0.04,0.31,0.01,0.48
	l-0.05,0.21l-0.09,0.22l-0.03,0.07l-0.04,0.06l-0.06,0.13l-0.07,0.11l-0.06,0.1l-0.07,0.09l-0.06,0.08l-0.07,0.07l-0.51-0.01
	l-3.79-0.01c-0.19,0.31-0.33,0.58-0.4,0.82c-0.08,0.24-0.1,0.45-0.07,0.63c0.04,0.16,0.15,0.29,0.33,0.38
	c0.18,0.09,0.45,0.14,0.78,0.16c0.1-0.01,0.19-0.02,0.29-0.03c0.1-0.01,0.2-0.03,0.29-0.05l0.15-0.04l0.15-0.04
	c0.21-0.05,0.4-0.12,0.58-0.2c0.18-0.08,0.36-0.17,0.52-0.27l0.51-0.01l-0.25,0.54l-0.05,0.03l-0.03,0.01l-0.1,0.04l-0.1,0.04
	c-0.18,0.07-0.36,0.14-0.54,0.2c-0.17,0.06-0.35,0.11-0.53,0.15c-0.19,0.06-0.39,0.1-0.62,0.12c-0.23,0.03-0.48,0.04-0.74,0.04
	l-0.51,0c-0.51-0.02-0.92-0.09-1.21-0.22c-0.3-0.12-0.48-0.3-0.56-0.54c-0.08-0.23-0.1-0.49-0.05-0.75
	c0.05-0.27,0.15-0.55,0.32-0.84L240.05,43.97z M235.78,44.99l2.09-3.25l-0.8,0h0.02l0.02-0.01l0.01-0.02l0.03-0.02l0.05-0.05
	l0.04-0.05l0.01-0.03l0.02-0.02l0.01-0.03l0.01-0.03l0.02-0.06l0.01-0.06l0.81-0.02l0.62-0.95l1.2-0.31l0.51,0l-0.81,1.27l1.4,0
	l-0.07,0.07l-0.06,0.05l-0.03,0.02l-0.02,0.04l-0.01,0.01l-0.01,0.02l-0.03,0.05l-0.02,0.05l-0.01,0.02l0.01,0.03l0,0.03l0,0.03
	l-0.51-0.01l-0.88-0.01l-1.68,2.61l-0.09,0.15l-0.1,0.15l-0.02,0.04l-0.03,0.03l-0.06,0.11l-0.04,0.1
	c-0.07,0.13-0.13,0.25-0.17,0.37c-0.04,0.12-0.06,0.23-0.05,0.32l0.05,0.19l0.18,0.11l0.03-0.01h0.02l0.21-0.05
	c0.07-0.02,0.16-0.04,0.25-0.06l0.51-0.01l-0.19,0.3c-0.14,0.05-0.28,0.08-0.4,0.1c-0.13,0.02-0.24,0.04-0.36,0.06
	c-0.12,0.02-0.22,0.04-0.31,0.05c-0.09,0.01-0.18,0.02-0.27,0.02h-0.51c-0.24,0-0.43-0.03-0.57-0.09c-0.14-0.06-0.23-0.14-0.27-0.26
	c-0.05-0.11-0.05-0.25,0-0.41s0.14-0.35,0.27-0.55L235.78,44.99z M235.47,39.54c0.05-0.09,0.12-0.16,0.19-0.23
	c0.08-0.07,0.17-0.12,0.27-0.17c0.1-0.05,0.19-0.08,0.28-0.11c0.09-0.02,0.17-0.03,0.26-0.03l0.51-0.01
	c0.09,0.01,0.18,0.02,0.25,0.04l0.18,0.11l0.06,0.18c-0.01,0.07-0.05,0.15-0.11,0.24c-0.07,0.1-0.15,0.18-0.23,0.25
	c-0.09,0.07-0.18,0.13-0.29,0.18l-0.15,0.06l-0.14,0.04l-0.14,0.03l-0.13,0.01l-0.51-0.01c-0.09,0.01-0.16,0-0.23-0.02l-0.15-0.11
	l-0.04-0.19c0.01-0.07,0.05-0.15,0.1-0.24L235.47,39.54z M231.31,46.18l3.14-4.9h0.51l0.03,0.03l0.03,0.01l0.05,0.01h0.05l0.02,0.01
	l0.02,0l0.02,0.01h0.03h0.02h0.02l0.14-0.02l0.14-0.03l0.51-0.01l-3.13,4.9l-0.51,0l-0.11,0l-0.12-0.02h-0.01h-0.01h-0.01h-0.01
	h-0.01l-0.02,0l-0.16,0.02l-0.15,0H231.31z M219.86,46.18l3.14-4.9h0.51l0.05,0.03l0.07,0.01l0.01,0.02l0.02,0l0,0.01l0.02,0.01
	l0.14-0.02l0.17-0.03l0.51-0.01l-0.22,0.33l0.07-0.03l0.07-0.02l0.14-0.06l0.15-0.06c0.19-0.07,0.38-0.13,0.57-0.17
	c0.19-0.04,0.37-0.06,0.55-0.06l0.51-0.01c0.22,0.01,0.4,0.02,0.57,0.04c0.16,0.02,0.29,0.05,0.39,0.08
	c0.11,0.03,0.2,0.09,0.26,0.17c0.06,0.08,0.12,0.17,0.16,0.29l0.01,0.06l0.01,0.06c0.15-0.1,0.29-0.18,0.44-0.25
	c0.14-0.07,0.28-0.13,0.43-0.18c0.24-0.08,0.48-0.14,0.69-0.19c0.22-0.05,0.43-0.07,0.63-0.07l0.51-0.01
	c0.32,0.01,0.58,0.05,0.78,0.12c0.2,0.07,0.35,0.19,0.44,0.34c0.09,0.15,0.14,0.3,0.14,0.47c-0.01,0.16-0.05,0.34-0.15,0.52
	l-0.02,0.03l-0.05,0.08l-0.02,0.03l-0.04,0.04l-0.02,0.03l-2.12,3.32h-0.51h-0.06l-0.06-0.01l-0.07,0l-0.05-0.01h-0.01h-0.01h-0.01
	h-0.01h-0.01h-0.02l-0.16,0.02l-0.15,0h-0.51l2.08-3.25c0.11-0.17,0.17-0.32,0.19-0.46c0.02-0.14-0.02-0.26-0.09-0.37
	c-0.06-0.07-0.14-0.14-0.23-0.19c-0.09-0.05-0.2-0.09-0.32-0.11c-0.15,0.02-0.29,0.06-0.44,0.11c-0.15,0.05-0.31,0.12-0.48,0.2
	c-0.22,0.11-0.42,0.24-0.61,0.41c-0.18,0.16-0.36,0.36-0.53,0.59l-1.96,3.06h-0.51h-0.06l-0.06-0.01l-0.07,0l-0.05-0.01h-0.01h0.01
	h-0.01l-0.13,0.02l-0.12,0h-0.51l2.07-3.25c0.11-0.16,0.17-0.31,0.17-0.44c0.01-0.14-0.03-0.25-0.12-0.35
	c-0.06-0.08-0.14-0.14-0.24-0.2c-0.1-0.05-0.21-0.08-0.33-0.1c-0.14,0.02-0.29,0.06-0.43,0.1c-0.14,0.05-0.3,0.11-0.45,0.18
	c-0.21,0.1-0.4,0.23-0.59,0.4c-0.18,0.16-0.35,0.36-0.52,0.6l-1.96,3.06h-0.51h-0.06l-0.05-0.01l-0.07,0l-0.06-0.01h-0.01h-0.01
	h-0.01h-0.01h-0.01h-0.02l-0.16,0.02l-0.16,0H219.86z M220.3,39.53c0.05-0.09,0.12-0.16,0.19-0.23c0.08-0.07,0.17-0.12,0.27-0.17
	c0.1-0.05,0.19-0.08,0.28-0.11c0.09-0.02,0.17-0.03,0.26-0.03l0.51-0.01c0.09,0.01,0.18,0.02,0.25,0.04l0.18,0.11l0.06,0.18
	c-0.01,0.07-0.05,0.15-0.11,0.24c-0.07,0.1-0.15,0.18-0.23,0.25c-0.08,0.07-0.18,0.13-0.29,0.18l-0.15,0.06l-0.14,0.04l-0.14,0.03
	l-0.13,0.01l-0.51-0.01c-0.09,0.01-0.16,0-0.23-0.02l-0.15-0.11l-0.04-0.19c0.01-0.07,0.05-0.15,0.1-0.24L220.3,39.53z
	 M216.14,46.18l3.14-4.9l0.51,0l0.03,0.03l0.03,0.01l0.05,0.01h0.05l0.02,0.01l0.02,0l0.02,0.01h0.03h0.02h0.02l0.14-0.02l0.14-0.03
	l0.51-0.01l-3.13,4.9h-0.51l-0.11,0l-0.12-0.02h-0.01h-0.01H217h-0.01h-0.01h-0.02l-0.16,0.02l-0.16,0L216.14,46.18z"/>
<polygon class="st1" points="98.18,51.39 253.7,51.39 271.51,26.72 274.5,26.72 246.81,64.98 88.26,64.98 "/>
<polygon class="st2" points="235.46,55.93 233.78,60.96 232.54,60.96 234.22,55.93 232.93,55.93 233.07,55.5 236.88,55.5 
	236.74,55.93 "/>
<path class="st2" d="M232.08,55.93l-1.68,5.03h-1.23l1.16-3.51h-1.94c-0.15,0-0.28,0.02-0.41,0.05c-0.12,0.03-0.23,0.08-0.33,0.14
	c-0.1,0.06-0.18,0.14-0.25,0.23l-0.15,0.26c-0.08,0.26-0.12,0.5-0.12,0.74c0,0.17,0.07,0.4,0.2,0.7c0.3,0.67,0.6,1,0.91,1
	l-0.58,0.38h-0.53l-0.15-0.08l-0.28-0.29l-0.38-0.49c-0.11-0.17-0.18-0.33-0.22-0.48L226,59.32c-0.04-0.15-0.07-0.31-0.07-0.47
	c0-0.31,0.04-0.58,0.13-0.81c0.05-0.12,0.11-0.23,0.18-0.33c0.06-0.1,0.19-0.22,0.38-0.38c0.26-0.23,0.58-0.34,0.98-0.34h2.9
	l0.35-1.06h-4.96l0.14-0.44h7.4l-0.15,0.44H232.08z"/>
<path class="st2" d="M226.74,53.43l-0.08-0.03l-0.07-0.01l-0.07-0.02l-0.07-0.01c-0.09,0.02-0.17,0.04-0.24,0.08l-0.21,0.1
	c-0.18,0.09-0.32,0.27-0.44,0.55c-0.03,0.08-0.05,0.24-0.05,0.46c0,0.15,0.05,0.33,0.15,0.51l0.11,0.2l0.18,0.24l-0.53-0.01h-0.49
	l-0.04-0.03c-0.08-0.06-0.17-0.23-0.26-0.5c-0.03-0.11-0.08-0.31-0.15-0.58c0-0.22,0.02-0.41,0.07-0.57
	c0.13-0.41,0.53-0.7,1.18-0.85c0.16-0.04,0.34-0.05,0.56-0.06l0.53-0.01c0.14,0,0.27,0.01,0.37,0.03c0.11,0.02,0.21,0.06,0.32,0.1
	l-0.15,0.43h-0.53L226.74,53.43z"/>
<polygon class="st2" points="225.34,55.93 223.66,60.96 222.43,60.96 224.11,55.93 222.81,55.93 222.96,55.5 226.77,55.5 
	226.62,55.93 "/>
<path class="st2" d="M221.97,55.94l0.2,0.28c0.05,0.06,0.08,0.16,0.11,0.31v0.33c0,0.09-0.02,0.2-0.07,0.34
	c-0.17,0.5-0.55,0.95-1.14,1.35c-0.59,0.4-1.24,0.6-1.93,0.6l1.69,1.46l-0.58,0.37h-0.53l-2.46-2.15l0.59-0.37h0.53l0.33,0.28
	l0.08,0.01l0.08-0.02h0.07l0.08-0.02c0.09-0.01,0.17-0.03,0.24-0.05l0.25-0.08l0.24-0.11l0.24-0.11l0.39-0.27l0.32-0.28l0.05-0.09
	l0.08-0.12l-0.38,0.12l-0.33,0.03h-0.53c-0.44-0.01-0.76-0.11-0.95-0.32c-0.1-0.1-0.19-0.22-0.24-0.37l-0.01-0.15
	c0-0.21,0.08-0.42,0.25-0.62c0.09-0.1,0.22-0.22,0.4-0.34l-1.52-0.01l0.14-0.44h5.43l-0.15,0.45H221.97z"/>
<path class="st2" d="M221.35,55.5l-0.26-0.23l-0.24-0.25c-0.27-0.28-0.68-0.59-1.25-0.93c-0.45-0.26-0.92-0.43-1.42-0.5
	c-0.08,0.01-0.23,0.05-0.46,0.13c-0.32,0.1-0.58,0.29-0.8,0.56c-0.05,0.07-0.11,0.16-0.17,0.29c-0.02,0.03-0.05,0.11-0.09,0.21
	l-0.07,0.21v0.45l0.03,0.08h1.16l-0.14,0.43h-1.12l-1.73,5.03h-1.19l1.68-5.03h-1.16l0.15-0.43h1.18v-0.36
	c0-0.08,0.01-0.17,0.03-0.29l0.04-0.17c0.04-0.2,0.15-0.4,0.33-0.61c0.53-0.62,1.28-0.94,2.26-0.97l0.53-0.01
	c0.29-0.01,0.63,0.05,1.01,0.16c0.38,0.12,0.73,0.27,1.06,0.46c0.07,0.04,0.19,0.12,0.37,0.24l0.39,0.26l0.37,0.31l0.37,0.34
	l0.27,0.32l0.29,0.31l-0.53-0.01H221.35z"/>
<path class="st2" d="M212.82,55.93l-0.48,1.43h-2.43c-0.12,0-0.26,0.03-0.4,0.08c-0.14,0.05-0.26,0.11-0.36,0.17l-0.29,0.27
	c-0.16,0.22-0.24,0.46-0.24,0.73c0,0.45,0.26,0.74,0.78,0.87l0.25,0.06l0.34,0.04v-0.05l0.01-0.04l0.03-0.16
	c0-0.09,0.04-0.21,0.13-0.35l0.19-0.21c0.14-0.13,0.35-0.2,0.62-0.21h0.53l0.22,0.07c0.15,0.05,0.23,0.16,0.25,0.32l-0.01,0.21
	c-0.03,0.11-0.08,0.21-0.16,0.3c-0.09,0.1-0.17,0.17-0.27,0.23l-0.14,0.07l-0.18,0.09l0.13,0.58l0.07,0.17l0.07,0.14l0.05,0.14
	l0.08,0.1l0.05,0.09l0.08,0.12h-1.4l-0.17-0.56l-0.16-0.62h0.53h-0.73c-0.2,0-0.51-0.02-0.93-0.05c-0.98-0.15-1.48-0.57-1.48-1.25
	c0-0.15,0.03-0.33,0.09-0.52c0.08-0.24,0.23-0.47,0.44-0.68c0.22-0.21,0.48-0.37,0.78-0.49c0.18-0.06,0.36-0.09,0.53-0.09h1.96
	l0.32-0.97h-4.44l0.14-0.44h7.17l-0.15,0.44H212.82z"/>
<path class="st2" d="M206.26,55.93l-0.46,1.38c-0.08,0.23-0.22,0.43-0.42,0.59c-0.16,0.13-0.43,0.26-0.81,0.38
	c-0.23,0.05-0.41,0.07-0.56,0.07h-0.78l-0.21-0.06l0.53-0.01l0.58,1.1l0.25,0.37c0.08,0.09,0.2,0.23,0.34,0.41l0.15,0.19l0.21,0.23
	l-0.61,0.36h-0.53c-0.14-0.06-0.33-0.25-0.55-0.57c-0.06-0.09-0.2-0.3-0.4-0.63l-0.07-0.12c-0.08-0.13-0.2-0.34-0.36-0.61
	l-0.25-0.49l-0.37-0.89l-0.13-0.38l0.64-0.32l0.53,0l0.29,0.74c0.02,0.13,0.15,0.21,0.41,0.25l0.27-0.06l0.21-0.1
	c0.2-0.1,0.33-0.27,0.41-0.51l0.45-1.33h-3.65l0.15-0.44h5.93l-0.15,0.44H206.26z"/>
<polygon class="st2" points="200.68,55.93 198.99,60.96 197.76,60.96 199.44,55.93 198.14,55.93 198.29,55.5 202.1,55.5 
	201.95,55.93 "/>
<path class="st2" d="M197.38,55.93l-1.68,5.03h-1.22l0.59-1.81c-0.15,0.07-0.32,0.13-0.5,0.17l-0.45,0.04l-0.53-0.01
	c-0.56-0.02-0.94-0.15-1.15-0.4c-0.12-0.13-0.21-0.29-0.25-0.49c-0.01-0.03-0.01-0.09-0.01-0.18c0-0.13,0.02-0.26,0.07-0.39
	l0.66-1.96h-1.03l0.14-0.44h6.6l-0.15,0.44H197.38z"/>
<polygon class="st2" points="185.06,54.31 185.28,53.62 186.72,53.62 186.5,54.31 "/>
<path class="st2" d="M184.85,55.93l-1.68,5.03h-1.24l0.46-1.37l-0.04,0.03l-0.04,0.02l-0.45,0.11l-0.42,0.03l-0.53-0.01
	c-0.56-0.01-0.98-0.15-1.24-0.4c-0.15-0.15-0.25-0.31-0.3-0.49c-0.01-0.04-0.02-0.1-0.02-0.2c0-0.08,0.02-0.2,0.05-0.37
	c0.12-0.37,0.42-0.72,0.88-1.07c0.41-0.3,0.88-0.45,1.42-0.47h0.53h0.12h0.13l0.12,0.02l0.12,0.01l0.21,0.04l0.19,0.02l-0.05,0.57
	h-0.53l-0.12-0.06l-0.1-0.04l-0.2-0.05l-0.2-0.04c-0.23,0.01-0.46,0.11-0.7,0.29c-0.38,0.28-0.56,0.66-0.56,1.13
	c0,0.25,0.1,0.43,0.31,0.54c0.08,0.04,0.19,0.08,0.33,0.12h0.06l0.08-0.02l0.21-0.06l0.25-0.08c0.33-0.11,0.59-0.27,0.79-0.46
	l0.94-2.76h-4.39l0.15-0.44h6.83l-0.14,0.44H184.85z"/>
<path class="st2" d="M178.49,55.93l-0.67,1.99c-0.08,0.24-0.23,0.42-0.45,0.54l-0.25,0.14l-0.25,0.1l-0.13,0.04l-0.12,0.03h-0.53
	l-0.4-0.31c0.2,0,0.38-0.07,0.57-0.21l0.24-0.22c0.06-0.06,0.11-0.14,0.14-0.23l0.62-1.87h-1.97l-0.87,2.61l2.37,2.42l0.05,0.19
	l-0.04,0.22c-0.08,0.25-0.31,0.44-0.7,0.59l-0.22,0.04l-0.32,0.06h-0.53l-0.44-0.47h0.57l0.04-0.01l0.15-0.04l0.13-0.08l0.1-0.1
	l0.01-0.04v-0.15l-0.1-0.14l-0.08-0.06l-2.29-2.32l0.91-2.73h-1.08l0.15-0.44h6.44l-0.15,0.44H178.49z"/>
<path class="st2" d="M166.43,55.93l-1.68,5.03h-1.23l1.16-3.51h-1.94c-0.15,0-0.28,0.02-0.41,0.05c-0.12,0.03-0.23,0.08-0.33,0.14
	c-0.1,0.06-0.18,0.14-0.25,0.23l-0.14,0.26c-0.08,0.26-0.12,0.5-0.12,0.74c0,0.17,0.07,0.4,0.2,0.7c0.3,0.67,0.6,1,0.91,1
	l-0.58,0.38h-0.53l-0.15-0.08l-0.27-0.29l-0.39-0.49c-0.1-0.17-0.18-0.33-0.22-0.48l-0.1-0.31c-0.04-0.15-0.07-0.31-0.07-0.47
	c0-0.31,0.04-0.58,0.13-0.81c0.05-0.12,0.11-0.23,0.18-0.33c0.07-0.1,0.19-0.22,0.38-0.38c0.26-0.23,0.58-0.34,0.98-0.34h2.9
	l0.35-1.06h-4.96l0.15-0.44h7.4l-0.15,0.44H166.43z"/>
<path class="st2" d="M164.22,55.5l-0.26-0.23l-0.24-0.25c-0.27-0.28-0.68-0.59-1.24-0.93c-0.45-0.26-0.92-0.43-1.42-0.5
	c-0.08,0.01-0.23,0.05-0.46,0.13c-0.32,0.1-0.58,0.29-0.8,0.56c-0.05,0.07-0.11,0.16-0.17,0.29c-0.02,0.03-0.05,0.11-0.09,0.21
	l-0.07,0.21v0.45l0.03,0.08h1.16l-0.14,0.43h-1.12l-1.73,5.03h-1.19l1.68-5.03h-1.16l0.15-0.43h1.18v-0.36
	c0-0.08,0.01-0.17,0.03-0.29l0.04-0.17c0.04-0.2,0.16-0.4,0.33-0.61c0.53-0.62,1.28-0.94,2.25-0.97l0.53-0.01
	c0.29-0.01,0.63,0.05,1,0.16c0.38,0.12,0.73,0.27,1.06,0.46c0.07,0.04,0.19,0.12,0.37,0.24l0.38,0.26l0.37,0.31l0.37,0.34l0.28,0.32
	l0.29,0.31l-0.53-0.01H164.22z"/>
<path class="st2" d="M155.68,55.93L154,60.96h-1.23l1.68-5.03h-1.56l-0.93,2.77l-0.03,0.1l-0.03,0.07l-0.01,0.04l-0.01,0.03
	l-0.16,0.16l-0.2,0.04H151c-0.11,0-0.23-0.04-0.35-0.12c-0.12-0.08-0.26-0.21-0.43-0.39c-0.21-0.28-0.32-0.47-0.32-0.59v-0.08
	c0-0.13,0.03-0.22,0.08-0.26l0.09-0.05l0.12-0.01l0.16-0.01h0.77l0.57-1.7h-2.14l0.15-0.44h7.61l-0.15,0.44H155.68z"/>
<polygon class="st2" points="140.71,61.85 139.61,61.85 140.66,60.36 141.99,60.36 "/>
<polygon class="st2" points="140.13,55.93 138.44,60.96 137.21,60.96 138.89,55.93 137.6,55.93 137.74,55.5 141.55,55.5 
	141.41,55.93 "/>
<polygon class="st2" points="136.76,55.93 135.07,60.96 133.84,60.96 135.52,55.93 134.23,55.93 134.37,55.5 138.18,55.5 
	138.03,55.93 "/>
<polygon class="st2" points="129.23,55.93 129.38,55.5 135.1,55.5 134.95,55.93 "/>
<path class="st2" d="M132.64,57.5c-0.18,0-0.35,0.03-0.49,0.08c-0.57,0.18-0.92,0.45-1.03,0.81c-0.04,0.13-0.07,0.24-0.07,0.35
	c0,0.34,0.14,0.7,0.41,1.06l0.24,0.32l0.37,0.39l-0.54,0.4H131l-0.41-0.47l-0.27-0.38c-0.31-0.45-0.46-0.88-0.46-1.29
	c0-0.09,0.01-0.17,0.03-0.22l0.03-0.13c0.09-0.24,0.26-0.46,0.51-0.67l0.41-0.27h-1.86l0.15-0.42h6.06l-0.15,0.42H132.64z"/>
<path class="st2" d="M128.31,55.93l-1.68,5.03h-1.24l0.46-1.37l-0.04,0.03l-0.04,0.02l-0.45,0.11l-0.42,0.03l-0.53-0.01
	c-0.57-0.01-0.98-0.15-1.24-0.4c-0.15-0.15-0.25-0.31-0.31-0.49c-0.01-0.04-0.01-0.1-0.01-0.2c0-0.08,0.02-0.2,0.05-0.37
	c0.12-0.37,0.42-0.72,0.88-1.07c0.41-0.3,0.88-0.45,1.42-0.47h0.53h0.12h0.13l0.12,0.02l0.12,0.01l0.21,0.04l0.19,0.02l-0.05,0.57
	h-0.53l-0.12-0.06l-0.11-0.04l-0.2-0.05l-0.2-0.04c-0.23,0.01-0.46,0.11-0.7,0.29c-0.38,0.28-0.57,0.66-0.57,1.13
	c0,0.25,0.11,0.43,0.32,0.54c0.08,0.04,0.19,0.08,0.33,0.12h0.06l0.08-0.02l0.21-0.06l0.25-0.08c0.33-0.11,0.59-0.27,0.79-0.46
	l0.94-2.76h-4.39l0.15-0.44h6.83l-0.14,0.44H128.31z"/>
<polygon class="st2" points="121.84,55.93 120.16,60.96 118.93,60.96 120.61,55.93 119.32,55.93 119.46,55.5 123.27,55.5 
	123.12,55.93 "/>
<path class="st2" d="M119.04,55.93l-0.62,1.84c-0.13,0.38-0.38,0.7-0.74,0.95c-0.26,0.19-0.57,0.31-0.91,0.36
	c-0.11,0.01-0.23,0.02-0.36,0.02l-0.53-0.01c-0.26-0.01-0.46-0.03-0.62-0.09c-0.16-0.05-0.3-0.14-0.42-0.27
	c-0.12-0.13-0.2-0.25-0.23-0.38l-0.03-0.18c0-0.1,0.02-0.22,0.06-0.35l0.63-1.89h-1.13l0.15-0.44h5.41l-0.15,0.44H119.04z"/>
<path class="st2" d="M111.99,63.11c-0.35,0.15-0.73,0.24-1.13,0.29c-0.12,0.01-0.26,0.02-0.42,0.02h-0.54c-0.2,0-0.44-0.02-0.7-0.07
	c-0.18-0.03-0.4-0.11-0.68-0.22c-0.32-0.13-0.55-0.23-0.69-0.3c-0.27-0.13-0.46-0.26-0.59-0.39l0.61-0.46h0.53l0.39,0.28
	c0.49,0.37,1.03,0.59,1.6,0.68c0.15-0.02,0.29-0.04,0.42-0.08c0.41-0.13,0.7-0.27,0.86-0.42c0.11-0.11,0.19-0.23,0.21-0.36v-0.27
	c0-0.06-0.04-0.13-0.12-0.21l-0.09-0.1l-0.15-0.06l-0.21,0.06l-0.25,0.1l-0.25,0.17l-0.11,0.06h-0.55l-0.4-0.37l0.21-0.12l0.38-0.16
	c0.35-0.15,0.74-0.22,1.16-0.23l0.52-0.01c0.22-0.01,0.4,0.02,0.55,0.07s0.26,0.14,0.35,0.25c0.13,0.13,0.2,0.3,0.2,0.51
	c0,0.09-0.03,0.22-0.08,0.39C112.89,62.56,112.55,62.87,111.99,63.11z"/>
<path class="st2" d="M113.13,55.93l-1.68,5.03h-1.23l1.68-5.03h-1.56l-0.93,2.77l-0.03,0.1l-0.03,0.07l-0.01,0.04l-0.01,0.03
	l-0.16,0.16l-0.2,0.04h-0.53c-0.12,0-0.23-0.04-0.35-0.12c-0.12-0.08-0.26-0.21-0.43-0.39c-0.21-0.28-0.32-0.47-0.32-0.59v-0.08
	c0-0.13,0.03-0.22,0.08-0.26l0.1-0.05l0.12-0.01l0.16-0.01h0.76l0.57-1.7h-2.14l0.15-0.44h7.62l-0.15,0.44H113.13z"/>
<path class="st0" d="M239.36,75.49c1.43-1.26,2.36-2.43,2.74-3.88c0.41-1.53-0.02-2.56-0.74-3.84h-0.6
	c0.48,1.29,0.79,2.29,0.44,3.64c-0.52,1.97-1.25,2.76-2.46,4.07H239.36z M235.19,71.31c0.18-0.67,0.99-1.28,1.81-1.28
	c1.09,0,1.27,0.61,1.15,1.28H235.19z M237.82,72.45c-0.11,0.32-0.75,0.84-1.6,0.84c-1.03,0-1.41-0.51-1.18-1.41h3.89
	c0.4-1.52-0.09-2.5-1.63-2.5c-1.76,0-2.83,1.06-3.18,2.39c-0.33,1.24,0.32,2.15,1.82,2.15c0.85,0,1.24-0.17,1.52-0.3
	c0.77-0.36,1.17-0.97,1.25-1.17H237.82z M233.45,70.72c0.06-0.21,0.22-1.35-1.68-1.35c-1.05,0-2.13,0.43-2.38,1.37
	c-0.16,0.59,0.25,0.89,0.96,1.04l0.98,0.21c0.72,0.15,0.99,0.27,0.9,0.62c-0.12,0.47-0.76,0.68-1.4,0.68
	c-1.26,0-1.24-0.54-1.18-0.88h-0.87c-0.11,0.52-0.21,1.5,1.89,1.5c1.2,0,2.25-0.53,2.48-1.42c0.15-0.58-0.15-0.91-1.2-1.13
	l-0.85-0.18c-0.66-0.14-0.91-0.22-0.82-0.58c0.14-0.53,0.94-0.61,1.22-0.61c1.13,0,1.13,0.45,1.07,0.72H233.45z M228.74,68.72
	l0.22-0.82h-0.9l-0.22,0.82H228.74z M228.54,69.5h-0.9l-1.13,4.29h0.89L228.54,69.5z M224.62,71.3c0.17-0.62,0.83-1.15,1.67-1.15
	h0.34l0.2-0.75c-0.07-0.02-0.12-0.03-0.23-0.03c-0.67,0-1.23,0.34-1.72,0.84h-0.02l0.19-0.71h-0.84l-1.13,4.29h0.9L224.62,71.3z
	 M216.77,75.49h0.9l0.56-2.15h0.02c0.15,0.3,0.55,0.58,1.26,0.58c1.81,0,2.7-1.37,2.97-2.4c0.32-1.21-0.24-2.14-1.65-2.14
	c-0.97,0-1.5,0.49-1.78,0.73h-0.02l0.16-0.61h-0.84L216.77,75.49z M218.58,71.85c0.19-0.7,0.62-1.82,1.91-1.82
	c1.39,0,1.18,1.06,1.03,1.61c-0.25,0.94-0.9,1.65-1.87,1.65C219.09,73.29,218.28,72.99,218.58,71.85z M215.27,71.3
	c0.17-0.62,0.83-1.15,1.67-1.15h0.34l0.2-0.75c-0.07-0.02-0.12-0.03-0.23-0.03c-0.67,0-1.23,0.34-1.72,0.84h-0.02l0.19-0.71h-0.84
	l-1.13,4.29h0.9L215.27,71.3z M209.29,71.31c0.18-0.67,0.99-1.28,1.81-1.28c1.09,0,1.27,0.61,1.15,1.28H209.29z M211.91,72.45
	c-0.11,0.32-0.75,0.84-1.6,0.84c-1.03,0-1.41-0.51-1.18-1.41h3.89c0.4-1.52-0.09-2.5-1.63-2.5c-1.76,0-2.83,1.06-3.19,2.39
	c-0.33,1.24,0.32,2.15,1.82,2.15c0.85,0,1.24-0.17,1.52-0.3c0.77-0.36,1.17-0.97,1.26-1.17H211.91z M208.03,70.1l0.16-0.6h-0.86
	l0.32-1.2h-0.9l-0.31,1.2h-0.72l-0.16,0.6h0.72l-0.74,2.83c-0.14,0.52-0.05,0.92,0.83,0.92c0.09,0,0.36-0.03,0.69-0.06l0.15-0.57
	h-0.32c-0.18,0-0.54,0-0.45-0.33l0.74-2.79H208.03z M204.55,70.87c0.32-1.22-0.64-1.49-1.47-1.49c-0.92,0-1.55,0.5-1.8,0.73h-0.02
	l0.16-0.61h-0.85l-1.13,4.29h0.89l0.62-2.34c0.31-1.16,1.27-1.42,1.78-1.42c0.88,0,1.04,0.38,0.84,1.12l-0.7,2.64h0.9L204.55,70.87z
	 M198.45,73.09h-4.41l0.52-1.97h4l0.19-0.71h-4l0.48-1.81h4.34l0.19-0.7h-5.32l-1.56,5.89h5.4L198.45,73.09z M187.81,72.31
	c-0.15,0.57-1.08,1.01-1.91,1.01c-0.67,0-0.89-0.28-0.77-0.75c0.14-0.54,0.87-0.65,1.32-0.7c1.14-0.11,1.38-0.18,1.55-0.27
	L187.81,72.31z M185.75,70.8c0.15-0.33,0.42-0.83,1.44-0.83c0.84,0,1.19,0.25,1.07,0.7c-0.12,0.43-0.39,0.49-0.6,0.51l-1.52,0.14
	c-1.53,0.15-1.88,0.99-1.97,1.35c-0.19,0.74,0.37,1.24,1.34,1.24c1.04,0,1.68-0.4,2.11-0.7c-0.06,0.33-0.02,0.66,0.78,0.66
	c0.2,0,0.35-0.05,0.51-0.08l0.14-0.53c-0.11,0.02-0.22,0.04-0.3,0.04c-0.18,0-0.28-0.08-0.23-0.26l0.65-2.47
	c0.29-1.1-1.23-1.2-1.66-1.2c-1.31,0-2.26,0.4-2.58,1.43H185.75z M184.16,68.72l0.22-0.82h-0.9l-0.22,0.82H184.16z M183.95,69.5
	h-0.9l-1.13,4.29h0.89L183.95,69.5z M177.44,71.64c0.14-0.55,0.5-1.61,1.88-1.61c1.29,0,1.14,1.12,0.95,1.82
	c-0.3,1.14-1.26,1.44-1.84,1.44C177.46,73.29,177.19,72.58,177.44,71.64z M182.22,67.9h-0.9l-0.56,2.15l-0.04,0.06
	c-0.15-0.24-0.43-0.73-1.4-0.73c-1.41,0-2.46,0.94-2.78,2.14c-0.27,1.03-0.1,2.4,1.71,2.4c0.52,0,1.16-0.13,1.71-0.71h0.02
	l-0.16,0.59h0.84L182.22,67.9z M175.7,70.87c0.32-1.22-0.65-1.49-1.47-1.49c-0.92,0-1.55,0.5-1.8,0.73h-0.02l0.16-0.61h-0.84
	l-1.13,4.29h0.9l0.61-2.34c0.31-1.16,1.27-1.42,1.78-1.42c0.88,0,1.04,0.38,0.84,1.12l-0.7,2.64h0.89L175.7,70.87z M170.56,67.9
	h-0.99l-1.55,5.89h0.99L170.56,67.9z M165.08,70.1l0.16-0.6h-0.9l0.14-0.53c0.09-0.34,0.28-0.5,0.66-0.5c0.11,0,0.25,0.01,0.36,0.02
	l0.17-0.65c-0.14-0.01-0.27-0.02-0.4-0.02c-0.88,0-1.46,0.29-1.63,0.94l-0.19,0.74h-0.73l-0.16,0.6h0.73l-0.98,3.69h0.9l0.97-3.69
	H165.08z M157.63,71.64c0.15-0.58,0.7-1.64,1.98-1.64c1.28,0,1.27,1.06,1.11,1.64c-0.15,0.58-0.7,1.64-1.98,1.64
	C157.46,73.28,157.47,72.22,157.63,71.64z M156.7,71.64c-0.29,1.11,0.18,2.27,1.88,2.27c1.7,0,2.78-1.16,3.07-2.27
	c0.29-1.11-0.18-2.27-1.87-2.27C158.07,69.38,156.99,70.54,156.7,71.64z M153.71,70.1l0.16-0.6h-0.86l0.32-1.2h-0.9l-0.31,1.2h-0.72
	l-0.16,0.6h0.72l-0.75,2.83c-0.14,0.52-0.05,0.92,0.83,0.92c0.09,0,0.35-0.03,0.69-0.06l0.15-0.57h-0.32c-0.18,0-0.54,0-0.45-0.33
	l0.74-2.79H153.71z M150.23,70.87c0.32-1.22-0.64-1.49-1.47-1.49c-0.92,0-1.55,0.5-1.8,0.73h-0.02l0.16-0.61h-0.84l-1.13,4.29h0.9
	l0.62-2.34c0.31-1.16,1.27-1.42,1.78-1.42c0.88,0,1.04,0.38,0.84,1.12l-0.7,2.64h0.9L150.23,70.87z M140.82,71.31
	c0.18-0.67,0.99-1.28,1.81-1.28c1.09,0,1.27,0.61,1.15,1.28H140.82z M143.44,72.45c-0.11,0.32-0.75,0.84-1.59,0.84
	c-1.03,0-1.41-0.51-1.18-1.41h3.89c0.4-1.52-0.09-2.5-1.63-2.5c-1.76,0-2.83,1.06-3.18,2.39c-0.33,1.24,0.32,2.15,1.81,2.15
	c0.86,0,1.25-0.17,1.52-0.3c0.77-0.36,1.17-0.97,1.26-1.17H143.44z M130.98,73.79h0.89l0.62-2.34c0.31-1.16,1.27-1.42,1.78-1.42
	c0.66,0,0.72,0.43,0.62,0.79l-0.78,2.97h0.89l0.69-2.62c0.15-0.58,0.8-1.15,1.56-1.15c0.76,0,0.88,0.4,0.72,0.99l-0.73,2.77h0.9
	l0.78-2.97c0.32-1.2-0.7-1.44-1.27-1.44c-0.82,0-1.26,0.3-1.81,0.7c-0.09-0.23-0.27-0.7-1.23-0.7c-0.96,0-1.55,0.5-1.8,0.73h-0.02
	l0.16-0.61h-0.84L130.98,73.79z M130.43,70.87c0.32-1.22-0.64-1.49-1.47-1.49c-0.92,0-1.55,0.5-1.8,0.73h-0.02l0.16-0.61h-0.84
	l-1.13,4.29h0.9l0.62-2.34c0.31-1.16,1.27-1.42,1.78-1.42c0.88,0,1.04,0.38,0.84,1.12l-0.7,2.64h0.89L130.43,70.87z M123.36,71.3
	c0.17-0.62,0.83-1.15,1.67-1.15h0.34l0.2-0.75c-0.07-0.02-0.12-0.03-0.23-0.03c-0.67,0-1.23,0.34-1.72,0.84h-0.02l0.19-0.71h-0.85
	l-1.13,4.29h0.89L123.36,71.3z M117.38,71.31c0.18-0.67,0.99-1.28,1.81-1.28c1.09,0,1.27,0.61,1.15,1.28H117.38z M120,72.45
	c-0.11,0.32-0.75,0.84-1.59,0.84c-1.03,0-1.41-0.51-1.18-1.41h3.89c0.4-1.52-0.09-2.5-1.63-2.5c-1.76,0-2.83,1.06-3.19,2.39
	c-0.33,1.24,0.32,2.15,1.81,2.15c0.86,0,1.25-0.17,1.53-0.3c0.77-0.36,1.17-0.97,1.25-1.17H120z M113.26,73h-0.02l-0.46-3.5h-1.04
	l0.82,4.29h0.95l3.16-4.29h-0.98L113.26,73z M106.86,71.64c0.15-0.58,0.7-1.64,1.98-1.64c1.28,0,1.27,1.06,1.12,1.64
	c-0.15,0.58-0.7,1.64-1.98,1.64C106.7,73.28,106.71,72.22,106.86,71.64z M105.94,71.64c-0.29,1.11,0.18,2.27,1.88,2.27
	c1.7,0,2.78-1.16,3.07-2.27c0.29-1.11-0.18-2.27-1.88-2.27S106.23,70.54,105.94,71.64z M101.71,71.32h2.28
	c-0.17,0.63-0.47,1.16-1.22,1.57c-0.63,0.34-1.23,0.38-1.6,0.38c-1.94,0-2.11-1.23-1.79-2.43c0.41-1.55,1.71-2.39,3.02-2.39
	c0.8,0,1.82,0.21,1.86,1.24h0.96c0.13-1.32-1.22-1.95-2.58-1.95c-2.38,0-3.89,1.62-4.26,3.05c-0.16,0.62-0.4,1.63,0.5,2.49
	c0.3,0.29,0.81,0.66,2.06,0.66c0.99,0,2.01-0.36,2.65-0.92l0.03,0.76h0.64l0.83-3.15h-3.21L101.71,71.32z M90.34,71.37l1.85-2.59
	h0.02l0.39,2.59H90.34z M92.79,72.08l0.27,1.72h1.08l-1.09-5.89h-1.12l-4.3,5.89h1.02l1.22-1.72H92.79z M88.09,67.78
	c-1.43,1.26-2.36,2.43-2.74,3.87c-0.4,1.53,0.02,2.56,0.74,3.84h0.6c-0.48-1.29-0.79-2.29-0.44-3.65c0.52-1.97,1.25-2.76,2.46-4.07
	H88.09z"/>
<path class="st0" d="M119.45,28.07l-1.04,0c-0.03-0.08-0.07-0.16-0.1-0.23l-0.09-0.2c-0.1-0.18-0.2-0.34-0.3-0.49
	c-0.1-0.15-0.2-0.28-0.29-0.41c-0.15-0.2-0.29-0.37-0.43-0.51c-0.13-0.14-0.25-0.26-0.34-0.36l-0.12-0.12l-0.17-0.13l1.34-1.12
	c0.07,0.1,0.12,0.18,0.17,0.25l0.13,0.19c0.08,0.15,0.17,0.31,0.28,0.49c0.11,0.17,0.22,0.38,0.34,0.6c0.1,0.21,0.18,0.42,0.26,0.66
	c0.07,0.23,0.15,0.48,0.21,0.75c0.02,0.09,0.04,0.18,0.07,0.29c0.03,0.1,0.05,0.22,0.07,0.36L119.45,28.07z"/>
<path class="st0" d="M244.71,28.12l-1.44,0c0.14-0.21,0.2-0.44,0.19-0.67c-0.02-0.24-0.1-0.48-0.25-0.75
	c-0.13-0.21-0.33-0.38-0.59-0.48c-0.26-0.11-0.58-0.16-0.96-0.16c-0.25,0-0.49,0.03-0.71,0.08c-0.22,0.06-0.43,0.14-0.62,0.24
	c-0.19,0.1-0.36,0.22-0.51,0.37c-0.15,0.15-0.29,0.32-0.41,0.51c-0.06,0.1-0.12,0.19-0.17,0.27c-0.04,0.08-0.08,0.15-0.1,0.21
	l-0.04,0.18c0,0.06,0,0.13,0,0.21l0.98-0.01l-0.76,1.17l-0.87,0l-3.34,5.24l-1.73,0l3.34-5.24l-1.11,0l0.76-1.17l1.12,0
	c0.02-0.14,0.07-0.29,0.14-0.45c0.08-0.17,0.17-0.34,0.29-0.51c0.23-0.36,0.5-0.68,0.79-0.96c0.29-0.28,0.63-0.51,1.01-0.69
	c0.37-0.2,0.76-0.34,1.18-0.43c0.41-0.09,0.85-0.14,1.3-0.14c0.52,0,0.96,0.07,1.33,0.21c0.36,0.14,0.66,0.34,0.88,0.61
	c0.15,0.19,0.26,0.41,0.32,0.67c0.06,0.26,0.09,0.56,0.08,0.88c-0.02,0.15-0.04,0.29-0.06,0.42c-0.02,0.14-0.04,0.28-0.05,0.41
	L244.71,28.12z"/>
<polygon class="st0" points="236.66,28.12 235.9,29.29 235.04,29.29 231.7,34.53 229.97,34.53 233.31,29.29 225.9,29.28 
	226.65,28.11 "/>
<path class="st0" d="M232.01,31.34l-0.2,0.02l-0.21,0.02l-0.1,0.01l-0.1,0.01c-0.1,0.01-0.21,0.03-0.3,0.05
	c-0.1,0.02-0.19,0.06-0.29,0.09c-0.14,0.06-0.27,0.12-0.4,0.19c-0.13,0.07-0.24,0.14-0.35,0.22c-0.11,0.08-0.19,0.15-0.25,0.2
	l-0.12,0.11l-0.48,0.75l-1.06,0l0.49-0.76c0.09-0.13,0.13-0.25,0.14-0.35c0.01-0.11-0.02-0.21-0.09-0.29
	c-0.07-0.08-0.16-0.14-0.27-0.18c-0.11-0.04-0.24-0.07-0.39-0.07c-0.18,0-0.37,0.03-0.57,0.09c-0.2,0.06-0.41,0.14-0.62,0.25
	c-0.21,0.11-0.4,0.23-0.56,0.38c-0.16,0.14-0.3,0.29-0.41,0.46c-0.13,0.22-0.19,0.4-0.2,0.55c0,0.15,0.06,0.27,0.2,0.36
	c0.08,0.07,0.2,0.12,0.35,0.15c0.15,0.03,0.33,0.04,0.53,0.04h0.13l0.1,0h0.05l0.06-0.01l0.05-0.01l0.05-0.01l-0.6,0.94h-0.04
	l-0.06,0.02h-0.07h-0.07h-0.07l-0.09,0.01h-0.09H226c-0.38,0-0.71-0.03-0.99-0.09c-0.29-0.06-0.51-0.15-0.69-0.28
	c-0.27-0.19-0.4-0.45-0.4-0.76c0-0.31,0.15-0.69,0.42-1.13c0.21-0.31,0.46-0.59,0.75-0.83c0.3-0.24,0.64-0.46,1.02-0.64
	c0.39-0.2,0.77-0.34,1.14-0.43c0.37-0.09,0.74-0.14,1.09-0.14c0.27,0,0.51,0.03,0.71,0.07c0.2,0.05,0.37,0.11,0.51,0.21
	c0.12,0.08,0.2,0.17,0.26,0.29c0.06,0.11,0.09,0.24,0.11,0.37l0.21-0.1l0.17-0.09c0.2-0.09,0.36-0.16,0.5-0.22
	c0.14-0.06,0.26-0.1,0.35-0.13c0.09-0.03,0.19-0.06,0.29-0.08c0.1-0.02,0.21-0.04,0.31-0.05c0.12-0.02,0.22-0.03,0.31-0.04
	c0.09,0,0.18-0.01,0.27-0.01h0.09h0.05h0.04h0.03L232.01,31.34z"/>
<path class="st0" d="M231.46,28.12l-1.44,0c0.14-0.21,0.2-0.44,0.19-0.67c-0.02-0.24-0.1-0.48-0.25-0.75
	c-0.13-0.21-0.33-0.38-0.59-0.48c-0.26-0.11-0.58-0.16-0.96-0.16c-0.25,0-0.48,0.03-0.71,0.08c-0.23,0.06-0.43,0.14-0.62,0.24
	c-0.19,0.1-0.35,0.22-0.51,0.37c-0.15,0.15-0.29,0.32-0.41,0.51c-0.06,0.1-0.12,0.19-0.17,0.27c-0.04,0.08-0.08,0.15-0.1,0.21
	l-0.04,0.18c0,0.07,0,0.13,0,0.21l0.98-0.01l-0.76,1.17l-0.87,0l-3.34,5.24l-1.73,0l3.34-5.24l-1.11,0l0.76-1.17l1.12,0
	c0.02-0.14,0.07-0.29,0.14-0.45c0.08-0.17,0.17-0.34,0.29-0.51c0.23-0.36,0.49-0.68,0.79-0.96c0.29-0.28,0.63-0.51,1.01-0.7
	c0.37-0.2,0.76-0.34,1.18-0.43c0.41-0.09,0.85-0.14,1.3-0.14c0.52,0,0.96,0.07,1.33,0.21c0.37,0.14,0.66,0.34,0.88,0.61
	c0.15,0.19,0.26,0.41,0.32,0.67c0.07,0.26,0.09,0.56,0.08,0.88c-0.02,0.15-0.04,0.29-0.06,0.42c-0.02,0.14-0.04,0.28-0.05,0.41
	L231.46,28.12z"/>
<path class="st0" d="M206.46,28.11l-0.76,1.17l3.33,0l-0.98,1.54l-1.43,0.01c-0.21,0.04-0.4,0.07-0.57,0.11
	c-0.17,0.03-0.31,0.07-0.44,0.11c-0.38,0.13-0.7,0.29-0.96,0.48c-0.27,0.2-0.48,0.42-0.65,0.69c-0.19,0.29-0.28,0.55-0.29,0.77
	c0,0.22,0.09,0.4,0.29,0.55c0.14,0.13,0.34,0.22,0.59,0.29c0.25,0.06,0.55,0.1,0.9,0.1c0.29,0,0.58-0.04,0.87-0.11
	c0.29-0.07,0.59-0.19,0.9-0.34c0.28-0.15,0.54-0.32,0.78-0.53c0.23-0.2,0.43-0.43,0.6-0.69l0.32-0.51l1.98,0l0.59-0.92l-1.98,0
	l0.98-1.54l1.98,0l-3.34,5.24l1.73,0l3.34-5.24l0.87,0l0.76-1.17L206.46,28.11z M207.03,32.43l-0.01,0.02l-0.08,0.11l-0.07,0.1
	l-0.07,0.07l-0.06,0.06c-0.13,0.11-0.27,0.19-0.43,0.24c-0.16,0.06-0.34,0.08-0.54,0.08c-0.1,0-0.19-0.01-0.27-0.04
	c-0.08-0.02-0.15-0.06-0.21-0.12c-0.08-0.07-0.11-0.15-0.11-0.25c0.01-0.1,0.05-0.21,0.12-0.34c0.09-0.14,0.19-0.25,0.3-0.34
	c0.1-0.09,0.23-0.15,0.36-0.19c0.08-0.02,0.18-0.04,0.3-0.05c0.12-0.02,0.26-0.03,0.42-0.04h0.77L207.03,32.43z"/>
<path class="st0" d="M196.11,28.1l-0.76,1.17l4.86,0l-0.64,1.03l-2.57,0.01c-0.3,0-0.58,0.03-0.84,0.09
	c-0.26,0.06-0.5,0.14-0.73,0.25c-0.25,0.12-0.45,0.25-0.63,0.41c-0.18,0.16-0.33,0.34-0.47,0.54c-0.21,0.32-0.31,0.6-0.32,0.84
	c-0.01,0.24,0.09,0.43,0.3,0.58c0.16,0.13,0.41,0.22,0.74,0.29c0.33,0.06,0.73,0.09,1.21,0.09c0.53,0,1.03-0.05,1.5-0.16
	c0.47-0.1,0.91-0.27,1.31-0.48c0.29-0.16,0.54-0.33,0.75-0.51c0.21-0.18,0.38-0.38,0.52-0.59l1.52-2.39l1.51,0l-3.34,5.24l1.73,0
	l3.34-5.24l0.87,0l0.76-1.17L196.11,28.1z M198.62,31.78l-0.01,0.02c-0.04,0.07-0.12,0.14-0.23,0.21c-0.11,0.07-0.26,0.14-0.44,0.2
	c-0.18,0.07-0.36,0.12-0.53,0.15c-0.17,0.03-0.35,0.05-0.53,0.05c-0.24,0-0.44-0.01-0.6-0.03c-0.15-0.03-0.28-0.06-0.38-0.1
	c-0.09-0.05-0.14-0.12-0.14-0.21c0-0.09,0.03-0.2,0.11-0.32c0.08-0.13,0.18-0.23,0.28-0.33c0.1-0.09,0.23-0.17,0.37-0.24
	c0.09-0.05,0.19-0.08,0.31-0.1c0.12-0.02,0.26-0.03,0.41-0.04l1.83,0L198.62,31.78z"/>
<polygon class="st0" points="196.43,28.1 195.68,29.27 194.81,29.27 191.47,34.51 189.75,34.51 193.08,29.27 186.34,29.27 
	187.1,28.1 "/>
<path class="st0" d="M191.9,28.1l-1.44,0c0.14-0.21,0.2-0.44,0.19-0.67c-0.02-0.24-0.1-0.48-0.25-0.75
	c-0.13-0.21-0.33-0.38-0.59-0.48c-0.26-0.11-0.58-0.16-0.96-0.16c-0.25,0-0.49,0.03-0.71,0.08c-0.22,0.06-0.43,0.14-0.62,0.24
	c-0.19,0.1-0.36,0.22-0.51,0.37c-0.15,0.15-0.29,0.32-0.41,0.51c-0.07,0.1-0.12,0.19-0.17,0.27c-0.04,0.08-0.08,0.15-0.1,0.21
	l-0.04,0.18c-0.01,0.06,0,0.13,0,0.21l0.98-0.01l-0.76,1.17l-0.87,0l-3.34,5.24l-1.72,0l3.34-5.24l-1.11,0l0.76-1.17l1.13,0
	c0.02-0.14,0.07-0.29,0.14-0.45c0.07-0.17,0.17-0.34,0.28-0.51c0.23-0.36,0.5-0.68,0.79-0.96c0.3-0.28,0.63-0.51,1.01-0.69
	c0.37-0.2,0.76-0.34,1.18-0.43c0.41-0.09,0.85-0.14,1.3-0.14c0.52,0,0.96,0.07,1.33,0.21c0.37,0.14,0.66,0.34,0.88,0.61
	c0.15,0.19,0.26,0.41,0.32,0.67c0.06,0.26,0.09,0.56,0.08,0.88c-0.03,0.15-0.04,0.29-0.07,0.42c-0.02,0.14-0.03,0.28-0.04,0.41
	L191.9,28.1z"/>
<path class="st0" d="M176.39,28.09l-0.76,1.17l-0.87,0l-3.34,5.24l-1.73,0l3.34-5.24l-3.28,0c0.05,0.08,0.09,0.15,0.12,0.21
	l0.07,0.17c0.01,0.18,0,0.36-0.06,0.56c-0.05,0.2-0.15,0.42-0.31,0.65c-0.17,0.26-0.37,0.5-0.6,0.7c-0.24,0.21-0.5,0.38-0.79,0.51
	c-0.3,0.15-0.6,0.25-0.88,0.32c-0.29,0.07-0.56,0.1-0.83,0.1l-0.04,0.11l-0.01,0.08l-0.03,0.19l0.01,0.16l0.06,0.2l0.12,0.12
	l0.09,0.03h0.14l1.57-0.01l-0.71,1.13l-1.73,0h-0.07l-0.06,0.02h-0.05h-0.04c-0.08,0-0.16,0-0.23-0.01l-0.21-0.05l-0.18-0.11
	l-0.15-0.18c-0.06-0.11-0.11-0.24-0.14-0.41c-0.03-0.16-0.05-0.37-0.04-0.6c0.01-0.08,0.02-0.17,0.03-0.28
	c0.01-0.11,0.03-0.23,0.05-0.38l-1.2-0.01l0.73-1.13l1.92,0l0.12,0.03h0.1c0.17,0,0.33-0.02,0.49-0.06c0.15-0.04,0.3-0.1,0.43-0.19
	c0.14-0.09,0.27-0.19,0.39-0.3c0.12-0.11,0.22-0.24,0.32-0.39c0.11-0.17,0.16-0.32,0.15-0.47c-0.01-0.15-0.07-0.29-0.19-0.41
	l-0.18-0.13c-0.07-0.05-0.16-0.1-0.26-0.16l-2.32-0.02l0.76-1.17L176.39,28.09z"/>
<polygon class="st0" points="171.15,32.22 169.35,32.22 170.1,31.05 171.91,31.05 "/>
<polygon class="st0" points="165.49,29.26 164.62,29.26 161.28,34.5 159.56,34.5 162.89,29.26 161.78,29.25 162.54,28.09 
	166.25,28.09 "/>
<path class="st0" d="M162.02,29.25l-5.37,0l-0.99,1.57c0.13-0.09,0.3-0.18,0.51-0.27c0.21-0.09,0.45-0.19,0.74-0.29
	c0.28-0.09,0.55-0.16,0.79-0.2c0.25-0.05,0.47-0.07,0.66-0.07c0.87,0,1.41,0.18,1.63,0.53c0.22,0.35,0.1,0.88-0.34,1.57
	c-0.21,0.33-0.46,0.62-0.75,0.87c-0.28,0.25-0.61,0.46-0.97,0.62c-0.32,0.15-0.65,0.25-0.99,0.33c-0.34,0.07-0.68,0.11-1.03,0.11
	c-0.23,0-0.44-0.02-0.63-0.05c-0.19-0.03-0.35-0.09-0.5-0.16l-0.1-0.04l-0.1-0.07l-0.05-0.03l-0.04-0.05l0.52-0.8l0.16,0.08
	l0.13,0.03c0.11,0.04,0.21,0.07,0.31,0.08c0.1,0.02,0.19,0.02,0.28,0.02c0.47,0,0.87-0.08,1.21-0.25c0.34-0.17,0.62-0.43,0.85-0.77
	c0.11-0.18,0.18-0.33,0.2-0.46c0.02-0.13,0-0.24-0.06-0.31c-0.06-0.08-0.16-0.14-0.3-0.18c-0.14-0.04-0.33-0.07-0.56-0.07
	c-0.19,0-0.39,0.03-0.59,0.08c-0.21,0.05-0.42,0.13-0.63,0.24c-0.29,0.15-0.54,0.29-0.74,0.42c-0.2,0.13-0.34,0.26-0.44,0.37
	l-1.54,2.42l-1.73,0l0.7-1.1c-0.18,0.08-0.34,0.14-0.47,0.19c-0.14,0.05-0.26,0.09-0.36,0.12c-0.34,0.1-0.65,0.17-0.93,0.22
	c-0.28,0.05-0.56,0.07-0.82,0.07c-0.34,0-0.63-0.04-0.86-0.13c-0.24-0.08-0.43-0.21-0.56-0.37c-0.15-0.19-0.21-0.4-0.18-0.65
	s0.14-0.53,0.33-0.84c0.21-0.32,0.46-0.61,0.74-0.86c0.29-0.25,0.61-0.46,0.98-0.62c0.33-0.15,0.66-0.26,1.01-0.33
	c0.35-0.07,0.72-0.11,1.1-0.11c0.24,0,0.46,0.02,0.65,0.05c0.2,0.03,0.38,0.09,0.55,0.16l0.06,0.03l0.07,0.04l0.03,0.01l0.02,0.03
	l-0.49,0.76l-0.12-0.03l-0.09-0.03c-0.1-0.03-0.2-0.05-0.29-0.07c-0.09-0.02-0.19-0.02-0.28-0.02c-0.24,0-0.47,0.02-0.68,0.07
	c-0.22,0.05-0.43,0.12-0.63,0.2c-0.2,0.1-0.38,0.22-0.53,0.35c-0.16,0.14-0.3,0.29-0.41,0.47c-0.11,0.19-0.17,0.34-0.19,0.47
	c-0.01,0.13,0.02,0.23,0.1,0.31c0.07,0.06,0.17,0.1,0.31,0.13c0.13,0.03,0.3,0.05,0.49,0.05c0.17,0,0.34-0.01,0.53-0.05
	c0.18-0.03,0.38-0.08,0.59-0.15c0.2-0.06,0.38-0.12,0.54-0.2c0.16-0.07,0.29-0.15,0.4-0.23l2.03-3.19l-5.1,0l0.76-1.17l12.2,0.01
	L162.02,29.25z"/>
<polygon class="st0" points="150.83,28.08 150.08,29.25 149.21,29.25 145.87,34.49 144.15,34.49 147.48,29.25 141.87,29.25 
	142.63,28.08 "/>
<path class="st0" d="M145.06,33.06c-0.15,0.07-0.29,0.12-0.42,0.16c-0.13,0.04-0.23,0.07-0.32,0.09c-0.32,0.09-0.64,0.15-0.95,0.19
	c-0.31,0.04-0.61,0.06-0.91,0.06c-0.41,0-0.76-0.03-1.04-0.1c-0.29-0.07-0.5-0.18-0.65-0.32c-0.18-0.16-0.26-0.37-0.25-0.6
	c0.01-0.24,0.12-0.51,0.33-0.83c0.18-0.28,0.4-0.51,0.65-0.72c0.25-0.2,0.55-0.38,0.9-0.53c0.34-0.14,0.7-0.24,1.09-0.31
	c0.39-0.07,0.79-0.11,1.22-0.11c0.28,0,0.55,0.02,0.79,0.06c0.25,0.04,0.48,0.1,0.7,0.18c0.07,0.03,0.14,0.07,0.23,0.1
	c0.08,0.04,0.17,0.09,0.26,0.15l-0.55,0.87l-0.13-0.07l-0.1-0.07l-0.04-0.02l-0.04-0.02c-0.14-0.08-0.31-0.13-0.49-0.17
	c-0.19-0.03-0.39-0.05-0.6-0.05c-0.37,0-0.69,0.02-0.97,0.05c-0.27,0.03-0.49,0.09-0.66,0.17c-0.17,0.07-0.31,0.15-0.44,0.26
	c-0.13,0.1-0.24,0.22-0.33,0.36c-0.1,0.17-0.16,0.32-0.16,0.45c0,0.12,0.06,0.22,0.17,0.3c0.09,0.06,0.21,0.1,0.37,0.12
	c0.16,0.02,0.35,0.04,0.57,0.04c0.23,0,0.47-0.02,0.74-0.06c0.26-0.04,0.54-0.12,0.85-0.21c0.09-0.03,0.2-0.07,0.33-0.12
	c0.12-0.05,0.27-0.11,0.44-0.18L145.06,33.06z"/>
<path class="st0" d="M147.43,28.08l-1.44,0c0.14-0.21,0.2-0.44,0.19-0.67c-0.01-0.24-0.1-0.48-0.25-0.75
	c-0.13-0.21-0.33-0.38-0.59-0.48c-0.26-0.11-0.58-0.16-0.96-0.16c-0.25,0-0.49,0.03-0.71,0.08c-0.23,0.06-0.43,0.14-0.62,0.24
	c-0.18,0.1-0.36,0.22-0.51,0.37c-0.15,0.15-0.29,0.32-0.42,0.51c-0.06,0.1-0.12,0.19-0.17,0.27c-0.04,0.08-0.08,0.15-0.1,0.21
	l-0.04,0.18c0,0.07,0,0.13,0,0.21l0.98-0.01l-0.76,1.17l-0.87,0l-3.34,5.24l-1.73,0l3.34-5.24l-1.11,0l0.76-1.17l1.12,0
	c0.02-0.14,0.07-0.29,0.14-0.45c0.08-0.17,0.17-0.34,0.29-0.51c0.23-0.36,0.49-0.68,0.79-0.96c0.29-0.28,0.63-0.51,1.01-0.69
	c0.37-0.2,0.76-0.34,1.18-0.43c0.41-0.09,0.85-0.14,1.3-0.14c0.52,0,0.96,0.07,1.33,0.21c0.37,0.14,0.66,0.34,0.88,0.61
	c0.15,0.19,0.26,0.41,0.33,0.67c0.06,0.26,0.09,0.56,0.08,0.88c-0.02,0.15-0.04,0.29-0.06,0.42c-0.02,0.14-0.04,0.28-0.05,0.41
	L147.43,28.08z"/>
<polygon class="st0" points="131.88,28.07 131.13,29.24 130.26,29.24 126.92,34.49 125.19,34.48 128.53,29.24 121.12,29.24 
	121.88,28.07 "/>
<path class="st0" d="M127.23,31.29l-0.19,0.02l-0.21,0.02l-0.1,0.01l-0.1,0.01c-0.1,0.01-0.2,0.03-0.3,0.05
	c-0.1,0.02-0.19,0.06-0.29,0.09c-0.14,0.06-0.28,0.12-0.4,0.19c-0.13,0.07-0.24,0.14-0.35,0.22c-0.11,0.08-0.19,0.15-0.25,0.2
	l-0.11,0.11l-0.48,0.75l-1.06,0l0.49-0.76c0.09-0.13,0.14-0.25,0.14-0.35c0.01-0.11-0.02-0.21-0.09-0.29
	c-0.07-0.08-0.16-0.14-0.27-0.18c-0.11-0.04-0.24-0.07-0.39-0.07c-0.18,0-0.37,0.03-0.57,0.09c-0.2,0.06-0.41,0.14-0.62,0.25
	c-0.21,0.11-0.4,0.23-0.55,0.38c-0.16,0.14-0.3,0.29-0.41,0.46c-0.13,0.22-0.2,0.4-0.2,0.55c0,0.15,0.06,0.27,0.2,0.36
	c0.09,0.07,0.21,0.12,0.35,0.15c0.15,0.03,0.32,0.04,0.53,0.04h0.13h0.1h0.05l0.06-0.01l0.05-0.01l0.05-0.01l-0.59,0.94h-0.05
	l-0.06,0.02h-0.07h-0.07h-0.07l-0.09,0.01h-0.09h-0.09c-0.38,0-0.72-0.03-1-0.09c-0.28-0.06-0.51-0.15-0.69-0.28
	c-0.27-0.19-0.4-0.45-0.4-0.76c0.01-0.31,0.15-0.69,0.43-1.13c0.2-0.31,0.45-0.59,0.75-0.83c0.29-0.24,0.63-0.46,1.02-0.64
	c0.39-0.2,0.77-0.34,1.14-0.43c0.37-0.09,0.73-0.14,1.09-0.14c0.27,0,0.51,0.02,0.71,0.07c0.2,0.05,0.37,0.11,0.51,0.21
	c0.11,0.08,0.2,0.17,0.26,0.29c0.06,0.11,0.09,0.24,0.1,0.37l0.21-0.1l0.17-0.09c0.19-0.09,0.36-0.16,0.5-0.22
	c0.14-0.06,0.26-0.1,0.35-0.13c0.09-0.03,0.19-0.06,0.29-0.08c0.1-0.02,0.21-0.04,0.31-0.05c0.11-0.02,0.22-0.03,0.31-0.04
	c0.09,0,0.18-0.01,0.27-0.01h0.09h0.04h0.04h0.04L127.23,31.29z"/>
<path class="st0" d="M121.38,29.24l-1.83,0c0.01,0.08,0.02,0.15,0.02,0.2l0,0.16c-0.01,0.15-0.04,0.31-0.09,0.46
	c-0.06,0.15-0.13,0.3-0.22,0.45c-0.25,0.39-0.55,0.73-0.89,1.01c-0.34,0.28-0.73,0.5-1.16,0.66c-0.28,0.11-0.56,0.19-0.83,0.24
	c-0.28,0.06-0.54,0.08-0.8,0.08h-0.07h-0.05h-0.03l-0.01-0.02l-0.01,0.09l-0.03,0.09l-0.01,0.03l0,0.03
	c-0.01,0.09-0.02,0.16-0.03,0.23l0,0.18l0.06,0.18l0.16,0.07h0.2h0.14l1.89-0.01l-0.74,1.15l-2.21,0c-0.09,0-0.17,0-0.25-0.01
	l-0.19-0.02c-0.15-0.03-0.26-0.08-0.35-0.16c-0.08-0.07-0.15-0.16-0.19-0.27c-0.05-0.11-0.09-0.24-0.11-0.41
	c-0.02-0.16-0.03-0.36-0.01-0.59c0-0.07,0-0.15,0-0.25c0-0.1,0.01-0.21,0.02-0.34l-1.12-0.01l0.76-1.17l2.34,0
	c0.14,0.01,0.26,0.01,0.37,0c0.11-0.01,0.21-0.02,0.29-0.04c0.25-0.06,0.47-0.16,0.66-0.29c0.19-0.14,0.35-0.31,0.49-0.53
	c0.14-0.23,0.24-0.42,0.28-0.59c0.04-0.17,0.03-0.31-0.05-0.4l-0.13-0.09l-0.19-0.09l-3.22-0.02l0.76-1.17l7.1,0L121.38,29.24
	L121.38,29.24z"/>
<path class="st0" d="M264.3,29.3l-1.94,0l-1.17,1.85l-3.09,0c-0.14,0.01-0.28,0.02-0.4,0.04c-0.13,0.02-0.24,0.04-0.34,0.07
	c-0.1,0.03-0.19,0.07-0.26,0.13c-0.08,0.06-0.15,0.14-0.22,0.25c-0.07,0.1-0.1,0.17-0.1,0.23l0.12,0.12
	c0.07,0.02,0.16,0.03,0.28,0.04c0.11,0.01,0.25,0.02,0.41,0.02l2.19-0.01c0.38,0.01,0.68,0.05,0.91,0.11
	c0.23,0.06,0.38,0.16,0.47,0.29c0.06,0.11,0.07,0.24,0.03,0.4c-0.04,0.16-0.13,0.34-0.26,0.55c-0.23,0.35-0.52,0.65-0.88,0.88
	c-0.35,0.23-0.77,0.41-1.26,0.54c-0.34,0.09-0.73,0.16-1.16,0.2c-0.44,0.05-0.91,0.07-1.42,0.07c-0.79,0-1.43-0.06-1.92-0.18
	c-0.49-0.11-0.85-0.28-1.06-0.5l-0.05-0.09l-0.04-0.11l-0.05-0.09L253.05,34l1.62-0.73l0.03,0.16l0.1,0.15
	c0.15,0.21,0.41,0.36,0.77,0.46c0.36,0.1,0.81,0.16,1.36,0.16c0.23,0,0.46-0.02,0.67-0.04c0.21-0.03,0.44-0.08,0.66-0.15
	c0.26-0.08,0.47-0.17,0.64-0.27c0.17-0.1,0.29-0.22,0.38-0.34l0.07-0.2l-0.06-0.14l-0.14-0.1c-0.06-0.02-0.14-0.03-0.23-0.03
	l-2.36-0.02c-0.31,0.01-0.56-0.01-0.78-0.06c-0.21-0.05-0.37-0.12-0.49-0.22c-0.16-0.12-0.23-0.27-0.23-0.46
	c0-0.18,0.08-0.4,0.24-0.64c0.13-0.21,0.3-0.38,0.51-0.54c0.21-0.15,0.47-0.29,0.76-0.41c0.25-0.09,0.5-0.16,0.76-0.2
	c0.26-0.05,0.51-0.07,0.79-0.07l2.12-0.01l0.63-0.98l-4.91,0l0.76-1.17l8.36,0L264.3,29.3z"/>
<path class="st0" d="M255.76,28.14l-1.04,0c-0.03-0.08-0.06-0.15-0.1-0.23l-0.09-0.2c-0.09-0.18-0.19-0.34-0.29-0.48
	c-0.1-0.15-0.2-0.28-0.29-0.41c-0.15-0.2-0.29-0.36-0.42-0.51c-0.14-0.14-0.25-0.26-0.34-0.36l-0.12-0.12l-0.16-0.12l1.34-1.11
	c0.06,0.1,0.12,0.18,0.17,0.25l0.13,0.19c0.08,0.15,0.17,0.31,0.27,0.48c0.1,0.17,0.22,0.38,0.34,0.6c0.1,0.21,0.18,0.42,0.26,0.65
	c0.08,0.23,0.15,0.48,0.21,0.74c0.02,0.09,0.04,0.18,0.07,0.29c0.03,0.1,0.05,0.22,0.07,0.36L255.76,28.14z"/>
<path class="st0" d="M256.21,29.3l-1.45,0l-1.52,2.39l-2.88,0l-0.06,0.01l-0.06-0.01h-0.03h-0.05c-0.13,0-0.26,0.01-0.39,0.04
	c-0.13,0.03-0.26,0.07-0.39,0.12c-0.19,0.09-0.37,0.2-0.53,0.33c-0.16,0.13-0.3,0.29-0.41,0.47c-0.11,0.19-0.16,0.35-0.17,0.48
	c-0.01,0.14,0.05,0.25,0.16,0.34c0.1,0.1,0.24,0.17,0.42,0.21c0.17,0.04,0.37,0.07,0.59,0.07c0.3,0,0.63-0.04,0.97-0.11
	c0.35-0.07,0.71-0.18,1.1-0.33c0.13-0.05,0.27-0.11,0.43-0.18c0.16-0.07,0.34-0.16,0.54-0.26l0.16,1.11
	c-0.08,0.05-0.17,0.09-0.27,0.14c-0.1,0.04-0.21,0.08-0.34,0.12c-0.14,0.05-0.28,0.09-0.44,0.13c-0.16,0.04-0.33,0.08-0.53,0.13
	c-0.37,0.08-0.72,0.14-1.06,0.18c-0.34,0.04-0.66,0.06-0.95,0.06c-0.68,0-1.22-0.05-1.63-0.16c-0.41-0.1-0.69-0.25-0.85-0.46
	c-0.13-0.18-0.17-0.39-0.12-0.65c0.05-0.25,0.17-0.55,0.39-0.88c0.26-0.4,0.55-0.74,0.89-1.01c0.34-0.27,0.72-0.48,1.15-0.64
	c0.25-0.09,0.53-0.15,0.83-0.2c0.3-0.05,0.62-0.07,0.96-0.07l0.32-0.01l1.2,0l0.88-1.39l-4.58,0l0.76-1.17l7.72,0L256.21,29.3z"/>
<path class="st0" d="M240.09,28.12l-0.76,1.17l3.33,0l-0.98,1.54l-1.43,0.01c-0.22,0.04-0.41,0.07-0.58,0.11
	c-0.17,0.03-0.31,0.07-0.44,0.11c-0.38,0.13-0.7,0.29-0.97,0.48c-0.26,0.2-0.48,0.42-0.65,0.69c-0.19,0.29-0.28,0.55-0.29,0.77
	c0,0.22,0.09,0.4,0.29,0.55c0.14,0.13,0.34,0.22,0.6,0.29c0.25,0.06,0.55,0.1,0.9,0.1c0.29,0,0.58-0.04,0.87-0.11
	c0.29-0.07,0.59-0.19,0.9-0.34c0.28-0.15,0.55-0.32,0.78-0.53c0.24-0.21,0.43-0.43,0.6-0.69l0.32-0.51l1.98,0l0.57-0.88l0.02-0.04
	l-1.98,0l0.98-1.54l1.98,0l-0.98,1.54h0l-0.02,0.04l-2.33,3.67l1.73,0l3.34-5.24l0.87,0l0.76-1.17L240.09,28.12z M240.66,32.44
	l-0.01,0.02l-0.08,0.11l-0.07,0.1l-0.06,0.07l-0.06,0.06c-0.13,0.11-0.28,0.19-0.43,0.24c-0.16,0.06-0.34,0.08-0.54,0.08
	c-0.1,0-0.19-0.01-0.27-0.04c-0.08-0.02-0.15-0.07-0.21-0.12c-0.07-0.07-0.11-0.15-0.1-0.25c0-0.1,0.04-0.21,0.12-0.34
	c0.09-0.14,0.19-0.25,0.29-0.34c0.11-0.09,0.23-0.15,0.36-0.19c0.08-0.02,0.17-0.04,0.29-0.05c0.12-0.02,0.26-0.03,0.43-0.04l0.76,0
	L240.66,32.44z"/>
<path class="st0" d="M192.41,30.34l-4.64,0.01c-0.23,0.02-0.43,0.04-0.6,0.07c-0.18,0.03-0.33,0.07-0.45,0.1
	c-0.4,0.13-0.75,0.31-1.06,0.55c-0.31,0.24-0.57,0.53-0.78,0.87c-0.37,0.57-0.43,0.99-0.19,1.28c0.24,0.28,0.79,0.43,1.64,0.43
	c0.37,0,0.71-0.03,1.04-0.09c0.32-0.06,0.63-0.15,0.91-0.28c0.29-0.13,0.54-0.28,0.77-0.48c0.22-0.19,0.42-0.42,0.58-0.68
	c0.08-0.12,0.14-0.23,0.17-0.34c0.03-0.11,0.04-0.21,0.05-0.31l-0.01-0.1l-0.04-0.13l2.03,0L192.41,30.34z M188.26,32.04l-0.01,0.01
	c-0.1,0.15-0.21,0.29-0.33,0.4c-0.12,0.11-0.24,0.19-0.38,0.25c-0.11,0.05-0.22,0.08-0.35,0.11c-0.12,0.03-0.26,0.04-0.4,0.04
	c-0.16,0-0.29-0.02-0.39-0.05c-0.1-0.03-0.18-0.08-0.22-0.15c-0.04-0.07-0.06-0.15-0.05-0.24c0.01-0.09,0.05-0.19,0.13-0.31
	c0.09-0.15,0.21-0.28,0.33-0.39c0.13-0.12,0.27-0.22,0.43-0.31l0.16-0.06c0.06-0.02,0.13-0.05,0.23-0.08l0.82,0.01l0.1,0.08
	l0.07,0.07c0.03,0.07,0.04,0.16,0.01,0.27C188.4,31.79,188.35,31.91,188.26,32.04z"/>
<path class="st1" d="M221.03,56.49l-0.05-0.17c-0.12-0.21-0.28-0.33-0.5-0.38l-0.21,0.06l-0.2,0.1c-0.1,0.07-0.19,0.14-0.24,0.21
	l-0.13,0.24l-0.04,0.28c0.02,0.09,0.05,0.17,0.11,0.23l0.13,0.13l0.18,0.06l0.16-0.04l0.17-0.05l0.16-0.08l0.16-0.1l0.15-0.12
	l0.2-0.17L221.03,56.49z"/>
<path class="st1" d="M196.15,55.93h-2.05l-0.69,2.03c-0.04,0.1-0.05,0.21-0.05,0.31c0,0.18,0.07,0.33,0.21,0.45l0.17,0.14l0.24,0.08
	c0.15-0.02,0.31-0.06,0.46-0.12c0.16-0.06,0.31-0.13,0.44-0.22l0.22-0.14l0.28-0.22L196.15,55.93z"/>
<path class="st1" d="M117.81,55.93h-1.3l-0.63,1.88l-0.05,0.34c0,0.28,0.13,0.46,0.4,0.53c0.25-0.03,0.44-0.12,0.56-0.26
	c0.11-0.08,0.19-0.17,0.24-0.27l0.17-0.36L117.81,55.93z"/>
<polyline class="st3" points="52.14,61.52 52.6,61.52 52.6,61.37 52.14,61.37 "/>
<path d="M47.73,70.92c0-1.61,1.26-2.88,2.87-2.88c1.61,0,2.85,1.26,2.85,2.87c0,1.61-1.26,2.88-2.87,2.88
	C48.97,73.79,47.73,72.53,47.73,70.92z M52.98,70.92c0-1.37-1.04-2.45-2.4-2.45c-1.36,0-2.39,1.06-2.39,2.43
	c0,1.37,1.04,2.45,2.4,2.45C51.95,73.35,52.98,72.29,52.98,70.92z M49.49,69.29h1.16c0.74,0,1.17,0.32,1.17,0.96
	c0,0.49-0.25,0.76-0.64,0.88l0.68,1.29h-0.64l-0.63-1.22h-0.52c0,0.11,0,1.2,0,1.22h-0.59V69.29z M50.62,70.76
	c0.4,0,0.62-0.13,0.62-0.48c0-0.33-0.22-0.46-0.63-0.46h-0.53v0.94H50.62z"/>
<path class="st4" d="M46.3,24.63c-6.23,0-12.23,3.07-16.96,9.38L0.5,73.33h3.44l28.04-38.45c4.24-5.12,9.16-7.66,13.29-7.79
	c0.15,0,0.3-0.03,0.45-0.03l48.22,0.01l1.59-2.42L46.3,24.63z"/>
<path class="st1" d="M49.74,30.69c-2.06,0.09-4.93,0.35-7.66,1.65c-3.25,1.55-5.26,3.93-6.7,5.42L8.99,73.33H12l23.86-32.77
	c7.15-8.68,10.49-7.96,22.44-7.96c1.9,0,3.49,0.16,5.08,0.69c7.08,2.36,5.83,9.57,0.26,14.61c-4.98,4.51-13.81,6.02-21.55,6.1
	l18.14,19.52l30.91-42.83H49.74z"/>
</svg>
