<?xml version="1.0" encoding="UTF-8"?><svg id="Layer_1" xmlns="http://www.w3.org/2000/svg" xmlns:xlink="http://www.w3.org/1999/xlink" viewBox="0 0 2037.24 780.43"><defs><style>.cls-1,.cls-2{fill:#72b144;}.cls-3{fill:url(#linear-gradient-8);}.cls-4{fill:url(#linear-gradient-7);}.cls-5{fill:url(#linear-gradient-5);}.cls-6{fill:url(#linear-gradient-6);}.cls-7{fill:url(#linear-gradient-9);}.cls-8{fill:url(#linear-gradient-4);}.cls-9{fill:url(#linear-gradient-3);}.cls-10{fill:url(#linear-gradient-2);}.cls-2{fill-rule:evenodd;}.cls-11{fill:url(#linear-gradient);}.cls-12{fill:#016738;}.cls-13{fill:#fff;}.cls-14{fill:url(#linear-gradient-10);}.cls-15{fill:url(#linear-gradient-11);}.cls-16{fill:url(#linear-gradient-12);}.cls-17{fill:url(#linear-gradient-13);}.cls-18{fill:#066638;}</style><linearGradient id="linear-gradient" x1="1569.15" y1="222.17" x2="1588.65" y2="222.17" gradientUnits="userSpaceOnUse"><stop offset="0" stop-color="#ee335c"/><stop offset="1" stop-color="#dae120"/></linearGradient><linearGradient id="linear-gradient-2" x1="1544.32" y1="244.58" x2="1570.78" y2="244.58" xlink:href="#linear-gradient"/><linearGradient id="linear-gradient-3" x1="1536.07" y1="269.62" x2="1562.71" y2="269.62" xlink:href="#linear-gradient"/><linearGradient id="linear-gradient-4" x1="1546.62" y1="295.13" x2="1572.59" y2="295.13" xlink:href="#linear-gradient"/><linearGradient id="linear-gradient-5" x1="1573.08" y1="316.25" x2="1591.33" y2="316.25" xlink:href="#linear-gradient"/><linearGradient id="linear-gradient-6" x1="1598.57" y1="324.21" x2="1611.97" y2="324.21" xlink:href="#linear-gradient"/><linearGradient id="linear-gradient-7" x1="1639.21" y1="292.94" x2="1665.5" y2="292.94" xlink:href="#linear-gradient"/><linearGradient id="linear-gradient-8" x1="1621.04" y1="314.93" x2="1640.12" y2="314.93" xlink:href="#linear-gradient"/><linearGradient id="linear-gradient-9" x1="1638.61" y1="242.36" x2="1664.73" y2="242.36" xlink:href="#linear-gradient"/><linearGradient id="linear-gradient-10" x1="1648.04" y1="267.72" x2="1674.5" y2="267.72" xlink:href="#linear-gradient"/><linearGradient id="linear-gradient-11" x1="1620.11" y1="220.79" x2="1638.79" y2="220.79" xlink:href="#linear-gradient"/><linearGradient id="linear-gradient-12" x1="1597.61" y1="212.25" x2="1611.03" y2="212.25" xlink:href="#linear-gradient"/><linearGradient id="linear-gradient-13" x1="1575.33" y1="267.64" x2="1635.23" y2="267.64" xlink:href="#linear-gradient"/></defs><path class="cls-18" d="M256.94,597.17c38.69-14.33,65.2-45.21,65.2-94.31v-.87c0-28.69-9.13-52.6-26.07-69.54-19.99-19.99-49.99-30.85-88.68-30.85H68.31v304.25h66.93v-97.37h52.6l65.18,97.37h78.24l-74.32-108.69ZM254.32,506.34c0,25.65-18.68,43.05-51.29,43.05h-67.8v-87.37h66.49c32.61,0,52.6,14.8,52.6,43.47v.85Z"/><path class="cls-18" d="M822.69,401.61v187.32l-142.57-187.32h-61.73v304.25h66.07v-193.44l147.36,193.44h56.9v-304.25h-66.04Z"/><path class="cls-18" d="M1163.08,589.82c0-66.07-44.69-126.5-122.47-126.5-67.8,0-119.73,54.76-119.73,121.27v.87c0,71.28,51.75,120.4,121.72,120.4,42.16,0,93.33-27.89,111.42-73.13l-63.09.71c-18.25,16.98-25.27,19.36-47.46,19.36-29.56,0-57.22-15.63-63.72-45.63h182.48c.44-6.08.85-12.17.85-17.36ZM981.15,563.62c5.19-29.99,34.35-47.27,61.72-47.27s58.79,17.72,62.71,47.27h-124.42Z"/><path class="cls-18" d="M1449.61,471.15l-38.24,141.69-44.36-142.58h-56.91l-43.9,142.16-37.38-141.28h-66.96l71.74,234.71h59.1l45.65-143,44.77,143h59.55l72.59-234.71h-65.65Z"/><path class="cls-1" d="M468.68,652.7c-51.86,4.71-67.86-42.97-67.86-42.97,0,0-15.83-45.24,15.83-65.59,31.67-20.36,76.9,2.26,76.9,2.26-29.4-24.88-61.07-20.36-61.07-20.36,79.16-27.14,95,42.97,95,42.97-11.31-11.31-36.19,4.52-65.59,15.83-29.4,11.31-52.02-18.09-52.02-18.09-4.52,9.05-3.59,36.75,18.09,49.76,22.62,13.57,38.45,11.31,85.95-6.79,31.47-11.99,56.98-13.05,70.61-12.41.42-4.1.64-8.26.64-12.47,0-66.83-54.18-121.01-121.01-121.01s-121.01,54.18-121.01,121.01,54.18,121.01,121.01,121.01c53.08,0,98.14-34.19,114.46-81.74-27.48-6.1-67.02,24.68-109.93,28.58Z"/><path class="cls-1" d="M1651.99,342.79v245.85c-10.63-3.62-21.16-7.6-31.51-11.87-3.42-1.41-6.83-2.86-10.21-4.36-10.04-4.38-19.94-9.05-29.63-14v-35.41l58.44-155.67c1.1-2.82,1.05-5.91-.16-8.7l-5.93-13.23-1.17-2.61h20.16Z"/><path class="cls-11" d="M1588.65,228.19c-4.15,1.72-8.03,4.1-11.46,7.01-1.33-2.89-2.59-6.03-3.74-9.35-2.06-5.85-3.51-11.56-4.31-16.71,4.2,3.09,8.62,6.93,12.93,11.42,2.39,2.54,4.61,5.09,6.58,7.63Z"/><path class="cls-10" d="M1570.78,241.97c-2.66,3.51-4.84,7.47-6.37,11.85-2.62-1.84-5.3-3.92-7.94-6.19-4.72-4.04-8.81-8.25-12.15-12.29,5.18.55,10.96,1.67,16.94,3.41,3.35.98,6.53,2.07,9.52,3.23Z"/><path class="cls-9" d="M1562.71,276.32c-3.19-.27-6.53-.73-9.97-1.35-6.12-1.12-11.76-2.68-16.67-4.5,4.77-2.13,10.3-4.04,16.35-5.59,3.37-.83,6.67-1.49,9.86-1.97-.59,4.56-.39,9.08.43,13.41Z"/><path class="cls-8" d="M1572.59,296.63c-2.91,1.4-6.01,2.68-9.29,3.87-5.85,2.11-11.53,3.6-16.67,4.49,3.05-4.22,6.86-8.71,11.31-13.03,2.48-2.43,5.02-4.68,7.5-6.67,1.77,4.13,4.19,7.94,7.15,11.35Z"/><path class="cls-5" d="M1591.33,309.22c-1.81,2.66-3.87,5.32-6.08,8-3.97,4.77-8.14,8.94-12.17,12.29.5-5.21,1.56-10.98,3.21-16.97.94-3.35,1.99-6.56,3.12-9.54,3.53,2.64,7.54,4.75,11.92,6.22Z"/><path class="cls-6" d="M1611.97,311.04c-.35,3.17-.92,6.47-1.65,9.86-1.31,6.08-3.07,11.7-5.05,16.51-1.99-4.81-3.72-10.43-5.02-16.51-.76-3.39-1.29-6.7-1.68-9.9,4.56.74,9.06.71,13.41.04Z"/><path class="cls-4" d="M1665.5,302.39c-5.18-.67-10.92-1.93-16.85-3.79-3.33-1.03-6.47-2.18-9.43-3.41,2.78-3.48,5.02-7.4,6.63-11.7,2.57,1.9,5.18,4.03,7.77,6.33,4.65,4.17,8.65,8.44,11.88,12.57Z"/><path class="cls-3" d="M1640.12,328.03c-4.15-3.19-8.49-7.15-12.68-11.74-2.34-2.57-4.49-5.16-6.4-7.73,4.19-1.6,8.1-3.88,11.6-6.74,1.28,2.93,2.47,6.07,3.55,9.38,1.9,5.94,3.21,11.65,3.94,16.83Z"/><path class="cls-7" d="M1664.73,232.71c-3.14,4.19-7.06,8.55-11.6,12.79-2.54,2.38-5.11,4.56-7.64,6.51-1.67-4.19-3.99-8.07-6.88-11.54,2.91-1.31,6.05-2.5,9.35-3.64,5.89-1.97,11.6-3.33,16.78-4.11Z"/><path class="cls-14" d="M1674.5,267.43c-4.81,2.02-10.39,3.83-16.46,5.23-3.39.76-6.69,1.37-9.86,1.76.66-4.56.6-9.06-.14-13.41,3.19.34,6.51.85,9.9,1.54,6.08,1.24,11.72,2.94,16.56,4.88Z"/><path class="cls-15" d="M1638.79,207.6c-.58,5.2-1.77,10.92-3.56,16.88-1.01,3.33-2.13,6.51-3.33,9.49-3.49-2.73-7.43-4.91-11.78-6.49,1.88-2.61,3.99-5.23,6.26-7.87,4.1-4.66,8.35-8.73,12.41-12.01Z"/><path class="cls-16" d="M1611.03,225.25c-4.52-.62-9.06-.5-13.42.3.32-3.21.8-6.53,1.45-9.95,1.19-6.1,2.82-11.76,4.7-16.63,2.08,4.79,3.96,10.37,5.39,16.4.82,3.39,1.45,6.69,1.88,9.88Z"/><path class="cls-17" d="M1634.15,275.6c-4.38,15.93-20.88,25.29-36.81,20.91-15.94-4.4-25.32-20.88-20.92-36.81,4.38-15.94,20.88-25.32,36.82-20.92,15.93,4.38,25.29,20.85,20.91,36.82Z"/><path class="cls-12" d="M1626.44,362.83l-68.76,183.17-4.29,11.42-7.13,18.98-.1.21c-.38.7-1.15,1.03-1.92.84l-6.92-1.93c-.89-.23-1.39-1.12-1.22-1.97l5.16-22.99,1.92-8.54,38.85-173.19c.09-.38.31-.71.64-.96l9.73-7.25-3.63-15.62c-.05-.26-.03-.52.02-.82l.73-2.65c9.5,2.02,19,2.07,28.06.42l8.82,19.62c.17.38.19.85.03,1.26Z"/><path class="cls-12" d="M1626.44,362.83l-68.76,183.17-4.29,11.42-7.13,18.98-.1.21c-.38.7-1.15,1.03-1.92.84l-6.92-1.93c-.89-.23-1.39-1.12-1.22-1.97l5.16-22.99,1.92-8.54,38.85-173.19c.09-.38.31-.71.64-.96l9.73-7.25-3.63-15.62c-.05-.26-.03-.52.02-.82l.73-2.65c9.5,2.02,19,2.07,28.06.42l8.82,19.62c.17.38.19.85.03,1.26Z"/><path class="cls-12" d="M1548.7,217.01c-6.87,6.95-12.4,15.36-16.07,24.92l-18.61-1.91c-.44-.05-.85-.26-1.13-.61l-144.86-176.21c-.56-.67-.53-1.68.13-2.25l5.11-5.04c.64-.64,1.64-.67,2.3-.05l154.36,142.1c.28.28.48.66.53,1.04l1.41,12.08,15.3,4.65c.25.1.49.23.69.43l.85.85Z"/><path class="cls-1" d="M1605.93,687.75c-1.15,3.19-2.37,6.34-3.63,9.48-1.19,2.89-2.42,5.79-3.71,8.63h-17.95v-26.65c8.68,2.18,17.41,4.13,26.21,5.91-.3.89-.61,1.76-.92,2.63Z"/><path class="cls-1" d="M1651.99,692.32v13.54h-48.29c.98-2.04,1.92-4.1,2.82-6.17,1.34-3.03,2.6-6.08,3.82-9.18.58-1.45,1.12-2.91,1.66-4.37,13.18,2.54,26.53,4.62,40,6.19Z"/><path class="cls-1" d="M1616.53,649.46c-1.69,8.61-3.8,17.08-6.33,25.39-9.95-2.25-19.82-4.78-29.56-7.55v-41.9c6.99,2.39,14.03,4.64,21.12,6.78,5.59,1.67,11.22,3.28,16.91,4.79-.07.52-.14,1.03-.23,1.55-.54,3.66-1.2,7.3-1.92,10.93Z"/><path class="cls-1" d="M1621.77,588.22c.03,1.8.05,3.57.05,5.35.02,11.17-.57,22.2-1.79,33.08-13.35-3.96-26.49-8.42-39.39-13.33v-42.3c6.31,2.93,12.67,5.73,19.08,8.45,5.37,2.27,10.77,4.44,16.24,6.55,1.92.75,3.85,1.48,5.8,2.2Z"/><path class="cls-1" d="M1629,590.85c7.58,2.72,15.25,5.26,22.99,7.63v36.58c-8.7-1.99-17.31-4.2-25.86-6.64,1.31-9.45,2.16-18.95,2.6-28.46.14-3.03.24-6.08.28-9.12Z"/><path class="cls-1" d="M1624.58,638.52c9.06,2.32,18.2,4.41,27.42,6.26v37.84c-12.27-1.76-24.47-3.97-36.53-6.57,2.4-7.56,4.48-15.2,6.22-22.92.78-3.49,1.52-6.99,2.16-10.47.26-1.38.51-2.75.73-4.13Z"/><path class="cls-12" d="M1906.83,173.6c-.2.36-.56.66-.97.79l-200.25,62.6c-.38.13-.8.1-1.17-.05l-11.12-4.8-11.71,10.89c-.18.2-.43.33-.71.39l-2.51.66c-2.76-9.15-7.31-17.69-13.36-25.09l12.13-16.79c.25-.36.64-.61,1.07-.67l225.05-37.36c.85-.13,1.68.39,1.89,1.23l1.81,6.97c.12.41.05.89-.15,1.23Z"/><path class="cls-2" d="M1750.09,684.68c.35.23.69.45,1.06.68.12-.26.23-.52.31-.78-.45.05-.92.07-1.37.1ZM1801.89,632.76c-2.32-.76-4.58-1.67-6.78-2.69-6.66-3.11-12.73-7.32-17.95-12.4-1.41-.02-2.83-.05-4.23-.1-1.42-.03-2.85-.09-4.27-.16-.1.73-.21,1.47-.31,2.2-1.25,8.64-2.84,17.21-4.82,25.71,11.34-.21,22.64-.92,33.88-2.13,1.98-.21,3.96-.43,5.92-.69,1.96-.24,3.92-.5,5.86-.78.16-2.29.3-4.58.38-6.89-2.62-.54-5.17-1.23-7.67-2.06ZM1804,648.49c-1.93.28-3.85.56-5.79.78-12.04,1.56-24.2,2.53-36.39,2.97-.76,3.07-1.61,6.12-2.5,9.16-.97,3.4-2.05,6.8-3.16,10.16-1.46,4.39-3.02,8.73-4.7,13.01,16.36-1.11,32.63-3.19,48.62-6.31,1.37-.26,2.74-.54,4.11-.82,1.56-7.44,2.81-14.95,3.73-22.55.26-2.15.5-4.32.69-6.5.02-.21.03-.4.05-.61-1.54.24-3.1.49-4.67.71ZM1903.09,644.92c-1.8,1.08-3.63,2.15-5.46,3.19-11.28,6.44-22.9,12.13-34.81,17.09-.02.31-.05.62-.09.94-.16,1.4-.31,2.79-.5,4.2-.23,1.86-.49,3.71-.75,5.59-1.3,8.69-3.07,17.28-5.29,25.74,15.39-3.9,29.7-10.46,42.45-19.17.78-.52,1.54-1.04,2.31-1.6,3.16-11.26,5.52-22.72,7.1-34.35.21-1.54.4-3.11.57-4.65.02-.14.03-.26.03-.4-1.84,1.16-3.68,2.29-5.55,3.42ZM1910.08,596.77c-.04-.75-.07-1.49-.11-2.24-4.89,1.99-9.8,3.83-14.76,5.53-2.13.73-4.25,1.44-6.4,2.12-2.12.69-4.27,1.35-6.4,1.98-1.41.42-2.81.83-4.22,1.21-3.85,6.18-8.71,11.66-14.35,16.22.12,2.6.23,5.19.28,7.77,9.75-3.07,19.38-6.63,28.83-10.69,1.98-.83,3.95-1.7,5.93-2.6,3.87-1.75,7.72-3.57,11.54-5.5,0-4.6-.1-9.19-.35-13.81ZM1823.22,435.01c-13.69,0-26.9,2.03-39.34,5.81l4.46-27.06h119.88l12.58-53.5,3.99-17.95h-196.72l-12.21,71.45-15.27,89.59,62.27,40.96c4.08-9.21,10.22-17.29,17.81-23.66,11.34-9.56,26.02-15.32,42.03-15.32,36.11,0,65.41,29.3,65.41,65.41,0,10.53-2.5,20.49-6.94,29.32.05,0,.1-.02.16-.03,13.36-3.63,26.56-8.17,39.52-13.69,1.89-.8,3.78-1.63,5.67-2.48.16-.07.31-.14.47-.21,10.74-4.82,21.16-10.27,31.26-16.29-1.42-73.34-61.32-132.35-135.02-132.35ZM1946.78,592.12v.09c-.03,1.04-.09,2.12-.14,3.17-.23,5.19-.61,10.39-1.14,15.56,2.9-2.38,5.76-4.82,8.57-7.34,1.63-6.35,2.81-12.87,3.49-19.55-3.54,2.76-7.11,5.45-10.77,8.07ZM1946.92,576.68c0,.78.02,1.56.03,2.36.03,3.3,0,6.61-.09,9.92,3.73-2.57,7.39-5.22,10.98-7.94.28-3.63.43-7.29.43-10.98v-.07c-3.75,2.31-7.53,4.56-11.36,6.71ZM1945.1,614.65c-.07.66-.14,1.34-.23,1.99-.54,4.41-1.18,8.81-1.93,13.2-.24,1.37-.49,2.72-.75,4.09,4.46-8.24,8.07-17.02,10.72-26.18-2.57,2.36-5.17,4.65-7.82,6.89ZM1933.82,623.83c-1.01.78-2.01,1.54-3.04,2.31-.78.61-1.56,1.2-2.36,1.79-4.51,3.38-9.11,6.61-13.77,9.7-.1.92-.21,1.84-.33,2.76-.17,1.51-.38,3.02-.61,4.54-.33,2.46-.73,4.94-1.16,7.41-1.41,8.07-3.21,16.03-5.41,23.89,8.4-6.73,15.94-14.41,22.48-22.91,1.61-2.06,3.16-4.16,4.61-6.33,2.05-8.95,3.63-18.02,4.7-27.18-1.7,1.37-3.4,2.72-5.12,4.04ZM1940.71,580.53c0-.14,0-.29-.02-.43-4.23,2.29-8.54,4.46-12.89,6.52-.03.02-.05.03-.09.03-2.01.97-4.02,1.93-6.05,2.85-1.94.88-3.89,1.75-5.83,2.58.17,0,.33,0,.5-.02.05,1.42.1,2.83.14,4.27.11,3.68.12,7.37.09,11.07,2.72-1.46,5.45-2.97,8.14-4.51.88-.49,1.75-1.01,2.62-1.51,1.04-.61,2.06-1.21,3.11-1.84,3.49-2.08,6.94-4.23,10.34-6.47.09-4.16.05-8.36-.05-12.54ZM1928.9,603.98c-1.18.75-2.38,1.47-3.57,2.17-2.93,1.79-5.88,3.5-8.85,5.15,0,.92-.03,1.84-.07,2.74-.03,1.44-.09,2.88-.16,4.32-.23,4.93-.59,9.84-1.11,14.74,4.35-2.79,8.66-5.71,12.91-8.76.31-.21.62-.43.94-.66,1.51-1.08,3-2.17,4.49-3.3,1.98-1.47,3.95-2.98,5.9-4.51.64-6.07,1.08-12.18,1.27-18.32.02-.4.03-.8.03-1.21-3.19,2.19-6.42,4.28-9.7,6.33-.69.45-1.39.87-2.08,1.3ZM1899.65,620.01c-1.94.94-3.89,1.84-5.85,2.71-9.7,4.41-19.57,8.26-29.59,11.62.03,1.51.03,3,.02,4.51,0,1.8-.03,3.57-.09,5.34-.12,5.2-.4,10.37-.83,15.54,11.54-4.63,22.83-9.96,33.83-15.98,1.86-1.01,3.7-2.05,5.53-3.11,2.17-1.25,4.34-2.52,6.49-3.83.57-5.74.94-11.52,1.11-17.35.07-1.46.09-2.95.12-4.42v-.43c-3.56,1.87-7.13,3.68-10.74,5.39ZM1856.84,667.63c-1.8.71-3.61,1.42-5.41,2.1-14.1,5.27-28.55,9.61-43.26,13.06-.19.8-.4,1.6-.61,2.39-.56,2.15-1.16,4.28-1.79,6.38-1.25,4.25-2.6,8.46-4.08,12.65.56.1,1.13.19,1.7.28,6.3.9,12.75,1.37,19.31,1.37,9.52,0,18.82-.99,27.79-2.86.26-.05.54-.1.8-.17,2.08-8.57,3.71-17.22,4.87-25.97.26-1.87.49-3.78.69-5.65.14-1.25.28-2.48.38-3.73-.14.05-.26.1-.4.16ZM1800.03,684.63c-12.91,2.74-25.98,4.82-39.15,6.28,11.29,5.83,23.49,10.1,36.34,12.56,1.32-4.04,2.53-8.12,3.64-12.23.59-2.15,1.15-4.34,1.67-6.52.05-.23.1-.45.16-.68-.89.21-1.77.4-2.65.59ZM1858.37,636.21c-1.39.43-2.79.87-4.2,1.28-1.94.59-3.9,1.16-5.86,1.7-11.14,3.11-22.41,5.64-33.81,7.61-.1.85-.19,1.72-.3,2.57-.24,2.12-.5,4.25-.8,6.38-.62,4.54-1.39,9.11-2.25,13.67-.43,2.27-.9,4.54-1.42,6.82,14.05-3.12,27.89-7.08,41.42-11.9,1.84-.66,3.66-1.32,5.48-2.01.37-.14.73-.28,1.09-.42.43-5.72.68-11.47.71-17.23.04-1.8.04-3.63,0-5.45-.02-1.01-.02-2.03-.07-3.04ZM1857.95,625.84c-1.68,1.09-3.42,2.1-5.2,3.02-1.89.99-3.83,1.87-5.83,2.67-7.49,2.98-15.66,4.63-24.22,4.63-2.45,0-4.86-.14-7.23-.42-.12,1.7-.26,3.38-.4,5.08,10.89-1.7,21.68-3.92,32.35-6.68,1.99-.5,3.99-1.04,5.97-1.6,1.61-.45,3.21-.9,4.82-1.39-.05-1.77-.14-3.54-.26-5.33ZM1769.71,609.05c-.07.59-.14,1.16-.21,1.75.54.05,1.06.07,1.6.1-.49-.61-.94-1.23-1.39-1.86ZM1737.01,614.88c-.16-.02-.31-.03-.47-.07l-6.28,4.13-25.9,17.03c1.28,2.32,2.62,4.6,4.04,6.82,8.81.97,17.64,1.67,26.47,2.1,2.27.12,4.54.21,6.82.29,5.13.17,10.25.24,15.37.21,1.99-9.28,3.52-18.73,4.6-28.34-8.22-.47-16.44-1.2-24.65-2.17ZM1762.98,597.43l-17.1,11.24c5.48.66,10.98,1.21,16.48,1.63.35-4.08.64-8.2.85-12.33.02.02.03.05.05.07-.09-.21-.19-.4-.28-.61ZM1742.34,652.52c-2.19-.02-4.39-.07-6.57-.12-7.16-.17-14.33-.52-21.47-1.04,6.59,8.88,14.28,16.91,22.83,23.92,1.94,1.61,3.94,3.16,5.98,4.63,1.11.82,2.22,1.61,3.35,2.38,1.8-4.87,3.45-9.84,4.96-14.85,1.06-3.5,2.06-7.06,2.97-10.63.38-1.46.75-2.9,1.08-4.37-4.35.1-8.74.12-13.11.09Z"/><path class="cls-13" d="M1750.09,684.68c.45-.03.92-.05,1.37-.1-.09.26-.19.52-.31.78-.36-.23-.71-.45-1.06-.68Z"/><path class="cls-13" d="M1751.46,684.58c-.09.26-.19.52-.31.78-.36-.23-.71-.45-1.06-.68.45-.03.92-.05,1.37-.1Z"/></svg>