<svg id="Calque_1" data-name="Calque 1" xmlns="http://www.w3.org/2000/svg" xmlns:xlink="http://www.w3.org/1999/xlink" viewBox="0 0 187 109"><defs><style>.cls-1{fill:none;}.cls-2{clip-path:url(#clip-path);}.cls-3{fill:#7abcd4;}.cls-4{fill:#3e3d40;}.cls-5{fill:#fff;}</style><clipPath id="clip-path"><rect class="cls-1" y="4.38" width="187.06" height="100.24"/></clipPath></defs><g class="cls-2"><rect class="cls-3" x="72.05" y="4.38" width="41.81" height="42.63"/><path class="cls-4" d="M60.42,99.43v.22c0,.8-.05,2.18-.08,2.56a1.78,1.78,0,0,1-1.59,1.7,18.84,18.84,0,0,1-3.86.22c-2.77,0-3.63-.11-4.31-.57a2,2,0,0,1-.78-1.62c0-.33-.06-1.15-.06-2.12,0-2.15.2-3,.88-3.44s1.86-.57,4.69-.57c3,0,4.12.21,4.65.84.34.4.44.89.45,2.08H58c0-.47,0-.57-.19-.68s-.8-.22-2.68-.22c-2.88,0-2.89,0-2.89,2.11,0,1.37.07,1.78.34,2s.42.2,1.11.22l1.44,0c2.1,0,2.55,0,2.77-.24s.17-.28.17-.91H54.79V99.43Z"/><path class="cls-4" d="M69.26,95.93h5.95c2.78,0,2.78,0,3.3.32s.8.91.8,2.31c0,1.2-.14,1.66-.56,2a1.69,1.69,0,0,1-.94.34c1.24.15,1.46.51,1.41,2.38V104H76.8v-.42c0-.91,0-1.2-.24-1.4s-.35-.22-1.37-.22H71.72v2H69.26Zm5.92,4c1.24,0,1.24,0,1.41-.15s.26-.36.26-.87-.09-.77-.35-.88S76.3,98,75.18,98H71.72v2Z"/><path class="cls-4" d="M98.18,96.37c.62.47.8,1.28.8,3.61s-.18,3.12-.8,3.59-1.37.56-4.74.56-4.13-.09-4.74-.56-.8-1.28-.8-3.59.18-3.13.8-3.61,1.35-.56,4.81-.56c3.29,0,4.06.1,4.67.56m-7.63,2a4.13,4.13,0,0,0-.2,1.76c0,1,.08,1.34.37,1.57s.71.29,2.72.29,2.39,0,2.72-.29.37-.57.37-1.53c0-1.21-.08-1.67-.3-1.94s-.53-.36-2.89-.36-2.55,0-2.79.5"/><path class="cls-4" d="M110.22,95.93v3.72a6.89,6.89,0,0,0,.09,1.61c.13.64.6.77,2.71.77,1.68,0,2.19-.07,2.45-.36s.26-.42.3-1.19c0-.27,0-.66,0-.83V95.93h2.45v3.72a18.65,18.65,0,0,1-.12,2.53,2,2,0,0,1-1.67,1.75,16.78,16.78,0,0,1-3.41.2c-3.08,0-4.05-.18-4.66-.82-.39-.41-.53-.9-.59-2.09,0-.26,0-.26,0-1.57V95.93Z"/><path class="cls-4" d="M127.21,95.93h5.53a13.85,13.85,0,0,1,2.19.08c1.53.23,2,.88,2,2.95,0,1.79-.31,2.49-1.29,2.84a8.91,8.91,0,0,1-2.84.23h-3.09v2h-2.46Zm5.53,4.08c1.14,0,1.19,0,1.39-.13s.31-.37.31-.92-.12-.82-.43-.93-.19-.06-1.27-.07h-3.07V100Z"/><path class="cls-4" d="M0,57.43H20c9.38,0,9.38,0,11.13,1.06,2.07,1.26,2.69,3.06,2.69,7.78,0,4-.45,5.58-1.88,6.69a6.12,6.12,0,0,1-3.18,1.14c4.2.48,4.93,1.7,4.77,8v2.53H25.38V83.18c0-3.06-.16-4-.81-4.73s-1.19-.73-4.61-.73H8.27v6.89H0ZM19.92,70.92c4.16-.09,4.16-.09,4.73-.5s.9-1.21.9-2.93-.33-2.6-1.19-3c-.57-.25-.69-.25-4.44-.28H8.27v6.68Z"/><rect class="cls-4" x="36.67" y="57.43" width="8.68" height="27.17"/><path class="cls-4" d="M83.28,74.14c.08,1.62.08,2.2.08,2.77,0,4.15-1.19,6.19-4.16,7.16-2.12.66-5.21.94-10.88.94-11,0-14.38-.32-16.58-1.59-1.79-1-2.61-2.52-2.93-5.29-.12-1.22-.21-3.46-.21-6.93,0-6.07.17-8.31.78-9.82C50.85,57.72,53.82,57,68,57c7.33,0,9.86.29,11.73,1.27,2.28,1.18,3.14,3.18,3.14,7.45v1.43H74.56c-.08-1.79-.17-2.16-.66-2.57s-3-.78-8.26-.78-6.65.17-7.46.82c-1,.81-1.31,2.41-1.31,6.52s.25,5.42,1.27,6.15,2.32.9,7.9.9c8.72,0,8.88-.08,8.92-4.07Z"/><polygon class="cls-4" points="94.85 57.43 94.85 67.17 113.55 67.17 113.55 57.43 122.22 57.43 122.22 84.61 113.55 84.61 113.55 74.78 94.85 74.78 94.85 84.61 86.17 84.61 86.17 57.43 94.85 57.43"/><polygon class="cls-4" points="156.12 57.43 156.12 63.83 134.21 63.83 134.21 67.78 155.02 67.78 155.02 73.77 134.21 73.77 134.21 78.08 156.29 78.08 156.29 84.61 126.06 84.61 126.06 57.43 156.12 57.43"/><polygon class="cls-4" points="167.57 57.43 167.57 77.68 186.88 77.68 186.88 84.61 158.89 84.61 158.89 57.43 167.57 57.43"/><path class="cls-4" d="M179.19,70.76A3.84,3.84,0,1,1,183,74.57a3.81,3.81,0,0,1-3.84-3.81m7.09,0A3.25,3.25,0,1,0,183,74a3.26,3.26,0,0,0,3.25-3.23m-1.43,2.06h-.71l-1.25-1.93h-.7v1.93h-.59V68.64h1.82c.75,0,1.49.21,1.49,1.11s-.58,1.12-1.32,1.14Zm-2-2.52c.52,0,1.43.1,1.43-.56,0-.43-.57-.51-1-.51h-1.11V70.3Z"/><path class="cls-5" d="M93,19.65c7.29,0,13.31,5.32,13.82,12.15h3.34c-.51-8.68-8-15.47-17.16-15.47S76.38,23.12,75.87,31.8h3.34C79.72,25,85.74,19.65,93,19.65"/><path class="cls-5" d="M93,22.23A11.4,11.4,0,0,0,81.69,31.8h3a8.49,8.49,0,0,1,16.51,0h3A11.39,11.39,0,0,0,93,22.23"/></g></svg>