<?xml version="1.0" encoding="UTF-8"?>
<svg id="Layer_2" data-name="Layer 2" xmlns="http://www.w3.org/2000/svg" xmlns:xlink="http://www.w3.org/1999/xlink" viewBox="0 0 936 216">
  <defs>
    <style>
      .cls-1, .cls-2 {
        fill: none;
      }

      .cls-3 {
        fill: #73777c;
      }

      .cls-2 {
        stroke: #73777c;
        stroke-miterlimit: 10;
        stroke-width: .75px;
      }

      .cls-4 {
        fill: #49a942;
      }

      .cls-5 {
        clip-path: url(#clippath);
      }
    </style>
    <clipPath id="clippath">
      <rect class="cls-1" x="45" y="35.26" width="846" height="145.47"/>
    </clipPath>
  </defs>
  <polygon class="cls-4" points="361.17 35.37 325.62 81.52 290.08 35.37 264.17 35.37 299.78 81.61 264.17 127.84 290.08 127.84 325.62 81.69 361.17 127.84 387.07 127.84 351.46 81.61 387.07 35.37 361.17 35.37"/>
  <g class="cls-5">
    <path class="cls-3" d="M259.91,63.14c0,23.86-12.63,28.07-30.83,28.07h-32.91l-.07-19.45h41.41v-17.25h-54.99l.03,73.36h-23.41V35.32h69.85c20.06,0,30.93,4.91,30.93,27.83M114.42,72.03h-47.26v-17.44h73.87s0-19.27,0-19.27h-67.06c-20.83,0-28.97,7.03-28.97,28.3s8.13,27.68,28.9,27.68h47.26v17.4H45.18s0,19.27,0,19.27h69.17c20.84,0,28.97-6.7,28.97-27.96s-8.13-27.98-28.9-27.98M708.96,63.09c0-22.91-10.86-27.82-30.93-27.82h-38.92c-20.07,0-30.93,4.91-30.93,27.82v36.99c0,22.91,10.86,27.82,30.93,27.82h38.92c20.07,0,30.93-4.91,30.93-27.82v-36.99ZM686.56,108.63h-55.98v-54.17h55.98v54.17ZM536.35,127.95h57.64v-19.2h-65.19l.03-73.36h-23.42v64.73c0,22.92,10.87,27.83,30.93,27.83M400.47,127.93h23.41v-36.66s45.04,0,45.04,0l.07-19.45h-45.14v-17.25h65.76v-19.2h-89.14v92.56ZM837.12,35.32v74.99s-32.95,0-32.95,0V35.32h-21.82v74.99h-32.87V35.32s-23.4,0-23.4,0v63.56c0,20.83,7.03,28.96,28.28,28.96h72.32c21.25,0,33.85-8.13,33.85-28.96v-63.56h-23.41ZM881.55,40.16c2.1,0,3.5,1.35,3.5,3.36,0,1.02-.41,2.36-2.08,2.92l2.35,4.33h-2.27l-2.09-3.93h-1.79v3.93h-1.97v-10.61h4.35ZM879.18,45.19h1.52c1.44,0,2.34-.43,2.34-1.68,0-1.14-.78-1.63-2.07-1.63h-1.79v3.31ZM870.68,45.43c0,5.6,4.56,10.17,10.16,10.17s10.16-4.57,10.16-10.17-4.55-10.17-10.16-10.17-10.16,4.56-10.16,10.17M872.34,45.43c0-4.69,3.81-8.5,8.5-8.5s8.51,3.82,8.51,8.5-3.82,8.51-8.51,8.51-8.5-3.82-8.5-8.51"/>
    <line class="cls-2" x1="630.9" y1="165.25" x2="45" y2="165.25"/>
    <path class="cls-3" d="M650.19,153.76h3.5l8.05,20.53h-3.11l-1.98-5.27h-9.77l-1.98,5.27h-2.9l8.19-20.53ZM651.88,156.28l-4.07,10.44h8.02l-3.94-10.44Z"/>
    <path class="cls-3" d="M676.66,165.32v8.97h-2.74v-8.35c0-1.52-.27-2.65-.81-3.39-.54-.74-1.38-1.1-2.5-1.1-1.24,0-2.21.46-2.92,1.39-.71.93-1.07,2.22-1.07,3.88v7.57h-2.74v-14.85h2.51v2.75c.55-1.03,1.25-1.81,2.12-2.33.87-.52,1.88-.78,3.05-.78,1.67,0,2.94.53,3.81,1.59.86,1.06,1.29,2.61,1.29,4.65"/>
    <rect class="cls-3" x="689.82" y="153.76" width="2.88" height="20.53"/>
    <polygon class="cls-3" points="695.5 153.76 709.89 153.76 709.89 156.16 704.14 156.16 704.14 174.29 701.25 174.29 701.25 156.16 695.5 156.16 695.5 153.76"/>
    <polygon class="cls-3" points="711.09 153.76 725.48 153.76 725.48 156.16 719.73 156.16 719.73 174.29 716.84 174.29 716.84 156.16 711.09 156.16 711.09 153.76"/>
    <path class="cls-3" d="M751.51,154.5l-.12,2.49c-.79-.33-1.56-.57-2.32-.74-.76-.16-1.53-.25-2.31-.25-2.47,0-4.42.72-5.87,2.16-1.45,1.44-2.18,3.38-2.18,5.83s.72,4.42,2.17,5.84c1.44,1.42,3.41,2.13,5.91,2.13.79,0,1.56-.08,2.31-.22.75-.15,1.49-.37,2.23-.66l.09,2.57c-.71.23-1.48.41-2.28.53-.81.12-1.67.18-2.57.18-3.36,0-6.01-.91-7.95-2.74-1.94-1.83-2.91-4.31-2.91-7.46s.99-5.73,2.97-7.61c1.98-1.89,4.64-2.83,7.98-2.83.9,0,1.75.06,2.56.19.81.13,1.58.33,2.29.6"/>
    <path class="cls-3" d="M760.94,159.08c2.28,0,4.08.69,5.4,2.09,1.32,1.39,1.97,3.29,1.97,5.7s-.66,4.28-1.99,5.68c-1.32,1.4-3.12,2.1-5.38,2.1s-4.05-.7-5.37-2.1c-1.32-1.4-1.97-3.29-1.97-5.69s.66-4.31,1.97-5.7c1.31-1.39,3.1-2.09,5.37-2.09M760.97,161.19c-1.32,0-2.39.52-3.21,1.55-.82,1.04-1.23,2.4-1.23,4.1s.41,3.03,1.23,4.06c.82,1.04,1.89,1.55,3.21,1.55s2.41-.51,3.22-1.53c.81-1.02,1.21-2.38,1.21-4.09s-.41-3.09-1.21-4.11c-.81-1.03-1.88-1.54-3.22-1.54"/>
    <path class="cls-3" d="M783.9,162.34c.55-1.06,1.25-1.87,2.1-2.41.85-.55,1.83-.82,2.93-.82,1.56,0,2.74.53,3.55,1.59.82,1.06,1.22,2.6,1.22,4.62v8.97h-2.74v-8.35c0-1.5-.24-2.6-.71-3.32-.47-.72-1.2-1.08-2.17-1.08-1.2,0-2.13.46-2.81,1.37-.68.92-1.02,2.18-1.02,3.81v7.57h-2.74v-8.35c0-1.55-.23-2.67-.71-3.37-.47-.69-1.23-1.04-2.28-1.04-1.1,0-2,.47-2.67,1.4-.68.93-1.02,2.2-1.02,3.78v7.57h-2.75v-14.85h2.54v2.75c.53-1,1.21-1.77,2.04-2.29.84-.53,1.79-.79,2.85-.79s1.93.28,2.67.83c.74.55,1.31,1.36,1.69,2.41"/>
    <path class="cls-3" d="M800.99,171.89v8.58h-2.75v-21.03h2.49v2.88c.58-1.05,1.31-1.85,2.21-2.4.9-.56,1.91-.83,3.03-.83,1.82,0,3.29.68,4.42,2.06,1.13,1.37,1.69,3.18,1.69,5.42,0,2.43-.57,4.36-1.71,5.8-1.13,1.44-2.65,2.16-4.53,2.16-1.05,0-1.99-.22-2.8-.66-.82-.45-1.5-1.1-2.05-1.97M809.2,166.75c0-1.69-.35-3.02-1.06-3.99-.71-.97-1.68-1.45-2.91-1.45s-2.3.5-3.07,1.5c-.78,1-1.16,2.32-1.16,3.98s.37,3.09,1.12,4.09c.75,1,1.74,1.5,3,1.5s2.25-.5,2.98-1.51c.74-1.01,1.1-2.38,1.1-4.11"/>
    <path class="cls-3" d="M826.89,165.26v9.03h-2.54v-2.48c-.57.91-1.28,1.58-2.12,2.02-.84.44-1.82.66-2.93.66-1.4,0-2.54-.4-3.4-1.21-.87-.81-1.3-1.86-1.3-3.16,0-1.62.66-2.85,1.96-3.71,1.31-.86,3.2-1.28,5.66-1.28h1.91v-.29c0-1.16-.32-2.06-.96-2.7-.64-.64-1.53-.96-2.66-.96-.64,0-1.3.1-1.99.31-.69.21-1.39.52-2.11.93l-.03-2.25c.74-.36,1.52-.62,2.34-.8.82-.18,1.69-.27,2.63-.27,1.84,0,3.22.51,4.15,1.55.93,1.03,1.39,2.58,1.39,4.64M822.42,166.95c-1.63,0-2.89.26-3.76.78-.87.52-1.31,1.27-1.31,2.24,0,.74.25,1.35.74,1.83.49.47,1.14.71,1.93.71,1.25,0,2.24-.4,2.99-1.21.75-.81,1.13-1.89,1.13-3.25v-1.1h-1.72Z"/>
    <path class="cls-3" d="M844.29,165.32v8.97h-2.74v-8.35c0-1.52-.27-2.65-.81-3.39-.54-.74-1.38-1.1-2.5-1.1-1.24,0-2.21.46-2.92,1.39-.71.93-1.06,2.22-1.06,3.88v7.57h-2.75v-14.85h2.51v2.75c.55-1.03,1.26-1.81,2.12-2.33.87-.52,1.88-.78,3.05-.78,1.67,0,2.94.53,3.81,1.59.86,1.06,1.29,2.61,1.29,4.65"/>
    <path class="cls-3" d="M846.77,159.44h2.95l4.03,12.19,3.99-12.19h2.79l-5.9,16.35c-.63,1.81-1.35,3.09-2.16,3.83-.8.74-1.84,1.11-3.1,1.11-.29,0-.59-.02-.89-.05-.3-.04-.61-.09-.92-.16l.23-2.28c.24.07.47.12.68.15s.42.04.62.04c.68,0,1.26-.28,1.77-.83.5-.56,1-1.47,1.49-2.75l-5.59-15.41Z"/>
  </g>
</svg>