<svg width="513" height="100" viewBox="0 0 513 100" xmlns="http://www.w3.org/2000/svg" xmlns:xlink="http://www.w3.org/1999/xlink">
    <defs>
        <path id="u2fulsjcaa" d="M.06.213h65.033v24.976H.06z"/>
    </defs>
    <g fill="none" fill-rule="evenodd">
        <g fill="#5A5A5A">
            <path d="M103.721 83.209v-3.705h16.077v2.394c0 10.375-5.644 17.102-15.278 17.102-10.376 0-16.817-7.867-16.817-17.843 0-10.091 6.669-17.9 17.045-17.9 8.322 0 12.085 4.504 12.085 4.504l-2.337 3.021s-3.478-3.762-9.748-3.762c-8.038 0-12.941 6.384-12.941 14.137 0 7.697 4.732 14.081 12.713 14.081 6.726 0 11.287-4.732 11.287-11.8v-.229h-12.086M124.752 98.202h3.933V63.713h-3.933zM153.499 86.288c0-5.758-3.763-9.406-8.152-9.406-4.389 0-8.152 3.648-8.152 9.406 0 5.815 3.763 9.292 8.152 9.292 4.389 0 8.152-3.477 8.152-9.292zm-8.152 12.484c-6.67 0-12.029-4.789-12.029-12.427 0-7.639 5.359-12.656 12.029-12.656 6.613 0 12.085 5.017 12.085 12.656 0 7.638-5.472 12.427-12.085 12.427zM173.818 95.466c4.504 0 7.924-3.819 7.924-9.236 0-5.472-3.42-9.234-7.924-9.234-4.389 0-8.095 3.42-8.095 9.234 0 5.815 3.706 9.236 8.095 9.236zm-7.867-31.753v14.138h.171s1.825-4.162 8.551-4.162c6.157 0 11.06 5.074 11.06 12.541 0 7.583-4.903 12.542-11.174 12.542-7.011 0-9.064-4.731-9.064-4.731h-.171l-.456 4.161h-2.85V63.713h3.933zM201.52 76.996c-4.504 0-7.981 3.762-7.981 9.234 0 5.417 3.477 9.236 7.981 9.236 4.446 0 8.152-3.421 8.152-9.236 0-5.814-3.706-9.234-8.152-9.234zm9.064-2.736h2.736v23.942h-2.736l-.57-3.819h-.171s-2.223 4.389-9.007 4.389c-6.328 0-11.288-4.959-11.288-12.542 0-7.467 4.903-12.541 11.117-12.541 6.955 0 9.178 4.39 9.178 4.39h.171l.57-3.819zM219.41 98.202h3.933V63.713h-3.933zM244.605 94.497h7.183c7.696 0 13.568-4.96 13.568-13.397 0-8.437-5.872-13.397-13.568-13.397h-7.183v26.794zm7.41 3.705h-11.401V63.998h11.401c10.377 0 17.389 6.613 17.389 17.102 0 10.49-7.012 17.102-17.389 17.102zM284.814 76.996c-4.504 0-7.982 3.762-7.982 9.234 0 5.417 3.478 9.236 7.982 9.236 4.446 0 8.151-3.421 8.151-9.236 0-5.814-3.705-9.234-8.151-9.234zm9.063-2.736h2.736v23.942h-2.736l-.569-3.819h-.172s-2.223 4.389-9.007 4.389c-6.327 0-11.287-4.959-11.287-12.542 0-7.467 4.902-12.541 11.116-12.541 6.955 0 9.178 4.39 9.178 4.39h.172l.569-3.819zM304.276 66.963h3.934v7.297h7.126v3.191h-7.126v14.081c0 2.509 1.141 3.877 3.534 3.877 1.768 0 3.535-1.083 3.535-1.083l1.311 2.85s-2.052 1.596-5.188 1.596c-4.902 0-7.126-2.793-7.126-7.296V77.451h-4.502V74.26h4.502v-7.297M329.529 76.996c-4.504 0-7.982 3.762-7.982 9.234 0 5.417 3.478 9.236 7.982 9.236 4.446 0 8.151-3.421 8.151-9.236 0-5.814-3.705-9.234-8.151-9.234zm9.063-2.736h2.736v23.942h-2.736l-.569-3.819h-.172s-2.223 4.389-9.007 4.389c-6.327 0-11.287-4.959-11.287-12.542 0-7.467 4.902-12.541 11.116-12.541 6.955 0 9.178 4.39 9.178 4.39h.172l.569-3.819zM371.937 99c-10.148 0-17.046-7.867-17.046-17.843 0-10.091 6.898-17.9 17.046-17.9 7.695 0 11.343 4.39 11.343 4.39L381 70.725s-3.42-3.705-9.007-3.705c-7.696 0-12.998 6.384-12.998 14.137 0 7.697 5.302 14.081 12.998 14.081 5.587 0 9.007-3.706 9.007-3.706l2.28 3.078S379.632 99 371.937 99M389.238 83.381h13.569c-.571-4.162-2.794-6.328-6.556-6.328-3.82 0-6.271 2.052-7.013 6.328zm7.925 15.448c-7.469 0-12.086-5.073-12.086-12.541 0-7.24 4.39-12.599 11.231-12.599 6.897 0 10.546 5.245 10.546 11.915v.968h-17.843c.114 5.872 3.705 8.894 8.38 8.894 4.389 0 6.784-2.28 6.784-2.28l1.481 2.85s-2.507 2.793-8.493 2.793zM414.005 74.26l.342 3.534h.285c1.596-2.565 4.047-4.105 8.38-4.105 6.27 0 9.919 4.503 9.919 11.002v13.511h-3.934V85.147c0-4.617-2.337-8.151-6.841-8.151-4.845 0-6.897 4.047-7.011 6.84v14.366h-3.934V74.26h2.794M439.665 66.963h3.934v7.297h7.126v3.191h-7.126v14.081c0 2.509 1.14 3.877 3.534 3.877 1.768 0 3.535-1.083 3.535-1.083l1.311 2.85s-2.052 1.596-5.188 1.596c-4.902 0-7.126-2.793-7.126-7.296V77.451h-4.503V74.26h4.503v-7.297M465.715 77.395c-3.478 0-6.441 2.85-6.441 6.669v14.138h-3.934V74.26h2.794l.342 4.218h.227c1.141-2.737 3.82-4.276 6.955-4.276h1.368v3.193h-1.311M472.668 83.381h13.568c-.57-4.162-2.794-6.328-6.555-6.328-3.821 0-6.272 2.052-7.013 6.328zm7.925 15.448c-7.469 0-12.086-5.073-12.086-12.541 0-7.24 4.39-12.599 11.23-12.599 6.898 0 10.546 5.245 10.546 11.915v.968h-17.842c.114 5.872 3.705 8.894 8.379 8.894 4.39 0 6.785-2.28 6.785-2.28l1.481 2.85s-2.508 2.793-8.493 2.793zM503.392 95.409c3.933 0 5.472-1.482 5.472-3.535 0-5.358-15.391-2.793-15.391-11.401 0-3.762 2.736-6.784 8.836-6.784 6.042 0 9.463 1.938 9.463 1.938l-1.597 3.364s-2.964-1.938-7.524-1.938c-3.706 0-5.53 1.083-5.53 3.306 0 5.13 15.392 2.166 15.392 11.344 0 3.706-2.509 7.069-9.236 7.069-6.784 0-9.804-2.964-9.804-2.964l1.766-2.737s3.25 2.338 8.153 2.338M88.316 47.713l3.997-5.689c2.406 2.511 6.154 4.67 10.866 4.67 4.06 0 5.954-1.796 5.954-3.798 0-5.941-19.69-1.799-19.69-14.663 0-5.692 4.922-10.408 12.972-10.408 5.43 0 9.939 1.639 13.334 4.772l-4.057 5.432c-2.769-2.562-6.458-3.746-9.942-3.746-3.08 0-4.816 1.335-4.816 3.385 0 5.385 19.631 1.745 19.631 14.511 0 6.258-4.516 10.977-13.691 10.977-6.609 0-11.334-2.209-14.558-5.443M128.663 52.536v-27.79h-9.998V18.34h27.28v6.406h-9.949v27.79h-7.333M159.913 52.534V24.668H149.89v-6.426h27.348v6.426h-9.968v27.866h-7.357M187.982 32.431c-4.054 0-5.813 2.827-6.069 5.294h12.243c-.21-2.362-1.855-5.294-6.174-5.294m-12.855 7.657c0-7.196 5.351-13.002 12.855-13.002 7.461 0 12.449 5.55 12.449 13.624v1.541h-18.462c.462 3.034 2.936 5.55 7.147 5.55 2.104 0 4.987-.871 6.583-2.414l2.926 4.321c-2.467 2.265-6.373 3.448-10.227 3.448-7.559 0-13.271-5.099-13.271-13.068M205.156 46.314V18.242h6.527v26.322c0 1.592.819 2.775 2.261 2.775.983 0 1.904-.357 2.264-.766l1.386 4.983c-.973.872-2.768 1.6-5.449 1.6-4.571 0-6.989-2.369-6.989-6.842M231.734 32.431c-4.06 0-5.81 2.827-6.062 5.294H237.9c-.203-2.362-1.841-5.294-6.166-5.294m-12.849 7.657c0-7.196 5.341-13.002 12.849-13.002 7.454 0 12.438 5.55 12.438 13.624v1.541h-18.451c.462 3.034 2.926 5.55 7.146 5.55 2.104 0 4.981-.871 6.58-2.414l2.936 4.321c-2.474 2.265-6.383 3.448-10.24 3.448-7.553 0-13.258-5.099-13.258-13.068M279.699 52.534v-15.68c0-2.317-1.028-3.962-3.699-3.962-2.317 0-4.214 1.544-5.142 2.884v16.758h-6.583v-15.68c0-2.317-1.025-3.962-3.702-3.962-2.261 0-4.159 1.544-5.142 2.884v16.758h-6.527V27.699h6.527v3.188c1.082-1.442 4.322-3.801 8.127-3.801 3.65 0 6.013 1.697 6.884 4.469 1.452-2.205 4.738-4.469 8.54-4.469 4.571 0 7.303 2.418 7.303 7.504v17.944h-6.586M304.019 32.431c-4.06 0-5.816 2.827-6.068 5.294h12.235c-.203-2.362-1.848-5.294-6.167-5.294m-12.857 7.657c0-7.196 5.354-13.002 12.857-13.002 7.455 0 12.439 5.55 12.439 13.624v1.541h-18.455c.469 3.034 2.933 5.55 7.14 5.55 2.111 0 4.994-.871 6.583-2.414l2.927 4.321c-2.461 2.265-6.374 3.448-10.224 3.448-7.556 0-13.267-5.099-13.267-13.068M338.255 44.512v-8.795c-1.075-1.638-3.447-2.825-5.597-2.825-3.761 0-6.327 2.929-6.327 7.196 0 4.322 2.566 7.251 6.327 7.251 2.15 0 4.522-1.179 5.597-2.827m0 8.022v-3.193c-1.953 2.472-4.627 3.815-7.661 3.815-6.219 0-10.996-4.735-10.996-13.068 0-8.068 4.672-13.002 10.996-13.002 2.93 0 5.708 1.232 7.661 3.801V18.242h6.584v34.292h-6.584M381.384 44.512v-8.736c-1.071-1.651-3.434-2.884-5.596-2.884-3.756 0-6.328 2.929-6.328 7.196 0 4.322 2.572 7.251 6.328 7.251 2.162 0 4.525-1.179 5.596-2.827m0 8.022v-3.193c-1.946 2.472-4.623 3.815-7.657 3.815-6.22 0-11.001-4.735-11.001-13.068 0-8.068 4.673-13.002 11.001-13.002 2.935 0 5.655 1.232 7.657 3.801v-3.188h6.58v24.835h-6.58M351.399 52.533h6.343V28.392h-6.343z"/>
        </g>
        <path d="M35.327 21.306S33.069 6.796 33.049.229a37.955 37.955 0 0 1 4.552 0c-.007 6.567-2.274 21.077-2.274 21.077M38.961 21.888C39 15.555 37.984 6.73 38.413.292c1.528.127 3.025.359 4.493.678-.419 4.414-1.677 13.215-3.945 20.918M31.696 21.888C29.432 14.185 28.177 5.384 27.751.97a34.805 34.805 0 0 1 4.496-.678c.425 6.438-.593 15.263-.551 21.596M35.327 49.672s2.267 14.513 2.284 21.073a32.75 32.75 0 0 1-2.284.073c-.754 0-1.52-.02-2.278-.073.02-6.56 2.278-21.073 2.278-21.073M31.696 49.092c-.042 6.338.976 15.152.551 21.591a34.984 34.984 0 0 1-4.496-.682c.426-4.406 1.681-13.208 3.945-20.909M38.961 49.092c2.268 7.701 3.526 16.503 3.945 20.909a34.832 34.832 0 0 1-4.493.682c-.429-6.439.587-15.253.548-21.591M25.29 25.453S13.434 16.796 8.789 12.164a33.687 33.687 0 0 1 1.556-1.656 33.741 33.741 0 0 1 1.661-1.563c4.634 4.65 13.284 16.508 13.284 16.508M28.275 23.294c-4.44-4.499-11.406-10.024-15.65-14.876a35.909 35.909 0 0 1 3.657-2.693c2.815 3.421 8.153 10.537 11.993 17.569M23.134 28.445c-7.032-3.856-14.146-9.195-17.56-12.009a33.817 33.817 0 0 1 2.69-3.657c4.85 4.254 10.375 11.213 14.87 15.666M45.367 45.524s11.849 8.654 16.498 13.288a32.505 32.505 0 0 1-1.559 1.658 35.738 35.738 0 0 1-1.658 1.559c-4.63-4.646-13.281-16.505-13.281-16.505M42.372 47.68c4.453 4.512 11.413 10.023 15.67 14.88a36.088 36.088 0 0 1-3.661 2.691c-2.815-3.421-8.149-10.532-12.009-17.571" fill="#D62828"/>
        <g transform="translate(0 33)">
            <mask id="4f0h34dc5b" fill="#fff">
                <use xlink:href="#u2fulsjcaa"/>
            </mask>
            <path d="M47.527 9.533c7.028 3.854 14.145 9.184 17.566 12.003a33.517 33.517 0 0 1-2.703 3.653c-4.85-4.24-10.368-11.207-14.863-15.656M21.145 2.487S6.636 4.756.079 4.761A34.83 34.83 0 0 1 0 2.487C0 1.72.03.961.079.213c6.557 0 21.066 2.274 21.066 2.274" fill="#DC4033" mask="url(#4f0h34dc5b)"/>
        </g>
        <path d="M21.725 31.85c-6.334-.039-15.155.98-21.591.551.128-1.521.361-3.025.682-4.496 4.411.432 13.209 1.684 20.909 3.945M21.725 39.125c-7.7 2.261-16.498 3.516-20.909 3.932a34.055 34.055 0 0 1-.682-4.483c6.436-.428 15.257.59 21.591.551M49.512 35.487s14.51-2.274 21.073-2.28a37.41 37.41 0 0 1 0 4.554c-6.563-.005-21.073-2.274-21.073-2.274M48.929 39.125c6.327.039 15.161-.979 21.597-.551a34.391 34.391 0 0 1-.682 4.483c-4.407-.416-13.211-1.671-20.915-3.932M48.929 31.85c7.704-2.261 16.508-3.513 20.915-3.945.325 1.471.548 2.975.682 4.496-6.436.429-15.27-.59-21.597-.551M25.29 45.524s-8.65 11.859-13.284 16.505a37.95 37.95 0 0 1-1.661-1.559 40.831 40.831 0 0 1-1.556-1.658c4.645-4.634 16.501-13.288 16.501-13.288M23.134 42.533c-4.495 4.449-10.02 11.416-14.87 15.656a33.004 33.004 0 0 1-2.69-3.653c3.414-2.819 10.528-8.149 17.56-12.003M28.275 47.68c-3.84 7.039-9.178 14.15-11.993 17.571a36.04 36.04 0 0 1-3.657-2.691c4.244-4.857 11.21-10.368 15.65-14.88M45.367 25.453s8.651-11.858 13.281-16.508a31.98 31.98 0 0 1 1.658 1.563 27.811 27.811 0 0 1 1.559 1.656c-4.649 4.632-16.498 13.289-16.498 13.289M47.527 28.445c4.495-4.453 10.013-11.412 14.863-15.666a34.354 34.354 0 0 1 2.703 3.657c-3.421 2.814-10.538 8.153-17.566 12.009M42.372 23.294c3.86-7.032 9.194-14.148 12.009-17.569a35.957 35.957 0 0 1 3.661 2.693c-4.257 4.852-11.217 10.377-15.67 14.876M350.802 21.99c0-2.094 1.7-3.742 3.748-3.742 2.094 0 3.802 1.648 3.802 3.742a3.8 3.8 0 0 1-3.802 3.798c-2.048 0-3.748-1.696-3.748-3.798" fill="#D62828"/>
    </g>
</svg>
