<?xml version="1.0" encoding="UTF-8"?>
<svg id="Layer_1" xmlns="http://www.w3.org/2000/svg" version="1.1" viewBox="0 0 1089.23 168.13">
  <!-- Generator: Adobe Illustrator 29.4.0, SVG Export Plug-In . SVG Version: 2.1.0 Build 152)  -->
  <defs>
    <style>
      .st0 {
        fill: none;
      }

      .st1 {
        fill: #7e7c7b;
      }

      .st2 {
        fill: #f15c37;
      }

      .st3 {
        fill: #6d6e71;
        font-family: ArialMT, Arial;
        font-size: 21px;
      }
    </style>
  </defs>
  <path class="st1" d="M4.21,137.82h2.49c1.82,8.18,6.13,16.56,7.98,17.93,2.93,2.52,8.16,4.54,14.51,4.54,11.35,0,22.23-5.68,22.23-18.85C51.41,113.08.81,117.86.81,85.63c0-12.51,11.55-29.97,39.72-29.97,5.43,0,19.06,1.59,23.6,2.71l-1.35,23.84h-2.51l-3.4-8.18c-2.75-6.34-5.91-12.26-20.2-12.26-11.6,0-18.62,8.18-18.62,17.25,0,27.02,50.62,19.77,50.62,56.08,0,13.6-9.08,31.31-45.17,31.31-8.39,0-14.76-1.37-20.66-2.05l1.37-26.56Z"/>
  <path class="st1" d="M101.8,65.64h-18.17v-4.07c12.5-2.95,27.71-14.76,32.24-28.61h3.18v26.57h26.09v6.12h-26.09v76.72c0,10.44,7.05,14.31,11.36,14.31,6.55,0,12.93-5.01,16.79-8.86l3.39,4.3c-14.28,11.34-21.55,14.74-31.77,14.74-5.91,0-17.71-2.71-17.71-21.1,0-10.21.69-29.26.69-41.98v-38.14Z"/>
  <path class="st1" d="M244.55,103.54c0-34.5-.22-35.39-4.96-36.76l-14.32-3.85v-3.18c12.71,0,25.21-.92,37.46-1.83-.23,7.05-.91,14.3-.91,20.89v32.69c0,41.77.23,43.56,3.65,44.7l13.81,4.77v3.18c-4.76-.9-11.12-1.81-18.37-1.81-6.82,0-12.49.91-17.04,1.81.23-6.34.23-12.49.45-17.93h-.45c-8.39,14.98-24.51,20.2-37.91,20.2-21.09,0-32.46-9.54-32.46-29.96,0-10.2.68-20.43.68-32.92,0-34.5-.22-35.39-4.98-36.76l-14.32-3.85v-3.18c12.73,0,25.2-.92,37.47-1.83-.22,7.05-.92,14.3-.92,20.89v52.89c0,18.16,11.12,25.87,24.3,25.87,16.57,0,28.8-12.7,28.8-29.05v-24.97Z"/>
  <path class="st1" d="M334.9,55.66c11.59,0,20.66,3.63,28.83,8.84l-.45-29.5c-.23-9.53-.9-17.7-1.6-19.29-.44-1.12-2.02-2.02-3.61-2.49l-13.39-4.3v-3.19c12.49,0,24.95-.45,37.22-1.82-.45,15.45-1.36,30.86-1.36,46.3v97.84c0,3.63.7,7.71,5.21,9.08l13.42,3.86v3.18c-5.44-.91-10.67-1.81-16.12-1.81-6.58,0-13.15.9-19.74,1.81.45-5.9.67-11.81.67-17.26h-.44c-7.72,12.49-17.71,19.52-35.43,19.52-22.23,0-41.53-19.52-41.53-50.59,0-33.61,22.02-60.16,48.35-60.16M333.54,61.78c-11.12,0-27.92,11.81-27.92,43.58,0,34.27,15.46,52.21,29.97,52.21,21.56,0,27.69-16.13,27.69-44.25,0-31.34-8.16-51.53-29.73-51.53"/>
  <path class="st1" d="M412.28,160.97l12.95-4.09c4.99-1.59,5.69-4.08,5.69-39.71,0-47.46-1.14-49.03-7.03-50.86l-11.61-3.4v-3.18c12.49,0,24.99-.45,37.24-1.83-.45,3.19-1.38,22.69-1.38,36.79v45.38c0,11.11,1.15,15.2,7.28,17.25l11.34,3.63v3.18c-9.3-.9-18.83-1.81-28.14-1.81s-18.16.91-26.34,1.81v-3.18ZM449.75,22.75c0,6.81-5.45,12.5-12.26,12.5s-12.26-5.68-12.26-12.27,5.46-12.26,12.26-12.26,12.26,5.45,12.26,12.03"/>
  <path class="st1" d="M531.01,166.42c-31.33,0-51.75-23.16-51.75-54.7s21.79-56.05,54.7-56.05c30.62,0,50.61,22.01,50.61,52.19s-18.41,58.56-53.56,58.56M533.96,161.66c24.05,0,30.17-29.06,30.17-49.02s-7.71-52.22-32.68-52.22c-22.92,0-31.77,21.12-31.77,47.45,0,29.95,11.82,53.79,34.28,53.79"/>
  <path class="st2" d="M617.92,35c0-9.53-.9-17.7-1.59-19.29-.46-1.12-2.03-2.02-3.63-2.49l-13.39-4.3v-3.19c12.46,0,24.98-.45,37.25-1.82-.48,15.45-1.39,30.86-1.39,46.3v89.89c0,11.12.45,14.97,7.5,17.25l11.11,3.64v3.18c-9.08-.91-18.61-1.81-27.91-1.81s-18.16.9-26.56,1.81v-3.18l10.66-3.64c7.04-2.28,7.94-6.13,7.94-17.25V35Z"/>
  <path class="st2" d="M718.03,166.42c-31.33,0-51.75-23.16-51.75-54.7s21.79-56.05,54.69-56.05c30.65,0,50.64,22.01,50.64,52.19s-18.4,58.56-53.57,58.56M720.97,161.66c24.07,0,30.2-29.06,30.2-49.02s-7.73-52.22-32.69-52.22c-22.92,0-31.78,21.12-31.78,47.45,0,29.95,11.81,53.79,34.27,53.79"/>
  <path class="st2" d="M802.68,65.64h-18.14v-4.07c12.47-2.95,27.69-14.76,32.24-28.61h3.16v26.57h26.11v6.12h-26.11v76.72c0,10.44,7.05,14.31,11.35,14.31,6.58,0,12.93-5.01,16.8-8.86l3.4,4.3c-14.29,11.34-21.54,14.74-31.78,14.74-5.87,0-17.7-2.71-17.7-21.1,0-10.21.68-29.26.68-41.98v-38.14Z"/>
  <path class="st2" d="M948.87,103.54c0-34.5-.25-35.39-5.02-36.76l-14.29-3.85v-3.18c12.7,0,25.2-.92,37.45-1.83-.22,7.05-.91,14.3-.91,20.89v32.69c0,41.77.22,43.56,3.63,44.7l13.84,4.77v3.18c-4.76-.9-11.11-1.81-18.41-1.81-6.77,0-12.47.91-17.01,1.81.24-6.34.24-12.49.46-17.93h-.46c-8.38,14.98-24.48,20.2-37.9,20.2-21.1,0-32.43-9.54-32.43-29.96,0-10.2.66-20.43.66-32.92,0-34.5-.21-35.39-4.98-36.76l-14.29-3.85v-3.18c12.69,0,25.18-.92,37.43-1.83-.22,7.05-.91,14.3-.91,20.89v52.89c0,18.16,11.14,25.87,24.32,25.87,16.55,0,28.82-12.7,28.82-29.05v-24.97Z"/>
  <path class="st2" d="M999.7,137.82h2.5c1.8,8.18,6.12,16.56,7.95,17.93,2.95,2.52,8.17,4.54,14.51,4.54,11.35,0,22.24-5.68,22.24-18.85,0-28.37-50.6-23.58-50.6-55.81,0-12.51,11.57-29.97,39.71-29.97,5.46,0,19.08,1.59,23.61,2.71l-1.35,23.84h-2.53l-3.38-8.18c-2.73-6.34-5.9-12.26-20.21-12.26-11.58,0-18.61,8.18-18.61,17.25,0,27.02,50.61,19.77,50.61,56.08,0,13.6-9.08,31.31-45.18,31.31-8.38,0-14.75-1.37-20.64-2.05l1.36-26.56Z"/>
  <rect id="_x3C_Slice_x3E_" class="st0" x="-17.39" y="-9.09" width="1113.04" height="200.22"/>
  <text class="st3" transform="translate(1057.2 50.28)"><tspan x="0" y="0">TM</tspan></text>
</svg>