<svg xmlns="http://www.w3.org/2000/svg" fill="none" viewBox="0 0 667 292" height="292" width="667">
<rect fill="white" height="292" width="666.667"></rect>
<path fill="#1480C1" d="M493.998 2.13434C477.732 6.26767 469.332 15.0677 469.332 27.8677C469.332 37.3343 476.798 44.2677 490.398 47.4677C495.332 48.6677 498.665 51.8677 498.665 55.3343C498.665 58.9343 496.398 61.0677 490.665 62.6677C484.665 64.401 480.398 62.401 478.932 57.0677L477.865 52.6677L467.465 52.2677L456.932 51.8677L457.865 57.601C459.198 66.001 462.665 70.9343 469.332 74.401C474.398 77.0677 476.798 77.4677 485.465 76.9343C501.198 76.1343 513.465 68.801 518.665 57.0677C523.732 45.4677 516.265 34.2677 501.332 31.3343C491.598 29.3343 487.598 23.201 492.798 18.1343C497.065 13.7343 507.998 16.9343 507.998 22.401C507.998 23.4677 511.332 24.001 518.132 24.001H528.398L527.732 18.1343C526.932 11.7343 524.265 8.13434 517.598 4.80101C513.198 2.53434 498.798 0.934338 493.998 2.13434Z"></path>
<path fill="#107FC4" d="M234.532 4.53373C217.065 10.8004 202.132 30.2671 200.398 49.2004C199.465 59.3337 201.598 65.3337 207.998 71.2004C223.732 85.3337 256.132 74.0004 268.932 49.7337C279.198 30.5337 276.665 12.4004 262.665 5.33373C256.532 2.13373 242.132 1.73373 234.532 4.53373ZM251.865 23.4671C255.332 27.8671 255.332 32.6671 251.998 41.7337C249.332 48.8004 243.598 55.4671 237.465 58.6671C233.065 60.9337 225.732 59.2004 223.198 55.2004C218.132 47.4671 225.465 27.3337 235.332 21.6004C236.798 20.8004 240.532 20.0004 243.598 20.0004C247.998 20.0004 249.732 20.6671 251.865 23.4671Z"></path>
<path fill="#107FC4" d="M143.467 10.9333C143.067 14.8 142.133 28.1333 141.333 40.6667C140.533 53.0667 139.733 66.1333 139.333 69.6L138.533 76H151.067H163.6L182 46.9333C192.133 31.0667 202.4 14.8 204.933 10.9333L209.333 4H198.667C189.067 4 188 4.26666 186.533 6.93333C182.533 14.9333 163.333 45.0667 162.667 44.6667C162.267 44.4 162.4 39.2 162.8 33.0667C163.333 26.9333 163.867 18 163.867 12.9333L164 4H154.133H144.133L143.467 10.9333Z"></path>
<path fill="#107FC4" d="M297.465 6.93333C289.865 27.0667 273.465 73.8667 273.332 75.6C273.332 75.8667 285.199 76 299.732 76H326.132L328.665 68.9333C329.999 65.2 331.332 61.2 331.732 60.2667C332.132 59.0667 328.799 58.6667 317.465 58.6667C306.799 58.6667 302.665 58.2667 302.665 57.0667C302.665 56.1333 306.532 44.2667 311.332 30.5333C316.132 16.6667 319.999 5.2 319.999 4.8C319.999 4.4 315.199 4 309.332 4C299.465 4 298.532 4.26666 297.465 6.93333Z"></path>
<path fill="#107FC4" d="M341.466 11.3333C339.866 15.4667 338.666 19.3333 338.666 20C338.666 20.8 342.799 21.3333 347.733 21.3333C352.799 21.3333 357.199 21.6 357.599 22C357.999 22.4 355.333 30.6667 351.866 40.1333C348.266 49.7333 343.866 61.7333 341.999 66.8L338.666 76H349.733H360.799L369.866 50.2667C374.799 36.2667 379.066 23.8667 379.466 22.9333C379.733 21.8667 383.066 21.3333 389.999 21.3333C395.466 21.3333 399.999 21.2 399.999 20.9333C399.999 20.6667 401.466 16.8 403.199 12.2667L406.533 4H375.333H344.133L341.466 11.3333Z"></path>
<path fill="#107FC4" d="M416.666 16.9333C408.666 27.8667 384.399 60.8 375.866 72.2667L373.199 76H383.733H394.399L399.866 67.6C405.733 58.5333 420.266 37.3333 424.933 31.2L427.866 27.3333L427.199 47.3333C426.799 58.2667 426.266 69.3333 425.999 71.6L425.466 76H436.133H446.666V40V4H436.399L425.999 4.13333L416.666 16.9333Z"></path>
<line stroke-width="3" stroke="#1480C1" y2="110.5" x2="503" y1="110.5" x1="139"></line>
<path fill="#0181CC" d="M405.6 183.6C406 208.8 406.133 210.267 409.333 216C414.4 224.934 422.133 229.734 432.8 230.4C437.6 230.8 444.133 230.267 447.6 229.2C471.866 222.4 474.666 188 451.866 177.2C444.666 173.867 434.933 173.067 427.733 175.067L424 176V166.667V157.334H414.533H405.066L405.6 183.6ZM443.466 187.734C447.733 191.2 449.333 195.067 449.333 202.534C449.333 210.8 447.2 215.6 442.533 218.134C438.133 220.4 435.866 220.534 431.6 218.534C421.866 214.134 421.066 194.534 430.4 186.934C433.333 184.667 440.133 184.934 443.466 187.734Z"></path>
<path fill="#0081BF" d="M538.666 193.333V229.333H548.133H557.466L557.199 217.333C557.066 210.667 557.199 204.933 557.599 204.533C557.999 204.267 561.199 207.333 564.666 211.6C579.866 230.133 578.666 229.333 591.333 229.733C597.599 230 602.533 229.733 602.399 229.2C602.133 228.8 596.399 222.533 589.733 215.333C582.933 208.133 577.333 201.6 577.333 200.8C577.333 200 581.866 194.8 587.466 189.333C602.399 174.533 602.399 174.667 588.933 174.667H577.866L568.666 185.867C563.466 192.133 558.799 197.2 557.999 197.2C557.199 197.333 556.799 190.133 557.066 177.333L557.466 157.333H548.133H538.666V193.333Z"></path>
<path fill="#0081C5" d="M91.3318 165.734C78.5318 170 70.2651 177.6 64.2651 190.534C59.5984 200.4 59.1984 213.867 63.4651 219.6C69.7318 227.867 84.9318 229.867 97.8651 224.134C116.932 215.734 129.332 190.267 121.598 175.067C116.932 166.134 103.332 161.867 91.3318 165.734ZM102.398 180.8C106.132 183.334 106.398 192.934 102.798 200.667C95.7318 216.134 78.6651 217.734 78.6651 202.934C78.6651 195.334 84.9318 183.867 90.6651 181.067C96.3984 178.134 98.5318 178.134 102.398 180.8Z"></path>
<path fill="#067CC0" d="M304.399 165.467C297.065 167.201 289.999 173.867 288.132 180.934C285.465 190.667 289.332 196.134 302.665 201.467C309.465 204.134 313.332 207.067 313.332 209.467C313.332 210.001 312.399 211.467 311.199 212.534C307.465 216.401 295.999 214.401 295.999 210.001C295.999 208.401 293.999 208.001 286.665 208.001C277.865 208.001 277.332 208.134 277.332 210.934C277.332 215.467 281.999 222.267 286.799 224.801C297.732 230.401 316.399 227.867 324.932 219.601C336.932 208.134 332.265 194.401 314.399 188.667C306.132 186.001 303.332 183.734 304.399 180.801C306.399 175.734 316.532 175.334 317.999 180.134C318.665 182.267 320.132 182.667 326.665 182.667C330.932 182.667 334.932 182.001 335.332 181.201C335.865 180.401 335.865 177.867 335.465 175.601C333.865 167.067 318.532 162.134 304.399 165.467Z"></path>
<path fill="#0081C5" d="M8.79909 166.934C8.39909 167.867 7.59909 179.734 6.66576 193.334C5.86576 206.934 4.79909 220.001 4.39909 222.401L3.73242 226.801L15.3324 226.401L27.0658 226.001L47.9991 196.001L69.0658 166.001L61.0658 165.601C56.5324 165.334 52.2658 165.467 51.4658 165.734C50.6658 166.134 44.1324 175.067 36.7991 185.867C29.5991 196.667 23.3324 205.067 23.0658 204.801C22.3991 204.267 24.2658 184.134 25.9991 170.267L26.6658 165.334H17.9991C12.1324 165.334 9.06576 165.867 8.79909 166.934Z"></path>
<path fill="#0081C5" d="M133.732 192.268C128.398 207.201 123.732 220.935 123.198 223.068L122.398 226.668H143.198H164.132L165.865 222.268C170.398 211.335 170.932 212.001 157.465 212.001C150.798 212.001 145.332 211.468 145.332 210.801C145.332 209.868 157.198 176.535 160.665 167.601C161.465 165.601 160.665 165.335 152.532 165.335H143.332L133.732 192.268Z"></path>
<path fill="#0B82CF" d="M178.267 171.601C177.067 175.201 176 178.401 176 178.934C176 179.601 179.6 180.001 184 180.001C188.4 180.001 192 180.267 192 180.534C192 180.801 189.2 188.801 185.867 198.134C182.4 207.601 178.933 217.867 177.867 221.067L176.133 226.801L184.933 226.401L193.733 226.001L201.867 203.067L210 180.134L218.533 179.734L227.067 179.334L229.467 172.267L231.867 165.334H206.133H180.533L178.267 171.601Z"></path>
<path fill="#017FCB" d="M242.133 176.267C227.067 197.467 208 225.2 208 226C208 226.4 212 226.667 217.067 226.4L226 226L239.333 206.134C254.667 183.334 254.667 183.467 251.6 209.334C250.533 217.734 250.133 225.2 250.667 225.734C251.2 226.267 255.2 226.667 259.467 226.4L267.333 226L268.8 207.334C269.6 197.067 270.8 183.467 271.2 176.934L272.133 165.334H261.067H249.867L242.133 176.267Z"></path>
<path fill="#007DBE" d="M494.932 174.801C481.332 178.934 473.865 189.068 474.132 203.468C474.132 210.268 474.932 212.801 477.732 217.201C483.465 225.868 490.799 229.734 503.199 230.401C508.932 230.801 516.799 230.268 520.532 229.468L527.599 227.868L526.799 222.934L525.999 218.001L513.865 218.534C498.799 219.068 491.999 216.268 491.999 209.201C491.999 208.534 500.399 208.001 511.199 208.001H530.399L531.065 204.268C532.265 198.001 528.265 185.334 523.465 180.534C517.999 175.201 503.332 172.268 494.932 174.801ZM511.465 188.668C514.532 191.734 515.599 197.201 512.932 196.268C512.399 196.134 507.199 196.001 501.465 196.001C491.465 196.001 490.932 195.868 491.599 193.334C493.599 185.601 505.599 182.801 511.465 188.668Z"></path>
<path fill="#0081C5" d="M621.998 174.801C596.798 180.934 592.532 215.734 615.598 227.334C627.198 233.334 644.398 231.601 653.065 223.601C659.465 217.734 661.732 212.267 661.732 202.801C661.732 190.401 656.665 181.734 646.265 176.934C640.532 174.267 628.532 173.201 621.998 174.801ZM638.665 188.001C646.798 196.134 645.465 214.401 636.398 218.534C632.132 220.534 629.865 220.401 625.465 218.134C620.798 215.601 618.665 210.801 618.665 202.534C618.665 195.334 621.198 188.934 624.932 186.801C628.932 184.534 635.732 185.067 638.665 188.001Z"></path>
<path fill="#017FCB" d="M636.666 240.134C632.4 240.801 584.666 246.667 530.666 253.334C476.8 260.001 426.666 266.134 419.333 267.067L406 268.667L405.6 277.067C405.333 281.601 405.466 285.334 405.866 285.334C406.266 285.334 438.266 281.467 476.933 276.667C568.8 265.334 584.533 263.334 618 259.334C633.466 257.467 648.266 255.601 651.066 255.201L656 254.401V246.534V238.667L650.4 238.801C647.2 238.934 641.066 239.467 636.666 240.134Z"></path>
<circle fill="#007ED0" r="10" cy="198" cx="369"></circle>
</svg>
