<?xml version="1.0" encoding="UTF-8"?>
<svg id="uuid-b6f81626-43f7-402d-87a4-13abf46f2fce" xmlns="http://www.w3.org/2000/svg" width="300" height="70.23" xmlns:xlink="http://www.w3.org/1999/xlink" viewBox="0 0 300 70.23">
    <defs>
        <linearGradient id="uuid-da04f775-fbaf-4ef3-9b67-c43f3d287d3d" x1="37.48" y1="2.74" x2="11.68" y2="54.35" gradientUnits="userSpaceOnUse">
            <stop offset="0" stop-color="#0064c8"/>
            <stop offset=".8" stop-color="#2ec4ff"/>
        </linearGradient>
        <linearGradient id="uuid-0c6aec1e-9772-4025-a93b-efaa9f098ff1" x1="43.1" y1="-9.74" x2="71.44" y2="56.58" gradientUnits="userSpaceOnUse">
            <stop offset=".1" stop-color="#00d649"/>
            <stop offset="1" stop-color="#2ec4ff"/>
        </linearGradient>
        <linearGradient id="uuid-84f12bf2-3a11-4c9c-87da-49e66ef3c0ad" x1="94.04" y1="58.17" x2="118.29" y2="-.22" xlink:href="#uuid-da04f775-fbaf-4ef3-9b67-c43f3d287d3d"/>
    </defs>
    <path d="M28.06,48.08c-5.3,0-8.81-2.68-8.81-9.04,0-9.39,10.51-28.95,20.3-35.84C37.09,1.47,34.14.3,30.87.03h-1.93C12.85.03,0,25.94,0,38.18c0,10.01,7.3,16.64,18.48,16.64s19.65-8.02,21.9-10.73c-.05-.11-.11-.21-.16-.32-2.05,1.28-6.63,4.3-12.16,4.3Z" fill="url(#uuid-da04f775-fbaf-4ef3-9b67-c43f3d287d3d)"/>
    <path d="M79.9,43.19s-13.76-32.1-13.76-32.1C63.52,4.59,57.15,0,49.71,0l-18.84.03c6.84.57,12.3,5.06,14.71,10.44.02.04,13.76,32.1,13.76,32.1,2.62,6.5,8.99,11.09,16.43,11.09h.59c3.22-.49,6.15-1.92,8.55-3.95-2.14-1.74-3.87-3.97-5.01-6.52Z" fill="url(#uuid-0c6aec1e-9772-4025-a93b-efaa9f098ff1)"/>
    <path d="M120,0C112.56,0,106.19,4.59,103.57,11.09c0,0-13.74,32.06-13.76,32.1-2.41,5.38-7.43,9.55-13.46,10.47h17.58c7.44,0,13.8-4.59,16.43-11.09,0,0,13.74-32.06,13.76-32.1,2.41-5.38,7.43-9.13,13.46-10.05V0h-17.58Z" fill="url(#uuid-84f12bf2-3a11-4c9c-87da-49e66ef3c0ad)"/>
    <path d="M159.92,59.27h1.3v1.38h.02c.59-.93,1.58-1.47,2.77-1.47,2.21,0,3.79,1.74,3.79,4.05s-1.65,3.93-3.79,3.93c-1.23,0-2.19-.54-2.77-1.44h-.02v4.51h-1.3v-10.95ZM166.47,63.22c0-1.73-1.2-2.86-2.67-2.86-1.58,0-2.65,1.26-2.65,2.86s1.18,2.75,2.67,2.75c1.57,0,2.65-1.18,2.65-2.75Z" fill="#236192"/>
    <path d="M169.22,63.22c0-2.3,1.58-4.05,3.79-4.05,1.15,0,2.16.54,2.72,1.49l.03-.02v-1.38h1.3v7.79h-1.25v-1.41h-.02c-.56.93-1.52,1.5-2.78,1.5-2.14,0-3.79-1.57-3.79-3.93ZM175.81,63.22c0-1.6-1.07-2.86-2.61-2.86s-2.67,1.14-2.67,2.86c0,1.57,1.07,2.75,2.67,2.75,1.44,0,2.61-1.1,2.61-2.75Z" fill="#236192"/>
    <path d="M179.4,59.27h1.3v1.42h.03c.56-.94,1.46-1.52,2.53-1.52.11,0,.21,0,.32.02v1.44c-.19-.02-.38-.03-.51-.03-1.49,0-2.37,1.14-2.37,2.7v3.76h-1.3v-7.79Z" fill="#236192"/>
    <path d="M185.22,64.74v-4.35h-1.01v-1.12h1.01v-2.65l1.3-.14v2.8h2.57v1.12h-2.57v4.16c0,.94.21,1.39.94,1.39.46,0,.94-.19,1.33-.4l.34,1.14c-.43.26-.96.48-1.89.48-1.38,0-2.01-.85-2.01-2.41Z" fill="#236192"/>
    <path d="M194.67,63.18c0-2.24,1.62-4,4.03-4s4.01,1.63,4.01,4-1.71,3.98-4.01,3.98-4.03-1.74-4.03-3.98ZM201.39,63.18c0-1.66-1.18-2.81-2.69-2.81-1.63,0-2.7,1.26-2.7,2.81s1.09,2.8,2.7,2.8c1.49,0,2.69-1.14,2.69-2.8Z" fill="#236192"/>
    <path d="M204.94,60.39h-.94v-1.12h.94v-1.58c0-1.66.8-2.51,2.19-2.51.78,0,1.38.24,1.81.51l-.29,1.1c-.5-.26-.93-.42-1.36-.42-.64,0-1.06.42-1.06,1.44v1.46h2.21v1.12h-2.21v6.67h-1.3v-6.67Z" fill="#236192"/>
    <path d="M213.77,63.22c0-2.3,1.58-4.05,3.79-4.05,1.15,0,2.16.54,2.72,1.49l.03-.02v-1.38h1.3v7.79h-1.25v-1.41h-.02c-.56.93-1.52,1.5-2.78,1.5-2.14,0-3.79-1.57-3.79-3.93ZM220.36,63.22c0-1.6-1.07-2.86-2.61-2.86s-2.67,1.14-2.67,2.86c0,1.57,1.07,2.75,2.67,2.75,1.44,0,2.61-1.1,2.61-2.75Z" fill="#236192"/>
    <path d="M223.09,59.27h1.41l2.38,6.14h.02l2.38-6.14h1.39l-3.17,7.79h-1.25l-3.17-7.79Z" fill="#236192"/>
    <path d="M231.31,63.22c0-2.3,1.58-4.05,3.79-4.05,1.15,0,2.16.54,2.72,1.49l.03-.02v-1.38h1.3v7.79h-1.25v-1.41h-.02c-.56.93-1.52,1.5-2.78,1.5-2.14,0-3.79-1.57-3.79-3.93ZM237.9,63.22c0-1.6-1.07-2.86-2.61-2.86s-2.67,1.14-2.67,2.86c0,1.57,1.07,2.75,2.67,2.75,1.44,0,2.61-1.1,2.61-2.75Z" fill="#236192"/>
    <path d="M241.49,59.27h1.3v1.41h.02c.61-.94,1.63-1.5,2.83-1.5,1.68,0,2.8,1.04,2.8,3.26v4.62h-1.3v-4.25c0-1.82-.78-2.45-1.92-2.45-1.47,0-2.43,1.06-2.43,2.81v3.89h-1.3v-7.79Z" fill="#236192"/>
    <path d="M250.87,64.74v-4.35h-1.01v-1.12h1.01v-2.65l1.3-.14v2.8h2.57v1.12h-2.57v4.16c0,.94.21,1.39.94,1.39.46,0,.94-.19,1.33-.4l.34,1.14c-.43.26-.96.48-1.89.48-1.38,0-2.01-.85-2.01-2.41Z" fill="#236192"/>
    <path d="M255.61,63.18c0-2.24,1.62-4,4.03-4s4.01,1.63,4.01,4-1.71,3.98-4.01,3.98-4.03-1.74-4.03-3.98ZM262.33,63.18c0-1.66-1.18-2.81-2.69-2.81-1.63,0-2.7,1.26-2.7,2.81s1.09,2.8,2.7,2.8c1.49,0,2.69-1.14,2.69-2.8Z" fill="#236192"/>
    <path d="M265.59,59.27h1.3v1.42h.03c.56-.94,1.46-1.52,2.53-1.52.11,0,.21,0,.32.02v1.44c-.19-.02-.38-.03-.51-.03-1.49,0-2.37,1.14-2.37,2.7v3.76h-1.3v-7.79Z" fill="#236192"/>
    <polygon points="163.62 37.02 151.83 9.61 143.67 9.61 159.95 47.95 167.29 47.95 183.56 9.61 175.4 9.61 163.62 37.02" fill="#236192"/>
    <polygon points="234.03 37.02 222.24 9.61 217.14 9.61 205.36 37.02 193.57 9.61 185.41 9.61 201.69 47.95 209.03 47.95 219.69 22.81 230.36 47.95 237.7 47.95 253.97 9.61 245.82 9.61 234.03 37.02" fill="#236192"/>
    <path d="M276.7,8.82c-3.26,0-6.52,1.63-8.97,4.89l-.3.3-1.86-4.38h-6.8v38.31h8.15v-22.33c.16-4.73,4.16-8.64,8.97-8.64h1.65l3.14-7.39c-1.56-.76-2.38-.76-3.97-.76Z" fill="#236192"/>
    <path d="M288.19,10.74h-2.09v-1.11h5.43v1.11h-2.09v6.22h-1.25v-6.22ZM292.64,9.63h1.27l2.41,4.41,2.41-4.41h1.27v7.34h-1.23v-5.04l-2.04,3.59h-.82l-2.07-3.59v5.04h-1.2v-7.34Z" fill="#236192"/>
</svg>