<?xml version="1.0" encoding="utf-8"?>
<!-- Generator: Adobe Illustrator 25.2.3, SVG Export Plug-In . SVG Version: 6.00 Build 0)  -->
<svg version="1.1" id="Layer_1" xmlns="http://www.w3.org/2000/svg" xmlns:xlink="http://www.w3.org/1999/xlink" x="0px" y="0px"
	 viewBox="0 0 752.4 121" style="enable-background:new 0 0 752.4 121;" xml:space="preserve">
<style type="text/css">
	.st0{fill:#2C2B7C;}
	.st1{fill:#FFFFFF;}
	.st2{fill:#939598;}
</style>
<g>
	<g>
		<g>
			<g>
				<path class="st0" d="M210.8,49.5c2.5,0,1.7,0,4.3,0c1.5,2.2,2.4,3.6,4.1,6.2c0.4-0.5,0.7-0.9,1-1.2c5.2-6.4,14.3-7.8,20.9-3.1
					c3.1,2.2,4.9,5.2,5.9,8.8c1.7,6.3,1.5,12.7-1,18.8c-2.7,6.6-7.8,10.3-14.8,11.5c-3.7,0.7-7.4,0.4-11.1-0.5
					c-0.2,0-0.4-0.1-0.7-0.1c0,0.4,0,0.8,0,1.2c0,5.1,0,10.1,0,15.2c0,0.7-0.1,1.1-1,1.1c-2.2,0.1-4.5,0.3-6.8,0.5
					C211,88.4,212.1,69,210.8,49.5z M219.2,71.8c0,4.2,0,8.3,0,12.5c0,0.9,0.3,1.3,1,1.8c6.2,3.9,13.8,1.9,17-4.7
					c3-6.3,3.4-12.9,1.4-19.5c-0.9-3.1-2.8-5.6-5.9-6.9c-4.3-1.8-9.2-0.7-12.9,2.9c-0.4,0.3-0.6,1-0.6,1.5
					C219.2,63.5,219.2,67.6,219.2,71.8z"/>
				<path class="st0" d="M335.4,62.5c0-1.4-0.1-2.8-0.4-4.2c-0.9-4.6-3.3-7.9-8-9c-5.2-1.3-10-0.5-14.3,2.8
					c-1.6,1.2-3.1,2.8-4.7,4.2c-0.1-0.7-0.2-1.3-0.2-2c-0.1-0.7-0.2-1.4-0.2-2.1c-0.2-2.7-0.2-2.7-2.9-2.7c-1.7,0-3.4,0-5.2,0
					c1.3,12.3,0.5,24.6,0.7,36.9v3.7h0.1c2.6,0,5.1,0,7.8,0l0,0c0-0.5,0-0.9,0-1.3c0-9.3,0-18.5,0-27.8c0-1.3,0.3-2.1,1.4-2.8
					c2.9-2.1,5.8-3.8,9.5-3.9c3.9-0.1,6.8,1.7,7.9,5.4c0.5,1.6,0.7,3.4,0.7,5.1c0.1,8.1,0,16.1,0,24.2c0,0.4,0,0.8,0,1.2l0,0v0.1
					h7.9v-9.5l0,0C335.4,74.5,335.4,68.5,335.4,62.5z"/>
				<path class="st0" d="M290.6,58.9L290.6,58.9v-1.4c0-0.2,0-0.3,0-0.5v-7.5h-0.1c-2.6,0-5.1,0-7.8,0l0,0c0,0.5,0,0.8,0,1.2
					c0,9.3,0,18.6,0,27.9c0,1.2-0.4,2-1.3,2.7c-2.7,2.1-5.6,3.9-9.2,4c-3.9,0.1-6.6-1.6-7.8-5.2c-0.5-1.7-0.7-3.5-0.7-5.2
					c-0.1-8,0-16.1,0-24.1c0-0.4,0-0.8,0-1.2l0,0c-2.7,0-5.2,0-7.8,0h-0.1v9.5l0,0c0,5.9,0,11.8,0,17.6c0,1.5,0.1,3,0.4,4.4
					c0.9,4.7,3.4,8.1,8.2,9.3c5.1,1.3,9.8,0.2,13.9-3c1.5-1.2,2.9-2.7,4.4-4.1c1.8,2.6,2.9,4.2,4.4,6.8c2.7,0,1.5,0,4.1,0
					C290.2,79.6,290.6,69.3,290.6,58.9z"/>
				<path class="st0" d="M151,69.2c-9.1,0-17.8,0-26.6,0C124.2,76.7,128,85,137.3,86c4.1,0.5,8-0.2,11.7-1.8
					c0.2-0.1,0.4-0.2,0.7-0.3c0.3,1,0,1.7-0.8,2.3c-6.1,4.7-16.5,6.6-24.2,1.3c-4.4-3-7-7.2-8.1-12.3c-1.4-6.7-0.6-13.1,3.3-18.9
					c5.2-7.8,16.2-10.2,23.9-5.2c3.8,2.4,5.8,6.1,6.6,10.4C150.7,64.1,151,66.5,151,69.2z M143.1,65.7c0-3.7-0.4-7.1-2.1-10.3
					c-2.5-4.5-8-5.3-11.8-1.9c-2.2,2-3.4,4.6-4.1,7.4c-0.5,1.9-0.8,3.3-0.8,5.9C130.9,66.5,136.8,66.1,143.1,65.7z"/>
				<path class="st0" d="M174.9,82.4c2.3,1.3,4.4,2.7,6.7,3.9c3.1,1.6,6.5,2.1,10,1.3c2.2-0.5,4.2-1.5,5.3-3.6
					c1.2-2.5,0.5-5.4-2-7.1c-1.9-1.3-4-2.3-6-3.2c-2.9-1.3-5.9-2.3-8.6-4.2c-3.7-2.6-5.7-6-5.1-10.5c0.5-4.5,3.3-7.4,7.4-9.1
					c4.3-1.8,8.8-1.5,13.3-0.5c1.6,0.4,3.1,1,4.6,1.5c0.3,0.1,0.6,0.3,0.6,0.7c0,1.7,0,3.3,0,5.2c-1-0.8-1.9-1.5-2.8-2.1
					c-3-2.1-6.2-3.5-10-3.2c-3.4,0.3-6.1,2.5-6.4,5.5s1.3,5.1,3.8,6.3c3.1,1.5,6.2,2.8,9.3,4.3c2.4,1.1,4.7,2.3,6.5,4.4
					c3.7,4.4,3.1,10.9-1.2,14.8c-3.3,3-7.3,4-11.6,4c-4.4,0-8.7-0.9-12.8-2.6c-0.6-0.3-0.9-0.5-0.9-1.3
					C174.9,85.5,174.9,83.9,174.9,82.4z"/>
				<path class="st0" d="M165.9,90c-2.6,0-5.1,0-7.7,0c0-19.6,0-39.1,0-58.8c2.5-0.4,5.1-0.8,7.7-1.2C165.9,50.1,165.9,70,165.9,90z
					"/>
			</g>
			<g>
				<path class="st0" d="M87.7,36.7l0.4-0.5c2-2.2,4.5-4.3,7.5-6.2h-3.8c-3.6,1.8-7.1,4.3-10.4,7.7c-8.4,8.4-12.8,18-14.3,21.1
					c-0.4,0.9-1.4,2.8-2.3,4.8c-0.7,1.5-1.5,2.9-2,4l-0.3,0.6l-0.3-0.6c-1-2.2-3.1-7-3.9-8.7c-5.7-11.7-13.4-21.4-23.1-28.8L22.4,30
					c10.1,7.7,17.5,16,23.4,26.2c5.5,9.5,10.7,21.6,14.5,34.2h1.9c1.5-6.5,4.8-18.9,10.4-30C80.4,44.9,82.8,42.2,87.7,36.7z"/>
				<path class="st0" d="M122.6,36.7l0.4-0.5c2-2.2,4.5-4.3,7.5-6.2h-3.8c-3.6,1.8-7.1,4.3-10.4,7.7c-8.4,8.4-12.8,18-14.3,21.1
					c-0.4,0.9-1.4,2.8-2.3,4.8c-0.7,1.5-1.5,2.9-2,4l-0.3,0.6l-0.3-0.6c-1-2.2-3.1-7-3.9-8.7c-5.7-11.7-13.4-21.4-23.1-28.8L57.3,30
					c10.1,7.7,17.5,16,23.4,26.2c5.5,9.5,10.7,21.6,14.5,34.2h1.9c1.5-6.5,4.8-18.9,10.4-30C115.3,44.9,117.7,42.2,122.6,36.7z"/>
			</g>
		</g>
		<g>
			<circle class="st0" cx="350.4" cy="34.5" r="15"/>
			<g>
				<path class="st1" d="M353.7,30.5L353.7,30.5c-0.8,0.4-1.6,0.9-2.3,1.5c-0.7,0.7-1.4,1.5-2,2.4c-0.4,0.5-0.7,1.1-1,1.7
					c-0.1,0.3-0.2,0.5-0.3,0.8s-0.2,0.5-0.4,0.8c-0.2-0.5-0.4-0.9-0.7-1.3l-0.1-0.1c-0.3-0.5-0.6-1.1-0.9-1.5
					c-0.6-0.9-1.1-1.6-1.6-2.2c-0.4-0.5-0.8-0.9-1.3-1.4c-0.2-0.2-0.5-0.4-0.7-0.6l0,0H339l0.2,0.2c2.6,1.9,4.7,4.5,6.3,7.7
					c0.4,0.9,0.8,1.8,1.2,2.8c0,0,0,0.1,0.1,0.3c0.1,0.5,0.3,0.9,0.3,1v0.1h0.8v-0.1c0-0.2,0.1-0.4,0.1-0.6c0.3-1.3,0.8-3.3,1.8-5.4
					c1-2.2,2.1-3.5,3-4.4l0.1-0.1c0.4-0.4,0.9-0.8,1.6-1.2l0.3-0.2h-1.1V30.5z"/>
				<path class="st1" d="M360.7,30.5L360.7,30.5c-0.8,0.4-1.6,0.9-2.3,1.5c-0.7,0.7-1.4,1.5-2,2.4c-0.4,0.5-0.7,1.1-1,1.7
					c-0.1,0.3-0.2,0.5-0.3,0.8s-0.2,0.5-0.4,0.8c-0.2-0.5-0.4-0.9-0.7-1.3l-0.1-0.1c-0.3-0.5-0.6-1.1-0.9-1.5
					c-0.6-0.9-1.1-1.6-1.6-2.2c-0.4-0.5-0.8-0.9-1.3-1.4c-0.2-0.2-0.5-0.4-0.7-0.6l0,0H346l0.2,0.2c2.6,1.9,4.7,4.5,6.3,7.7
					c0.4,0.9,0.8,1.8,1.2,2.8c0,0,0,0.1,0.1,0.3c0.1,0.5,0.3,0.9,0.3,1v0.1h0.8v-0.1c0-0.2,0.1-0.4,0.1-0.6c0.3-1.3,0.8-3.3,1.8-5.4
					c1-2.2,2.1-3.5,3-4.4l0.1-0.1c0.4-0.4,0.9-0.8,1.6-1.2l0.3-0.2h-1.1V30.5z"/>
			</g>
		</g>
	</g>
	<g>
		<g>
			<g>
				<path class="st2" d="M365.5,90V48.8h25.8v5.3h-19.6v12.6H390V72h-18.3v12.6h19.8v5.3h-26V90z"/>
				<path class="st2" d="M432.9,48.8V90h-5.7l-20.9-30.2h-0.4V90h-6.2V48.8h5.8l21,30.2h0.4V48.8H432.9z"/>
				<path class="st2" d="M439.9,54.1v-5.3h31.9v5.3H459v35.8h-6.3V54.1H439.9z"/>
				<path class="st2" d="M478.8,90V48.8h25.8v5.3H485v12.6h18.3V72H485v12.6h19.8v5.3h-26V90z"/>
				<path class="st2" d="M543.4,90l-9.1-16.7c0.4-0.2,0.8-0.3,1.2-0.5c2.1-1.1,3.7-2.5,4.7-4.5c1.1-1.9,1.6-4.1,1.6-6.6
					s-0.5-4.8-1.6-6.7c-1-1.9-2.6-3.5-4.7-4.6c-2.1-1.1-4.8-1.6-8-1.6h-14.7V90h6.2V74.4h8.4c0.1,0,0.3,0,0.4,0l8.4,15.6L543.4,90
					L543.4,90z M519.1,54.1h7.8c2.1,0,3.7,0.3,5,0.9s2.2,1.5,2.8,2.6s0.9,2.5,0.9,4s-0.3,2.9-0.9,4c-0.6,1.1-1.5,1.9-2.8,2.5
					S529,69,527,69h-7.9L519.1,54.1L519.1,54.1z"/>
				<path class="st2" d="M576.8,55.3c-1-2-2.6-3.6-4.7-4.8c-2.1-1.2-4.8-1.8-8-1.8h-14.7v41.2h6.2V75.4h8.4c3.2,0,5.8-0.6,8-1.8
					s3.7-2.8,4.7-4.8c1.1-2,1.6-4.3,1.6-6.8C578.4,59.6,577.8,57.3,576.8,55.3z M571.2,66.3c-0.6,1.2-1.5,2.2-2.8,2.9
					c-1.3,0.7-2.9,1.1-4.9,1.1h-7.9V54.2h7.8c2.1,0,3.7,0.3,5,1s2.2,1.6,2.8,2.8c0.6,1.2,0.9,2.6,0.9,4.1
					C572.1,63.7,571.8,65.1,571.2,66.3z"/>
				<path class="st2" d="M616.1,90L607,73.3c0.4-0.2,0.8-0.3,1.2-0.5c2.1-1.1,3.7-2.5,4.7-4.5c1.1-1.9,1.6-4.1,1.6-6.6
					s-0.5-4.8-1.6-6.7c-1-1.9-2.6-3.5-4.7-4.6c-2.1-1.1-4.8-1.6-8-1.6h-14.7V90h6.2V74.4h8.4c0.1,0,0.3,0,0.4,0l8.4,15.6L616.1,90
					L616.1,90z M591.8,54.1h7.8c2.1,0,3.7,0.3,5,0.9s2.2,1.5,2.8,2.6s0.9,2.5,0.9,4s-0.3,2.9-0.9,4c-0.6,1.1-1.5,1.9-2.8,2.5
					s-2.9,0.9-4.9,0.9h-7.9L591.8,54.1L591.8,54.1z"/>
				<path class="st2" d="M628.3,48.8V90h-6.2V48.8H628.3z"/>
				<path class="st2" d="M659.9,59.6c-0.2-1.9-1.1-3.4-2.7-4.4c-1.6-1.1-3.5-1.6-5.9-1.6c-1.7,0-3.1,0.3-4.4,0.8
					c-1.2,0.5-2.2,1.3-2.9,2.2c-0.7,0.9-1,2-1,3.1c0,1,0.2,1.8,0.7,2.5s1.1,1.3,1.8,1.8c0.8,0.5,1.6,0.9,2.4,1.2
					c0.9,0.3,1.7,0.6,2.5,0.8l4,1c1.3,0.3,2.7,0.8,4,1.3c1.4,0.5,2.7,1.3,3.8,2.2c1.2,0.9,2.1,2,2.9,3.3c0.7,1.3,1.1,2.9,1.1,4.8
					c0,2.3-0.6,4.4-1.8,6.2c-1.2,1.8-2.9,3.2-5.2,4.3s-5,1.6-8.2,1.6c-3.1,0-5.8-0.5-8-1.5s-4-2.4-5.3-4.2s-2-3.9-2.1-6.4h6.2
					c0.1,1.5,0.6,2.7,1.5,3.7s1.9,1.7,3.3,2.2c1.3,0.5,2.8,0.7,4.4,0.7c1.8,0,3.3-0.3,4.7-0.8s2.5-1.3,3.2-2.3
					c0.8-1,1.2-2.2,1.2-3.5c0-1.2-0.3-2.2-1-3s-1.6-1.4-2.8-1.9s-2.5-1-4-1.3l-4.9-1.3c-3.3-0.9-5.9-2.2-7.8-4
					c-1.9-1.7-2.9-4-2.9-6.9c0-2.4,0.6-4.4,1.9-6.2s3-3.1,5.2-4.1s4.7-1.5,7.4-1.5c2.8,0,5.3,0.5,7.4,1.5s3.8,2.3,5.1,4
					c1.2,1.7,1.9,3.7,1.9,5.9h-5.7V59.6z"/>
				<path class="st2" d="M673.8,90V48.8h25.8v5.3H680v12.6h18.3V72H680v12.6h19.8v5.3h-26V90z"/>
				<path class="st2" d="M730.4,59.6c-0.2-1.9-1.1-3.4-2.7-4.4c-1.6-1.1-3.5-1.6-5.9-1.6c-1.7,0-3.1,0.3-4.4,0.8
					c-1.2,0.5-2.2,1.3-2.9,2.2c-0.7,0.9-1,2-1,3.1c0,1,0.2,1.8,0.7,2.5s1.1,1.3,1.8,1.8c0.8,0.5,1.6,0.9,2.4,1.2
					c0.9,0.3,1.7,0.6,2.5,0.8l4,1c1.3,0.3,2.7,0.8,4,1.3c1.4,0.5,2.7,1.3,3.8,2.2c1.2,0.9,2.1,2,2.9,3.3c0.7,1.3,1.1,2.9,1.1,4.8
					c0,2.3-0.6,4.4-1.8,6.2c-1.2,1.8-2.9,3.2-5.2,4.3s-5,1.6-8.2,1.6c-3.1,0-5.8-0.5-8-1.5s-4-2.4-5.3-4.2s-2-3.9-2.1-6.4h6.2
					c0.1,1.5,0.6,2.7,1.5,3.7s1.9,1.7,3.3,2.2c1.3,0.5,2.8,0.7,4.4,0.7c1.8,0,3.3-0.3,4.7-0.8s2.5-1.3,3.2-2.3
					c0.8-1,1.2-2.2,1.2-3.5c0-1.2-0.3-2.2-1-3s-1.6-1.4-2.8-1.9s-2.5-1-4-1.3l-4.9-1.3c-3.3-0.9-5.9-2.2-7.8-4
					c-1.9-1.7-2.9-4-2.9-6.9c0-2.4,0.6-4.4,1.9-6.2s3-3.1,5.2-4.1s4.7-1.5,7.4-1.5c2.8,0,5.3,0.5,7.4,1.5s3.8,2.3,5.1,4
					c1.2,1.7,1.9,3.7,1.9,5.9h-5.7V59.6z"/>
			</g>
		</g>
	</g>
</g>
</svg>
