<svg width="173" height="34" viewBox="0 0 173 34" fill="none" xmlns="http://www.w3.org/2000/svg">
<path d="M71.3438 11.4802H72.9666C73.5316 12.3296 73.8615 12.8415 74.5023 13.8425C74.6653 13.6415 74.7677 13.5088 74.8738 13.3799C76.838 10.957 80.2846 10.4337 82.7986 12.1969C83.9664 13.0159 84.6603 14.1799 85.0205 15.5298C85.6613 17.9338 85.6006 20.3263 84.6489 22.6393C83.6214 25.1418 81.68 26.5372 79.0372 26.996C77.6229 27.2425 76.2199 27.1628 74.8283 26.8102C74.7563 26.7912 74.6805 26.7837 74.5629 26.7647V27.2349C74.5629 29.1573 74.5591 31.0797 74.5667 33.0021C74.5667 33.2789 74.5174 33.4116 74.2027 33.4268C73.3534 33.4723 72.5078 33.5519 71.6281 33.6239C71.4196 26.2035 71.8632 18.8514 71.3438 11.4802ZM74.5629 19.9206C74.5629 21.498 74.5743 23.0753 74.5553 24.6527C74.5516 24.9788 74.6691 25.157 74.9307 25.3238C77.274 26.8026 80.1747 26.0443 81.3805 23.5455C82.5294 21.1719 82.6583 18.6731 81.9151 16.1554C81.57 14.98 80.8496 14.0472 79.678 13.5467C78.0513 12.8528 76.1972 13.2661 74.8056 14.6387C74.6729 14.7715 74.5743 15.0028 74.5705 15.1923C74.5516 16.7697 74.5591 18.3471 74.5591 19.9244L74.5629 19.9206Z" fill="#2C2A7C"/>
<path d="M118.552 16.3905C118.552 15.8597 118.503 15.3212 118.404 14.798C118.082 13.069 117.149 11.8215 115.386 11.3741C113.426 10.8735 111.583 11.1996 109.96 12.432C109.338 12.9059 108.788 13.4747 108.174 14.0245C108.144 13.7704 108.117 13.5164 108.091 13.2661C108.064 13.0007 108.034 12.7353 108.011 12.4699C107.958 11.7949 107.593 11.4575 106.915 11.4575H104.951C105.452 16.1327 105.148 20.7813 105.228 25.4224V26.8291H108.212V26.3324C108.212 22.8213 108.223 19.3064 108.201 15.7952C108.201 15.3099 108.33 15.0027 108.724 14.7184C109.812 13.9335 110.935 13.2661 112.334 13.2244C113.812 13.1827 114.893 13.8728 115.318 15.2757C115.504 15.8862 115.564 16.5498 115.572 17.1906C115.598 20.2467 115.583 23.299 115.583 26.3552V26.8064V26.8254H118.56V23.2232C118.56 20.9444 118.56 18.6656 118.552 16.3867V16.3905Z" fill="#2C2A7C"/>
<path d="M101.591 15.0327V14.5208C101.591 14.4564 101.591 14.3881 101.591 14.3237V11.4761H98.5992V11.9462C98.5992 15.4726 98.5878 18.9951 98.6106 22.5214C98.6106 22.9802 98.4703 23.2684 98.1177 23.5376C97.0825 24.33 96.0057 25.0012 94.6444 25.0429C93.177 25.0846 92.1495 24.4514 91.7059 23.056C91.5049 22.4266 91.4329 21.7327 91.4253 21.0691C91.3987 18.0282 91.4139 14.9872 91.4139 11.9462V11.4837H88.4336V15.0858C88.4336 17.3115 88.4336 19.5411 88.4412 21.7668C88.4412 22.3242 88.4867 22.8892 88.5891 23.4352C88.9227 25.2173 89.8707 26.5027 91.7021 26.9539C93.6283 27.4279 95.399 27.0411 96.9536 25.8088C97.5375 25.3462 98.0494 24.8002 98.6296 24.2618C99.2931 25.2476 99.714 25.8505 100.294 26.8212H101.864C101.416 22.893 101.576 18.9647 101.587 15.0365L101.591 15.0327Z" fill="#2C2A7C"/>
<path d="M48.6996 18.9574H38.6288C38.5454 21.805 39.99 24.9332 43.5011 25.3313C45.0482 25.5057 46.5194 25.2479 47.9413 24.6488C48.0209 24.6147 48.1043 24.5881 48.1953 24.554C48.3204 24.9484 48.1915 25.1986 47.8806 25.4413C45.5866 27.2234 41.6129 27.9287 38.716 25.9342C37.059 24.7929 36.0769 23.2004 35.6598 21.2628C35.1176 18.7223 35.4172 16.3032 36.8959 14.104C38.879 11.154 43.0348 10.2402 45.9582 12.1247C47.3952 13.0499 48.1498 14.4491 48.4418 16.0833C48.6086 17.0123 48.7034 17.9033 48.7034 18.9612L48.6996 18.9574ZM45.7231 17.6303C45.7041 16.2425 45.5866 14.9306 44.9192 13.74C43.9713 12.0527 41.901 11.7228 40.464 13.0234C39.6298 13.7779 39.1824 14.7562 38.9169 15.8179C38.7387 16.5345 38.6326 17.0616 38.6326 18.0626C41.0972 17.9147 43.3267 17.7744 45.7193 17.6303H45.7231Z" fill="#2C2A7C"/>
<path d="M57.7484 23.9514C58.6167 24.4595 59.4282 24.9865 60.2889 25.4188C61.4795 26.0141 62.7535 26.2264 64.073 25.9269C64.9186 25.7373 65.6732 25.3733 66.0789 24.5505C66.549 23.6025 66.2647 22.4916 65.3167 21.8659C64.6001 21.392 63.819 21.0052 63.0341 20.6526C61.9345 20.1559 60.7818 19.7767 59.777 19.079C58.3779 18.1045 57.6195 16.8078 57.8281 15.0863C58.0328 13.3838 59.0869 12.2918 60.6188 11.6434C62.2644 10.9458 63.9593 11.0709 65.6504 11.4576C66.2419 11.5941 66.8107 11.8254 67.387 12.034C67.4894 12.0795 67.6031 12.1326 67.6031 12.288C67.6221 12.9212 67.6145 13.5545 67.6145 14.2559C67.2202 13.9602 66.8865 13.6986 66.5377 13.4559C65.4077 12.6596 64.1868 12.1439 62.7611 12.2501C61.4605 12.3487 60.4633 13.1829 60.3534 14.3394C60.2472 15.4731 60.8311 16.2542 61.7828 16.7357C62.9393 17.3197 64.1413 17.8126 65.3243 18.3472C66.2343 18.7605 67.114 19.2307 67.77 20.008C69.1653 21.6688 68.9568 24.141 67.3188 25.6046C66.0637 26.7269 64.5432 27.1213 62.909 27.1326C61.233 27.144 59.6253 26.7876 58.0745 26.1506C57.8432 26.0558 57.7409 25.942 57.7484 25.6766C57.7712 25.0965 57.756 24.5126 57.756 23.9476L57.7484 23.9514Z" fill="#2C2A7C"/>
<path d="M54.3607 26.8178H51.4297V4.55278C52.3928 4.4049 53.3635 4.25323 54.3607 4.10156V26.8178Z" fill="#2C2A7C"/>
<path d="M24.7334 6.61536L24.8851 6.44474C25.6283 5.60297 26.5838 4.81808 27.7251 4.10145H26.2805C24.923 4.76879 23.5997 5.74706 22.3447 7.00212C19.1596 10.1948 17.4761 13.8083 16.9263 14.9951C16.7746 15.325 16.3992 16.0719 16.039 16.7962C15.7584 17.3535 15.4816 17.9147 15.292 18.2977L15.1783 18.5328L15.0721 18.2901C14.7081 17.4635 13.9043 15.6511 13.5933 15.0103C11.451 10.5626 8.50485 6.89595 4.83445 4.11661L0 4.09766C3.81069 7.0097 6.63173 10.1682 8.86506 14.013C10.9581 17.619 12.9033 22.2107 14.3479 26.9504H15.0721C15.6371 24.4706 16.8846 19.784 19.0117 15.5714C21.9541 9.74354 22.8831 8.69702 24.7334 6.61157V6.61536Z" fill="#2C2A7C"/>
<path d="M37.9522 6.61536L38.1039 6.44474C38.847 5.60297 39.8026 4.81808 40.9439 4.10145H39.4992C38.1418 4.76879 36.8185 5.74706 35.5634 7.00212C32.3784 10.1948 30.6948 13.8083 30.145 14.9951C29.9934 15.325 29.618 16.0719 29.2578 16.7962C28.9772 17.3535 28.7004 17.9147 28.5108 18.2977L28.397 18.5328L28.2909 18.2901C27.9269 17.4635 27.123 15.6511 26.8121 15.0103C24.6698 10.5626 21.7236 6.89595 18.0532 4.11661L13.2188 4.09766C17.0294 7.0097 19.8505 10.1682 22.0838 14.013C24.1768 17.619 26.122 22.2107 27.5667 26.9504H28.2909C28.8558 24.4706 30.1033 19.784 32.2305 15.5714C35.1729 9.74354 36.1018 8.69702 37.9522 6.61157V6.61536Z" fill="#2C2A7C"/>
<path d="M124.256 11.4765C127.399 11.4765 129.947 8.9284 129.947 5.78514C129.947 2.64187 127.399 0.09375 124.256 0.09375C121.113 0.09375 118.564 2.64187 118.564 5.78514C118.564 8.9284 121.113 11.4765 124.256 11.4765Z" fill="#2C2A7C"/>
<path d="M125.477 4.26855H125.462C125.17 4.40506 124.889 4.59843 124.62 4.84869C124.343 5.10653 124.089 5.40607 123.862 5.74354C123.725 5.9445 123.6 6.16063 123.486 6.38813C123.437 6.48292 123.395 6.58151 123.358 6.68009C123.316 6.77868 123.27 6.88485 123.221 6.98343C123.138 6.8128 123.058 6.65734 122.971 6.4943L122.944 6.44501C122.834 6.24025 122.717 6.0355 122.611 5.87625C122.391 5.54637 122.201 5.28095 122.004 5.04207C121.845 4.8449 121.704 4.70081 121.5 4.50364C121.409 4.41643 121.31 4.34439 121.227 4.28372L121.215 4.27614H119.934L120.021 4.33301C120.999 5.04586 121.818 6.05446 122.391 7.24506C122.546 7.56736 122.694 7.9162 122.838 8.31054C122.842 8.32191 122.853 8.35983 122.872 8.41291C122.925 8.58733 122.982 8.75417 123.005 8.79588L123.016 8.81484H123.312L123.32 8.7883C123.339 8.72004 123.354 8.64042 123.373 8.557C123.486 8.06787 123.657 7.32469 124.036 6.49809C124.408 5.67908 124.844 5.17099 125.181 4.81836L125.215 4.78423C125.371 4.62119 125.568 4.46952 125.807 4.33301L125.917 4.26855H125.481H125.477Z" fill="white"/>
<path d="M128.137 4.26855H128.122C127.83 4.40506 127.549 4.59843 127.28 4.84869C127.003 5.10653 126.749 5.40607 126.522 5.74354C126.385 5.9445 126.26 6.16063 126.146 6.38813C126.097 6.48292 126.055 6.58151 126.018 6.68009C125.976 6.77868 125.93 6.88485 125.881 6.97964C125.798 6.80901 125.714 6.65355 125.627 6.49051L125.6 6.44501C125.491 6.24025 125.373 6.0355 125.267 5.87625C125.047 5.54637 124.857 5.28095 124.66 5.04207C124.501 4.8449 124.361 4.70081 124.156 4.50364C124.065 4.41643 123.966 4.34439 123.883 4.28372L123.871 4.27614H122.59L122.677 4.33301C123.655 5.04586 124.474 6.05446 125.047 7.24506C125.202 7.56736 125.35 7.9162 125.494 8.31054C125.498 8.32191 125.509 8.35983 125.528 8.41291C125.582 8.58733 125.638 8.75417 125.661 8.79588L125.673 8.81484H125.968L125.976 8.7883C125.995 8.72004 126.01 8.64042 126.029 8.557C126.143 8.06787 126.313 7.32469 126.692 6.49809C127.064 5.67908 127.5 5.17099 127.838 4.81836L127.872 4.78423C128.027 4.62119 128.224 4.46952 128.463 4.33301L128.573 4.26855H128.137Z" fill="white"/>
<path d="M143.812 18.9878C143.812 20.6296 143.512 22.0439 142.909 23.2231C142.306 24.4024 141.484 25.3086 140.441 25.9418C139.398 26.575 138.211 26.8935 136.884 26.8935C135.557 26.8935 134.363 26.575 133.32 25.9418C132.277 25.3086 131.455 24.3986 130.852 23.2194C130.249 22.0363 129.949 20.6258 129.949 18.9878C129.949 17.3498 130.249 15.9317 130.852 14.7524C131.455 13.5732 132.277 12.667 133.32 12.0338C134.363 11.4005 135.553 11.082 136.884 11.082C138.215 11.082 139.398 11.4005 140.441 12.0338C141.484 12.667 142.306 13.5732 142.909 14.7524C143.512 15.9317 143.812 17.3422 143.812 18.9878ZM141.514 18.9878C141.514 17.7365 141.313 16.6786 140.907 15.8217C140.505 14.961 139.952 14.3126 139.254 13.869C138.556 13.4253 137.764 13.2054 136.884 13.2054C136.005 13.2054 135.205 13.4253 134.511 13.869C133.813 14.3126 133.263 14.9648 132.861 15.8217C132.459 16.6824 132.255 17.7365 132.255 18.9878C132.255 20.2391 132.456 21.2969 132.861 22.1539C133.263 23.0146 133.813 23.663 134.511 24.1066C135.208 24.5503 135.997 24.7702 136.884 24.7702C137.772 24.7702 138.556 24.5503 139.254 24.1066C139.952 23.663 140.505 23.0108 140.907 22.1539C141.309 21.2932 141.514 20.2391 141.514 18.9878Z" fill="#808080"/>
<path d="M159.119 11.2905V26.6812H156.984L149.162 15.3932H149.018V26.6812H146.697V11.2905H148.847L156.677 22.5937H156.821V11.2905H159.119Z" fill="#808080"/>
<path d="M163.262 26.6812V11.2905H172.912V13.2888H165.586V17.9791H172.407V19.9698H165.586V24.6829H173.003V26.6812H163.266H163.262Z" fill="#808080"/>
</svg>
