<?xml version="1.0" encoding="UTF-8"?> <svg xmlns="http://www.w3.org/2000/svg" width="220" height="44" viewBox="0 0 220 44" fill="none"><g clip-path="url(#clip0_1019_3547)"><path d="M107.862 8.40002L99.0236 25.6889V35.6966H93.5963V25.6889L84.72 8.40002H90.7279L96.3092 18.6755L101.853 8.40002H107.862Z" fill="#1D2E61"></path><mask id="mask0_1019_3547" style="mask-type:luminance" maskUnits="userSpaceOnUse" x="0" y="0" width="220" height="44"><path d="M220 0.285538H0V43.7739H220V0.285538Z" fill="white"></path></mask><g mask="url(#mask0_1019_3547)"><path d="M138.718 22.0216C138.718 24.8174 137.892 27.5504 136.346 29.8749C134.8 32.1995 132.602 34.0112 130.031 35.0811C127.459 36.1509 124.63 36.4307 121.9 35.8852C119.171 35.3397 116.663 33.9933 114.695 32.0163C112.728 30.0393 111.388 27.5205 110.845 24.7784C110.302 22.0363 110.581 19.1941 111.646 16.6113C112.711 14.0284 114.515 11.8209 116.829 10.2679C119.144 8.71484 121.864 7.88607 124.648 7.88635C128.377 7.89286 131.953 9.38424 134.59 12.0338C137.227 14.6833 138.712 18.2749 138.718 22.0216ZM116.157 22.0216C116.157 23.7081 116.655 25.3567 117.588 26.7589C118.521 28.1612 119.846 29.2541 121.397 29.8996C122.948 30.545 124.655 30.714 126.302 30.3851C127.948 30.0562 129.461 29.2442 130.648 28.0518C131.835 26.8594 132.644 25.3401 132.972 23.6861C133.299 22.0321 133.131 20.3176 132.489 18.7594C131.847 17.2013 130.759 15.8694 129.363 14.9322C127.967 13.9951 126.326 13.4947 124.648 13.4944C123.533 13.4941 122.429 13.7144 121.398 14.1427C120.368 14.5711 119.432 15.1992 118.644 15.9911C117.855 16.7829 117.23 17.7231 116.803 18.7579C116.377 19.7926 116.157 20.9016 116.157 22.0216Z" fill="#1D2E61"></path><path d="M163.677 8.39788V13.8497H156.156V35.6944H150.729V13.8497H143.169V8.39788H163.677Z" fill="#1D2E61"></path><path d="M190.378 8.39788V13.8497H182.855V35.6944H177.427V13.8497H169.868V8.39788H190.378Z" fill="#1D2E61"></path><path d="M207.165 8.39788L219.996 35.6944H213.988L206.236 19.1061L197.825 35.6944H191.738L205.576 8.39788H207.165Z" fill="#1D2E61"></path><mask id="mask1_1019_3547" style="mask-type:luminance" maskUnits="userSpaceOnUse" x="0" y="0" width="220" height="44"><path d="M220 0.285912H0V43.7743H220V0.285912Z" fill="white"></path></mask><g mask="url(#mask1_1019_3547)"><path d="M21.6469 43.7748L0 22.0313L21.6469 0.284935V11.1581L10.8242 22.0313L21.6469 32.903V43.7748Z" fill="#1D2E61"></path><path d="M21.6447 0.284935V11.1581L31.5352 21.0949L36.9466 15.6591L21.6447 0.284935Z" fill="#F09C42"></path><path d="M54.1142 0.286888V11.1586L21.6447 43.7753V32.9035L54.1142 0.286888Z" fill="#F09C42"></path><path d="M75.7707 22.0318L54.1253 43.7753L38.8219 28.3968L44.2333 22.9609L54.1296 32.9035L64.9523 22.0318L54.1296 11.1601V0.286888L75.7707 22.0318Z" fill="#1D2E61"></path></g></g></g><defs><clipPath id="clip0_1019_3547"><rect width="220" height="43.4304" fill="white" transform="translate(0 0.28479)"></rect></clipPath></defs></svg> 