<?xml version="1.0" encoding="UTF-8"?>
<svg id="Layer_1" data-name="Layer 1" xmlns="http://www.w3.org/2000/svg" viewBox="0 0 245 61">
  <defs>
    <style>
      .cls-1, .cls-2 {
        fill: #005baa;
      }
      .cls-2 {
        stroke: #005baa;
        stroke-linecap: round;
        stroke-linejoin: round;
        stroke-width: 1.47px;
      }
    </style>
  </defs>
  <path class="cls-1" d="M128.14,23.24v25.12c0,1.73,1.5,3.16,3.08,3.16,1.73,0,3.08-1.43,3.08-3.16v-25.12c0-1.73-1.43-3.16-3.08-3.16s-3.08,1.43-3.08,3.16ZM15.62,41.37c0-2.78,2.56-4.44,6.17-4.44,2.63,0,4.51.38,7.07.98v6.54c-.6.45-2.78,1.81-6.77,1.81-4.21.08-6.47-1.73-6.47-4.89ZM13.74,21.29c-1.58.68-2.03,1.88-2.03,2.86,0,1.81,1.73,3.16,4.29,2.33,1.65-.6,3.99-1.28,6.39-1.28,4.59,0,6.47,1.73,6.47,5.72v1.96c-2.71-.68-4.66-.98-7.45-.98-7.9,0-11.66,4.29-11.88,9.18v1.05c.23,5.49,4.21,9.63,12.03,9.63,6.09,0,10.53-2.18,12.18-3.31.9-.6,1.13-1.2,1.13-2.26v-15.27c0-7.9-4.66-11.36-12.11-11.36-3.61,0-7.3.98-9.03,1.73ZM74.44,41.37c0-2.78,2.56-4.44,6.17-4.44,2.63,0,4.51.38,7.07.98v6.54c-.6.45-2.78,1.81-6.77,1.81-4.21.08-6.47-1.73-6.47-4.89ZM72.56,21.29c-1.58.68-2.03,1.88-2.03,2.86,0,1.81,1.73,3.16,4.29,2.33,1.65-.6,3.99-1.28,6.39-1.28,4.59,0,6.54,1.73,6.54,5.72v1.96c-2.71-.68-4.74-.98-7.45-.98-8.2,0-11.88,4.66-11.88,9.7,0,5.72,3.99,10.15,12.03,10.15,6.09,0,10.53-2.18,12.18-3.31.9-.6,1.13-1.2,1.13-2.26v-15.27c0-7.9-4.66-11.36-12.11-11.36-3.76,0-7.45.98-9.1,1.73ZM99.03,22.79c-.9.6-1.28,1.2-1.28,2.41v23.02c0,1.73,1.5,3.16,3.08,3.16,1.73,0,3.08-1.43,3.08-3.16v-21.06c1.35-.83,4.06-1.65,7-1.65,3.61,0,6.84,2.03,6.84,6.69v16.02c0,1.73,1.43,3.16,3.08,3.16,1.81,0,3.08-1.43,3.08-3.16v-16.25c0-7.9-4.36-12.34-12.86-12.34-6.09-.08-10.38,1.88-12.03,3.16ZM44.73,38.89c-.15-1.81-.15-5.27,0-6.84.23-4.29,2.33-6.47,6.84-6.47,3.08,0,6.02,1.05,7.22,1.81v16.25c-1.13.9-4.21,2.11-6.77,2.11-4.51,0-6.92-2.33-7.3-6.84ZM58.72,12.49v8.8c-1.96-.9-4.89-1.65-7.67-1.65-7.52,0-11.88,4.51-12.56,11.81-.15,2.11-.15,6.24,0,8.35.68,7.22,5.42,12.11,13.39,12.11,5.72,0,10.46-2.56,11.96-3.69.9-.6,1.13-1.28,1.13-2.33V12.49c0-1.73-1.35-3.16-3.08-3.16s-3.16,1.43-3.16,3.16ZM127.69,12.49c0,1.96,1.5,3.61,3.54,3.61s3.46-1.65,3.46-3.61-1.5-3.46-3.46-3.46-3.54,1.5-3.54,3.46Z"/>
  <path class="cls-2" d="M155.74,9.78v42.12"/>
  <path class="cls-1" d="M176.81,32.64c0-.45.15-.83.45-1.13.3-.3.68-.45,1.13-.45s.83.15,1.13.45c.3.3.45.68.45,1.13v17.6c0,.45-.15.83-.45,1.13-.3.3-.68.45-1.13.45s-.83-.15-1.13-.45c-.3-.3-.45-.68-.45-1.13v-17.6Z"/>
  <path class="cls-1" d="M197.26,50.24c0,.45-.15.83-.45,1.13-.3.3-.68.45-1.13.45-.38,0-.75-.15-1.05-.45-.3-.3-.45-.68-.45-1.13v-7.97c0-.6-.08-1.13-.3-1.5-.15-.45-.45-.75-.75-1.05-.3-.3-.68-.45-1.05-.6-.38-.15-.83-.23-1.28-.23-.75,0-1.43.08-2.03.23-.6.15-1.13.38-1.43.6v10.53c0,.45-.15.83-.45,1.13-.3.3-.68.45-1.13.45-.38,0-.75-.15-1.05-.45-.3-.3-.45-.68-.45-1.13v-11.51c0-.3.07-.53.15-.75.07-.15.23-.3.45-.45.23-.15.53-.3.9-.53.38-.15.83-.38,1.35-.53.53-.15,1.13-.3,1.73-.38.68-.08,1.35-.15,2.11-.15,2.11,0,3.76.53,4.81,1.58,1.05,1.05,1.58,2.63,1.58,4.59v8.12h-.07Z"/>
  <path class="cls-1" d="M201.78,35.58c0-1.58.45-2.86,1.28-3.76.83-.9,2.03-1.35,3.61-1.35.53,0,1.05,0,1.5.08.53.08.9.15,1.2.23.83.23,1.2.75,1.2,1.5,0,.3-.15.68-.38.9-.23.3-.6.45-1.13.45-.3,0-.68-.08-1.05-.15-.38-.08-.75-.15-1.28-.15-1.35,0-2.03.75-2.03,2.33v.9h3.76c.38,0,.75.15,1.05.38.3.3.45.6.45.98s-.15.75-.45.98c-.3.3-.6.38-1.05.38h-3.76v10.76c0,.45-.15.83-.45,1.13-.3.3-.68.45-1.13.45s-.83-.15-1.13-.45c-.3-.3-.45-.68-.45-1.13v-10.61h-.9c-.38,0-.75-.15-.98-.38-.3-.23-.45-.6-.45-.98s.15-.75.45-.98c.3-.3.6-.38.98-.38h.9v-1.13h.23Z"/>
  <path class="cls-1" d="M219.98,36.25c.45.15.75.3.9.6.15.23.3.53.3.9,0,.3-.15.68-.38.98-.23.3-.6.45-1.13.45-.3,0-.6-.08-.9-.15-.38-.08-.75-.15-1.28-.15-.68,0-1.2.23-1.51.6-.3.38-.53.98-.53,1.81v9.03c0,.45-.15.83-.45,1.13-.3.3-.68.45-1.13.45-.38,0-.75-.15-1.05-.45-.3-.3-.45-.68-.45-1.13v-9.55c0-1.5.45-2.63,1.28-3.54.83-.9,2.03-1.28,3.68-1.28.53,0,.98,0,1.5.08.45,0,.83.08,1.13.23Z"/>
  <path class="cls-1" d="M235.32,49.19c0,.3-.08.53-.15.68-.07.15-.23.3-.45.45-.23.15-.53.3-.9.45-.38.15-.83.38-1.35.53-.53.15-1.13.3-1.73.45-.68.15-1.35.15-2.11.15-.98,0-1.88-.15-2.63-.38-.75-.23-1.35-.6-1.88-1.05-.53-.45-.9-.98-1.13-1.58-.23-.6-.38-1.28-.38-2.03,0-.68.15-1.28.38-1.88.23-.6.6-1.13,1.05-1.58.53-.45,1.13-.83,1.88-1.05.75-.3,1.65-.38,2.71-.38.68,0,1.28.08,1.88.15.53.08,1.2.23,1.88.38v-.98c0-.98-.23-1.73-.75-2.18-.53-.45-1.35-.68-2.48-.68-.6,0-1.2.08-1.73.23-.53.15-1.05.3-1.43.45-.68.23-1.13.15-1.58-.08-.38-.3-.6-.6-.6-1.05,0-.23.08-.53.23-.75.15-.3.45-.45.83-.68.45-.23,1.05-.45,1.88-.6.83-.15,1.73-.3,2.63-.3,1.88,0,3.38.45,4.44,1.35s1.65,2.33,1.65,4.36v7.6h-.15ZM228.85,49.27c1.05,0,1.81-.15,2.33-.38.53-.23.9-.45,1.05-.53v-3.23c-.68-.15-1.2-.3-1.73-.38-.53-.08-1.13-.15-1.8-.15-.9,0-1.65.23-2.18.6-.6.38-.9.9-.9,1.65,0,.83.3,1.43.83,1.81.6.38,1.35.6,2.41.6Z"/>
</svg>
