<?xml version="1.0" encoding="UTF-8" standalone="no"?>
<svg
   xmlns:dc="http://purl.org/dc/elements/1.1/"
   xmlns:cc="http://creativecommons.org/ns#"
   xmlns:rdf="http://www.w3.org/1999/02/22-rdf-syntax-ns#"
   xmlns:svg="http://www.w3.org/2000/svg"
   xmlns="http://www.w3.org/2000/svg"
   xmlns:sodipodi="http://sodipodi.sourceforge.net/DTD/sodipodi-0.dtd"
   xmlns:inkscape="http://www.inkscape.org/namespaces/inkscape"
   id="svg"
   version="1.1"
   width="374.30948"
   height="50"
   viewBox="0 0 374.30948 50.000001"
   sodipodi:docname="walltopia-logo.svg"
   inkscape:version="1.0.1 (3bc2e813f5, 2020-09-07)">
  <metadata
     id="metadata11">
    <rdf:RDF>
      <cc:Work
         rdf:about="">
        <dc:format>image/svg+xml</dc:format>
        <dc:type
           rdf:resource="http://purl.org/dc/dcmitype/StillImage" />
        <dc:title></dc:title>
      </cc:Work>
    </rdf:RDF>
  </metadata>
  <defs
     id="defs9" />
  <sodipodi:namedview
     pagecolor="#ffffff"
     bordercolor="#666666"
     borderopacity="1"
     objecttolerance="10"
     gridtolerance="10"
     guidetolerance="10"
     inkscape:pageopacity="0"
     inkscape:pageshadow="2"
     inkscape:window-width="1200"
     inkscape:window-height="682"
     id="namedview7"
     showgrid="false"
     fit-margin-top="0"
     fit-margin-left="0"
     fit-margin-right="0"
     fit-margin-bottom="0"
     inkscape:zoom="1.8685297"
     inkscape:cx="207.72598"
     inkscape:cy="44.342846"
     inkscape:window-x="0"
     inkscape:window-y="27"
     inkscape:window-maximized="1"
     inkscape:current-layer="svg" />
  <path
     id="path1"
     d="m 99.347076,2.7735486 c -0.225506,0.4201336 -0.225506,43.8903854 0,44.3105194 0.180592,0.338727 31.902074,0.483762 32.431684,0.149713 0.42482,-0.268548 0.42856,-18.133112 0.004,-18.557925 -0.30411,-0.305041 -0.50248,-0.316269 -5.74245,-0.316269 -4.01326,0 -5.47577,-0.04866 -5.61426,-0.187142 -0.14223,-0.142228 -0.18714,-3.162698 -0.18714,-12.64237 0,-8.2866425 -0.0543,-12.5553488 -0.16188,-12.7565264 -0.25264,-0.4725332 -20.477063,-0.4725332 -20.729704,0 M 134.74216,2.6247708 c -0.20586,0.1300636 -0.23393,2.779057 -0.23393,22.3045052 0,19.524513 0.0281,22.173506 0.23393,22.304505 0.52961,0.334049 32.25109,0.189014 32.43262,-0.149713 0.29475,-0.552069 0.21521,-18.179898 -0.0842,-18.479325 -0.21335,-0.213342 -0.94694,-0.245156 -5.6807,-0.245156 -4.73375,0 -5.46735,-0.03088 -5.68069,-0.245156 -0.21895,-0.21802 -0.24515,-1.58977 -0.24515,-12.756527 0,-9.5236499 -0.0449,-12.5562841 -0.18715,-12.6985119 -0.23579,-0.2357988 -20.18418,-0.2685486 -20.55472,-0.034621 m 93.66732,14.3678179 c -5.9979,1.408242 -8.165,9.201766 -3.78401,13.608957 5.14921,5.181024 13.82417,1.621585 13.82417,-5.67227 0,-5.363486 -4.80861,-9.164338 -10.04016,-7.936687"
     stroke="none"
     fill="#ec1c24"
     fill-rule="evenodd"
     sodipodi:nodetypes="ccccssscccsccsscsscccsc"
     style="stroke-width:0.935709" />
  <path
     id="path2"
     d="m 226.89176,0.04595573 c -0.044,0.04397834 -0.91045,0.29568418 -1.92476,0.55955423 C 218.24393,2.350608 213.25566,5.7631402 209.73365,11.02557 c -9.68646,14.474489 -1.99774,34.040173 14.96948,38.095537 4.71972,1.12753 5.98293,1.149987 10.54825,0.183399 14.8207,-3.136498 23.4704,-17.941292 18.79841,-32.176239 -3.34891,-10.2057828 -12.6639,-16.97283327 -23.56117,-17.11599681 -1.93411,-0.02526415 -3.55195,-0.0102928 -3.59686,0.03368554 M 0,2.7295703 C 0,2.8717981 0.16749199,3.3452671 0.37147664,3.7822434 0.57546129,4.2192197 1.3062503,6.3666728 1.9958682,8.5543614 2.685486,10.741114 3.7503233,14.109668 4.363213,16.040037 c 0.6128897,1.929432 2.8323924,8.947253 4.9330601,15.594533 4.9377389,15.628218 4.8656889,15.412069 5.2100299,15.59734 0.576397,0.307848 12.855712,0.19837 13.223446,-0.118835 0.22457,-0.193692 0.866466,-2.078211 2.216695,-6.510666 2.02394,-6.643537 2.073532,-6.783894 2.405709,-6.783894 0.284456,0 0.395805,0.320949 2.508637,7.251748 1.076066,3.527625 1.909783,6.004448 2.061368,6.120476 0.411712,0.31627 12.793955,0.278841 13.248709,-0.04024 0.354634,-0.247963 0.289135,-0.05614 3.843895,-11.305241 0.989045,-3.130884 3.210419,-10.147769 4.934931,-15.594533 1.725448,-5.446765 3.558503,-11.2369343 4.073143,-12.8660044 0.514641,-1.6300058 1.036766,-3.2740472 1.16028,-3.6539452 0.435105,-1.3361931 0.931967,-1.2585292 -8.094822,-1.2585292 -6.813836,0 -7.874931,0.030878 -8.174358,0.241413 -0.266677,0.1862062 -0.784124,1.5832204 -2.299038,6.2121748 -2.07166,6.327267 -2.237281,6.724943 -2.6387,6.330074 C 42.843327,15.125848 41.819661,12.31872 40.701488,9.0184733 39.27266,4.8021666 38.569006,2.9354264 38.336015,2.7398631 37.94021,2.4076862 26.533912,2.3871006 26.202671,2.7183418 c -0.0917,0.092635 -1.104137,2.9222205 -2.249446,6.288903 -1.144372,3.3657462 -2.15681,6.1962672 -2.250381,6.2889032 C 21.326689,15.672303 20.979541,14.841393 19.088472,9.0409303 17.762572,4.9771443 17.02149,2.9288764 16.81002,2.7445416 16.340294,2.3356366 0,2.321601 0,2.7295703 m 67.852033,0.014971 c -0.222699,0.1824634 -0.56049,0.9993377 -1.016181,2.4562373 -0.376155,1.2014508 -1.3652,4.3239132 -2.199853,6.9401564 -0.833717,2.616244 -1.746033,5.49355 -2.027682,6.393703 -0.281648,0.901088 -2.422552,7.667203 -4.758082,15.035914 -4.013258,12.664827 -4.230343,13.409652 -3.960858,13.607087 0.320012,0.233927 14.21249,0.295684 14.807601,0.06643 0.184335,-0.07205 0.692425,-0.84401 1.247301,-1.896683 1.214551,-2.305588 0.861788,-2.170846 5.614256,-2.154003 5.112717,0.01684 4.660769,-0.17217 4.756211,1.989318 0.06737,1.5093 0.121643,1.79282 0.380834,1.981833 0.450076,0.32937 14.85158,0.32937 15.301656,0 0.476276,-0.348084 0.476276,-44.1233778 0,-44.4714617 C 95.483532,2.3169224 68.313337,2.3674507 67.852033,2.7445416 m 92.552887,0.073921 c -0.29662,0.4238763 -0.37428,17.6755504 -0.0814,18.2220054 0.15532,0.289134 0.3827,0.301298 5.61425,0.301298 5.24465,0 5.46455,0.01216 5.76491,0.312527 0.30691,0.305977 0.31159,0.519319 0.31159,12.86039 0,12.246565 0.007,12.552542 0.30223,12.709741 0.4716,0.252642 19.98863,0.220828 20.33016,-0.03368 0.24235,-0.178721 0.26574,-1.194901 0.30317,-12.779919 0.0318,-10.070105 0.0805,-12.625528 0.24235,-12.788341 0.15626,-0.155328 1.49526,-0.220828 5.77052,-0.280713 l 5.56747,-0.07766 0.0412,-9.20083 c 0.0374,-8.5121489 0.0206,-9.2158024 -0.22457,-9.3963943 -0.2096,-0.1534564 -4.85446,-0.1946276 -21.98262,-0.1946276 h -21.71594 l -0.24329,0.3462125 m 97.01248,-0.109478 c -0.43136,0.431362 -0.38364,44.2843194 0.0487,44.5154394 0.41639,0.223635 19.87728,0.223635 20.29367,0 0.29007,-0.155328 0.30223,-0.386448 0.30223,-5.914619 0,-5.022888 0.0309,-5.784556 0.24516,-5.998833 0.20959,-0.209599 0.81126,-0.245156 4.1873,-0.245156 7.45666,0 11.13307,-0.596047 14.67098,-2.378573 5.96702,-3.005499 9.01931,-9.108196 8.21179,-16.413279 C 304.50324,8.3690909 299.8041,4.247291 290.06992,2.8446625 287.19542,2.431079 257.81789,2.308501 257.4174,2.7089847 m 49.37552,0.00468 -0.34809,0.2442202 0.003,21.9405141 c 9.4e-4,13.552815 0.059,22.031279 0.14971,22.175377 0.12913,0.203986 1.44848,0.233928 10.32462,0.233928 h 10.17678 l 0.19743,-0.389255 c 0.28914,-0.571718 0.29007,-43.4066241 0,-43.9783426 l -0.1965,-0.3901908 -9.97934,-0.040236 c -8.84264,-0.035558 -10.01883,-0.012165 -10.32761,0.2039836 m 24.95069,9.357e-4 -0.34621,0.2432845 0.002,21.9405146 c 0.002,13.548136 0.0589,22.031278 0.15065,22.175377 0.1862,0.294749 14.90678,0.442591 15.44482,0.155328 0.2779,-0.148778 0.30972,-0.32937 0.30972,-1.768491 0,-2.38138 -0.37522,-2.199853 4.62614,-2.247574 5.07155,-0.04959 4.68884,-0.184335 5.8407,2.054818 1.20894,2.348631 0.23299,2.118446 8.97907,2.118446 8.48314,0 7.85622,0.102928 7.23116,-1.192094 -0.16655,-0.344341 -0.72049,-1.953761 -1.23139,-3.577217 -0.5109,-1.62252 -1.38672,-4.389413 -1.94628,-6.147611 -1.58415,-4.977038 -3.72412,-11.737539 -6.88682,-21.755244 C 360.15643,2.8025556 360.25842,3.1057255 359.91688,2.7641915 359.5033,2.350608 332.33217,2.3028868 331.74361,2.7145989 m -99.13186,8.4981131 c 11.72631,2.077275 15.74237,16.596678 6.71558,24.276045 -8.92947,7.59796 -22.73586,1.191158 -22.75551,-10.559481 -0.015,-8.513084 7.78136,-15.179078 16.03993,-13.716564 m 50.94189,4.052557 c 2.53203,0.710204 3.32364,5.446765 1.20894,7.226484 -1.30345,1.097587 -6.33195,1.381107 -6.60237,0.372412 -0.15439,-0.575461 -0.11135,-6.926121 0.0496,-7.349997 0.21428,-0.563297 3.65208,-0.724239 5.34384,-0.248899 M 79.612029,18.262346 c 0.18527,1.5224 0.02339,8.812512 -0.200242,9.036146 -0.267613,0.267613 -2.537644,0.370541 -2.976492,0.135678 -0.447269,-0.239542 -0.425748,-0.450076 0.278842,-2.679872 0.334983,-1.06203 0.93758,-2.983041 1.339935,-4.269642 1.004952,-3.217904 1.373622,-3.743773 1.557957,-2.22231 M 348.67246,17.638228 c 0.14036,0.172171 0.99279,2.765022 2.51987,7.669075 0.6709,2.154003 0.60073,2.266288 -1.43164,2.270966 -1.7479,0.0037 -1.67679,0.221763 -1.67679,-5.13143 0,-4.988267 0.058,-5.458929 0.58856,-4.808611"
     stroke="none"
     fill="#040404"
     fill-rule="evenodd"
     style="stroke-width:0.935709" />
</svg>
